<svg id="visual" viewBox="0 0 675 900" width="675" height="900" xmlns="http://www.w3.org/2000/svg" xmlns:xlink="http://www.w3.org/1999/xlink" version="1.1"><rect x="0" y="0" width="675" height="900" fill="#002119"></rect><g transform="translate(291.92918890969383 451.92630339908385)"><path d="M151.4 -262.3C211.2 -227.8 284.9 -217.4 328.4 -177.7C372 -138 385.5 -69 373.4 -7C361.3 55 323.5 110 279 148.1C234.5 186.1 183.2 207.2 135.5 250C87.9 292.9 43.9 357.4 -0.9 359C-45.8 360.6 -91.7 299.4 -138.9 256.3C-186.1 213.3 -234.6 188.4 -260.7 148.7C-286.8 109 -290.4 54.5 -283.3 4.1C-276.3 -46.3 -258.5 -92.7 -236.3 -139.1C-214.2 -185.6 -187.6 -232.2 -147.5 -278.1C-107.3 -323.9 -53.7 -369 -3.9 -362.2C45.8 -355.4 91.7 -296.8 151.4 -262.3" fill="#00ffa2"></path></g></svg>