<svg id="visual" viewBox="0 0 675 900" width="675" height="900" xmlns="http://www.w3.org/2000/svg" xmlns:xlink="http://www.w3.org/1999/xlink" version="1.1"><rect x="0" y="0" width="675" height="900" fill="#211c30"></rect><defs><linearGradient id="grad1_0" x1="0%" y1="0%" x2="100%" y2="100%"><stop offset="30%" stop-color="#03ff0a" stop-opacity="1"></stop><stop offset="70%" stop-color="#03ff0a" stop-opacity="1"></stop></linearGradient></defs><defs><linearGradient id="grad1_1" x1="0%" y1="0%" x2="100%" y2="100%"><stop offset="30%" stop-color="#03ff0a" stop-opacity="1"></stop><stop offset="70%" stop-color="#00e377" stop-opacity="1"></stop></linearGradient></defs><defs><linearGradient id="grad1_2" x1="0%" y1="0%" x2="100%" y2="100%"><stop offset="30%" stop-color="#00c3a9" stop-opacity="1"></stop><stop offset="70%" stop-color="#00e377" stop-opacity="1"></stop></linearGradient></defs><defs><linearGradient id="grad1_3" x1="0%" y1="0%" x2="100%" y2="100%"><stop offset="30%" stop-color="#00c3a9" stop-opacity="1"></stop><stop offset="70%" stop-color="#00a0be" stop-opacity="1"></stop></linearGradient></defs><defs><linearGradient id="grad1_4" x1="0%" y1="0%" x2="100%" y2="100%"><stop offset="30%" stop-color="#007cb6" stop-opacity="1"></stop><stop offset="70%" stop-color="#00a0be" stop-opacity="1"></stop></linearGradient></defs><defs><linearGradient id="grad1_5" x1="0%" y1="0%" x2="100%" y2="100%"><stop offset="30%" stop-color="#007cb6" stop-opacity="1"></stop><stop offset="70%" stop-color="#005893" stop-opacity="1"></stop></linearGradient></defs><defs><linearGradient id="grad1_6" x1="0%" y1="0%" x2="100%" y2="100%"><stop offset="30%" stop-color="#133662" stop-opacity="1"></stop><stop offset="70%" stop-color="#005893" stop-opacity="1"></stop></linearGradient></defs><defs><linearGradient id="grad1_7" x1="0%" y1="0%" x2="100%" y2="100%"><stop offset="30%" stop-color="#133662" stop-opacity="1"></stop><stop offset="70%" stop-color="#211c30" stop-opacity="1"></stop></linearGradient></defs><defs><linearGradient id="grad2_0" x1="0%" y1="0%" x2="100%" y2="100%"><stop offset="30%" stop-color="#03ff0a" stop-opacity="1"></stop><stop offset="70%" stop-color="#03ff0a" stop-opacity="1"></stop></linearGradient></defs><defs><linearGradient id="grad2_1" x1="0%" y1="0%" x2="100%" y2="100%"><stop offset="30%" stop-color="#00e377" stop-opacity="1"></stop><stop offset="70%" stop-color="#03ff0a" stop-opacity="1"></stop></linearGradient></defs><defs><linearGradient id="grad2_2" x1="0%" y1="0%" x2="100%" y2="100%"><stop offset="30%" stop-color="#00e377" stop-opacity="1"></stop><stop offset="70%" stop-color="#00c3a9" stop-opacity="1"></stop></linearGradient></defs><defs><linearGradient id="grad2_3" x1="0%" y1="0%" x2="100%" y2="100%"><stop offset="30%" stop-color="#00a0be" stop-opacity="1"></stop><stop offset="70%" stop-color="#00c3a9" stop-opacity="1"></stop></linearGradient></defs><defs><linearGradient id="grad2_4" x1="0%" y1="0%" x2="100%" y2="100%"><stop offset="30%" stop-color="#00a0be" stop-opacity="1"></stop><stop offset="70%" stop-color="#007cb6" stop-opacity="1"></stop></linearGradient></defs><defs><linearGradient id="grad2_5" x1="0%" y1="0%" x2="100%" y2="100%"><stop offset="30%" stop-color="#005893" stop-opacity="1"></stop><stop offset="70%" stop-color="#007cb6" stop-opacity="1"></stop></linearGradient></defs><defs><linearGradient id="grad2_6" x1="0%" y1="0%" x2="100%" y2="100%"><stop offset="30%" stop-color="#005893" stop-opacity="1"></stop><stop offset="70%" stop-color="#133662" stop-opacity="1"></stop></linearGradient></defs><defs><linearGradient id="grad2_7" x1="0%" y1="0%" x2="100%" y2="100%"><stop offset="30%" stop-color="#211c30" stop-opacity="1"></stop><stop offset="70%" stop-color="#133662" stop-opacity="1"></stop></linearGradient></defs><g transform="translate(675, 0)"><path d="M0 478.1C-20.5 435.1 -41 392.1 -69.5 393.9C-97.9 395.7 -134.4 442.3 -163.5 449.3C-192.7 456.3 -214.6 423.6 -224 388C-233.4 352.3 -230.4 313.6 -250 298C-269.7 282.4 -312.1 289.8 -325.6 273.2C-339 256.5 -323.6 215.8 -331.7 191.5C-339.8 167.2 -371.5 159.3 -393.7 143.3C-416 127.3 -428.7 103 -441.2 77.8C-453.7 52.5 -465.9 26.3 -478.1 0L0 0Z" fill="#232848"></path><path d="M0 418.4C-17.9 380.7 -35.9 343.1 -60.8 344.7C-85.7 346.3 -117.6 387 -143.1 393.1C-168.6 399.2 -187.8 370.7 -196 339.5C-204.2 308.3 -201.6 274.4 -218.8 260.7C-236 247.1 -273.1 253.6 -284.9 239C-296.7 224.5 -283.1 188.8 -290.2 167.6C-297.3 146.3 -325.1 139.4 -344.5 125.4C-364 111.4 -375.1 90.2 -386 68.1C-397 46 -407.7 23 -418.4 0L0 0Z" fill="#00467b"></path><path d="M0 358.6C-15.4 326.3 -30.7 294.1 -52.1 295.4C-73.4 296.8 -100.8 331.7 -122.6 337C-144.5 342.2 -160.9 317.7 -168 291C-175.1 264.2 -172.8 235.2 -187.5 223.5C-202.3 211.8 -234.1 217.4 -244.2 204.9C-254.3 192.4 -242.7 161.8 -248.8 143.6C-254.9 125.4 -278.6 119.5 -295.3 107.5C-312 95.5 -321.5 77.3 -330.9 58.3C-340.3 39.4 -349.4 19.7 -358.6 0L0 0Z" fill="#006aa7"></path><path d="M0 298.8C-12.8 272 -25.6 245.1 -43.4 246.2C-61.2 247.3 -84 276.4 -102.2 280.8C-120.4 285.2 -134.1 264.8 -140 242.5C-145.9 220.2 -144 196 -156.3 186.2C-168.6 176.5 -195.1 181.1 -203.5 170.7C-211.9 160.3 -202.2 134.9 -207.3 119.7C-212.4 104.5 -232.2 99.6 -246.1 89.6C-260 79.5 -267.9 64.4 -275.7 48.6C-283.6 32.8 -291.2 16.4 -298.8 0L0 0Z" fill="#008ebe"></path><path d="M0 239.1C-10.2 217.6 -20.5 196.1 -34.7 197C-49 197.9 -67.2 221.2 -81.8 224.6C-96.3 228.1 -107.3 211.8 -112 194C-116.7 176.2 -115.2 156.8 -125 149C-134.9 141.2 -156.1 144.9 -162.8 136.6C-169.5 128.3 -161.8 107.9 -165.8 95.8C-169.9 83.6 -185.8 79.7 -196.9 71.7C-208 63.6 -214.4 51.5 -220.6 38.9C-226.8 26.3 -233 13.1 -239.1 0L0 0Z" fill="#00b2b7"></path><path d="M0 179.3C-7.7 163.2 -15.4 147 -26 147.7C-36.7 148.4 -50.4 165.9 -61.3 168.5C-72.3 171.1 -80.5 158.9 -84 145.5C-87.5 132.1 -86.4 117.6 -93.8 111.7C-101.1 105.9 -117 108.7 -122.1 102.4C-127.1 96.2 -121.3 80.9 -124.4 71.8C-127.4 62.7 -139.3 59.8 -147.6 53.7C-156 47.7 -160.8 38.6 -165.4 29.2C-170.1 19.7 -174.7 9.9 -179.3 0L0 0Z" fill="#00d393"></path><path d="M0 119.5C-5.1 108.8 -10.2 98 -17.4 98.5C-24.5 98.9 -33.6 110.6 -40.9 112.3C-48.2 114.1 -53.6 105.9 -56 97C-58.4 88.1 -57.6 78.4 -62.5 74.5C-67.4 70.6 -78 72.5 -81.4 68.3C-84.8 64.1 -80.9 53.9 -82.9 47.9C-85 41.8 -92.9 39.8 -98.4 35.8C-104 31.8 -107.2 25.8 -110.3 19.4C-113.4 13.1 -116.5 6.6 -119.5 0L0 0Z" fill="#00f252"></path><path d="M0 59.8C-2.6 54.4 -5.1 49 -8.7 49.2C-12.2 49.5 -16.8 55.3 -20.4 56.2C-24.1 57 -26.8 53 -28 48.5C-29.2 44 -28.8 39.2 -31.3 37.2C-33.7 35.3 -39 36.2 -40.7 34.1C-42.4 32.1 -40.4 27 -41.5 23.9C-42.5 20.9 -46.4 19.9 -49.2 17.9C-52 15.9 -53.6 12.9 -55.1 9.7C-56.7 6.6 -58.2 3.3 -59.8 0L0 0Z" fill="#03ff0a"></path></g><g transform="translate(0, 900)"><path d="M0 -478.1C31.3 -487 62.6 -495.9 83 -470.9C103.5 -445.8 113.1 -386.9 134.8 -370.2C156.4 -353.6 190.2 -379.2 224 -388C257.8 -396.7 291.8 -388.6 304 -362.3C316.3 -336.1 306.9 -291.8 318.7 -267.4C330.4 -243 363.4 -238.7 388 -224C412.6 -209.3 428.9 -184.3 434.1 -158C439.4 -131.7 433.7 -104 439.2 -77.4C444.7 -50.9 461.4 -25.4 478.1 0L0 0Z" fill="#232848"></path><path d="M0 -418.4C27.4 -426.1 54.8 -433.9 72.6 -412C90.5 -390.1 98.9 -338.5 117.9 -324C136.9 -309.4 166.4 -331.8 196 -339.5C225.6 -347.1 255.3 -340 266 -317C276.8 -294.1 268.5 -255.3 278.8 -234C289.1 -212.7 318 -208.8 339.5 -196C361 -183.2 375.2 -161.3 379.9 -138.3C384.5 -115.2 379.5 -91 384.3 -67.8C389.1 -44.5 403.7 -22.3 418.4 0L0 0Z" fill="#00467b"></path><path d="M0 -358.6C23.5 -365.3 46.9 -371.9 62.3 -353.1C77.6 -334.4 84.8 -290.2 101.1 -277.7C117.3 -265.2 142.6 -284.4 168 -291C193.4 -297.5 218.8 -291.4 228 -271.8C237.2 -252.1 230.2 -218.8 239 -200.5C247.8 -182.3 272.5 -179 291 -168C309.4 -157 321.6 -138.3 325.6 -118.5C329.6 -98.8 325.3 -78 329.4 -58.1C333.5 -38.2 346.1 -19.1 358.6 0L0 0Z" fill="#006aa7"></path><path d="M0 -298.8C19.6 -304.4 39.1 -309.9 51.9 -294.3C64.7 -278.6 70.7 -241.8 84.2 -231.4C97.8 -221 118.9 -237 140 -242.5C161.1 -248 182.4 -242.9 190 -226.5C197.7 -210.1 191.8 -182.3 199.2 -167.1C206.5 -151.9 227.1 -149.2 242.5 -140C257.9 -130.8 268 -115.2 271.3 -98.8C274.6 -82.3 271.1 -65 274.5 -48.4C278 -31.8 288.4 -15.9 298.8 0L0 0Z" fill="#008ebe"></path><path d="M0 -239.1C15.6 -243.5 31.3 -247.9 41.5 -235.4C51.7 -222.9 56.5 -193.4 67.4 -185.1C78.2 -176.8 95.1 -189.6 112 -194C128.9 -198.4 145.9 -194.3 152 -181.2C158.2 -168 153.5 -145.9 159.3 -133.7C165.2 -121.5 181.7 -119.3 194 -112C206.3 -104.7 214.4 -92.2 217.1 -79C219.7 -65.8 216.9 -52 219.6 -38.7C222.4 -25.4 230.7 -12.7 239.1 0L0 0Z" fill="#00b2b7"></path><path d="M0 -179.3C11.7 -182.6 23.5 -186 31.1 -176.6C38.8 -167.2 42.4 -145.1 50.5 -138.8C58.7 -132.6 71.3 -142.2 84 -145.5C96.7 -148.8 109.4 -145.7 114 -135.9C118.6 -126 115.1 -109.4 119.5 -100.3C123.9 -91.1 136.3 -89.5 145.5 -84C154.7 -78.5 160.8 -69.1 162.8 -59.3C164.8 -49.4 162.6 -39 164.7 -29C166.8 -19.1 173 -9.5 179.3 0L0 0Z" fill="#00d393"></path><path d="M0 -119.5C7.8 -121.8 15.6 -124 20.8 -117.7C25.9 -111.5 28.3 -96.7 33.7 -92.6C39.1 -88.4 47.5 -94.8 56 -97C64.5 -99.2 72.9 -97.1 76 -90.6C79.1 -84 76.7 -72.9 79.7 -66.8C82.6 -60.8 90.8 -59.7 97 -56C103.1 -52.3 107.2 -46.1 108.5 -39.5C109.9 -32.9 108.4 -26 109.8 -19.4C111.2 -12.7 115.4 -6.4 119.5 0L0 0Z" fill="#00f252"></path><path d="M0 -59.8C3.9 -60.9 7.8 -62 10.4 -58.9C12.9 -55.7 14.1 -48.4 16.8 -46.3C19.6 -44.2 23.8 -47.4 28 -48.5C32.2 -49.6 36.5 -48.6 38 -45.3C39.5 -42 38.4 -36.5 39.8 -33.4C41.3 -30.4 45.4 -29.8 48.5 -28C51.6 -26.2 53.6 -23 54.3 -19.8C54.9 -16.5 54.2 -13 54.9 -9.7C55.6 -6.4 57.7 -3.2 59.8 0L0 0Z" fill="#03ff0a"></path></g></svg>