<?xml version="1.0" encoding="utf-8"?>
<!-- Generator: Adobe Illustrator 23.0.2, SVG Export Plug-In . SVG Version: 6.00 Build 0)  -->
<svg version="1.1" id="Layer_1" xmlns="http://www.w3.org/2000/svg" xmlns:xlink="http://www.w3.org/1999/xlink" x="0px" y="0px"
	 viewBox="0 0 1000 1000" style="enable-background:new 0 0 1000 1000;" xml:space="preserve">
<style type="text/css">
	.st0{fill:#FFDE75;}
	.st1{fill:#1D3B6B;}
	.st2{fill:#2D447F;}
	.st3{fill:none;stroke:#0C1740;stroke-width:6;stroke-linecap:round;stroke-linejoin:round;stroke-miterlimit:10;}
	.st4{fill:#141051;}
	.st5{fill:#0C1740;}
	.st6{fill:#151F5B;}
	.st7{fill:#1E2687;}
	.st8{fill:#31319B;}
	.st9{fill:#364477;}
	.st10{fill:#3E5080;}
	.st11{fill:#485D8C;}
	.st12{fill:#263866;}
	.st13{fill:#1B2F5B;}
	.st14{fill:none;stroke:#0C1740;stroke-width:2;stroke-linecap:round;stroke-linejoin:round;stroke-miterlimit:10;}
	.st15{fill:#D1D9E5;}
	.st16{fill:#1F2F63;}
	.st17{fill:#1C2D5F;}
	.st18{fill:#FFFFFF;}
	.st19{fill:#091438;}
	.st20{fill:#268D7A;}
	.st21{fill:#147A63;}
	.st22{fill:#A7314D;}
	.st23{fill:#961E36;}
	.st24{fill:#00FFAA;}
	.st25{fill:#2AD142;}
	.st26{fill:#00F993;}
	.st27{fill:#EA5C5C;}
	.st28{fill:none;stroke:#000000;stroke-miterlimit:10;}
	.st29{fill:#67C18B;}
	.st30{fill:#E5E56A;}
	.st31{fill:#4988E2;}
	.st32{fill:#E87060;}
</style>
<g>
	<path class="st0" d="M926.3,711h-75.1c-0.1,0.1-0.2,0.3-0.3,0.4c-2.6,2.8-6.3,4.6-10.3,4.6c0,0,0,0,0,0l0,0h-190c0,0,0,0,0,0
		c-4.1,0-7.7-1.8-10.3-4.6c-0.1-0.1-0.2-0.3-0.3-0.4H137.1c-15.8,0-28.7,14-28.7,31c0,17,12.9,31,28.7,31h789.2
		c15.8,0,28.7-14,28.7-31C955,725,942,711,926.3,711"/>
	<path class="st1" d="M583.9,655H42.1c-11,0-20.1-9-20.1-19.9V240.9C22,230,31,221,42.1,221h541.9c11,0,20.1,9,20.1,19.9v394.2
		C604,646,595,655,583.9,655"/>
	<path class="st2" d="M34,623V241c0-4.4,3.6-8,8-8H584c4.4,0,8,3.6,8,8V623c0,4.4-3.6,8-8,8H42C37.6,631,34,627.6,34,623"/>
	<path class="st3" d="M583.9,655H42.1c-11,0-20.1-9-20.1-19.9V240.9C22,230,31,221,42.1,221h541.9c11,0,20.1,9,20.1,19.9v394.2
		C604,646,595,655,583.9,655z"/>
	<path class="st4" d="M43,575.8V261.2c0-9.5,7.6-17.2,16.9-17.2h503.2c9.3,0,16.9,7.8,16.9,17.2v314.5c0,9.5-7.6,17.2-16.9,17.2
		H59.9C50.6,593,43,585.2,43,575.8z"/>
	<path class="st5" d="M63.4,582c-4.6,0-8.4-3.8-8.4-8.5V261.5c0-4.7,3.8-8.5,8.4-8.5h501.2c4.6,0,8.4,3.8,8.4,8.5v311.9
		c0,4.7-3.8,8.5-8.4,8.5H63.4z"/>
	<path class="st6" d="M352,655L352,655h-77.7c0,26.4-26.2,48.2-60.3,50.2l-28.9,1.6c-15.3,0.8-27.4,13.2-27.4,28.2h310.8
		c0-15-11.9-27.4-27.4-28.2l-28.9-1.6C378.5,703.2,352,681.4,352,655z"/>
	<path class="st7" d="M325.8,712.1l-20.4,1.2c-10.8,0.6-19.4,10.2-19.4,21.7h219.3c0-11.5-8.4-21.1-19.4-21.7l-20.4-1.2
		c-2.7-0.2-5.4-0.6-8.1-1.1H333.7C331.2,711.5,328.5,711.9,325.8,712.1z"/>
	<path class="st8" d="M364.1,684c-7.5-8.2-11.9-18.2-11.9-29h-77.7c0,10.8-4.4,20.8-11.9,29H364.1z"/>
	<path class="st3" d="M352,655L352,655h-77.7c0,26.4-26.2,48.2-60.3,50.2l-28.9,1.6c-15.3,0.8-27.4,13.2-27.4,28.2h310.8
		c0-15-11.9-27.4-27.4-28.2l-28.9-1.6C378.5,703.2,352,681.4,352,655z"/>
	<path class="st9" d="M840.5,713h-190c-6.3,0-11.5-5.6-11.5-12.4V256.4c0-6.8,5.2-12.4,11.5-12.4h190c6.3,0,11.5,5.6,11.5,12.4
		v444.2C852,707.4,846.8,713,840.5,713"/>
	<path class="st5" d="M840.5,713v-3h-190c-2.3,0-4.3-1-5.9-2.7c-1.6-1.7-2.6-4.1-2.6-6.7V256.4c0-2.7,1-5,2.6-6.7
		c1.6-1.7,3.7-2.7,5.9-2.7h190c2.3,0,4.3,1,5.9,2.7c1.6,1.7,2.6,4.1,2.6,6.7v444.2c0,2.7-1,5-2.6,6.7c-1.6,1.7-3.7,2.7-5.9,2.7V713
		v3c4.1,0,7.7-1.8,10.3-4.6c2.6-2.8,4.2-6.6,4.2-10.8V256.4c0-4.2-1.6-8-4.2-10.8c-2.6-2.8-6.3-4.6-10.3-4.6h-190
		c-4.1,0-7.7,1.8-10.3,4.6c-2.6,2.8-4.2,6.6-4.2,10.8v444.2c0,4.2,1.6,8,4.2,10.8c2.6,2.8,6.3,4.6,10.3,4.6h190V713"/>
	<path class="st10" d="M746,697.4c-50.7,0-92-44.6-92-99.5V260.6c0-0.9,0.6-1.6,1.4-1.6h181.1c0.9,0,1.4,0.6,1.4,1.6v337.3
		C838,652.8,796.7,697.4,746,697.4"/>
	<path class="st9" d="M654,294v282.9c0,55.8,41.3,101.2,92,101.2c50.7,0,92-45.4,92-101.2V294H654"/>
	<path class="st5" d="M745.5,697.9v-1.5c-24.9,0-47.5-11-63.9-28.7C665.2,650,655,625.5,655,598.4V261.1l0-0.1l0,0l-0.2-0.1l0.1,0.2
		l0.1-0.1l-0.2-0.1l0.1,0.2l-0.1-0.1l0,0.1l0,0l-0.1-0.1l0,0.1l0,0h181.1l0,0l0-0.1L836,261l0,0l0-0.1L836,261l0.1-0.1l-0.2,0.1
		l0.1,0.1l0.1-0.1l-0.2,0.1l0,0l0,0.1v337.3c0,27.1-10.2,51.6-26.6,69.3c-16.4,17.7-39,28.7-63.9,28.7V697.9v1.5
		c25.8,0,49.2-11.4,66.1-29.6c16.9-18.3,27.4-43.5,27.4-71.3V261.1c0-0.8-0.2-1.6-0.8-2.1c-0.5-0.6-1.4-0.9-2.1-0.9H654.9
		c-0.8,0-1.6,0.3-2.1,0.9c-0.5,0.6-0.8,1.4-0.8,2.1v337.3c0,27.8,10.5,53.1,27.4,71.3c16.9,18.3,40.3,29.7,66.1,29.6V697.9"/>
	<path class="st11" d="M746,660.1c-50.7,0-92-44.6-92-99.5v-300c0-0.9,0.6-1.6,1.4-1.6h181.1c0.9,0,1.4,0.6,1.4,1.6v300
		C838,615.5,796.7,660.1,746,660.1"/>
	<path class="st5" d="M745.5,660.6v-1.5c-24.9,0-47.5-10.9-63.9-28.7c-16.4-17.7-26.6-42.2-26.6-69.3v-300l0-0.1l0,0l-0.2-0.1
		l0.1,0.2l0.1-0.1l-0.2-0.1l0.1,0.2l-0.1-0.1l0,0.1l0,0l-0.1-0.1l0,0.1l0,0h181.1l0,0l0-0.1L836,261l0,0l0-0.1L836,261l0.1-0.1
		l-0.2,0.1l0.1,0.1l0.1-0.1l-0.2,0.1l0,0l0,0.1v300c0,27.1-10.2,51.6-26.6,69.3c-16.4,17.7-39,28.7-63.9,28.7V660.6v1.5
		c25.8,0,49.2-11.4,66.1-29.6c16.9-18.3,27.4-43.5,27.4-71.3v-300c0-0.8-0.2-1.6-0.8-2.1c-0.5-0.6-1.4-0.9-2.1-0.9H654.9
		c-0.8,0-1.6,0.3-2.1,0.9c-0.5,0.6-0.8,1.4-0.8,2.1v300c0,27.8,10.5,53.1,27.4,71.3c16.9,18.3,40.3,29.7,66.1,29.6V660.6"/>
	<rect x="665" y="713" class="st12" width="161" height="22"/>
	<rect x="665" y="713" class="st13" width="161" height="11"/>
	<rect x="665" y="713" class="st3" width="161" height="22"/>
	<path class="st9" d="M819.5,313H671.5c-3.6,0-6.5-3.1-6.5-7.1v-25.9c0-3.9,2.9-7.1,6.5-7.1h148.1c3.6,0,6.5,3.1,6.5,7.1v25.9
		C826,309.9,823.1,313,819.5,313z"/>
	<path class="st14" d="M819.5,313H671.5c-3.6,0-6.5-3.1-6.5-7.1v-25.9c0-3.9,2.9-7.1,6.5-7.1h148.1c3.6,0,6.5,3.1,6.5,7.1v25.9
		C826,309.9,823.1,313,819.5,313z"/>
	<path class="st9" d="M819.5,370H719.5c-3.6,0-6.5-3.1-6.5-7.1v-17.9c0-3.9,2.9-7.1,6.5-7.1h100.1c3.6,0,6.5,3.1,6.5,7.1v17.9
		C826,366.9,823.1,370,819.5,370z"/>
	<path class="st14" d="M819.5,370H719.5c-3.6,0-6.5-3.1-6.5-7.1v-17.9c0-3.9,2.9-7.1,6.5-7.1h100.1c3.6,0,6.5,3.1,6.5,7.1v17.9
		C826,366.9,823.1,370,819.5,370z"/>
	<ellipse class="st15" cx="748.5" cy="577.2" rx="25.6" ry="27.7"/>
	<path class="st9" d="M823.4,458H667.6c-1.4,0-2.6-1.3-2.6-2.8v-38.3c0-1.6,1.2-2.8,2.6-2.8h155.8c1.4,0,2.6,1.3,2.6,2.8v38.3
		C826,456.7,824.8,458,823.4,458"/>
	<path class="st5" d="M746,485c8.2,0,14.8,7.2,14.8,16c0,8.8-6.6,16-14.8,16s-14.8-7.2-14.8-16C731.1,492.1,737.8,485,746,485z"/>
	<ellipse class="st16" cx="746" cy="501" rx="13.7" ry="14.8"/>
	<path class="st5" d="M806.4,441h-26.9c-0.9,0-1.6-0.8-1.6-1.7v-7.5c0-0.9,0.7-1.7,1.6-1.7h26.9c0.9,0,1.6,0.8,1.6,1.7v7.5
		C808,440.2,807.3,441,806.4,441z"/>
	<path class="st11" d="M780,435.8v-3.7c0-0.2,0-0.2,0.1-0.2h26.7c0.1,0,0.1,0,0.1,0.2v3.7c0,0.2,0,0.2-0.1,0.2L780,435.8
		C780.1,436,780,436,780,435.8z"/>
	<path class="st5" d="M769.4,441h-26.9c-0.9,0-1.6-0.8-1.6-1.7v-7.5c0-0.9,0.7-1.7,1.6-1.7h26.9c0.9,0,1.6,0.8,1.6,1.7v7.5
		C771,440.2,770.3,441,769.4,441z"/>
	<path class="st11" d="M743,435.8v-3.7c0-0.2,0-0.2,0.1-0.2h26.7c0.1,0,0.1,0,0.1,0.2v3.7c0,0.2,0,0.2-0.1,0.2L743,435.8
		C743,436,743,436,743,435.8z"/>
	<path class="st17" d="M568.2,603.1c-6.7,0-12,5.3-12,11.9c0,6.6,5.4,11.9,12,11.9c6.7,0,12-5.3,12-11.9
		C580.3,608.5,574.9,603.1,568.2,603.1"/>
	<ellipse class="st18" cx="568.2" cy="615" rx="11.2" ry="11.1"/>
	<path class="st17" d="M537.3,609.1c-3.3,0-6,2.7-6,6c0,3.3,2.7,6,6,6c3.3,0,6-2.7,6-6C543.3,611.7,540.6,609.1,537.3,609.1"/>
	<path class="st18" d="M537.3,609.5c3.1,0,5.6,2.5,5.6,5.6s-2.5,5.6-5.6,5.6c-3.1,0-5.6-2.5-5.6-5.6S534.2,609.5,537.3,609.5z"/>
	<polygon class="st11" points="734.4,575 738.4,570.6 754.7,588.2 750.6,592.6 	"/>
	<polygon class="st11" points="738.4,570.6 746.6,561.8 750.6,566.2 742.5,575 	"/>
	<polygon class="st11" points="750.6,583.9 758.7,575.1 762.8,579.5 754.6,588.3 	"/>
	<polygon class="st11" points="744.4,577.2 752.6,568.4 756.7,572.8 748.5,581.6 	"/>
	<path class="st5" d="M814.3,358h-91.6c-1,0-1.7-0.9-1.7-1.8v-6.4c0-1,0.9-1.8,1.7-1.8h91.6c1,0,1.7,0.9,1.7,1.8v6.4
		C816.1,357.3,815.3,358,814.3,358z"/>
	<path class="st5" d="M798.1,361H777c-4.3,0-7.9-3.9-7.9-8.5s3.6-8.5,7.9-8.5h21.2c4.3,0,7.9,3.9,7.9,8.5S802.6,361,798.1,361z"/>
	<path class="st19" d="M724.1,353L724.1,353c0-1.1,0.9-2,2-2h85.6c1.2,0,2,0.9,2,2s-0.9,2-2,2h-85.6
		C725.1,355,724.1,354.1,724.1,353z"/>
	<path class="st5" d="M725.4,430.1c2.8,0,5,2.4,5,5.4c0,3-2.3,5.4-5,5.4c-2.8,0-5-2.4-5-5.4C720.3,432.5,722.6,430.1,725.4,430.1"/>
	<path class="st5" d="M704.9,430.1c2.8,0,5,2.4,5,5.4c0,3-2.3,5.4-5,5.4c-2.8,0-5-2.4-5-5.4C699.9,432.5,702.2,430.1,704.9,430.1"/>
	<path class="st20" d="M725.4,441c-2.8,0-5-2.4-5-5.4c0-3,2.3-5.4,5-5.4c2.8,0,5,2.4,5,5.4C730.4,438.5,728.2,441,725.4,441
		 M725.4,429.1C725.4,429.1,725.4,429.1,725.4,429.1L725.4,429.1C725.4,429.1,725.4,429.1,725.4,429.1c-1.7,0-3.2,0.7-4.3,1.9
		c-1.1,1.2-1.7,2.8-1.7,4.5c0,1.8,0.7,3.4,1.7,4.5c1.1,1.2,2.6,1.9,4.3,1.9c0,0,0,0,0,0c1.7,0,3.2-0.7,4.3-1.9
		c1.1-1.2,1.7-2.8,1.7-4.5c0-1.8-0.7-3.4-1.7-4.5C728.6,429.8,727.1,429.1,725.4,429.1"/>
	<path class="st21" d="M725.4,440c-1.1,0-2.1-0.5-2.8-1.3c-0.7-0.8-1.2-1.9-1.2-3.2c0-1.3,0.5-2.4,1.2-3.2c0.7-0.8,1.7-1.3,2.8-1.3
		l0,0c1.1,0,2.1,0.5,2.8,1.3c0.7,0.8,1.2,1.9,1.2,3.2c0,1.3-0.5,2.4-1.2,3.2C727.5,439.5,726.5,440,725.4,440 M725.4,430.1
		c-2.8,0-5,2.4-5,5.4c0,3,2.3,5.4,5,5.4c2.8,0,5-2.4,5-5.4C730.4,432.5,728.2,430.1,725.4,430.1"/>
	<path class="st22" d="M704.9,441c-2.8,0-5-2.4-5-5.4c0-3,2.3-5.4,5-5.4c2.8,0,5,2.4,5,5.4C710,438.5,707.7,441,704.9,441
		 M704.9,429.1C704.9,429.1,704.9,429.1,704.9,429.1L704.9,429.1C704.9,429.1,704.9,429.1,704.9,429.1c-1.7,0-3.2,0.7-4.3,1.9
		c-1.1,1.2-1.7,2.8-1.7,4.5c0,1.8,0.7,3.4,1.7,4.5c1.1,1.2,2.6,1.9,4.3,1.9c0,0,0,0,0,0c1.7,0,3.2-0.7,4.3-1.9
		c1.1-1.2,1.7-2.8,1.7-4.5c0-1.8-0.7-3.4-1.7-4.5C708.2,429.8,706.6,429.1,704.9,429.1"/>
	<path class="st23" d="M704.9,440c-1.1,0-2.1-0.5-2.8-1.3c-0.7-0.8-1.2-1.9-1.2-3.2c0-1.3,0.5-2.4,1.2-3.2c0.7-0.8,1.7-1.3,2.8-1.3
		l0,0c1.1,0,2.1,0.5,2.8,1.3c0.7,0.8,1.2,1.9,1.2,3.2c0,1.3-0.5,2.4-1.2,3.2C707,439.5,706,440,704.9,440 M704.9,430.1
		c-2.8,0-5,2.4-5,5.4c0,3,2.3,5.4,5,5.4c2.8,0,5-2.4,5-5.4C710,432.5,707.7,430.1,704.9,430.1"/>
	<path class="st14" d="M739.9,493.2c-2,1.9-3.3,4.7-3.3,7.6c0,5.6,4.2,10.1,9.4,10.1s9.4-4.5,9.4-10.1c0-3.1-1.3-5.8-3.3-7.6"/>
	<line class="st24" x1="746" y1="489" x2="746" y2="501"/>
	<line class="st14" x1="746" y1="489" x2="746" y2="501"/>
	<path class="st5" d="M819,298H673c-1.2,0-2-0.9-2-2.2v-14.7c0-1.2,0.9-2.2,2-2.2h146c1.2,0,2,0.9,2,2.2v14.7
		C821,297.1,820.1,298,819,298z"/>
	<path class="st5" d="M818.8,308h-9.7c-0.6,0-1.2-0.6-1.2-1.2v-1.6c0-0.6,0.6-1.2,1.2-1.2h9.7c0.6,0,1.2,0.6,1.2,1.2v1.6
		C820,307.4,819.4,308,818.8,308z"/>
	<path class="st25" d="M801.5,307.6L801.5,307.6c-1.2,0-2-0.9-2-2.2s0.9-2.2,2-2.2s2,0.9,2,2.2S802.7,307.6,801.5,307.6z"/>
	<path class="st5" d="M770.7,483.6c1.8,0,3.3,1.6,3.3,3.6s-1.5,3.6-3.3,3.6s-3.3-1.6-3.3-3.6S768.9,483.6,770.7,483.6z"/>
	<path class="st26" d="M770.7,484.5c1.4,0,2.4,1.2,2.4,2.6s-1.1,2.6-2.4,2.6s-2.4-1.2-2.4-2.6S769.4,484.5,770.7,484.5z"/>
	<path class="st27" d="M628.5,729.5h-150v-12.9c0-4.4,3.5-8.1,7.6-8.1h134.7c4.2,0,7.6,3.7,7.6,8.1V729.5z"/>
	<path class="st28" d="M628.5,729.5h-150v-12.9c0-4.4,3.5-8.1,7.6-8.1h134.7c4.2,0,7.6,3.7,7.6,8.1V729.5z"/>
	<path class="st27" d="M383.5,729.5h-29v-12.9c0-4.4,3.5-8.1,7.7-8.1h13.6c4.2,0,7.7,3.7,7.7,8.1V729.5z"/>
	<path class="st28" d="M383.5,729.5h-29v-12.9c0-4.4,3.5-8.1,7.7-8.1h13.6c4.2,0,7.7,3.7,7.7,8.1V729.5z"/>
	<path class="st27" d="M423.5,729.5h-29v-12.9c0-4.4,3.5-8.1,7.7-8.1h13.6c4.2,0,7.7,3.7,7.7,8.1V729.5z"/>
	<path class="st28" d="M423.5,729.5h-29v-12.9c0-4.4,3.5-8.1,7.7-8.1h13.6c4.2,0,7.7,3.7,7.7,8.1V729.5z"/>
	<path class="st27" d="M668.5,729.5h-29v-12.9c0-4.4,3.5-8.1,7.7-8.1h13.6c4.2,0,7.7,3.7,7.7,8.1V729.5z"/>
	<path class="st28" d="M668.5,729.5h-29v-12.9c0-4.4,3.5-8.1,7.7-8.1h13.6c4.2,0,7.7,3.7,7.7,8.1V729.5z"/>
	<path class="st27" d="M709.5,729.5h-29v-12.9c0-4.4,3.5-8.1,7.7-8.1h13.6c4.2,0,7.7,3.7,7.7,8.1V729.5z"/>
	<path class="st28" d="M709.5,729.5h-29v-12.9c0-4.4,3.5-8.1,7.7-8.1h13.6c4.2,0,7.7,3.7,7.7,8.1V729.5z"/>
	<path class="st27" d="M750.5,729.5h-29v-12.9c0-4.4,3.5-8.1,7.7-8.1h13.6c4.2,0,7.7,3.7,7.7,8.1V729.5z"/>
	<path class="st28" d="M750.5,729.5h-29v-12.9c0-4.4,3.5-8.1,7.7-8.1h13.6c4.2,0,7.7,3.7,7.7,8.1V729.5z"/>
	<path class="st27" d="M759.8,754.5H346c-6.6,0-11.9-5.8-11.9-13s5.3-13,11.9-13h413.7c6.6,0,11.9,5.8,11.9,13
		C771.6,748.7,766.3,754.5,759.8,754.5z"/>
	<path class="st28" d="M759.8,754.5H346c-6.6,0-11.9-5.8-11.9-13s5.3-13,11.9-13h413.7c6.6,0,11.9,5.8,11.9,13
		C771.6,748.7,766.3,754.5,759.8,754.5z"/>
	<path class="st27" d="M628.5,729.5h-150v-12.9c0-4.4,3.5-8.1,7.6-8.1h134.7c4.2,0,7.6,3.7,7.6,8.1V729.5z"/>
	<path class="st28" d="M628.5,729.5h-150v-12.9c0-4.4,3.5-8.1,7.6-8.1h134.7c4.2,0,7.6,3.7,7.6,8.1V729.5z"/>
	<path class="st27" d="M383.5,729.5h-29v-12.9c0-4.4,3.5-8.1,7.7-8.1h13.6c4.2,0,7.7,3.7,7.7,8.1V729.5z"/>
	<path class="st28" d="M383.5,729.5h-29v-12.9c0-4.4,3.5-8.1,7.7-8.1h13.6c4.2,0,7.7,3.7,7.7,8.1V729.5z"/>
	<path class="st27" d="M423.5,729.5h-29v-12.9c0-4.4,3.5-8.1,7.7-8.1h13.6c4.2,0,7.7,3.7,7.7,8.1V729.5z"/>
	<path class="st28" d="M423.5,729.5h-29v-12.9c0-4.4,3.5-8.1,7.7-8.1h13.6c4.2,0,7.7,3.7,7.7,8.1V729.5z"/>
	<path class="st27" d="M465.5,729.5h-29v-12.9c0-4.4,3.5-8.1,7.7-8.1h13.6c4.2,0,7.7,3.7,7.7,8.1V729.5z"/>
	<path class="st28" d="M465.5,729.5h-29v-12.9c0-4.4,3.5-8.1,7.7-8.1h13.6c4.2,0,7.7,3.7,7.7,8.1V729.5z"/>
	<path class="st27" d="M465.5,729.5h-29v-12.9c0-4.4,3.5-8.1,7.7-8.1h13.6c4.2,0,7.7,3.7,7.7,8.1V729.5z"/>
	<path class="st28" d="M465.5,729.5h-29v-12.9c0-4.4,3.5-8.1,7.7-8.1h13.6c4.2,0,7.7,3.7,7.7,8.1V729.5z"/>
	<path class="st27" d="M668.5,729.5h-29v-12.9c0-4.4,3.5-8.1,7.7-8.1h13.6c4.2,0,7.7,3.7,7.7,8.1V729.5z"/>
	<path class="st28" d="M668.5,729.5h-29v-12.9c0-4.4,3.5-8.1,7.7-8.1h13.6c4.2,0,7.7,3.7,7.7,8.1V729.5z"/>
	<path class="st27" d="M709.5,729.5h-29v-12.9c0-4.4,3.5-8.1,7.7-8.1h13.6c4.2,0,7.7,3.7,7.7,8.1V729.5z"/>
	<path class="st28" d="M709.5,729.5h-29v-12.9c0-4.4,3.5-8.1,7.7-8.1h13.6c4.2,0,7.7,3.7,7.7,8.1V729.5z"/>
	<path class="st27" d="M750.5,729.5h-29v-12.9c0-4.4,3.5-8.1,7.7-8.1h13.6c4.2,0,7.7,3.7,7.7,8.1V729.5z"/>
	<path class="st28" d="M750.5,729.5h-29v-12.9c0-4.4,3.5-8.1,7.7-8.1h13.6c4.2,0,7.7,3.7,7.7,8.1V729.5z"/>
	<path class="st27" d="M759.8,754.5H346c-6.6,0-11.9-5.8-11.9-13s5.3-13,11.9-13h413.7c6.6,0,11.9,5.8,11.9,13
		C771.6,748.7,766.3,754.5,759.8,754.5z"/>
	<path class="st28" d="M759.8,754.5H346c-6.6,0-11.9-5.8-11.9-13s5.3-13,11.9-13h413.7c6.6,0,11.9,5.8,11.9,13
		C771.6,748.7,766.3,754.5,759.8,754.5z"/>
	<path class="st27" d="M791.4,754.5c0-18.8,14.1-34,31.5-34c17.4,0,31.5,15.2,31.5,34H791.4z"/>
	<path class="st28" d="M791.4,754.5c0-18.8,14.1-34,31.5-34c17.4,0,31.5,15.2,31.5,34H791.4z"/>
	<path class="st27" d="M791.4,754.5c0-18.8,14.1-34,31.5-34c17.4,0,31.5,15.2,31.5,34H791.4z"/>
	<path class="st28" d="M791.4,754.5c0-18.8,14.1-34,31.5-34c17.4,0,31.5,15.2,31.5,34H791.4z"/>
	<line class="st27" x1="823.5" y1="724" x2="823.5" y2="734"/>
	<line class="st28" x1="823.5" y1="724" x2="823.5" y2="734"/>
	<path class="st29" d="M682,481.3c-2-1.1-4-0.6-6-0.2c0-2.1,0-4.4,0-6.5c2-0.5,4-0.9,6,0.2C682,476.9,682,479,682,481.3z"/>
	<path class="st30" d="M682,489.1c-2-1.1-4-0.6-6-0.2c0-2.1,0-4.4,0-6.5c2-0.5,4-0.9,6,0.2C682,484.7,682,486.9,682,489.1z"/>
	<path class="st31" d="M675,489.2c-2,0.5-4,0.9-6-0.2c0-2.1,0-4.4,0-6.5c2,1.1,4,0.6,6,0.2C675,484.9,675,487.1,675,489.2z"/>
	<path class="st32" d="M675,481.5c-2,0.5-4,0.9-6-0.2c0-2.1,0-4.4,0-6.5c2,1.1,4,0.6,6,0.2C675,477.1,675,479.2,675,481.5z"/>
	<line class="st18" x1="687" y1="479" x2="704" y2="479"/>
	<line class="st14" x1="687" y1="479" x2="704" y2="479"/>
	<line class="st14" x1="687" y1="485" x2="700" y2="485"/>
</g>
</svg>
