<svg id="visual" viewBox="0 0 900 675" width="900" height="675" xmlns="http://www.w3.org/2000/svg" xmlns:xlink="http://www.w3.org/1999/xlink" version="1.1"><rect x="0" y="0" width="900" height="675" fill="#ffc783"></rect><defs><linearGradient id="grad1_0" x1="25%" y1="0%" x2="100%" y2="100%"><stop offset="23.333333333333336%" stop-color="#ff0000" stop-opacity="1"></stop><stop offset="76.66666666666666%" stop-color="#ff0000" stop-opacity="1"></stop></linearGradient></defs><defs><linearGradient id="grad1_1" x1="25%" y1="0%" x2="100%" y2="100%"><stop offset="23.333333333333336%" stop-color="#ff0000" stop-opacity="1"></stop><stop offset="76.66666666666666%" stop-color="#ff4507" stop-opacity="1"></stop></linearGradient></defs><defs><linearGradient id="grad1_2" x1="25%" y1="0%" x2="100%" y2="100%"><stop offset="23.333333333333336%" stop-color="#ff6418" stop-opacity="1"></stop><stop offset="76.66666666666666%" stop-color="#ff4507" stop-opacity="1"></stop></linearGradient></defs><defs><linearGradient id="grad1_3" x1="25%" y1="0%" x2="100%" y2="100%"><stop offset="23.333333333333336%" stop-color="#ff6418" stop-opacity="1"></stop><stop offset="76.66666666666666%" stop-color="#ff7c2a" stop-opacity="1"></stop></linearGradient></defs><defs><linearGradient id="grad1_4" x1="25%" y1="0%" x2="100%" y2="100%"><stop offset="23.333333333333336%" stop-color="#ff913e" stop-opacity="1"></stop><stop offset="76.66666666666666%" stop-color="#ff7c2a" stop-opacity="1"></stop></linearGradient></defs><defs><linearGradient id="grad1_5" x1="25%" y1="0%" x2="100%" y2="100%"><stop offset="23.333333333333336%" stop-color="#ff913e" stop-opacity="1"></stop><stop offset="76.66666666666666%" stop-color="#fea453" stop-opacity="1"></stop></linearGradient></defs><defs><linearGradient id="grad1_6" x1="25%" y1="0%" x2="100%" y2="100%"><stop offset="23.333333333333336%" stop-color="#ffb66a" stop-opacity="1"></stop><stop offset="76.66666666666666%" stop-color="#fea453" stop-opacity="1"></stop></linearGradient></defs><defs><linearGradient id="grad1_7" x1="25%" y1="0%" x2="100%" y2="100%"><stop offset="23.333333333333336%" stop-color="#ffb66a" stop-opacity="1"></stop><stop offset="76.66666666666666%" stop-color="#ffc783" stop-opacity="1"></stop></linearGradient></defs><defs><linearGradient id="grad2_0" x1="0%" y1="0%" x2="75%" y2="100%"><stop offset="23.333333333333336%" stop-color="#ff0000" stop-opacity="1"></stop><stop offset="76.66666666666666%" stop-color="#ff0000" stop-opacity="1"></stop></linearGradient></defs><defs><linearGradient id="grad2_1" x1="0%" y1="0%" x2="75%" y2="100%"><stop offset="23.333333333333336%" stop-color="#ff4507" stop-opacity="1"></stop><stop offset="76.66666666666666%" stop-color="#ff0000" stop-opacity="1"></stop></linearGradient></defs><defs><linearGradient id="grad2_2" x1="0%" y1="0%" x2="75%" y2="100%"><stop offset="23.333333333333336%" stop-color="#ff4507" stop-opacity="1"></stop><stop offset="76.66666666666666%" stop-color="#ff6418" stop-opacity="1"></stop></linearGradient></defs><defs><linearGradient id="grad2_3" x1="0%" y1="0%" x2="75%" y2="100%"><stop offset="23.333333333333336%" stop-color="#ff7c2a" stop-opacity="1"></stop><stop offset="76.66666666666666%" stop-color="#ff6418" stop-opacity="1"></stop></linearGradient></defs><defs><linearGradient id="grad2_4" x1="0%" y1="0%" x2="75%" y2="100%"><stop offset="23.333333333333336%" stop-color="#ff7c2a" stop-opacity="1"></stop><stop offset="76.66666666666666%" stop-color="#ff913e" stop-opacity="1"></stop></linearGradient></defs><defs><linearGradient id="grad2_5" x1="0%" y1="0%" x2="75%" y2="100%"><stop offset="23.333333333333336%" stop-color="#fea453" stop-opacity="1"></stop><stop offset="76.66666666666666%" stop-color="#ff913e" stop-opacity="1"></stop></linearGradient></defs><defs><linearGradient id="grad2_6" x1="0%" y1="0%" x2="75%" y2="100%"><stop offset="23.333333333333336%" stop-color="#fea453" stop-opacity="1"></stop><stop offset="76.66666666666666%" stop-color="#ffb66a" stop-opacity="1"></stop></linearGradient></defs><defs><linearGradient id="grad2_7" x1="0%" y1="0%" x2="75%" y2="100%"><stop offset="23.333333333333336%" stop-color="#ffc783" stop-opacity="1"></stop><stop offset="76.66666666666666%" stop-color="#ffb66a" stop-opacity="1"></stop></linearGradient></defs><g transform="translate(900, 0)"><path d="M0 562.5C-28.6 586.6 -57.1 610.7 -67.8 558.4C-78.5 506.1 -71.2 377.5 -90.7 368C-110.2 358.4 -156.5 467.9 -196.1 517.1C-235.7 566.2 -268.5 554.9 -259.3 494.1C-250.1 433.2 -198.9 322.8 -209 302.9C-219.2 283 -290.8 353.7 -327.6 369.8C-364.4 385.9 -366.4 347.4 -336.1 297.7C-305.7 248.1 -243 187.2 -259.2 178.9C-275.5 170.7 -370.6 214.9 -431.2 226.3C-491.8 237.7 -517.9 216.2 -474.1 179.8C-430.2 143.3 -316.4 91.9 -273.8 67.5C-231.2 43 -259.7 45.6 -319.7 38.8C-379.6 32.1 -471.1 16 -562.5 0L0 0Z" fill="#ffbf76"></path><path d="M0 492.2C-25 513.3 -50 534.3 -59.3 488.6C-68.6 442.9 -62.3 330.3 -79.4 322C-96.4 313.6 -137 409.4 -171.6 452.4C-206.2 495.4 -234.9 485.6 -226.9 432.3C-218.9 379.1 -174 282.4 -182.9 265C-191.8 247.6 -254.4 309.4 -286.6 323.5C-318.8 337.6 -320.6 304 -294.1 260.5C-267.5 217.1 -212.6 163.8 -226.8 156.6C-241 149.3 -324.3 188.1 -377.3 198C-430.3 208 -453.2 189.2 -414.8 157.3C-376.4 125.4 -276.9 80.4 -239.6 59.1C-202.3 37.7 -227.2 39.9 -279.7 34C-332.2 28.1 -412.2 14 -492.2 0L0 0Z" fill="#fead5e"></path><path d="M0 421.9C-21.4 439.9 -42.9 458 -50.9 418.8C-58.8 379.6 -53.4 283.2 -68 276C-82.7 268.8 -117.4 351 -147.1 387.8C-176.8 424.6 -201.4 416.2 -194.5 370.6C-187.6 324.9 -149.2 242.1 -156.8 227.1C-164.4 212.2 -218.1 265.2 -245.7 277.3C-273.3 289.4 -274.8 260.6 -252.1 223.3C-229.3 186.1 -182.3 140.4 -194.4 134.2C-206.6 128 -278 161.2 -323.4 169.7C-368.9 178.3 -388.4 162.2 -355.5 134.8C-322.7 107.5 -237.3 68.9 -205.4 50.6C-173.4 32.3 -194.8 34.2 -239.7 29.1C-284.7 24 -353.3 12 -421.9 0L0 0Z" fill="#ff9b48"></path><path d="M0 351.6C-17.9 366.6 -35.7 381.7 -42.4 349C-49 316.3 -44.5 236 -56.7 230C-68.9 224 -97.8 292.5 -122.6 323.2C-147.3 353.9 -167.8 346.8 -162.1 308.8C-156.3 270.8 -124.3 201.7 -130.7 189.3C-137 176.9 -181.7 221 -204.7 231.1C-227.7 241.2 -229 217.1 -210.1 186.1C-191.1 155.1 -151.9 117 -162 111.8C-172.2 106.7 -231.6 134.3 -269.5 141.5C-307.4 148.6 -323.7 135.1 -296.3 112.4C-268.9 89.6 -197.8 57.5 -171.1 42.2C-144.5 26.9 -162.3 28.5 -199.8 24.3C-237.3 20 -294.4 10 -351.6 0L0 0Z" fill="#ff8733"></path><path d="M0 281.3C-14.3 293.3 -28.6 305.3 -33.9 279.2C-39.2 253.1 -35.6 188.8 -45.4 184C-55.1 179.2 -78.3 234 -98 258.5C-117.8 283.1 -134.3 277.5 -129.7 247C-125.1 216.6 -99.4 161.4 -104.5 151.4C-109.6 141.5 -145.4 176.8 -163.8 184.9C-182.2 192.9 -183.2 173.7 -168 148.9C-152.9 124 -121.5 93.6 -129.6 89.5C-137.7 85.3 -185.3 107.5 -215.6 113.2C-245.9 118.9 -259 108.1 -237 89.9C-215.1 71.7 -158.2 46 -136.9 33.7C-115.6 21.5 -129.8 22.8 -159.8 19.4C-189.8 16 -235.5 8 -281.2 0L0 0Z" fill="#ff7021"></path><path d="M0 210.9C-10.7 220 -21.4 229 -25.4 209.4C-29.4 189.8 -26.7 141.6 -34 138C-41.3 134.4 -58.7 175.5 -73.5 193.9C-88.4 212.3 -100.7 208.1 -97.2 185.3C-93.8 162.5 -74.6 121 -78.4 113.6C-82.2 106.1 -109 132.6 -122.8 138.7C-136.6 144.7 -137.4 130.3 -126 111.7C-114.7 93 -91.1 70.2 -97.2 67.1C-103.3 64 -139 80.6 -161.7 84.9C-184.4 89.1 -194.2 81.1 -177.8 67.4C-161.3 53.8 -118.7 34.5 -102.7 25.3C-86.7 16.1 -97.4 17.1 -119.9 14.6C-142.4 12 -176.6 6 -210.9 0L0 0Z" fill="#ff550f"></path><path d="M0 140.6C-7.1 146.6 -14.3 152.7 -17 139.6C-19.6 126.5 -17.8 94.4 -22.7 92C-27.6 89.6 -39.1 117 -49 129.3C-58.9 141.5 -67.1 138.7 -64.8 123.5C-62.5 108.3 -49.7 80.7 -52.3 75.7C-54.8 70.7 -72.7 88.4 -81.9 92.4C-91.1 96.5 -91.6 86.9 -84 74.4C-76.4 62 -60.8 46.8 -64.8 44.7C-68.9 42.7 -92.7 53.7 -107.8 56.6C-123 59.4 -129.5 54.1 -118.5 44.9C-107.6 35.8 -79.1 23 -68.5 16.9C-57.8 10.8 -64.9 11.4 -79.9 9.7C-94.9 8 -117.8 4 -140.6 0L0 0Z" fill="#ff2f02"></path><path d="M0 70.3C-3.6 73.3 -7.1 76.3 -8.5 69.8C-9.8 63.3 -8.9 47.2 -11.3 46C-13.8 44.8 -19.6 58.5 -24.5 64.6C-29.5 70.8 -33.6 69.4 -32.4 61.8C-31.3 54.2 -24.9 40.3 -26.1 37.9C-27.4 35.4 -36.3 44.2 -40.9 46.2C-45.5 48.2 -45.8 43.4 -42 37.2C-38.2 31 -30.4 23.4 -32.4 22.4C-34.4 21.3 -46.3 26.9 -53.9 28.3C-61.5 29.7 -64.7 27 -59.3 22.5C-53.8 17.9 -39.6 11.5 -34.2 8.4C-28.9 5.4 -32.5 5.7 -40 4.9C-47.5 4 -58.9 2 -70.3 0L0 0Z" fill="#ff0000"></path></g><g transform="translate(0, 675)"><path d="M0 -562.5C16.4 -495.2 32.8 -427.9 50.4 -415C68 -402 86.7 -443.4 118.9 -482.6C151.1 -521.7 196.8 -558.6 186.9 -492.8C176.9 -426.9 111.4 -258.2 131.1 -249.7C150.7 -241.2 255.4 -393 298.8 -432.9C342.2 -472.8 324.3 -401 309.7 -349.6C295.1 -298.1 283.8 -267.2 270.2 -239.4C256.6 -211.6 240.6 -187 287.2 -198.3C333.8 -209.5 443 -256.7 498.1 -261.4C553.1 -266.2 554 -228.5 485.3 -184C416.5 -139.5 278.1 -88.2 286.4 -70.6C294.7 -53 449.7 -69.3 520.2 -63.2C590.6 -57 576.6 -28.5 562.5 0L0 0Z" fill="#ffbf76"></path><path d="M0 -492.2C14.4 -433.3 28.7 -374.4 44.1 -363.1C59.5 -351.8 75.9 -388 104.1 -422.2C132.3 -456.5 172.2 -488.8 163.5 -431.2C154.8 -373.5 97.5 -225.9 114.7 -218.5C131.8 -211.1 223.5 -343.8 261.5 -378.8C299.4 -413.7 283.7 -350.8 271 -305.9C258.2 -260.9 248.4 -233.8 236.4 -209.5C224.5 -185.1 210.5 -163.6 251.3 -173.5C292.1 -183.3 387.6 -224.6 435.8 -228.7C484 -232.9 484.8 -200 424.6 -161C364.5 -122.1 243.4 -77.1 250.6 -61.8C257.9 -46.4 393.5 -60.6 455.2 -55.3C516.8 -49.9 504.5 -25 492.2 0L0 0Z" fill="#fead5e"></path><path d="M0 -421.9C12.3 -371.4 24.6 -320.9 37.8 -311.2C51 -301.5 65 -332.5 89.2 -361.9C113.4 -391.3 147.6 -419 140.2 -369.6C132.7 -320.2 83.6 -193.6 98.3 -187.3C113 -180.9 191.6 -294.7 224.1 -324.7C256.7 -354.6 243.2 -300.7 232.3 -262.2C221.3 -223.6 212.9 -200.4 202.7 -179.5C192.4 -158.7 180.5 -140.2 215.4 -148.7C250.4 -157.1 332.3 -192.5 373.6 -196.1C414.8 -199.6 415.5 -171.4 364 -138C312.4 -104.7 208.6 -66.1 214.8 -52.9C221 -39.8 337.3 -52 390.1 -47.4C443 -42.8 432.4 -21.4 421.9 0L0 0Z" fill="#ff9b48"></path><path d="M0 -351.6C10.3 -309.5 20.5 -267.4 31.5 -259.3C42.5 -251.3 54.2 -277.1 74.3 -301.6C94.5 -326.1 123 -349.1 116.8 -308C110.6 -266.8 69.6 -161.4 81.9 -156.1C94.2 -150.8 159.6 -245.6 186.8 -270.6C213.9 -295.5 202.7 -250.6 193.5 -218.5C184.4 -186.3 177.4 -167 168.9 -149.6C160.4 -132.2 150.4 -116.9 179.5 -123.9C208.6 -130.9 276.9 -160.4 311.3 -163.4C345.7 -166.4 346.3 -142.8 303.3 -115C260.3 -87.2 173.8 -55.1 179 -44.1C184.2 -33.1 281.1 -43.3 325.1 -39.5C369.2 -35.6 360.4 -17.8 351.6 0L0 0Z" fill="#ff8733"></path><path d="M0 -281.2C8.2 -247.6 16.4 -214 25.2 -207.5C34 -201 43.4 -221.7 59.5 -241.3C75.6 -260.9 98.4 -279.3 93.4 -246.4C88.5 -213.4 55.7 -129.1 65.5 -124.8C75.3 -120.6 127.7 -196.5 149.4 -216.4C171.1 -236.4 162.1 -200.5 154.8 -174.8C147.5 -149.1 141.9 -133.6 135.1 -119.7C128.3 -105.8 120.3 -93.5 143.6 -99.1C166.9 -104.8 221.5 -128.3 249 -130.7C276.6 -133.1 277 -114.3 242.6 -92C208.3 -69.8 139.1 -44.1 143.2 -35.3C147.4 -26.5 224.9 -34.6 260.1 -31.6C295.3 -28.5 288.3 -14.3 281.3 0L0 0Z" fill="#ff7021"></path><path d="M0 -210.9C6.2 -185.7 12.3 -160.5 18.9 -155.6C25.5 -150.8 32.5 -166.3 44.6 -181C56.7 -195.6 73.8 -209.5 70.1 -184.8C66.4 -160.1 41.8 -96.8 49.1 -93.6C56.5 -90.5 95.8 -147.4 112.1 -162.3C128.3 -177.3 121.6 -150.4 116.1 -131.1C110.7 -111.8 106.4 -100.2 101.3 -89.8C96.2 -79.3 90.2 -70.1 107.7 -74.3C125.2 -78.6 166.1 -96.2 186.8 -98C207.4 -99.8 207.8 -85.7 182 -69C156.2 -52.3 104.3 -33.1 107.4 -26.5C110.5 -19.9 168.6 -26 195.1 -23.7C221.5 -21.4 216.2 -10.7 210.9 0L0 0Z" fill="#ff550f"></path><path d="M0 -140.6C4.1 -123.8 8.2 -107 12.6 -103.7C17 -100.5 21.7 -110.8 29.7 -120.6C37.8 -130.4 49.2 -139.7 46.7 -123.2C44.2 -106.7 27.9 -64.5 32.8 -62.4C37.7 -60.3 63.9 -98.2 74.7 -108.2C85.6 -118.2 81.1 -100.2 77.4 -87.4C73.8 -74.5 71 -66.8 67.6 -59.8C64.1 -52.9 60.2 -46.7 71.8 -49.6C83.5 -52.4 110.8 -64.2 124.5 -65.4C138.3 -66.5 138.5 -57.1 121.3 -46C104.1 -34.9 69.5 -22 71.6 -17.6C73.7 -13.3 112.4 -17.3 130 -15.8C147.7 -14.3 144.1 -7.1 140.6 0L0 0Z" fill="#ff2f02"></path><path d="M0 -70.3C2.1 -61.9 4.1 -53.5 6.3 -51.9C8.5 -50.3 10.8 -55.4 14.9 -60.3C18.9 -65.2 24.6 -69.8 23.4 -61.6C22.1 -53.4 13.9 -32.3 16.4 -31.2C18.8 -30.2 31.9 -49.1 37.4 -54.1C42.8 -59.1 40.5 -50.1 38.7 -43.7C36.9 -37.3 35.5 -33.4 33.8 -29.9C32.1 -26.4 30.1 -23.4 35.9 -24.8C41.7 -26.2 55.4 -32.1 62.3 -32.7C69.1 -33.3 69.3 -28.6 60.7 -23C52.1 -17.4 34.8 -11 35.8 -8.8C36.8 -6.6 56.2 -8.7 65 -7.9C73.8 -7.1 72.1 -3.6 70.3 0L0 0Z" fill="#ff0000"></path></g></svg>