<svg id="visual" viewBox="0 0 675 900" width="675" height="900" xmlns="http://www.w3.org/2000/svg" xmlns:xlink="http://www.w3.org/1999/xlink" version="1.1"><g stroke-width="1" stroke-linejoin="bevel"><path d="M225 450L225 225L0 225Z" fill="#2a5b91" stroke="#2a5b91"></path><path d="M0 225L0 450L225 450Z" fill="#47a1e8" stroke="#47a1e8"></path><path d="M225 225L0 0L0 225Z" fill="#00112f" stroke="#00112f"></path><path d="M225 225L225 0L0 0Z" fill="#224b7c" stroke="#224b7c"></path><path d="M225 450L450 225L225 225Z" fill="#051f41" stroke="#051f41"></path><path d="M225 225L450 225L225 0Z" fill="#3a7dbc" stroke="#3a7dbc"></path><path d="M225 450L450 450L450 225Z" fill="#4db4ff" stroke="#4db4ff"></path><path d="M0 450L0 675L225 450Z" fill="#00112f" stroke="#00112f"></path><path d="M225 450L225 675L450 450Z" fill="#224b7c" stroke="#224b7c"></path><path d="M0 675L225 675L225 450Z" fill="#4db4ff" stroke="#4db4ff"></path><path d="M450 225L450 0L225 0Z" fill="#193c68" stroke="#193c68"></path><path d="M225 675L450 675L450 450Z" fill="#47a1e8" stroke="#47a1e8"></path><path d="M450 450L675 225L450 225Z" fill="#0f2d54" stroke="#0f2d54"></path><path d="M450 225L675 225L450 0Z" fill="#224b7c" stroke="#224b7c"></path><path d="M675 450L675 225L450 450Z" fill="#4db4ff" stroke="#4db4ff"></path><path d="M450 675L675 450L450 450Z" fill="#418fd2" stroke="#418fd2"></path><path d="M225 675L225 900L450 675Z" fill="#418fd2" stroke="#418fd2"></path><path d="M0 675L0 900L225 675Z" fill="#051f41" stroke="#051f41"></path><path d="M0 900L225 900L225 675Z" fill="#193c68" stroke="#193c68"></path><path d="M675 225L675 0L450 0Z" fill="#326ca6" stroke="#326ca6"></path><path d="M450 900L675 675L450 675Z" fill="#051f41" stroke="#051f41"></path><path d="M450 675L675 675L675 450Z" fill="#326ca6" stroke="#326ca6"></path><path d="M225 900L450 900L450 675Z" fill="#418fd2" stroke="#418fd2"></path><path d="M450 900L675 900L675 675Z" fill="#193c68" stroke="#193c68"></path></g></svg>