<svg id="visual" viewBox="0 0 675 900" width="675" height="900" xmlns="http://www.w3.org/2000/svg" xmlns:xlink="http://www.w3.org/1999/xlink" version="1.1"><g stroke-width="18" stroke-linejoin="bevel"><path d="M337.5 466.7L337.5 433.3L303.8 433.3Z" fill="#b40090" stroke="#000000"></path><path d="M303.8 433.3L303.8 466.7L337.5 466.7Z" fill="#ffc400" stroke="#000000"></path><path d="M337.5 433.3L303.8 400L303.8 433.3Z" fill="#ffe800" stroke="#000000"></path><path d="M337.5 433.3L337.5 400L303.8 400Z" fill="#ffe800" stroke="#000000"></path><path d="M303.8 466.7L303.8 500L337.5 466.7Z" fill="#d7007a" stroke="#000000"></path><path d="M303.8 500L337.5 500L337.5 466.7Z" fill="#ff0050" stroke="#000000"></path><path d="M303.8 400L270 433.3L303.8 433.3Z" fill="#ff7723" stroke="#000000"></path><path d="M303.8 433.3L270 433.3L303.8 466.7Z" fill="#ffc400" stroke="#000000"></path><path d="M303.8 466.7L270 466.7L303.8 500Z" fill="#ffc400" stroke="#000000"></path><path d="M371.3 466.7L371.3 433.3L337.5 466.7Z" fill="#d7007a" stroke="#000000"></path><path d="M337.5 466.7L371.3 433.3L337.5 433.3Z" fill="#b40090" stroke="#000000"></path><path d="M337.5 433.3L371.3 433.3L337.5 400Z" fill="#ffc400" stroke="#000000"></path><path d="M270 433.3L270 466.7L303.8 466.7Z" fill="#b40090" stroke="#000000"></path><path d="M337.5 500L371.3 466.7L337.5 466.7Z" fill="#ff4b3c" stroke="#000000"></path><path d="M371.3 433.3L371.3 400L337.5 400Z" fill="#2600b3" stroke="#000000"></path><path d="M303.8 400L270 400L270 433.3Z" fill="#2600b3" stroke="#000000"></path><path d="M337.5 500L371.3 500L371.3 466.7Z" fill="#ef0065" stroke="#000000"></path><path d="M270 466.7L270 500L303.8 500Z" fill="#ffc400" stroke="#000000"></path><path d="M371.3 400L337.5 366.7L337.5 400Z" fill="#8200a4" stroke="#000000"></path><path d="M337.5 400L337.5 366.7L303.8 400Z" fill="#ff4b3c" stroke="#000000"></path><path d="M303.8 400L303.8 366.7L270 400Z" fill="#ffc400" stroke="#000000"></path><path d="M337.5 366.7L303.8 366.7L303.8 400Z" fill="#2600b3" stroke="#000000"></path><path d="M270 500L303.8 533.3L303.8 500Z" fill="#d7007a" stroke="#000000"></path><path d="M303.8 500L303.8 533.3L337.5 500Z" fill="#ff4b3c" stroke="#000000"></path><path d="M337.5 500L337.5 533.3L371.3 500Z" fill="#ef0065" stroke="#000000"></path><path d="M303.8 533.3L337.5 533.3L337.5 500Z" fill="#b40090" stroke="#000000"></path><path d="M270 400L236.3 433.3L270 433.3Z" fill="#ff4b3c" stroke="#000000"></path><path d="M270 433.3L236.3 433.3L270 466.7Z" fill="#b40090" stroke="#000000"></path><path d="M270 466.7L236.3 466.7L270 500Z" fill="#2600b3" stroke="#000000"></path><path d="M405 466.7L405 433.3L371.3 466.7Z" fill="#ef0065" stroke="#000000"></path><path d="M371.3 466.7L405 433.3L371.3 433.3Z" fill="#ffc400" stroke="#000000"></path><path d="M371.3 433.3L405 433.3L371.3 400Z" fill="#ff0050" stroke="#000000"></path><path d="M371.3 500L405 466.7L371.3 466.7Z" fill="#ff0050" stroke="#000000"></path><path d="M236.3 433.3L236.3 466.7L270 466.7Z" fill="#b40090" stroke="#000000"></path><path d="M405 400L371.3 366.7L371.3 400Z" fill="#2600b3" stroke="#000000"></path><path d="M371.3 400L371.3 366.7L337.5 366.7Z" fill="#d7007a" stroke="#000000"></path><path d="M303.8 366.7L270 366.7L270 400Z" fill="#ff7723" stroke="#000000"></path><path d="M270 400L236.3 400L236.3 433.3Z" fill="#b40090" stroke="#000000"></path><path d="M337.5 533.3L371.3 533.3L371.3 500Z" fill="#8200a4" stroke="#000000"></path><path d="M371.3 500L405 500L405 466.7Z" fill="#ff4b3c" stroke="#000000"></path><path d="M236.3 500L270 533.3L270 500Z" fill="#ffc400" stroke="#000000"></path><path d="M270 500L270 533.3L303.8 533.3Z" fill="#ff4b3c" stroke="#000000"></path><path d="M270 366.7L236.3 400L270 400Z" fill="#ffe800" stroke="#000000"></path><path d="M405 433.3L405 400L371.3 400Z" fill="#ff7723" stroke="#000000"></path><path d="M371.3 533.3L405 500L371.3 500Z" fill="#8200a4" stroke="#000000"></path><path d="M236.3 466.7L236.3 500L270 500Z" fill="#ff7723" stroke="#000000"></path><path d="M337.5 366.7L303.8 333.3L303.8 366.7Z" fill="#ef0065" stroke="#000000"></path><path d="M303.8 366.7L303.8 333.3L270 366.7Z" fill="#b40090" stroke="#000000"></path><path d="M337.5 333.3L303.8 333.3L337.5 366.7Z" fill="#ff7723" stroke="#000000"></path><path d="M371.3 366.7L337.5 333.3L337.5 366.7Z" fill="#b40090" stroke="#000000"></path><path d="M303.8 533.3L337.5 566.7L337.5 533.3Z" fill="#8200a4" stroke="#000000"></path><path d="M337.5 533.3L337.5 566.7L371.3 533.3Z" fill="#ff0050" stroke="#000000"></path><path d="M371.3 533.3L405 533.3L405 500Z" fill="#b40090" stroke="#000000"></path><path d="M303.8 566.7L337.5 566.7L303.8 533.3Z" fill="#ff4b3c" stroke="#000000"></path><path d="M270 566.7L303.8 566.7L270 533.3Z" fill="#b40090" stroke="#000000"></path><path d="M270 533.3L303.8 566.7L303.8 533.3Z" fill="#ff9f00" stroke="#000000"></path><path d="M270 333.3L236.3 366.7L270 366.7Z" fill="#ffc400" stroke="#000000"></path><path d="M270 366.7L236.3 366.7L236.3 400Z" fill="#ff9f00" stroke="#000000"></path><path d="M405 400L405 366.7L371.3 366.7Z" fill="#ff0050" stroke="#000000"></path><path d="M371.3 366.7L371.3 333.3L337.5 333.3Z" fill="#ffe800" stroke="#000000"></path><path d="M371.3 566.7L405 533.3L371.3 533.3Z" fill="#2600b3" stroke="#000000"></path><path d="M236.3 500L236.3 533.3L270 533.3Z" fill="#ef0065" stroke="#000000"></path><path d="M236.3 400L202.5 433.3L236.3 433.3Z" fill="#ff4b3c" stroke="#000000"></path><path d="M236.3 433.3L202.5 433.3L236.3 466.7Z" fill="#ff9f00" stroke="#000000"></path><path d="M236.3 466.7L202.5 466.7L236.3 500Z" fill="#8200a4" stroke="#000000"></path><path d="M236.3 500L202.5 500L236.3 533.3Z" fill="#ef0065" stroke="#000000"></path><path d="M202.5 400L202.5 433.3L236.3 400Z" fill="#d7007a" stroke="#000000"></path><path d="M405 466.7L438.8 433.3L405 433.3Z" fill="#2600b3" stroke="#000000"></path><path d="M405 433.3L438.8 433.3L405 400Z" fill="#8200a4" stroke="#000000"></path><path d="M405 400L438.8 400L405 366.7Z" fill="#b40090" stroke="#000000"></path><path d="M438.8 466.7L438.8 433.3L405 466.7Z" fill="#ffc400" stroke="#000000"></path><path d="M438.8 466.7L405 466.7L405 500Z" fill="#ff0050" stroke="#000000"></path><path d="M202.5 433.3L202.5 466.7L236.3 466.7Z" fill="#2600b3" stroke="#000000"></path><path d="M438.8 500L438.8 466.7L405 500Z" fill="#d7007a" stroke="#000000"></path><path d="M405 366.7L371.3 333.3L371.3 366.7Z" fill="#ff9f00" stroke="#000000"></path><path d="M303.8 333.3L270 333.3L270 366.7Z" fill="#ef0065" stroke="#000000"></path><path d="M337.5 566.7L371.3 566.7L371.3 533.3Z" fill="#2600b3" stroke="#000000"></path><path d="M236.3 533.3L270 566.7L270 533.3Z" fill="#ff4b3c" stroke="#000000"></path><path d="M236.3 366.7L202.5 400L236.3 400Z" fill="#ef0065" stroke="#000000"></path><path d="M438.8 433.3L438.8 400L405 400Z" fill="#d7007a" stroke="#000000"></path><path d="M202.5 466.7L202.5 500L236.3 500Z" fill="#8200a4" stroke="#000000"></path><path d="M236.3 533.3L236.3 566.7L270 566.7Z" fill="#ff4b3c" stroke="#000000"></path><path d="M438.8 533.3L438.8 500L405 533.3Z" fill="#ff4b3c" stroke="#000000"></path><path d="M405 533.3L438.8 500L405 500Z" fill="#8200a4" stroke="#000000"></path><path d="M405 366.7L405 333.3L371.3 333.3Z" fill="#ff4b3c" stroke="#000000"></path><path d="M438.8 366.7L405 333.3L405 366.7Z" fill="#8200a4" stroke="#000000"></path><path d="M270 333.3L236.3 333.3L236.3 366.7Z" fill="#ff9f00" stroke="#000000"></path><path d="M236.3 366.7L202.5 366.7L202.5 400Z" fill="#2600b3" stroke="#000000"></path><path d="M202.5 533.3L236.3 566.7L236.3 533.3Z" fill="#8200a4" stroke="#000000"></path><path d="M371.3 566.7L405 566.7L405 533.3Z" fill="#ff9f00" stroke="#000000"></path><path d="M236.3 333.3L202.5 366.7L236.3 366.7Z" fill="#ef0065" stroke="#000000"></path><path d="M438.8 400L438.8 366.7L405 366.7Z" fill="#ff0050" stroke="#000000"></path><path d="M202.5 500L202.5 533.3L236.3 533.3Z" fill="#ff4b3c" stroke="#000000"></path><path d="M405 566.7L438.8 533.3L405 533.3Z" fill="#b40090" stroke="#000000"></path><path d="M371.3 333.3L337.5 300L337.5 333.3Z" fill="#ffc400" stroke="#000000"></path><path d="M337.5 333.3L337.5 300L303.8 333.3Z" fill="#d7007a" stroke="#000000"></path><path d="M303.8 333.3L303.8 300L270 333.3Z" fill="#8200a4" stroke="#000000"></path><path d="M270 333.3L270 300L236.3 333.3Z" fill="#ff7723" stroke="#000000"></path><path d="M371.3 300L337.5 300L371.3 333.3Z" fill="#ff4b3c" stroke="#000000"></path><path d="M303.8 600L337.5 566.7L303.8 566.7Z" fill="#ff0050" stroke="#000000"></path><path d="M303.8 600L337.5 600L337.5 566.7Z" fill="#ef0065" stroke="#000000"></path><path d="M337.5 566.7L371.3 600L371.3 566.7Z" fill="#ff4b3c" stroke="#000000"></path><path d="M371.3 566.7L405 600L405 566.7Z" fill="#d7007a" stroke="#000000"></path><path d="M303.8 600L303.8 566.7L270 600Z" fill="#b40090" stroke="#000000"></path><path d="M270 600L303.8 566.7L270 566.7Z" fill="#8200a4" stroke="#000000"></path><path d="M337.5 300L303.8 300L303.8 333.3Z" fill="#b40090" stroke="#000000"></path><path d="M202.5 400L168.8 433.3L202.5 433.3Z" fill="#ff9f00" stroke="#000000"></path><path d="M202.5 433.3L168.8 433.3L202.5 466.7Z" fill="#8200a4" stroke="#000000"></path><path d="M202.5 466.7L168.8 466.7L202.5 500Z" fill="#ff9f00" stroke="#000000"></path><path d="M202.5 500L168.8 500L202.5 533.3Z" fill="#ff7723" stroke="#000000"></path><path d="M168.8 400L168.8 433.3L202.5 400Z" fill="#2600b3" stroke="#000000"></path><path d="M168.8 433.3L168.8 466.7L202.5 466.7Z" fill="#b40090" stroke="#000000"></path><path d="M438.8 500L472.5 466.7L438.8 466.7Z" fill="#ffe800" stroke="#000000"></path><path d="M438.8 466.7L472.5 466.7L438.8 433.3Z" fill="#ff9f00" stroke="#000000"></path><path d="M438.8 433.3L472.5 433.3L438.8 400Z" fill="#ff9f00" stroke="#000000"></path><path d="M438.8 400L472.5 400L438.8 366.7Z" fill="#d7007a" stroke="#000000"></path><path d="M472.5 500L472.5 466.7L438.8 500Z" fill="#ef0065" stroke="#000000"></path><path d="M472.5 466.7L472.5 433.3L438.8 433.3Z" fill="#ffe800" stroke="#000000"></path><path d="M236.3 600L270 600L270 566.7Z" fill="#ff7723" stroke="#000000"></path><path d="M405 300L371.3 300L405 333.3Z" fill="#d7007a" stroke="#000000"></path><path d="M405 333.3L371.3 300L371.3 333.3Z" fill="#ff7723" stroke="#000000"></path><path d="M303.8 300L270 300L270 333.3Z" fill="#b40090" stroke="#000000"></path><path d="M236.3 333.3L202.5 333.3L202.5 366.7Z" fill="#d7007a" stroke="#000000"></path><path d="M337.5 600L371.3 600L337.5 566.7Z" fill="#ff9f00" stroke="#000000"></path><path d="M472.5 433.3L472.5 400L438.8 400Z" fill="#ef0065" stroke="#000000"></path><path d="M438.8 366.7L438.8 333.3L405 333.3Z" fill="#2600b3" stroke="#000000"></path><path d="M168.8 366.7L168.8 400L202.5 366.7Z" fill="#8200a4" stroke="#000000"></path><path d="M202.5 366.7L168.8 400L202.5 400Z" fill="#8200a4" stroke="#000000"></path><path d="M472.5 533.3L472.5 500L438.8 533.3Z" fill="#b40090" stroke="#000000"></path><path d="M438.8 533.3L472.5 500L438.8 500Z" fill="#ffc400" stroke="#000000"></path><path d="M168.8 466.7L168.8 500L202.5 500Z" fill="#2600b3" stroke="#000000"></path><path d="M202.5 533.3L202.5 566.7L236.3 566.7Z" fill="#ef0065" stroke="#000000"></path><path d="M236.3 300L202.5 333.3L236.3 333.3Z" fill="#ff4b3c" stroke="#000000"></path><path d="M472.5 366.7L438.8 333.3L438.8 366.7Z" fill="#ffc400" stroke="#000000"></path><path d="M438.8 600L438.8 566.7L405 566.7Z" fill="#ff7723" stroke="#000000"></path><path d="M405 566.7L438.8 566.7L438.8 533.3Z" fill="#8200a4" stroke="#000000"></path><path d="M168.8 533.3L202.5 566.7L202.5 533.3Z" fill="#ff0050" stroke="#000000"></path><path d="M236.3 566.7L236.3 600L270 566.7Z" fill="#ff7723" stroke="#000000"></path><path d="M270 300L236.3 300L236.3 333.3Z" fill="#2600b3" stroke="#000000"></path><path d="M371.3 600L405 600L371.3 566.7Z" fill="#b40090" stroke="#000000"></path><path d="M202.5 600L236.3 600L236.3 566.7Z" fill="#ef0065" stroke="#000000"></path><path d="M438.8 333.3L405 300L405 333.3Z" fill="#ff9f00" stroke="#000000"></path><path d="M472.5 400L472.5 366.7L438.8 366.7Z" fill="#ffe800" stroke="#000000"></path><path d="M438.8 333.3L438.8 300L405 300Z" fill="#d7007a" stroke="#000000"></path><path d="M168.8 333.3L168.8 366.7L202.5 333.3Z" fill="#ff9f00" stroke="#000000"></path><path d="M202.5 333.3L168.8 366.7L202.5 366.7Z" fill="#ff7723" stroke="#000000"></path><path d="M168.8 500L168.8 533.3L202.5 533.3Z" fill="#2600b3" stroke="#000000"></path><path d="M438.8 566.7L472.5 533.3L438.8 533.3Z" fill="#8200a4" stroke="#000000"></path><path d="M371.3 300L337.5 266.7L337.5 300Z" fill="#ffc400" stroke="#000000"></path><path d="M337.5 300L337.5 266.7L303.8 300Z" fill="#b40090" stroke="#000000"></path><path d="M303.8 300L303.8 266.7L270 300Z" fill="#ff0050" stroke="#000000"></path><path d="M270 300L270 266.7L236.3 300Z" fill="#8200a4" stroke="#000000"></path><path d="M371.3 266.7L337.5 266.7L371.3 300Z" fill="#d7007a" stroke="#000000"></path><path d="M337.5 266.7L303.8 266.7L303.8 300Z" fill="#ff9f00" stroke="#000000"></path><path d="M270 600L303.8 633.3L303.8 600Z" fill="#d7007a" stroke="#000000"></path><path d="M303.8 600L303.8 633.3L337.5 600Z" fill="#ff9f00" stroke="#000000"></path><path d="M337.5 600L337.5 633.3L371.3 600Z" fill="#8200a4" stroke="#000000"></path><path d="M371.3 600L371.3 633.3L405 600Z" fill="#ff7723" stroke="#000000"></path><path d="M270 633.3L303.8 633.3L270 600Z" fill="#2600b3" stroke="#000000"></path><path d="M303.8 633.3L337.5 633.3L337.5 600Z" fill="#ef0065" stroke="#000000"></path><path d="M472.5 466.7L506.3 433.3L472.5 433.3Z" fill="#ff0050" stroke="#000000"></path><path d="M472.5 433.3L506.3 433.3L472.5 400Z" fill="#ff4b3c" stroke="#000000"></path><path d="M472.5 400L506.3 400L472.5 366.7Z" fill="#ef0065" stroke="#000000"></path><path d="M506.3 466.7L506.3 433.3L472.5 466.7Z" fill="#ff7723" stroke="#000000"></path><path d="M506.3 466.7L472.5 466.7L472.5 500Z" fill="#ef0065" stroke="#000000"></path><path d="M168.8 400L135 433.3L168.8 433.3Z" fill="#2600b3" stroke="#000000"></path><path d="M168.8 433.3L135 433.3L168.8 466.7Z" fill="#ff9f00" stroke="#000000"></path><path d="M168.8 466.7L135 466.7L168.8 500Z" fill="#2600b3" stroke="#000000"></path><path d="M168.8 500L135 500L168.8 533.3Z" fill="#ef0065" stroke="#000000"></path><path d="M135 400L135 433.3L168.8 400Z" fill="#2600b3" stroke="#000000"></path><path d="M506.3 500L506.3 466.7L472.5 500Z" fill="#b40090" stroke="#000000"></path><path d="M135 433.3L135 466.7L168.8 466.7Z" fill="#ffc400" stroke="#000000"></path><path d="M303.8 266.7L270 266.7L270 300Z" fill="#d7007a" stroke="#000000"></path><path d="M405 300L371.3 266.7L371.3 300Z" fill="#ffc400" stroke="#000000"></path><path d="M337.5 633.3L371.3 633.3L371.3 600Z" fill="#ff9f00" stroke="#000000"></path><path d="M405 600L438.8 600L405 566.7Z" fill="#ff4b3c" stroke="#000000"></path><path d="M236.3 633.3L270 633.3L236.3 600Z" fill="#ffe800" stroke="#000000"></path><path d="M236.3 600L270 633.3L270 600Z" fill="#ff4b3c" stroke="#000000"></path><path d="M405 633.3L438.8 600L405 600Z" fill="#b40090" stroke="#000000"></path><path d="M438.8 566.7L472.5 566.7L472.5 533.3Z" fill="#b40090" stroke="#000000"></path><path d="M472.5 333.3L438.8 300L438.8 333.3Z" fill="#ffe800" stroke="#000000"></path><path d="M405 300L405 266.7L371.3 266.7Z" fill="#ff7723" stroke="#000000"></path><path d="M236.3 266.7L202.5 300L236.3 300Z" fill="#ff9f00" stroke="#000000"></path><path d="M236.3 300L202.5 300L202.5 333.3Z" fill="#8200a4" stroke="#000000"></path><path d="M168.8 600L202.5 600L202.5 566.7Z" fill="#2600b3" stroke="#000000"></path><path d="M202.5 566.7L202.5 600L236.3 566.7Z" fill="#ef0065" stroke="#000000"></path><path d="M202.5 300L168.8 333.3L202.5 333.3Z" fill="#ff7723" stroke="#000000"></path><path d="M168.8 366.7L135 400L168.8 400Z" fill="#ff9f00" stroke="#000000"></path><path d="M472.5 366.7L472.5 333.3L438.8 333.3Z" fill="#d7007a" stroke="#000000"></path><path d="M506.3 366.7L472.5 333.3L472.5 366.7Z" fill="#d7007a" stroke="#000000"></path><path d="M135 533.3L168.8 566.7L168.8 533.3Z" fill="#ffe800" stroke="#000000"></path><path d="M168.8 533.3L168.8 566.7L202.5 566.7Z" fill="#ff7723" stroke="#000000"></path><path d="M472.5 600L472.5 566.7L438.8 566.7Z" fill="#ff9f00" stroke="#000000"></path><path d="M472.5 533.3L506.3 500L472.5 500Z" fill="#ff0050" stroke="#000000"></path><path d="M506.3 433.3L506.3 400L472.5 400Z" fill="#d7007a" stroke="#000000"></path><path d="M135 366.7L135 400L168.8 366.7Z" fill="#ff4b3c" stroke="#000000"></path><path d="M506.3 533.3L506.3 500L472.5 533.3Z" fill="#8200a4" stroke="#000000"></path><path d="M135 466.7L135 500L168.8 500Z" fill="#ef0065" stroke="#000000"></path><path d="M270 266.7L236.3 266.7L236.3 300Z" fill="#d7007a" stroke="#000000"></path><path d="M438.8 300L405 266.7L405 300Z" fill="#2600b3" stroke="#000000"></path><path d="M202.5 600L236.3 633.3L236.3 600Z" fill="#2600b3" stroke="#000000"></path><path d="M202.5 633.3L236.3 633.3L202.5 600Z" fill="#2600b3" stroke="#000000"></path><path d="M371.3 633.3L405 633.3L405 600Z" fill="#b40090" stroke="#000000"></path><path d="M438.8 600L472.5 600L438.8 566.7Z" fill="#ffc400" stroke="#000000"></path><path d="M168.8 333.3L135 366.7L168.8 366.7Z" fill="#ff9f00" stroke="#000000"></path><path d="M135 333.3L135 366.7L168.8 333.3Z" fill="#ff0050" stroke="#000000"></path><path d="M506.3 400L506.3 366.7L472.5 366.7Z" fill="#ff7723" stroke="#000000"></path><path d="M472.5 333.3L472.5 300L438.8 300Z" fill="#ef0065" stroke="#000000"></path><path d="M472.5 566.7L506.3 533.3L472.5 533.3Z" fill="#2600b3" stroke="#000000"></path><path d="M135 500L135 533.3L168.8 533.3Z" fill="#8200a4" stroke="#000000"></path><path d="M135 600L168.8 600L168.8 566.7Z" fill="#b40090" stroke="#000000"></path><path d="M168.8 566.7L168.8 600L202.5 566.7Z" fill="#ff0050" stroke="#000000"></path><path d="M202.5 266.7L168.8 300L202.5 300Z" fill="#ff0050" stroke="#000000"></path><path d="M202.5 300L168.8 300L168.8 333.3Z" fill="#ffc400" stroke="#000000"></path><path d="M506.3 333.3L472.5 300L472.5 333.3Z" fill="#ff0050" stroke="#000000"></path><path d="M438.8 300L438.8 266.7L405 266.7Z" fill="#b40090" stroke="#000000"></path><path d="M438.8 633.3L472.5 600L438.8 600Z" fill="#ef0065" stroke="#000000"></path><path d="M472.5 566.7L506.3 566.7L506.3 533.3Z" fill="#ef0065" stroke="#000000"></path><path d="M337.5 266.7L303.8 233.3L303.8 266.7Z" fill="#ff9f00" stroke="#000000"></path><path d="M303.8 266.7L303.8 233.3L270 266.7Z" fill="#8200a4" stroke="#000000"></path><path d="M270 266.7L270 233.3L236.3 266.7Z" fill="#ff9f00" stroke="#000000"></path><path d="M236.3 266.7L202.5 266.7L202.5 300Z" fill="#ff9f00" stroke="#000000"></path><path d="M337.5 233.3L303.8 233.3L337.5 266.7Z" fill="#ff9f00" stroke="#000000"></path><path d="M337.5 233.3L337.5 266.7L371.3 266.7Z" fill="#ffe800" stroke="#000000"></path><path d="M371.3 233.3L371.3 266.7L405 266.7Z" fill="#d7007a" stroke="#000000"></path><path d="M371.3 233.3L337.5 233.3L371.3 266.7Z" fill="#ff4b3c" stroke="#000000"></path><path d="M270 633.3L303.8 666.7L303.8 633.3Z" fill="#ff7723" stroke="#000000"></path><path d="M303.8 633.3L303.8 666.7L337.5 633.3Z" fill="#ff9f00" stroke="#000000"></path><path d="M337.5 633.3L337.5 666.7L371.3 633.3Z" fill="#ff4b3c" stroke="#000000"></path><path d="M371.3 633.3L371.3 666.7L405 633.3Z" fill="#ef0065" stroke="#000000"></path><path d="M270 666.7L303.8 666.7L270 633.3Z" fill="#ffe800" stroke="#000000"></path><path d="M303.8 666.7L337.5 666.7L337.5 633.3Z" fill="#d7007a" stroke="#000000"></path><path d="M472.5 300L438.8 266.7L438.8 300Z" fill="#ffe800" stroke="#000000"></path><path d="M236.3 233.3L202.5 266.7L236.3 266.7Z" fill="#ffe800" stroke="#000000"></path><path d="M405 666.7L438.8 633.3L405 633.3Z" fill="#8200a4" stroke="#000000"></path><path d="M405 633.3L438.8 633.3L438.8 600Z" fill="#8200a4" stroke="#000000"></path><path d="M168.8 600L202.5 633.3L202.5 600Z" fill="#ff0050" stroke="#000000"></path><path d="M236.3 633.3L270 666.7L270 633.3Z" fill="#ff9f00" stroke="#000000"></path><path d="M168.8 300L135 333.3L168.8 333.3Z" fill="#2600b3" stroke="#000000"></path><path d="M506.3 366.7L506.3 333.3L472.5 333.3Z" fill="#ff0050" stroke="#000000"></path><path d="M135 533.3L135 566.7L168.8 566.7Z" fill="#ff9f00" stroke="#000000"></path><path d="M168.8 600L168.8 633.3L202.5 633.3Z" fill="#8200a4" stroke="#000000"></path><path d="M506.3 600L506.3 566.7L472.5 566.7Z" fill="#ffe800" stroke="#000000"></path><path d="M506.3 600L472.5 566.7L472.5 600Z" fill="#ff9f00" stroke="#000000"></path><path d="M540 466.7L506.3 466.7L506.3 500Z" fill="#ff0050" stroke="#000000"></path><path d="M540 466.7L540 433.3L506.3 466.7Z" fill="#ff4b3c" stroke="#000000"></path><path d="M506.3 466.7L540 433.3L506.3 433.3Z" fill="#ff4b3c" stroke="#000000"></path><path d="M506.3 433.3L540 433.3L506.3 400Z" fill="#d7007a" stroke="#000000"></path><path d="M506.3 400L540 400L506.3 366.7Z" fill="#ffc400" stroke="#000000"></path><path d="M506.3 366.7L540 366.7L506.3 333.3Z" fill="#d7007a" stroke="#000000"></path><path d="M540 466.7L506.3 500L540 500Z" fill="#ffc400" stroke="#000000"></path><path d="M135 400L101.3 433.3L135 433.3Z" fill="#ff7723" stroke="#000000"></path><path d="M135 433.3L101.3 433.3L135 466.7Z" fill="#ffc400" stroke="#000000"></path><path d="M135 466.7L101.3 466.7L135 500Z" fill="#d7007a" stroke="#000000"></path><path d="M135 500L101.3 500L135 533.3Z" fill="#b40090" stroke="#000000"></path><path d="M135 533.3L101.3 533.3L135 566.7Z" fill="#ef0065" stroke="#000000"></path><path d="M101.3 400L101.3 433.3L135 400Z" fill="#ff9f00" stroke="#000000"></path><path d="M101.3 400L135 400L135 366.7Z" fill="#ef0065" stroke="#000000"></path><path d="M101.3 433.3L101.3 466.7L135 466.7Z" fill="#8200a4" stroke="#000000"></path><path d="M540 500L506.3 500L506.3 533.3Z" fill="#ef0065" stroke="#000000"></path><path d="M303.8 233.3L270 233.3L270 266.7Z" fill="#2600b3" stroke="#000000"></path><path d="M405 233.3L371.3 233.3L405 266.7Z" fill="#d7007a" stroke="#000000"></path><path d="M337.5 666.7L371.3 666.7L371.3 633.3Z" fill="#2600b3" stroke="#000000"></path><path d="M236.3 666.7L270 666.7L236.3 633.3Z" fill="#ffc400" stroke="#000000"></path><path d="M540 433.3L540 400L506.3 400Z" fill="#ef0065" stroke="#000000"></path><path d="M101.3 366.7L101.3 400L135 366.7Z" fill="#b40090" stroke="#000000"></path><path d="M101.3 466.7L101.3 500L135 500Z" fill="#ffe800" stroke="#000000"></path><path d="M540 533.3L540 500L506.3 533.3Z" fill="#ffe800" stroke="#000000"></path><path d="M270 233.3L236.3 233.3L236.3 266.7Z" fill="#ffc400" stroke="#000000"></path><path d="M202.5 266.7L168.8 266.7L168.8 300Z" fill="#d7007a" stroke="#000000"></path><path d="M438.8 233.3L405 233.3L438.8 266.7Z" fill="#ffc400" stroke="#000000"></path><path d="M438.8 266.7L405 233.3L405 266.7Z" fill="#2600b3" stroke="#000000"></path><path d="M202.5 666.7L236.3 666.7L202.5 633.3Z" fill="#ff7723" stroke="#000000"></path><path d="M202.5 633.3L236.3 666.7L236.3 633.3Z" fill="#ff7723" stroke="#000000"></path><path d="M371.3 666.7L405 666.7L405 633.3Z" fill="#ffe800" stroke="#000000"></path><path d="M438.8 633.3L472.5 633.3L472.5 600Z" fill="#b40090" stroke="#000000"></path><path d="M540 400L540 366.7L506.3 366.7Z" fill="#ffc400" stroke="#000000"></path><path d="M506.3 300L472.5 266.7L472.5 300Z" fill="#ffe800" stroke="#000000"></path><path d="M135 333.3L101.3 366.7L135 366.7Z" fill="#ffe800" stroke="#000000"></path><path d="M101.3 333.3L101.3 366.7L135 333.3Z" fill="#ff4b3c" stroke="#000000"></path><path d="M101.3 500L101.3 533.3L135 533.3Z" fill="#ff9f00" stroke="#000000"></path><path d="M506.3 566.7L540 533.3L506.3 533.3Z" fill="#ff9f00" stroke="#000000"></path><path d="M506.3 300L472.5 300L506.3 333.3Z" fill="#2600b3" stroke="#000000"></path><path d="M472.5 300L472.5 266.7L438.8 266.7Z" fill="#ffe800" stroke="#000000"></path><path d="M202.5 233.3L168.8 266.7L202.5 266.7Z" fill="#ff0050" stroke="#000000"></path><path d="M168.8 300L135 300L135 333.3Z" fill="#ffe800" stroke="#000000"></path><path d="M438.8 666.7L472.5 633.3L438.8 633.3Z" fill="#ffc400" stroke="#000000"></path><path d="M506.3 566.7L540 566.7L540 533.3Z" fill="#ff9f00" stroke="#000000"></path><path d="M135 600L168.8 566.7L135 566.7Z" fill="#8200a4" stroke="#000000"></path><path d="M135 600L168.8 633.3L168.8 600Z" fill="#ff9f00" stroke="#000000"></path><path d="M472.5 633.3L506.3 600L472.5 600Z" fill="#ef0065" stroke="#000000"></path><path d="M101.3 600L135 600L135 566.7Z" fill="#ff7723" stroke="#000000"></path><path d="M540 333.3L506.3 300L506.3 333.3Z" fill="#ff9f00" stroke="#000000"></path><path d="M168.8 266.7L135 300L168.8 300Z" fill="#b40090" stroke="#000000"></path><path d="M236.3 233.3L202.5 233.3L202.5 266.7Z" fill="#ff7723" stroke="#000000"></path><path d="M168.8 266.7L135 266.7L135 300Z" fill="#ff9f00" stroke="#000000"></path><path d="M472.5 266.7L438.8 233.3L438.8 266.7Z" fill="#b40090" stroke="#000000"></path><path d="M472.5 233.3L438.8 233.3L472.5 266.7Z" fill="#ff0050" stroke="#000000"></path><path d="M405 666.7L438.8 666.7L438.8 633.3Z" fill="#ff7723" stroke="#000000"></path><path d="M168.8 633.3L202.5 666.7L202.5 633.3Z" fill="#d7007a" stroke="#000000"></path><path d="M540 366.7L540 333.3L506.3 333.3Z" fill="#ff0050" stroke="#000000"></path><path d="M135 300L101.3 333.3L135 333.3Z" fill="#ffc400" stroke="#000000"></path><path d="M101.3 533.3L101.3 566.7L135 566.7Z" fill="#ff7723" stroke="#000000"></path><path d="M135 600L135 633.3L168.8 633.3Z" fill="#ff7723" stroke="#000000"></path><path d="M168.8 633.3L168.8 666.7L202.5 666.7Z" fill="#ffe800" stroke="#000000"></path><path d="M506.3 633.3L506.3 600L472.5 633.3Z" fill="#ff9f00" stroke="#000000"></path><path d="M540 600L506.3 566.7L506.3 600Z" fill="#ffc400" stroke="#000000"></path><path d="M540 600L540 566.7L506.3 566.7Z" fill="#b40090" stroke="#000000"></path><path d="M371.3 233.3L337.5 200L337.5 233.3Z" fill="#ff4b3c" stroke="#000000"></path><path d="M337.5 233.3L337.5 200L303.8 233.3Z" fill="#ff0050" stroke="#000000"></path><path d="M303.8 233.3L303.8 200L270 233.3Z" fill="#2600b3" stroke="#000000"></path><path d="M270 233.3L270 200L236.3 233.3Z" fill="#2600b3" stroke="#000000"></path><path d="M236.3 233.3L236.3 200L202.5 233.3Z" fill="#ef0065" stroke="#000000"></path><path d="M371.3 200L337.5 200L371.3 233.3Z" fill="#8200a4" stroke="#000000"></path><path d="M371.3 200L371.3 233.3L405 233.3Z" fill="#ef0065" stroke="#000000"></path><path d="M303.8 700L337.5 700L337.5 666.7Z" fill="#8200a4" stroke="#000000"></path><path d="M337.5 666.7L371.3 700L371.3 666.7Z" fill="#ff9f00" stroke="#000000"></path><path d="M371.3 666.7L405 700L405 666.7Z" fill="#ef0065" stroke="#000000"></path><path d="M405 666.7L438.8 700L438.8 666.7Z" fill="#ff4b3c" stroke="#000000"></path><path d="M303.8 700L337.5 666.7L303.8 666.7Z" fill="#8200a4" stroke="#000000"></path><path d="M303.8 700L303.8 666.7L270 700Z" fill="#ff0050" stroke="#000000"></path><path d="M303.8 666.7L270 666.7L270 700Z" fill="#ef0065" stroke="#000000"></path><path d="M270 700L270 666.7L236.3 700Z" fill="#ff4b3c" stroke="#000000"></path><path d="M337.5 200L303.8 200L303.8 233.3Z" fill="#ef0065" stroke="#000000"></path><path d="M101.3 400L67.5 433.3L101.3 433.3Z" fill="#ffe800" stroke="#000000"></path><path d="M101.3 433.3L67.5 433.3L101.3 466.7Z" fill="#d7007a" stroke="#000000"></path><path d="M101.3 466.7L67.5 466.7L101.3 500Z" fill="#ef0065" stroke="#000000"></path><path d="M101.3 500L67.5 500L101.3 533.3Z" fill="#ff7723" stroke="#000000"></path><path d="M101.3 533.3L67.5 533.3L101.3 566.7Z" fill="#b40090" stroke="#000000"></path><path d="M67.5 400L67.5 433.3L101.3 400Z" fill="#ef0065" stroke="#000000"></path><path d="M67.5 400L101.3 400L101.3 366.7Z" fill="#d7007a" stroke="#000000"></path><path d="M540 466.7L573.8 433.3L540 433.3Z" fill="#b40090" stroke="#000000"></path><path d="M540 433.3L573.8 433.3L540 400Z" fill="#b40090" stroke="#000000"></path><path d="M540 400L573.8 400L540 366.7Z" fill="#ff7723" stroke="#000000"></path><path d="M540 366.7L573.8 366.7L540 333.3Z" fill="#ff9f00" stroke="#000000"></path><path d="M573.8 466.7L573.8 433.3L540 466.7Z" fill="#ff0050" stroke="#000000"></path><path d="M573.8 466.7L540 466.7L540 500Z" fill="#ff9f00" stroke="#000000"></path><path d="M573.8 466.7L540 500L573.8 500Z" fill="#ff7723" stroke="#000000"></path><path d="M573.8 500L540 500L540 533.3Z" fill="#ff0050" stroke="#000000"></path><path d="M67.5 433.3L67.5 466.7L101.3 466.7Z" fill="#ff4b3c" stroke="#000000"></path><path d="M405 200L371.3 200L405 233.3Z" fill="#ef0065" stroke="#000000"></path><path d="M303.8 200L270 200L270 233.3Z" fill="#ff0050" stroke="#000000"></path><path d="M337.5 700L371.3 700L337.5 666.7Z" fill="#ef0065" stroke="#000000"></path><path d="M236.3 700L270 666.7L236.3 666.7Z" fill="#ff4b3c" stroke="#000000"></path><path d="M573.8 533.3L573.8 500L540 533.3Z" fill="#d7007a" stroke="#000000"></path><path d="M67.5 466.7L67.5 500L101.3 500Z" fill="#d7007a" stroke="#000000"></path><path d="M573.8 433.3L573.8 400L540 400Z" fill="#ff0050" stroke="#000000"></path><path d="M67.5 366.7L67.5 400L101.3 366.7Z" fill="#8200a4" stroke="#000000"></path><path d="M168.8 233.3L135 266.7L168.8 266.7Z" fill="#ff0050" stroke="#000000"></path><path d="M135 300L101.3 300L101.3 333.3Z" fill="#ff9f00" stroke="#000000"></path><path d="M101.3 333.3L67.5 366.7L101.3 366.7Z" fill="#ffe800" stroke="#000000"></path><path d="M540 300L506.3 266.7L506.3 300Z" fill="#ff0050" stroke="#000000"></path><path d="M506.3 300L506.3 266.7L472.5 266.7Z" fill="#ef0065" stroke="#000000"></path><path d="M540 300L506.3 300L540 333.3Z" fill="#d7007a" stroke="#000000"></path><path d="M472.5 666.7L506.3 633.3L472.5 633.3Z" fill="#ffc400" stroke="#000000"></path><path d="M101.3 600L135 633.3L135 600Z" fill="#2600b3" stroke="#000000"></path><path d="M438.8 233.3L405 200L405 233.3Z" fill="#ff7723" stroke="#000000"></path><path d="M438.8 200L405 200L438.8 233.3Z" fill="#ff4b3c" stroke="#000000"></path><path d="M202.5 700L236.3 666.7L202.5 666.7Z" fill="#ffe800" stroke="#000000"></path><path d="M202.5 700L236.3 700L236.3 666.7Z" fill="#ef0065" stroke="#000000"></path><path d="M270 200L236.3 200L236.3 233.3Z" fill="#2600b3" stroke="#000000"></path><path d="M202.5 233.3L168.8 233.3L168.8 266.7Z" fill="#ffe800" stroke="#000000"></path><path d="M371.3 700L405 700L371.3 666.7Z" fill="#b40090" stroke="#000000"></path><path d="M438.8 666.7L472.5 666.7L472.5 633.3Z" fill="#b40090" stroke="#000000"></path><path d="M202.5 200L168.8 233.3L202.5 233.3Z" fill="#ff9f00" stroke="#000000"></path><path d="M506.3 266.7L472.5 233.3L472.5 266.7Z" fill="#d7007a" stroke="#000000"></path><path d="M472.5 700L472.5 666.7L438.8 666.7Z" fill="#ffe800" stroke="#000000"></path><path d="M135 633.3L168.8 666.7L168.8 633.3Z" fill="#ff0050" stroke="#000000"></path><path d="M101.3 266.7L101.3 300L135 266.7Z" fill="#b40090" stroke="#000000"></path><path d="M135 266.7L101.3 300L135 300Z" fill="#ff7723" stroke="#000000"></path><path d="M67.5 600L101.3 600L101.3 566.7Z" fill="#8200a4" stroke="#000000"></path><path d="M101.3 566.7L101.3 600L135 566.7Z" fill="#ffc400" stroke="#000000"></path><path d="M506.3 633.3L540 600L506.3 600Z" fill="#b40090" stroke="#000000"></path><path d="M540 566.7L573.8 533.3L540 533.3Z" fill="#b40090" stroke="#000000"></path><path d="M573.8 333.3L540 300L540 333.3Z" fill="#b40090" stroke="#000000"></path><path d="M506.3 266.7L506.3 233.3L472.5 233.3Z" fill="#d7007a" stroke="#000000"></path><path d="M67.5 333.3L67.5 366.7L101.3 333.3Z" fill="#ffe800" stroke="#000000"></path><path d="M573.8 400L573.8 366.7L540 366.7Z" fill="#ff7723" stroke="#000000"></path><path d="M67.5 500L67.5 533.3L101.3 533.3Z" fill="#ff4b3c" stroke="#000000"></path><path d="M573.8 566.7L573.8 533.3L540 566.7Z" fill="#2600b3" stroke="#000000"></path><path d="M168.8 700L202.5 700L202.5 666.7Z" fill="#ff7723" stroke="#000000"></path><path d="M405 700L438.8 700L405 666.7Z" fill="#ffc400" stroke="#000000"></path><path d="M472.5 233.3L438.8 200L438.8 233.3Z" fill="#8200a4" stroke="#000000"></path><path d="M236.3 200L202.5 200L202.5 233.3Z" fill="#8200a4" stroke="#000000"></path><path d="M101.3 300L67.5 333.3L101.3 333.3Z" fill="#ff0050" stroke="#000000"></path><path d="M573.8 366.7L573.8 333.3L540 333.3Z" fill="#ff4b3c" stroke="#000000"></path><path d="M573.8 600L573.8 566.7L540 566.7Z" fill="#ffc400" stroke="#000000"></path><path d="M573.8 600L540 566.7L540 600Z" fill="#8200a4" stroke="#000000"></path><path d="M540 633.3L540 600L506.3 633.3Z" fill="#ff0050" stroke="#000000"></path><path d="M67.5 533.3L67.5 566.7L101.3 566.7Z" fill="#ff9f00" stroke="#000000"></path><path d="M101.3 633.3L135 666.7L135 633.3Z" fill="#ffc400" stroke="#000000"></path><path d="M135 633.3L135 666.7L168.8 666.7Z" fill="#ef0065" stroke="#000000"></path><path d="M371.3 200L337.5 166.7L337.5 200Z" fill="#ff9f00" stroke="#000000"></path><path d="M337.5 200L337.5 166.7L303.8 200Z" fill="#8200a4" stroke="#000000"></path><path d="M303.8 200L303.8 166.7L270 200Z" fill="#ff0050" stroke="#000000"></path><path d="M270 200L270 166.7L236.3 200Z" fill="#ffe800" stroke="#000000"></path><path d="M236.3 200L236.3 166.7L202.5 200Z" fill="#ffe800" stroke="#000000"></path><path d="M371.3 166.7L337.5 166.7L371.3 200Z" fill="#b40090" stroke="#000000"></path><path d="M371.3 166.7L371.3 200L405 200Z" fill="#ef0065" stroke="#000000"></path><path d="M337.5 166.7L303.8 166.7L303.8 200Z" fill="#ff4b3c" stroke="#000000"></path><path d="M270 733.3L303.8 733.3L270 700Z" fill="#2600b3" stroke="#000000"></path><path d="M270 700L303.8 733.3L303.8 700Z" fill="#ffe800" stroke="#000000"></path><path d="M303.8 700L303.8 733.3L337.5 700Z" fill="#ff7723" stroke="#000000"></path><path d="M337.5 700L337.5 733.3L371.3 700Z" fill="#ff0050" stroke="#000000"></path><path d="M371.3 700L371.3 733.3L405 700Z" fill="#ff4b3c" stroke="#000000"></path><path d="M405 700L405 733.3L438.8 700Z" fill="#2600b3" stroke="#000000"></path><path d="M270 733.3L270 700L236.3 700Z" fill="#b40090" stroke="#000000"></path><path d="M303.8 733.3L337.5 733.3L337.5 700Z" fill="#ffc400" stroke="#000000"></path><path d="M168.8 200L135 233.3L168.8 233.3Z" fill="#8200a4" stroke="#000000"></path><path d="M168.8 233.3L135 233.3L135 266.7Z" fill="#2600b3" stroke="#000000"></path><path d="M101.3 300L67.5 300L67.5 333.3Z" fill="#2600b3" stroke="#000000"></path><path d="M540 266.7L506.3 266.7L540 300Z" fill="#d7007a" stroke="#000000"></path><path d="M540 266.7L506.3 233.3L506.3 266.7Z" fill="#ef0065" stroke="#000000"></path><path d="M472.5 233.3L472.5 200L438.8 200Z" fill="#8200a4" stroke="#000000"></path><path d="M101.3 633.3L135 633.3L101.3 600Z" fill="#2600b3" stroke="#000000"></path><path d="M168.8 666.7L168.8 700L202.5 666.7Z" fill="#b40090" stroke="#000000"></path><path d="M506.3 700L506.3 666.7L472.5 666.7Z" fill="#b40090" stroke="#000000"></path><path d="M472.5 666.7L506.3 666.7L506.3 633.3Z" fill="#b40090" stroke="#000000"></path><path d="M573.8 300L540 266.7L540 300Z" fill="#8200a4" stroke="#000000"></path><path d="M135 233.3L101.3 266.7L135 266.7Z" fill="#b40090" stroke="#000000"></path><path d="M506.3 666.7L540 633.3L506.3 633.3Z" fill="#ef0065" stroke="#000000"></path><path d="M67.5 600L101.3 633.3L101.3 600Z" fill="#d7007a" stroke="#000000"></path><path d="M67.5 400L33.8 433.3L67.5 433.3Z" fill="#ff0050" stroke="#000000"></path><path d="M67.5 433.3L33.8 433.3L67.5 466.7Z" fill="#8200a4" stroke="#000000"></path><path d="M67.5 466.7L33.8 466.7L67.5 500Z" fill="#ffe800" stroke="#000000"></path><path d="M67.5 500L33.8 500L67.5 533.3Z" fill="#ff7723" stroke="#000000"></path><path d="M67.5 533.3L33.8 533.3L67.5 566.7Z" fill="#b40090" stroke="#000000"></path><path d="M33.8 400L33.8 433.3L67.5 400Z" fill="#ff0050" stroke="#000000"></path><path d="M33.8 400L67.5 400L67.5 366.7Z" fill="#ffe800" stroke="#000000"></path><path d="M573.8 466.7L607.5 466.7L573.8 433.3Z" fill="#ffc400" stroke="#000000"></path><path d="M573.8 433.3L607.5 433.3L573.8 400Z" fill="#ff7723" stroke="#000000"></path><path d="M573.8 400L607.5 400L573.8 366.7Z" fill="#b40090" stroke="#000000"></path><path d="M573.8 366.7L607.5 366.7L573.8 333.3Z" fill="#8200a4" stroke="#000000"></path><path d="M573.8 500L607.5 466.7L573.8 466.7Z" fill="#ff4b3c" stroke="#000000"></path><path d="M607.5 500L607.5 466.7L573.8 500Z" fill="#ff9f00" stroke="#000000"></path><path d="M607.5 500L573.8 500L573.8 533.3Z" fill="#ff4b3c" stroke="#000000"></path><path d="M607.5 466.7L607.5 433.3L573.8 433.3Z" fill="#8200a4" stroke="#000000"></path><path d="M33.8 433.3L33.8 466.7L67.5 466.7Z" fill="#ff9f00" stroke="#000000"></path><path d="M303.8 166.7L270 166.7L270 200Z" fill="#2600b3" stroke="#000000"></path><path d="M405 166.7L371.3 166.7L405 200Z" fill="#ff4b3c" stroke="#000000"></path><path d="M337.5 733.3L371.3 733.3L371.3 700Z" fill="#ffc400" stroke="#000000"></path><path d="M438.8 700L472.5 700L438.8 666.7Z" fill="#ffe800" stroke="#000000"></path><path d="M236.3 733.3L270 733.3L236.3 700Z" fill="#ffc400" stroke="#000000"></path><path d="M236.3 733.3L236.3 700L202.5 700Z" fill="#ff7723" stroke="#000000"></path><path d="M607.5 433.3L607.5 400L573.8 400Z" fill="#ff0050" stroke="#000000"></path><path d="M573.8 333.3L573.8 300L540 300Z" fill="#ff9f00" stroke="#000000"></path><path d="M33.8 466.7L33.8 500L67.5 500Z" fill="#b40090" stroke="#000000"></path><path d="M607.5 533.3L607.5 500L573.8 533.3Z" fill="#ff4b3c" stroke="#000000"></path><path d="M33.8 366.7L33.8 400L67.5 366.7Z" fill="#ef0065" stroke="#000000"></path><path d="M33.8 366.7L67.5 366.7L67.5 333.3Z" fill="#ffc400" stroke="#000000"></path><path d="M202.5 200L168.8 200L168.8 233.3Z" fill="#ef0065" stroke="#000000"></path><path d="M202.5 166.7L168.8 200L202.5 200Z" fill="#ff4b3c" stroke="#000000"></path><path d="M438.8 733.3L472.5 700L438.8 700Z" fill="#ff9f00" stroke="#000000"></path><path d="M506.3 233.3L472.5 200L472.5 233.3Z" fill="#ff4b3c" stroke="#000000"></path><path d="M438.8 200L405 166.7L405 200Z" fill="#ff4b3c" stroke="#000000"></path><path d="M135 700L168.8 700L168.8 666.7Z" fill="#ff0050" stroke="#000000"></path><path d="M607.5 333.3L573.8 300L573.8 333.3Z" fill="#b40090" stroke="#000000"></path><path d="M540 266.7L540 233.3L506.3 233.3Z" fill="#ff4b3c" stroke="#000000"></path><path d="M67.5 566.7L67.5 600L101.3 566.7Z" fill="#d7007a" stroke="#000000"></path><path d="M33.8 600L67.5 600L67.5 566.7Z" fill="#ff9f00" stroke="#000000"></path><path d="M67.5 266.7L67.5 300L101.3 266.7Z" fill="#ff7723" stroke="#000000"></path><path d="M101.3 266.7L67.5 300L101.3 300Z" fill="#8200a4" stroke="#000000"></path><path d="M540 633.3L573.8 600L540 600Z" fill="#ff9f00" stroke="#000000"></path><path d="M573.8 566.7L607.5 533.3L573.8 533.3Z" fill="#d7007a" stroke="#000000"></path><path d="M438.8 166.7L405 166.7L438.8 200Z" fill="#2600b3" stroke="#000000"></path><path d="M270 166.7L236.3 166.7L236.3 200Z" fill="#ef0065" stroke="#000000"></path><path d="M371.3 733.3L405 733.3L405 700Z" fill="#8200a4" stroke="#000000"></path><path d="M202.5 733.3L236.3 733.3L202.5 700Z" fill="#b40090" stroke="#000000"></path><path d="M33.8 333.3L33.8 366.7L67.5 333.3Z" fill="#ffc400" stroke="#000000"></path><path d="M607.5 400L607.5 366.7L573.8 366.7Z" fill="#8200a4" stroke="#000000"></path><path d="M607.5 566.7L607.5 533.3L573.8 566.7Z" fill="#ffc400" stroke="#000000"></path><path d="M33.8 500L33.8 533.3L67.5 533.3Z" fill="#8200a4" stroke="#000000"></path><path d="M472.5 200L438.8 166.7L438.8 200Z" fill="#d7007a" stroke="#000000"></path><path d="M236.3 166.7L202.5 166.7L202.5 200Z" fill="#b40090" stroke="#000000"></path><path d="M405 733.3L438.8 733.3L438.8 700Z" fill="#d7007a" stroke="#000000"></path><path d="M540 700L540 666.7L506.3 666.7Z" fill="#ef0065" stroke="#000000"></path><path d="M168.8 700L202.5 733.3L202.5 700Z" fill="#ff9f00" stroke="#000000"></path><path d="M168.8 733.3L202.5 733.3L168.8 700Z" fill="#2600b3" stroke="#000000"></path><path d="M573.8 266.7L540 233.3L540 266.7Z" fill="#b40090" stroke="#000000"></path><path d="M506.3 233.3L506.3 200L472.5 200Z" fill="#ff0050" stroke="#000000"></path><path d="M472.5 200L472.5 166.7L438.8 166.7Z" fill="#2600b3" stroke="#000000"></path><path d="M135 200L101.3 233.3L135 233.3Z" fill="#d7007a" stroke="#000000"></path><path d="M135 233.3L101.3 233.3L101.3 266.7Z" fill="#ef0065" stroke="#000000"></path><path d="M135 200L135 233.3L168.8 200Z" fill="#ff9f00" stroke="#000000"></path><path d="M506.3 666.7L540 666.7L540 633.3Z" fill="#ff9f00" stroke="#000000"></path><path d="M540 633.3L573.8 633.3L573.8 600Z" fill="#ffc400" stroke="#000000"></path><path d="M607.5 600L607.5 566.7L573.8 566.7Z" fill="#ff0050" stroke="#000000"></path><path d="M506.3 700L472.5 666.7L472.5 700Z" fill="#2600b3" stroke="#000000"></path><path d="M101.3 633.3L101.3 666.7L135 666.7Z" fill="#ff7723" stroke="#000000"></path><path d="M135 666.7L135 700L168.8 666.7Z" fill="#b40090" stroke="#000000"></path><path d="M67.5 633.3L101.3 666.7L101.3 633.3Z" fill="#ff4b3c" stroke="#000000"></path><path d="M67.5 633.3L101.3 633.3L67.5 600Z" fill="#ef0065" stroke="#000000"></path><path d="M67.5 300L33.8 333.3L67.5 333.3Z" fill="#ffe800" stroke="#000000"></path><path d="M33.8 300L33.8 333.3L67.5 300Z" fill="#ffe800" stroke="#000000"></path><path d="M607.5 366.7L607.5 333.3L573.8 333.3Z" fill="#b40090" stroke="#000000"></path><path d="M573.8 300L573.8 266.7L540 266.7Z" fill="#ffc400" stroke="#000000"></path><path d="M33.8 533.3L33.8 566.7L67.5 566.7Z" fill="#d7007a" stroke="#000000"></path><path d="M607.5 600L573.8 566.7L573.8 600Z" fill="#ef0065" stroke="#000000"></path><path d="M168.8 166.7L135 200L168.8 200Z" fill="#8200a4" stroke="#000000"></path><path d="M540 233.3L506.3 200L506.3 233.3Z" fill="#ff9f00" stroke="#000000"></path><path d="M101.3 700L135 700L135 666.7Z" fill="#ff9f00" stroke="#000000"></path><path d="M472.5 733.3L506.3 700L472.5 700Z" fill="#2600b3" stroke="#000000"></path><path d="M101.3 233.3L67.5 266.7L101.3 266.7Z" fill="#b40090" stroke="#000000"></path><path d="M607.5 300L573.8 266.7L573.8 300Z" fill="#8200a4" stroke="#000000"></path><path d="M33.8 600L67.5 633.3L67.5 600Z" fill="#ff4b3c" stroke="#000000"></path><path d="M540 666.7L573.8 633.3L540 633.3Z" fill="#ffe800" stroke="#000000"></path><path d="M371.3 166.7L337.5 133.3L337.5 166.7Z" fill="#ef0065" stroke="#000000"></path><path d="M337.5 166.7L337.5 133.3L303.8 166.7Z" fill="#d7007a" stroke="#000000"></path><path d="M303.8 166.7L303.8 133.3L270 166.7Z" fill="#b40090" stroke="#000000"></path><path d="M270 166.7L270 133.3L236.3 166.7Z" fill="#ffe800" stroke="#000000"></path><path d="M236.3 166.7L236.3 133.3L202.5 166.7Z" fill="#ff7723" stroke="#000000"></path><path d="M371.3 133.3L337.5 133.3L371.3 166.7Z" fill="#2600b3" stroke="#000000"></path><path d="M371.3 133.3L371.3 166.7L405 166.7Z" fill="#ffc400" stroke="#000000"></path><path d="M337.5 133.3L303.8 133.3L303.8 166.7Z" fill="#ff0050" stroke="#000000"></path><path d="M270 766.7L303.8 766.7L270 733.3Z" fill="#ffc400" stroke="#000000"></path><path d="M270 733.3L303.8 766.7L303.8 733.3Z" fill="#ffc400" stroke="#000000"></path><path d="M303.8 733.3L303.8 766.7L337.5 733.3Z" fill="#ff7723" stroke="#000000"></path><path d="M337.5 733.3L337.5 766.7L371.3 733.3Z" fill="#ff7723" stroke="#000000"></path><path d="M371.3 733.3L371.3 766.7L405 733.3Z" fill="#ffc400" stroke="#000000"></path><path d="M405 733.3L405 766.7L438.8 733.3Z" fill="#ff0050" stroke="#000000"></path><path d="M270 766.7L270 733.3L236.3 733.3Z" fill="#ff4b3c" stroke="#000000"></path><path d="M303.8 766.7L337.5 766.7L337.5 733.3Z" fill="#ff4b3c" stroke="#000000"></path><path d="M303.8 133.3L270 133.3L270 166.7Z" fill="#ff0050" stroke="#000000"></path><path d="M202.5 166.7L168.8 166.7L168.8 200Z" fill="#2600b3" stroke="#000000"></path><path d="M405 133.3L405 166.7L438.8 166.7Z" fill="#8200a4" stroke="#000000"></path><path d="M405 133.3L371.3 133.3L405 166.7Z" fill="#ff9f00" stroke="#000000"></path><path d="M236.3 766.7L270 766.7L236.3 733.3Z" fill="#2600b3" stroke="#000000"></path><path d="M337.5 766.7L371.3 766.7L371.3 733.3Z" fill="#ff0050" stroke="#000000"></path><path d="M607.5 466.7L641.3 466.7L607.5 433.3Z" fill="#ff0050" stroke="#000000"></path><path d="M607.5 433.3L641.3 433.3L607.5 400Z" fill="#b40090" stroke="#000000"></path><path d="M607.5 400L641.3 400L607.5 366.7Z" fill="#ff9f00" stroke="#000000"></path><path d="M607.5 366.7L641.3 366.7L607.5 333.3Z" fill="#ffe800" stroke="#000000"></path><path d="M607.5 500L641.3 466.7L607.5 466.7Z" fill="#ff7723" stroke="#000000"></path><path d="M641.3 500L641.3 466.7L607.5 500Z" fill="#8200a4" stroke="#000000"></path><path d="M641.3 500L607.5 500L607.5 533.3Z" fill="#ff4b3c" stroke="#000000"></path><path d="M33.8 466.7L0 466.7L33.8 500Z" fill="#b40090" stroke="#000000"></path><path d="M33.8 500L0 500L33.8 533.3Z" fill="#ef0065" stroke="#000000"></path><path d="M33.8 533.3L0 533.3L33.8 566.7Z" fill="#ff7723" stroke="#000000"></path><path d="M33.8 433.3L0 466.7L33.8 466.7Z" fill="#ff9f00" stroke="#000000"></path><path d="M0 433.3L0 466.7L33.8 433.3Z" fill="#ef0065" stroke="#000000"></path><path d="M0 433.3L33.8 433.3L33.8 400Z" fill="#ef0065" stroke="#000000"></path><path d="M0 433.3L33.8 400L0 400Z" fill="#ffe800" stroke="#000000"></path><path d="M0 400L33.8 400L33.8 366.7Z" fill="#ffc400" stroke="#000000"></path><path d="M641.3 466.7L641.3 433.3L607.5 433.3Z" fill="#2600b3" stroke="#000000"></path><path d="M506.3 200L472.5 166.7L472.5 200Z" fill="#ffc400" stroke="#000000"></path><path d="M202.5 133.3L168.8 166.7L202.5 166.7Z" fill="#ff9f00" stroke="#000000"></path><path d="M438.8 766.7L472.5 733.3L438.8 733.3Z" fill="#ff4b3c" stroke="#000000"></path><path d="M438.8 733.3L472.5 733.3L472.5 700Z" fill="#ffc400" stroke="#000000"></path><path d="M506.3 700L540 700L506.3 666.7Z" fill="#ff4b3c" stroke="#000000"></path><path d="M135 700L168.8 733.3L168.8 700Z" fill="#ff9f00" stroke="#000000"></path><path d="M202.5 733.3L236.3 766.7L236.3 733.3Z" fill="#2600b3" stroke="#000000"></path><path d="M135 733.3L168.8 733.3L135 700Z" fill="#ffe800" stroke="#000000"></path><path d="M33.8 566.7L33.8 600L67.5 566.7Z" fill="#8200a4" stroke="#000000"></path><path d="M0 600L33.8 600L33.8 566.7Z" fill="#8200a4" stroke="#000000"></path><path d="M33.8 266.7L33.8 300L67.5 266.7Z" fill="#b40090" stroke="#000000"></path><path d="M67.5 266.7L33.8 300L67.5 300Z" fill="#ffe800" stroke="#000000"></path><path d="M0 366.7L0 400L33.8 366.7Z" fill="#d7007a" stroke="#000000"></path><path d="M641.3 333.3L607.5 300L607.5 333.3Z" fill="#ff0050" stroke="#000000"></path><path d="M607.5 333.3L607.5 300L573.8 300Z" fill="#8200a4" stroke="#000000"></path><path d="M573.8 233.3L540 200L540 233.3Z" fill="#d7007a" stroke="#000000"></path><path d="M573.8 633.3L607.5 600L573.8 600Z" fill="#ff7723" stroke="#000000"></path><path d="M641.3 533.3L641.3 500L607.5 533.3Z" fill="#8200a4" stroke="#000000"></path><path d="M0 466.7L0 500L33.8 500Z" fill="#ff0050" stroke="#000000"></path><path d="M641.3 533.3L607.5 533.3L607.5 566.7Z" fill="#8200a4" stroke="#000000"></path><path d="M0 366.7L33.8 366.7L33.8 333.3Z" fill="#ff0050" stroke="#000000"></path><path d="M641.3 433.3L641.3 400L607.5 400Z" fill="#ff9f00" stroke="#000000"></path><path d="M438.8 133.3L405 133.3L438.8 166.7Z" fill="#ff4b3c" stroke="#000000"></path><path d="M270 133.3L236.3 133.3L236.3 166.7Z" fill="#b40090" stroke="#000000"></path><path d="M371.3 766.7L405 766.7L405 733.3Z" fill="#ef0065" stroke="#000000"></path><path d="M202.5 766.7L236.3 766.7L202.5 733.3Z" fill="#ff4b3c" stroke="#000000"></path><path d="M0 333.3L0 366.7L33.8 333.3Z" fill="#ffe800" stroke="#000000"></path><path d="M641.3 400L641.3 366.7L607.5 366.7Z" fill="#d7007a" stroke="#000000"></path><path d="M0 500L0 533.3L33.8 533.3Z" fill="#ff7723" stroke="#000000"></path><path d="M641.3 566.7L641.3 533.3L607.5 566.7Z" fill="#d7007a" stroke="#000000"></path><path d="M135 200L101.3 200L101.3 233.3Z" fill="#ef0065" stroke="#000000"></path><path d="M101.3 233.3L67.5 233.3L67.5 266.7Z" fill="#8200a4" stroke="#000000"></path><path d="M135 166.7L101.3 200L135 200Z" fill="#8200a4" stroke="#000000"></path><path d="M135 166.7L135 200L168.8 166.7Z" fill="#ff9f00" stroke="#000000"></path><path d="M573.8 233.3L540 233.3L573.8 266.7Z" fill="#ff7723" stroke="#000000"></path><path d="M540 233.3L540 200L506.3 200Z" fill="#8200a4" stroke="#000000"></path><path d="M506.3 200L506.3 166.7L472.5 166.7Z" fill="#d7007a" stroke="#000000"></path><path d="M472.5 166.7L438.8 133.3L438.8 166.7Z" fill="#ff7723" stroke="#000000"></path><path d="M67.5 700L101.3 700L101.3 666.7Z" fill="#ff9f00" stroke="#000000"></path><path d="M101.3 666.7L101.3 700L135 666.7Z" fill="#ffe800" stroke="#000000"></path><path d="M67.5 666.7L101.3 666.7L67.5 633.3Z" fill="#ef0065" stroke="#000000"></path><path d="M540 666.7L573.8 666.7L573.8 633.3Z" fill="#8200a4" stroke="#000000"></path><path d="M573.8 633.3L607.5 633.3L607.5 600Z" fill="#ffe800" stroke="#000000"></path><path d="M506.3 733.3L540 700L506.3 700Z" fill="#ef0065" stroke="#000000"></path><path d="M607.5 266.7L573.8 233.3L573.8 266.7Z" fill="#ffe800" stroke="#000000"></path><path d="M101.3 200L67.5 233.3L101.3 233.3Z" fill="#ff4b3c" stroke="#000000"></path><path d="M573.8 700L573.8 666.7L540 666.7Z" fill="#2600b3" stroke="#000000"></path><path d="M641.3 600L641.3 566.7L607.5 566.7Z" fill="#ff7723" stroke="#000000"></path><path d="M33.8 633.3L67.5 633.3L33.8 600Z" fill="#ff9f00" stroke="#000000"></path><path d="M33.8 633.3L67.5 666.7L67.5 633.3Z" fill="#ff9f00" stroke="#000000"></path><path d="M236.3 133.3L202.5 133.3L202.5 166.7Z" fill="#ffc400" stroke="#000000"></path><path d="M472.5 133.3L438.8 133.3L472.5 166.7Z" fill="#b40090" stroke="#000000"></path><path d="M405 766.7L438.8 766.7L438.8 733.3Z" fill="#ff7723" stroke="#000000"></path><path d="M472.5 733.3L506.3 733.3L506.3 700Z" fill="#ff7723" stroke="#000000"></path><path d="M168.8 766.7L202.5 766.7L168.8 733.3Z" fill="#ef0065" stroke="#000000"></path><path d="M168.8 733.3L202.5 766.7L202.5 733.3Z" fill="#ff7723" stroke="#000000"></path><path d="M540 200L506.3 166.7L506.3 200Z" fill="#ff0050" stroke="#000000"></path><path d="M168.8 133.3L135 166.7L168.8 166.7Z" fill="#ff9f00" stroke="#000000"></path><path d="M472.5 766.7L506.3 733.3L472.5 733.3Z" fill="#ff9f00" stroke="#000000"></path><path d="M540 700L573.8 700L540 666.7Z" fill="#ffe800" stroke="#000000"></path><path d="M101.3 733.3L135 733.3L101.3 700Z" fill="#b40090" stroke="#000000"></path><path d="M101.3 700L135 733.3L135 700Z" fill="#ff4b3c" stroke="#000000"></path><path d="M641.3 300L607.5 266.7L607.5 300Z" fill="#ffe800" stroke="#000000"></path><path d="M607.5 300L607.5 266.7L573.8 266.7Z" fill="#ff7723" stroke="#000000"></path><path d="M67.5 233.3L33.8 266.7L67.5 266.7Z" fill="#2600b3" stroke="#000000"></path><path d="M33.8 300L0 333.3L33.8 333.3Z" fill="#ffe800" stroke="#000000"></path><path d="M573.8 666.7L607.5 633.3L573.8 633.3Z" fill="#ffe800" stroke="#000000"></path><path d="M0 600L33.8 633.3L33.8 600Z" fill="#d7007a" stroke="#000000"></path><path d="M641.3 366.7L641.3 333.3L607.5 333.3Z" fill="#d7007a" stroke="#000000"></path><path d="M0 300L0 333.3L33.8 300Z" fill="#ff4b3c" stroke="#000000"></path><path d="M0 533.3L0 566.7L33.8 566.7Z" fill="#ffe800" stroke="#000000"></path><path d="M641.3 600L607.5 566.7L607.5 600Z" fill="#d7007a" stroke="#000000"></path><path d="M303.8 133.3L303.8 100L270 133.3Z" fill="#ff4b3c" stroke="#000000"></path><path d="M270 133.3L270 100L236.3 133.3Z" fill="#8200a4" stroke="#000000"></path><path d="M236.3 133.3L236.3 100L202.5 133.3Z" fill="#2600b3" stroke="#000000"></path><path d="M337.5 133.3L303.8 100L303.8 133.3Z" fill="#ef0065" stroke="#000000"></path><path d="M337.5 100L303.8 100L337.5 133.3Z" fill="#ff0050" stroke="#000000"></path><path d="M337.5 100L337.5 133.3L371.3 133.3Z" fill="#ef0065" stroke="#000000"></path><path d="M337.5 100L371.3 133.3L371.3 100Z" fill="#ffe800" stroke="#000000"></path><path d="M303.8 800L337.5 800L337.5 766.7Z" fill="#b40090" stroke="#000000"></path><path d="M337.5 766.7L371.3 800L371.3 766.7Z" fill="#2600b3" stroke="#000000"></path><path d="M371.3 766.7L405 800L405 766.7Z" fill="#ff7723" stroke="#000000"></path><path d="M405 766.7L438.8 800L438.8 766.7Z" fill="#ff7723" stroke="#000000"></path><path d="M303.8 800L337.5 766.7L303.8 766.7Z" fill="#ff0050" stroke="#000000"></path><path d="M303.8 800L303.8 766.7L270 800Z" fill="#ef0065" stroke="#000000"></path><path d="M303.8 766.7L270 766.7L270 800Z" fill="#b40090" stroke="#000000"></path><path d="M371.3 100L371.3 133.3L405 133.3Z" fill="#b40090" stroke="#000000"></path><path d="M270 800L270 766.7L236.3 800Z" fill="#ff4b3c" stroke="#000000"></path><path d="M506.3 133.3L472.5 133.3L506.3 166.7Z" fill="#2600b3" stroke="#000000"></path><path d="M506.3 166.7L472.5 133.3L472.5 166.7Z" fill="#d7007a" stroke="#000000"></path><path d="M405 100L371.3 100L405 133.3Z" fill="#ffc400" stroke="#000000"></path><path d="M202.5 100L168.8 133.3L202.5 133.3Z" fill="#b40090" stroke="#000000"></path><path d="M202.5 133.3L168.8 133.3L168.8 166.7Z" fill="#ef0065" stroke="#000000"></path><path d="M101.3 166.7L67.5 200L101.3 200Z" fill="#ff9f00" stroke="#000000"></path><path d="M438.8 766.7L472.5 766.7L472.5 733.3Z" fill="#ff7723" stroke="#000000"></path><path d="M540 733.3L573.8 700L540 700Z" fill="#d7007a" stroke="#000000"></path><path d="M472.5 800L472.5 766.7L438.8 766.7Z" fill="#ffe800" stroke="#000000"></path><path d="M135 733.3L168.8 766.7L168.8 733.3Z" fill="#ffc400" stroke="#000000"></path><path d="M236.3 800L270 766.7L236.3 766.7Z" fill="#ff4b3c" stroke="#000000"></path><path d="M135 766.7L168.8 766.7L135 733.3Z" fill="#ffc400" stroke="#000000"></path><path d="M337.5 800L371.3 800L337.5 766.7Z" fill="#ffe800" stroke="#000000"></path><path d="M405 100L405 133.3L438.8 133.3Z" fill="#2600b3" stroke="#000000"></path><path d="M303.8 100L270 100L270 133.3Z" fill="#2600b3" stroke="#000000"></path><path d="M236.3 800L236.3 766.7L202.5 800Z" fill="#d7007a" stroke="#000000"></path><path d="M0 566.7L0 600L33.8 566.7Z" fill="#8200a4" stroke="#000000"></path><path d="M641.3 333.3L641.3 300L607.5 300Z" fill="#ff7723" stroke="#000000"></path><path d="M607.5 233.3L573.8 200L573.8 233.3Z" fill="#ff9f00" stroke="#000000"></path><path d="M607.5 633.3L641.3 600L607.5 600Z" fill="#ef0065" stroke="#000000"></path><path d="M33.8 266.7L0 300L33.8 300Z" fill="#ff0050" stroke="#000000"></path><path d="M0 266.7L0 300L33.8 266.7Z" fill="#d7007a" stroke="#000000"></path><path d="M641.3 466.7L675 433.3L641.3 433.3Z" fill="#ff4b3c" stroke="#000000"></path><path d="M641.3 433.3L675 433.3L641.3 400Z" fill="#2600b3" stroke="#000000"></path><path d="M641.3 400L675 400L641.3 366.7Z" fill="#2600b3" stroke="#000000"></path><path d="M641.3 366.7L675 366.7L641.3 333.3Z" fill="#ffc400" stroke="#000000"></path><path d="M641.3 333.3L675 333.3L641.3 300Z" fill="#d7007a" stroke="#000000"></path><path d="M675 466.7L675 433.3L641.3 466.7Z" fill="#ff4b3c" stroke="#000000"></path><path d="M675 466.7L641.3 466.7L641.3 500Z" fill="#ff0050" stroke="#000000"></path><path d="M675 466.7L641.3 500L675 500Z" fill="#ef0065" stroke="#000000"></path><path d="M641.3 500L641.3 533.3L675 500Z" fill="#d7007a" stroke="#000000"></path><path d="M675 500L641.3 533.3L675 533.3Z" fill="#d7007a" stroke="#000000"></path><path d="M573.8 233.3L573.8 200L540 200Z" fill="#ff4b3c" stroke="#000000"></path><path d="M540 200L540 166.7L506.3 166.7Z" fill="#b40090" stroke="#000000"></path><path d="M607.5 233.3L573.8 233.3L607.5 266.7Z" fill="#2600b3" stroke="#000000"></path><path d="M540 733.3L540 700L506.3 733.3Z" fill="#ff0050" stroke="#000000"></path><path d="M573.8 666.7L607.5 666.7L607.5 633.3Z" fill="#d7007a" stroke="#000000"></path><path d="M607.5 633.3L641.3 633.3L641.3 600Z" fill="#ff9f00" stroke="#000000"></path><path d="M33.8 700L67.5 700L67.5 666.7Z" fill="#ff7723" stroke="#000000"></path><path d="M67.5 666.7L67.5 700L101.3 666.7Z" fill="#ffe800" stroke="#000000"></path><path d="M33.8 666.7L67.5 666.7L33.8 633.3Z" fill="#ff9f00" stroke="#000000"></path><path d="M101.3 166.7L101.3 200L135 166.7Z" fill="#ff7723" stroke="#000000"></path><path d="M101.3 200L67.5 200L67.5 233.3Z" fill="#2600b3" stroke="#000000"></path><path d="M67.5 233.3L33.8 233.3L33.8 266.7Z" fill="#ff0050" stroke="#000000"></path><path d="M675 533.3L641.3 533.3L641.3 566.7Z" fill="#ff7723" stroke="#000000"></path><path d="M675 433.3L675 400L641.3 400Z" fill="#2600b3" stroke="#000000"></path><path d="M135 133.3L101.3 166.7L135 166.7Z" fill="#ffc400" stroke="#000000"></path><path d="M573.8 200L540 166.7L540 200Z" fill="#ffe800" stroke="#000000"></path><path d="M506.3 766.7L540 733.3L506.3 733.3Z" fill="#ffc400" stroke="#000000"></path><path d="M67.5 700L101.3 733.3L101.3 700Z" fill="#2600b3" stroke="#000000"></path><path d="M641.3 266.7L607.5 233.3L607.5 266.7Z" fill="#d7007a" stroke="#000000"></path><path d="M67.5 200L33.8 233.3L67.5 233.3Z" fill="#ffc400" stroke="#000000"></path><path d="M0 633.3L33.8 666.7L33.8 633.3Z" fill="#ff0050" stroke="#000000"></path><path d="M67.5 700L67.5 733.3L101.3 733.3Z" fill="#ffc400" stroke="#000000"></path><path d="M607.5 700L573.8 666.7L573.8 700Z" fill="#ffe800" stroke="#000000"></path><path d="M607.5 700L607.5 666.7L573.8 666.7Z" fill="#ffe800" stroke="#000000"></path><path d="M270 100L236.3 100L236.3 133.3Z" fill="#ef0065" stroke="#000000"></path><path d="M438.8 100L405 100L438.8 133.3Z" fill="#ffc400" stroke="#000000"></path><path d="M371.3 800L405 800L371.3 766.7Z" fill="#ffc400" stroke="#000000"></path><path d="M202.5 800L236.3 766.7L202.5 766.7Z" fill="#d7007a" stroke="#000000"></path><path d="M675 566.7L675 533.3L641.3 566.7Z" fill="#ffe800" stroke="#000000"></path><path d="M675 566.7L641.3 566.7L675 600Z" fill="#d7007a" stroke="#000000"></path><path d="M675 400L675 366.7L641.3 366.7Z" fill="#ffe800" stroke="#000000"></path><path d="M101.3 166.7L67.5 166.7L67.5 200Z" fill="#ff0050" stroke="#000000"></path><path d="M168.8 133.3L135 133.3L135 166.7Z" fill="#b40090" stroke="#000000"></path><path d="M168.8 100L135 133.3L168.8 133.3Z" fill="#ff0050" stroke="#000000"></path><path d="M540 166.7L506.3 133.3L506.3 166.7Z" fill="#ff4b3c" stroke="#000000"></path><path d="M472.5 133.3L438.8 100L438.8 133.3Z" fill="#d7007a" stroke="#000000"></path><path d="M540 133.3L506.3 133.3L540 166.7Z" fill="#ff0050" stroke="#000000"></path><path d="M101.3 766.7L135 766.7L101.3 733.3Z" fill="#ffc400" stroke="#000000"></path><path d="M101.3 733.3L135 766.7L135 733.3Z" fill="#8200a4" stroke="#000000"></path><path d="M168.8 800L202.5 800L202.5 766.7Z" fill="#ff0050" stroke="#000000"></path><path d="M472.5 766.7L506.3 766.7L506.3 733.3Z" fill="#ef0065" stroke="#000000"></path><path d="M540 733.3L573.8 733.3L573.8 700Z" fill="#ef0065" stroke="#000000"></path><path d="M506.3 800L506.3 766.7L472.5 766.7Z" fill="#ff4b3c" stroke="#000000"></path><path d="M33.8 233.3L0 266.7L33.8 266.7Z" fill="#ffc400" stroke="#000000"></path><path d="M675 300L641.3 266.7L641.3 300Z" fill="#2600b3" stroke="#000000"></path><path d="M641.3 300L641.3 266.7L607.5 266.7Z" fill="#8200a4" stroke="#000000"></path><path d="M607.5 666.7L641.3 633.3L607.5 633.3Z" fill="#ff9f00" stroke="#000000"></path><path d="M0 600L0 633.3L33.8 633.3Z" fill="#ef0065" stroke="#000000"></path><path d="M168.8 800L202.5 766.7L168.8 766.7Z" fill="#2600b3" stroke="#000000"></path><path d="M236.3 100L202.5 100L202.5 133.3Z" fill="#ff4b3c" stroke="#000000"></path><path d="M405 800L438.8 800L405 766.7Z" fill="#ff9f00" stroke="#000000"></path><path d="M472.5 100L438.8 100L472.5 133.3Z" fill="#ff9f00" stroke="#000000"></path><path d="M675 366.7L675 333.3L641.3 333.3Z" fill="#8200a4" stroke="#000000"></path><path d="M675 600L641.3 566.7L641.3 600Z" fill="#ff7723" stroke="#000000"></path><path d="M101.3 133.3L67.5 166.7L101.3 166.7Z" fill="#ef0065" stroke="#000000"></path><path d="M67.5 200L33.8 200L33.8 233.3Z" fill="#ef0065" stroke="#000000"></path><path d="M33.8 233.3L0 233.3L0 266.7Z" fill="#ef0065" stroke="#000000"></path><path d="M607.5 200L573.8 166.7L573.8 200Z" fill="#ff4b3c" stroke="#000000"></path><path d="M573.8 200L573.8 166.7L540 166.7Z" fill="#ff7723" stroke="#000000"></path><path d="M607.5 200L573.8 200L607.5 233.3Z" fill="#ff9f00" stroke="#000000"></path><path d="M540 766.7L573.8 733.3L540 733.3Z" fill="#b40090" stroke="#000000"></path><path d="M607.5 666.7L641.3 666.7L641.3 633.3Z" fill="#d7007a" stroke="#000000"></path><path d="M33.8 700L67.5 733.3L67.5 700Z" fill="#8200a4" stroke="#000000"></path><path d="M33.8 700L67.5 666.7L33.8 666.7Z" fill="#ffe800" stroke="#000000"></path><path d="M573.8 733.3L607.5 700L573.8 700Z" fill="#8200a4" stroke="#000000"></path><path d="M0 700L33.8 700L33.8 666.7Z" fill="#ffe800" stroke="#000000"></path><path d="M67.5 166.7L33.8 200L67.5 200Z" fill="#8200a4" stroke="#000000"></path><path d="M641.3 233.3L607.5 200L607.5 233.3Z" fill="#ff9f00" stroke="#000000"></path><path d="M202.5 100L168.8 100L168.8 133.3Z" fill="#ff7723" stroke="#000000"></path><path d="M135 133.3L101.3 133.3L101.3 166.7Z" fill="#ffc400" stroke="#000000"></path><path d="M506.3 100L472.5 100L506.3 133.3Z" fill="#ffe800" stroke="#000000"></path><path d="M506.3 133.3L472.5 100L472.5 133.3Z" fill="#b40090" stroke="#000000"></path><path d="M135 800L168.8 800L168.8 766.7Z" fill="#ffe800" stroke="#000000"></path><path d="M135 800L168.8 766.7L135 766.7Z" fill="#ffe800" stroke="#000000"></path><path d="M438.8 800L472.5 800L438.8 766.7Z" fill="#ff0050" stroke="#000000"></path><path d="M506.3 766.7L540 766.7L540 733.3Z" fill="#ffe800" stroke="#000000"></path><path d="M270 100L270 66.7L236.3 100Z" fill="#ffe800" stroke="#000000"></path><path d="M236.3 100L236.3 66.7L202.5 100Z" fill="#ff0050" stroke="#000000"></path><path d="M202.5 100L202.5 66.7L168.8 100Z" fill="#ff9f00" stroke="#000000"></path><path d="M303.8 100L303.8 66.7L270 100Z" fill="#ffc400" stroke="#000000"></path><path d="M337.5 100L303.8 66.7L303.8 100Z" fill="#ffe800" stroke="#000000"></path><path d="M337.5 66.7L303.8 66.7L337.5 100Z" fill="#ff0050" stroke="#000000"></path><path d="M337.5 66.7L337.5 100L371.3 100Z" fill="#ffc400" stroke="#000000"></path><path d="M337.5 66.7L371.3 100L371.3 66.7Z" fill="#ff9f00" stroke="#000000"></path><path d="M371.3 100L405 100L371.3 66.7Z" fill="#ff9f00" stroke="#000000"></path><path d="M371.3 66.7L405 100L405 66.7Z" fill="#ff7723" stroke="#000000"></path><path d="M270 833.3L270 800L236.3 800Z" fill="#b40090" stroke="#000000"></path><path d="M270 833.3L303.8 833.3L270 800Z" fill="#b40090" stroke="#000000"></path><path d="M270 800L303.8 833.3L303.8 800Z" fill="#ff0050" stroke="#000000"></path><path d="M303.8 800L303.8 833.3L337.5 800Z" fill="#d7007a" stroke="#000000"></path><path d="M337.5 800L337.5 833.3L371.3 800Z" fill="#b40090" stroke="#000000"></path><path d="M371.3 800L371.3 833.3L405 800Z" fill="#ff9f00" stroke="#000000"></path><path d="M405 800L405 833.3L438.8 800Z" fill="#8200a4" stroke="#000000"></path><path d="M438.8 800L438.8 833.3L472.5 800Z" fill="#d7007a" stroke="#000000"></path><path d="M270 833.3L236.3 800L236.3 833.3Z" fill="#ff7723" stroke="#000000"></path><path d="M303.8 833.3L337.5 833.3L337.5 800Z" fill="#d7007a" stroke="#000000"></path><path d="M675 633.3L675 600L641.3 633.3Z" fill="#ffc400" stroke="#000000"></path><path d="M641.3 633.3L675 600L641.3 600Z" fill="#d7007a" stroke="#000000"></path><path d="M675 333.3L675 300L641.3 300Z" fill="#ff9f00" stroke="#000000"></path><path d="M641.3 266.7L641.3 233.3L607.5 233.3Z" fill="#2600b3" stroke="#000000"></path><path d="M135 100L101.3 133.3L135 133.3Z" fill="#b40090" stroke="#000000"></path><path d="M67.5 166.7L33.8 166.7L33.8 200Z" fill="#ff0050" stroke="#000000"></path><path d="M573.8 166.7L540 133.3L540 166.7Z" fill="#ffc400" stroke="#000000"></path><path d="M573.8 133.3L540 133.3L573.8 166.7Z" fill="#b40090" stroke="#000000"></path><path d="M540 800L540 766.7L506.3 766.7Z" fill="#b40090" stroke="#000000"></path><path d="M67.5 733.3L101.3 766.7L101.3 733.3Z" fill="#ff4b3c" stroke="#000000"></path><path d="M303.8 66.7L270 66.7L270 100Z" fill="#d7007a" stroke="#000000"></path><path d="M405 66.7L405 100L438.8 100Z" fill="#ff9f00" stroke="#000000"></path><path d="M236.3 833.3L236.3 800L202.5 800Z" fill="#ffe800" stroke="#000000"></path><path d="M337.5 833.3L371.3 833.3L371.3 800Z" fill="#2600b3" stroke="#000000"></path><path d="M675 266.7L641.3 233.3L641.3 266.7Z" fill="#ff7723" stroke="#000000"></path><path d="M33.8 200L0 233.3L33.8 233.3Z" fill="#ff0050" stroke="#000000"></path><path d="M641.3 700L607.5 666.7L607.5 700Z" fill="#ff9f00" stroke="#000000"></path><path d="M641.3 700L641.3 666.7L607.5 666.7Z" fill="#ff7723" stroke="#000000"></path><path d="M607.5 733.3L607.5 700L573.8 733.3Z" fill="#ff4b3c" stroke="#000000"></path><path d="M0 633.3L0 666.7L33.8 666.7Z" fill="#2600b3" stroke="#000000"></path><path d="M33.8 700L33.8 733.3L67.5 733.3Z" fill="#ff7723" stroke="#000000"></path><path d="M67.5 733.3L67.5 766.7L101.3 766.7Z" fill="#d7007a" stroke="#000000"></path><path d="M438.8 66.7L405 66.7L438.8 100Z" fill="#2600b3" stroke="#000000"></path><path d="M270 66.7L236.3 66.7L236.3 100Z" fill="#ff9f00" stroke="#000000"></path><path d="M202.5 833.3L236.3 833.3L202.5 800Z" fill="#d7007a" stroke="#000000"></path><path d="M202.5 833.3L202.5 800L168.8 800Z" fill="#8200a4" stroke="#000000"></path><path d="M371.3 833.3L405 833.3L405 800Z" fill="#2600b3" stroke="#000000"></path><path d="M472.5 800L506.3 800L472.5 766.7Z" fill="#b40090" stroke="#000000"></path><path d="M101.3 800L135 800L135 766.7Z" fill="#2600b3" stroke="#000000"></path><path d="M472.5 833.3L506.3 800L472.5 800Z" fill="#d7007a" stroke="#000000"></path><path d="M168.8 66.7L135 100L168.8 100Z" fill="#b40090" stroke="#000000"></path><path d="M168.8 100L135 100L135 133.3Z" fill="#ff0050" stroke="#000000"></path><path d="M540 133.3L506.3 100L506.3 133.3Z" fill="#d7007a" stroke="#000000"></path><path d="M472.5 100L438.8 66.7L438.8 100Z" fill="#ff4b3c" stroke="#000000"></path><path d="M675 300L675 266.7L641.3 266.7Z" fill="#b40090" stroke="#000000"></path><path d="M641.3 666.7L675 633.3L641.3 633.3Z" fill="#ffc400" stroke="#000000"></path><path d="M236.3 66.7L202.5 66.7L202.5 100Z" fill="#d7007a" stroke="#000000"></path><path d="M472.5 66.7L438.8 66.7L472.5 100Z" fill="#8200a4" stroke="#000000"></path><path d="M405 833.3L438.8 833.3L438.8 800Z" fill="#ef0065" stroke="#000000"></path><path d="M168.8 833.3L202.5 833.3L168.8 800Z" fill="#ff0050" stroke="#000000"></path><path d="M641.3 200L607.5 200L641.3 233.3Z" fill="#ff9f00" stroke="#000000"></path><path d="M641.3 200L607.5 166.7L607.5 200Z" fill="#2600b3" stroke="#000000"></path><path d="M607.5 200L607.5 166.7L573.8 166.7Z" fill="#ff9f00" stroke="#000000"></path><path d="M540 133.3L540 100L506.3 100Z" fill="#ff0050" stroke="#000000"></path><path d="M67.5 133.3L67.5 166.7L101.3 133.3Z" fill="#2600b3" stroke="#000000"></path><path d="M67.5 133.3L33.8 166.7L67.5 166.7Z" fill="#ff4b3c" stroke="#000000"></path><path d="M33.8 200L0 200L0 233.3Z" fill="#b40090" stroke="#000000"></path><path d="M573.8 766.7L607.5 733.3L573.8 733.3Z" fill="#ff7723" stroke="#000000"></path><path d="M641.3 666.7L675 666.7L675 633.3Z" fill="#ef0065" stroke="#000000"></path><path d="M573.8 766.7L573.8 733.3L540 766.7Z" fill="#2600b3" stroke="#000000"></path><path d="M0 700L33.8 733.3L33.8 700Z" fill="#ff9f00" stroke="#000000"></path><path d="M101.3 766.7L101.3 800L135 766.7Z" fill="#ef0065" stroke="#000000"></path><path d="M101.3 100L67.5 133.3L101.3 133.3Z" fill="#ff0050" stroke="#000000"></path><path d="M607.5 166.7L573.8 133.3L573.8 166.7Z" fill="#ff0050" stroke="#000000"></path><path d="M573.8 800L573.8 766.7L540 766.7Z" fill="#ff0050" stroke="#000000"></path><path d="M540 800L506.3 766.7L506.3 800Z" fill="#ffc400" stroke="#000000"></path><path d="M33.8 733.3L67.5 766.7L67.5 733.3Z" fill="#d7007a" stroke="#000000"></path><path d="M135 800L168.8 833.3L168.8 800Z" fill="#ffc400" stroke="#000000"></path><path d="M0 666.7L0 700L33.8 666.7Z" fill="#ffe800" stroke="#000000"></path><path d="M607.5 733.3L641.3 700L607.5 700Z" fill="#ffe800" stroke="#000000"></path><path d="M0 166.7L0 200L33.8 166.7Z" fill="#ff4b3c" stroke="#000000"></path><path d="M33.8 166.7L0 200L33.8 200Z" fill="#ef0065" stroke="#000000"></path><path d="M675 233.3L641.3 200L641.3 233.3Z" fill="#8200a4" stroke="#000000"></path><path d="M607.5 166.7L607.5 133.3L573.8 133.3Z" fill="#ff0050" stroke="#000000"></path><path d="M506.3 66.7L472.5 66.7L506.3 100Z" fill="#ef0065" stroke="#000000"></path><path d="M506.3 100L472.5 66.7L472.5 100Z" fill="#ff7723" stroke="#000000"></path><path d="M202.5 66.7L168.8 66.7L168.8 100Z" fill="#b40090" stroke="#000000"></path><path d="M135 100L101.3 100L101.3 133.3Z" fill="#ef0065" stroke="#000000"></path><path d="M135 833.3L168.8 833.3L135 800Z" fill="#d7007a" stroke="#000000"></path><path d="M438.8 833.3L472.5 833.3L472.5 800Z" fill="#b40090" stroke="#000000"></path><path d="M135 66.7L101.3 100L135 100Z" fill="#b40090" stroke="#000000"></path><path d="M506.3 833.3L540 800L506.3 800Z" fill="#ff4b3c" stroke="#000000"></path><path d="M67.5 800L101.3 800L101.3 766.7Z" fill="#ff0050" stroke="#000000"></path><path d="M573.8 133.3L540 100L540 133.3Z" fill="#ff9f00" stroke="#000000"></path><path d="M675 266.7L675 233.3L641.3 233.3Z" fill="#ff7723" stroke="#000000"></path><path d="M675 700L675 666.7L641.3 666.7Z" fill="#ff4b3c" stroke="#000000"></path><path d="M675 700L641.3 666.7L641.3 700Z" fill="#ffe800" stroke="#000000"></path><path d="M641.3 733.3L641.3 700L607.5 733.3Z" fill="#ff4b3c" stroke="#000000"></path><path d="M371.3 33.3L337.5 33.3L371.3 66.7Z" fill="#ef0065" stroke="#000000"></path><path d="M371.3 66.7L337.5 33.3L337.5 66.7Z" fill="#ff4b3c" stroke="#000000"></path><path d="M337.5 66.7L337.5 33.3L303.8 66.7Z" fill="#ff4b3c" stroke="#000000"></path><path d="M303.8 66.7L303.8 33.3L270 66.7Z" fill="#ff0050" stroke="#000000"></path><path d="M270 66.7L270 33.3L236.3 66.7Z" fill="#8200a4" stroke="#000000"></path><path d="M236.3 66.7L236.3 33.3L202.5 66.7Z" fill="#ffe800" stroke="#000000"></path><path d="M202.5 66.7L202.5 33.3L168.8 66.7Z" fill="#d7007a" stroke="#000000"></path><path d="M371.3 33.3L371.3 66.7L405 66.7Z" fill="#ffc400" stroke="#000000"></path><path d="M371.3 33.3L405 66.7L405 33.3Z" fill="#d7007a" stroke="#000000"></path><path d="M337.5 33.3L303.8 33.3L303.8 66.7Z" fill="#2600b3" stroke="#000000"></path><path d="M337.5 833.3L337.5 866.7L371.3 833.3Z" fill="#ff4b3c" stroke="#000000"></path><path d="M371.3 833.3L371.3 866.7L405 833.3Z" fill="#ffe800" stroke="#000000"></path><path d="M405 833.3L405 866.7L438.8 833.3Z" fill="#b40090" stroke="#000000"></path><path d="M438.8 833.3L438.8 866.7L472.5 833.3Z" fill="#ffc400" stroke="#000000"></path><path d="M303.8 833.3L337.5 866.7L337.5 833.3Z" fill="#ff4b3c" stroke="#000000"></path><path d="M303.8 866.7L337.5 866.7L303.8 833.3Z" fill="#ff9f00" stroke="#000000"></path><path d="M303.8 866.7L303.8 833.3L270 833.3Z" fill="#ff0050" stroke="#000000"></path><path d="M303.8 866.7L270 833.3L270 866.7Z" fill="#8200a4" stroke="#000000"></path><path d="M270 833.3L236.3 833.3L270 866.7Z" fill="#ff9f00" stroke="#000000"></path><path d="M270 866.7L236.3 833.3L236.3 866.7Z" fill="#8200a4" stroke="#000000"></path><path d="M405 33.3L405 66.7L438.8 66.7Z" fill="#ff7723" stroke="#000000"></path><path d="M303.8 33.3L270 33.3L270 66.7Z" fill="#ef0065" stroke="#000000"></path><path d="M236.3 866.7L236.3 833.3L202.5 833.3Z" fill="#ef0065" stroke="#000000"></path><path d="M337.5 866.7L371.3 866.7L371.3 833.3Z" fill="#ff7723" stroke="#000000"></path><path d="M270 33.3L236.3 33.3L236.3 66.7Z" fill="#ef0065" stroke="#000000"></path><path d="M438.8 33.3L405 33.3L438.8 66.7Z" fill="#d7007a" stroke="#000000"></path><path d="M371.3 866.7L405 866.7L405 833.3Z" fill="#b40090" stroke="#000000"></path><path d="M202.5 866.7L236.3 866.7L202.5 833.3Z" fill="#b40090" stroke="#000000"></path><path d="M168.8 33.3L135 66.7L168.8 66.7Z" fill="#8200a4" stroke="#000000"></path><path d="M168.8 66.7L135 66.7L135 100Z" fill="#b40090" stroke="#000000"></path><path d="M540 100L506.3 66.7L506.3 100Z" fill="#ff9f00" stroke="#000000"></path><path d="M472.5 66.7L438.8 33.3L438.8 66.7Z" fill="#8200a4" stroke="#000000"></path><path d="M472.5 866.7L506.3 833.3L472.5 833.3Z" fill="#2600b3" stroke="#000000"></path><path d="M472.5 833.3L506.3 833.3L506.3 800Z" fill="#ff7723" stroke="#000000"></path><path d="M607.5 800L607.5 766.7L573.8 766.7Z" fill="#ff9f00" stroke="#000000"></path><path d="M101.3 800L135 833.3L135 800Z" fill="#d7007a" stroke="#000000"></path><path d="M168.8 833.3L202.5 866.7L202.5 833.3Z" fill="#ffc400" stroke="#000000"></path><path d="M101.3 833.3L135 833.3L101.3 800Z" fill="#ffe800" stroke="#000000"></path><path d="M67.5 100L67.5 133.3L101.3 100Z" fill="#ff7723" stroke="#000000"></path><path d="M67.5 100L33.8 133.3L67.5 133.3Z" fill="#ef0065" stroke="#000000"></path><path d="M67.5 133.3L33.8 133.3L33.8 166.7Z" fill="#2600b3" stroke="#000000"></path><path d="M641.3 166.7L607.5 133.3L607.5 166.7Z" fill="#ffe800" stroke="#000000"></path><path d="M573.8 133.3L573.8 100L540 100Z" fill="#ffc400" stroke="#000000"></path><path d="M540 100L540 66.7L506.3 66.7Z" fill="#ef0065" stroke="#000000"></path><path d="M641.3 166.7L607.5 166.7L641.3 200Z" fill="#ffc400" stroke="#000000"></path><path d="M573.8 800L540 766.7L540 800Z" fill="#2600b3" stroke="#000000"></path><path d="M573.8 766.7L607.5 766.7L607.5 733.3Z" fill="#b40090" stroke="#000000"></path><path d="M33.8 733.3L33.8 766.7L67.5 766.7Z" fill="#2600b3" stroke="#000000"></path><path d="M67.5 766.7L67.5 800L101.3 766.7Z" fill="#2600b3" stroke="#000000"></path><path d="M0 733.3L33.8 766.7L33.8 733.3Z" fill="#ff9f00" stroke="#000000"></path><path d="M675 200L641.3 166.7L641.3 200Z" fill="#2600b3" stroke="#000000"></path><path d="M33.8 133.3L0 166.7L33.8 166.7Z" fill="#ff7723" stroke="#000000"></path><path d="M0 700L0 733.3L33.8 733.3Z" fill="#2600b3" stroke="#000000"></path><path d="M607.5 766.7L641.3 733.3L607.5 733.3Z" fill="#2600b3" stroke="#000000"></path><path d="M33.8 800L67.5 800L67.5 766.7Z" fill="#ffe800" stroke="#000000"></path><path d="M540 833.3L573.8 800L540 800Z" fill="#2600b3" stroke="#000000"></path><path d="M101.3 66.7L67.5 100L101.3 100Z" fill="#ffe800" stroke="#000000"></path><path d="M607.5 133.3L573.8 100L573.8 133.3Z" fill="#ffc400" stroke="#000000"></path><path d="M236.3 33.3L202.5 33.3L202.5 66.7Z" fill="#ff7723" stroke="#000000"></path><path d="M472.5 33.3L438.8 33.3L472.5 66.7Z" fill="#ff0050" stroke="#000000"></path><path d="M405 866.7L438.8 866.7L438.8 833.3Z" fill="#ff0050" stroke="#000000"></path><path d="M168.8 866.7L202.5 866.7L168.8 833.3Z" fill="#ff0050" stroke="#000000"></path><path d="M641.3 166.7L641.3 133.3L607.5 133.3Z" fill="#d7007a" stroke="#000000"></path><path d="M675 233.3L675 200L641.3 200Z" fill="#b40090" stroke="#000000"></path><path d="M641.3 733.3L675 700L641.3 700Z" fill="#ff7723" stroke="#000000"></path><path d="M135 66.7L101.3 66.7L101.3 100Z" fill="#8200a4" stroke="#000000"></path><path d="M135 33.3L101.3 66.7L135 66.7Z" fill="#ff7723" stroke="#000000"></path><path d="M573.8 100L540 66.7L540 100Z" fill="#ff9f00" stroke="#000000"></path><path d="M506.3 66.7L472.5 33.3L472.5 66.7Z" fill="#b40090" stroke="#000000"></path><path d="M506.3 866.7L540 833.3L506.3 833.3Z" fill="#ef0065" stroke="#000000"></path><path d="M506.3 833.3L540 833.3L540 800Z" fill="#ff0050" stroke="#000000"></path><path d="M641.3 800L641.3 766.7L607.5 766.7Z" fill="#8200a4" stroke="#000000"></path><path d="M67.5 833.3L101.3 833.3L67.5 800Z" fill="#ff4b3c" stroke="#000000"></path><path d="M67.5 800L101.3 833.3L101.3 800Z" fill="#ff7723" stroke="#000000"></path><path d="M135 833.3L168.8 866.7L168.8 833.3Z" fill="#8200a4" stroke="#000000"></path><path d="M506.3 33.3L472.5 33.3L506.3 66.7Z" fill="#ff9f00" stroke="#000000"></path><path d="M202.5 33.3L168.8 33.3L168.8 66.7Z" fill="#d7007a" stroke="#000000"></path><path d="M135 866.7L168.8 866.7L135 833.3Z" fill="#ff0050" stroke="#000000"></path><path d="M438.8 866.7L472.5 866.7L472.5 833.3Z" fill="#d7007a" stroke="#000000"></path><path d="M337.5 33.3L303.8 0L303.8 33.3Z" fill="#ff9f00" stroke="#000000"></path><path d="M303.8 33.3L303.8 0L270 33.3Z" fill="#ff9f00" stroke="#000000"></path><path d="M270 33.3L270 0L236.3 33.3Z" fill="#ff0050" stroke="#000000"></path><path d="M236.3 33.3L236.3 0L202.5 33.3Z" fill="#b40090" stroke="#000000"></path><path d="M202.5 33.3L202.5 0L168.8 33.3Z" fill="#ff9f00" stroke="#000000"></path><path d="M337.5 0L303.8 0L337.5 33.3Z" fill="#ffc400" stroke="#000000"></path><path d="M337.5 0L337.5 33.3L371.3 33.3Z" fill="#ffc400" stroke="#000000"></path><path d="M337.5 0L371.3 33.3L371.3 0Z" fill="#ff7723" stroke="#000000"></path><path d="M371.3 33.3L405 33.3L371.3 0Z" fill="#ff7723" stroke="#000000"></path><path d="M371.3 0L405 33.3L405 0Z" fill="#ff7723" stroke="#000000"></path><path d="M337.5 866.7L337.5 900L371.3 866.7Z" fill="#ff4b3c" stroke="#000000"></path><path d="M371.3 866.7L371.3 900L405 866.7Z" fill="#b40090" stroke="#000000"></path><path d="M405 866.7L405 900L438.8 866.7Z" fill="#ff7723" stroke="#000000"></path><path d="M438.8 866.7L438.8 900L472.5 866.7Z" fill="#ff4b3c" stroke="#000000"></path><path d="M303.8 866.7L303.8 900L337.5 866.7Z" fill="#ffc400" stroke="#000000"></path><path d="M270 866.7L303.8 900L303.8 866.7Z" fill="#ef0065" stroke="#000000"></path><path d="M270 900L303.8 900L270 866.7Z" fill="#b40090" stroke="#000000"></path><path d="M270 900L270 866.7L236.3 866.7Z" fill="#8200a4" stroke="#000000"></path><path d="M270 900L236.3 866.7L236.3 900Z" fill="#2600b3" stroke="#000000"></path><path d="M303.8 900L337.5 900L337.5 866.7Z" fill="#ff9f00" stroke="#000000"></path><path d="M675 166.7L641.3 133.3L641.3 166.7Z" fill="#2600b3" stroke="#000000"></path><path d="M607.5 133.3L607.5 100L573.8 100Z" fill="#8200a4" stroke="#000000"></path><path d="M573.8 100L573.8 66.7L540 66.7Z" fill="#ef0065" stroke="#000000"></path><path d="M33.8 100L33.8 133.3L67.5 100Z" fill="#ff0050" stroke="#000000"></path><path d="M33.8 100L0 133.3L33.8 133.3Z" fill="#ff0050" stroke="#000000"></path><path d="M33.8 133.3L0 133.3L0 166.7Z" fill="#b40090" stroke="#000000"></path><path d="M33.8 766.7L33.8 800L67.5 766.7Z" fill="#8200a4" stroke="#000000"></path><path d="M0 733.3L0 766.7L33.8 766.7Z" fill="#ff7723" stroke="#000000"></path><path d="M607.5 766.7L641.3 766.7L641.3 733.3Z" fill="#ff0050" stroke="#000000"></path><path d="M641.3 733.3L675 733.3L675 700Z" fill="#ffe800" stroke="#000000"></path><path d="M607.5 800L573.8 766.7L573.8 800Z" fill="#2600b3" stroke="#000000"></path><path d="M641.3 133.3L607.5 100L607.5 133.3Z" fill="#d7007a" stroke="#000000"></path><path d="M573.8 833.3L607.5 800L573.8 800Z" fill="#2600b3" stroke="#000000"></path><path d="M0 800L33.8 800L33.8 766.7Z" fill="#ff9f00" stroke="#000000"></path><path d="M67.5 66.7L33.8 100L67.5 100Z" fill="#ff0050" stroke="#000000"></path><path d="M303.8 0L270 0L270 33.3Z" fill="#ffc400" stroke="#000000"></path><path d="M405 0L405 33.3L438.8 33.3Z" fill="#ffe800" stroke="#000000"></path><path d="M337.5 900L371.3 900L371.3 866.7Z" fill="#ffc400" stroke="#000000"></path><path d="M236.3 900L236.3 866.7L202.5 866.7Z" fill="#ff0050" stroke="#000000"></path><path d="M675 200L675 166.7L641.3 166.7Z" fill="#ff0050" stroke="#000000"></path><path d="M641.3 766.7L675 733.3L641.3 733.3Z" fill="#2600b3" stroke="#000000"></path><path d="M540 33.3L506.3 33.3L540 66.7Z" fill="#ff0050" stroke="#000000"></path><path d="M540 66.7L506.3 33.3L506.3 66.7Z" fill="#ff9f00" stroke="#000000"></path><path d="M438.8 0L405 0L438.8 33.3Z" fill="#ff4b3c" stroke="#000000"></path><path d="M168.8 0L135 33.3L168.8 33.3Z" fill="#8200a4" stroke="#000000"></path><path d="M168.8 33.3L135 33.3L135 66.7Z" fill="#ff0050" stroke="#000000"></path><path d="M101.3 66.7L67.5 66.7L67.5 100Z" fill="#2600b3" stroke="#000000"></path><path d="M472.5 866.7L506.3 866.7L506.3 833.3Z" fill="#ff4b3c" stroke="#000000"></path><path d="M540 833.3L573.8 833.3L573.8 800Z" fill="#2600b3" stroke="#000000"></path><path d="M472.5 900L506.3 866.7L472.5 866.7Z" fill="#8200a4" stroke="#000000"></path><path d="M101.3 833.3L135 866.7L135 833.3Z" fill="#ffc400" stroke="#000000"></path><path d="M202.5 900L236.3 900L202.5 866.7Z" fill="#d7007a" stroke="#000000"></path><path d="M101.3 866.7L135 866.7L101.3 833.3Z" fill="#ff7723" stroke="#000000"></path><path d="M438.8 0L438.8 33.3L472.5 33.3Z" fill="#ffc400" stroke="#000000"></path><path d="M270 0L236.3 0L236.3 33.3Z" fill="#ff0050" stroke="#000000"></path><path d="M371.3 900L405 900L405 866.7Z" fill="#ff4b3c" stroke="#000000"></path><path d="M202.5 900L202.5 866.7L168.8 866.7Z" fill="#ff0050" stroke="#000000"></path><path d="M607.5 100L573.8 66.7L573.8 100Z" fill="#ff0050" stroke="#000000"></path><path d="M101.3 33.3L67.5 66.7L101.3 66.7Z" fill="#ff7723" stroke="#000000"></path><path d="M33.8 833.3L67.5 833.3L33.8 800Z" fill="#ff7723" stroke="#000000"></path><path d="M33.8 800L67.5 833.3L67.5 800Z" fill="#ff4b3c" stroke="#000000"></path><path d="M540 866.7L573.8 833.3L540 833.3Z" fill="#d7007a" stroke="#000000"></path><path d="M607.5 800L641.3 800L607.5 766.7Z" fill="#ffe800" stroke="#000000"></path><path d="M472.5 0L438.8 0L472.5 33.3Z" fill="#ffc400" stroke="#000000"></path><path d="M236.3 0L202.5 0L202.5 33.3Z" fill="#ff0050" stroke="#000000"></path><path d="M168.8 900L202.5 900L168.8 866.7Z" fill="#ffe800" stroke="#000000"></path><path d="M405 900L438.8 900L438.8 866.7Z" fill="#ffc400" stroke="#000000"></path><path d="M135 0L101.3 33.3L135 33.3Z" fill="#8200a4" stroke="#000000"></path><path d="M135 33.3L101.3 33.3L101.3 66.7Z" fill="#8200a4" stroke="#000000"></path><path d="M573.8 66.7L540 33.3L540 66.7Z" fill="#ff0050" stroke="#000000"></path><path d="M506.3 33.3L472.5 0L472.5 33.3Z" fill="#ff7723" stroke="#000000"></path><path d="M506.3 900L540 866.7L506.3 866.7Z" fill="#ff9f00" stroke="#000000"></path><path d="M506.3 866.7L540 866.7L540 833.3Z" fill="#b40090" stroke="#000000"></path><path d="M607.5 833.3L641.3 800L607.5 800Z" fill="#ffc400" stroke="#000000"></path><path d="M67.5 833.3L101.3 866.7L101.3 833.3Z" fill="#ff0050" stroke="#000000"></path><path d="M135 866.7L168.8 900L168.8 866.7Z" fill="#ff9f00" stroke="#000000"></path><path d="M67.5 866.7L101.3 866.7L67.5 833.3Z" fill="#ef0065" stroke="#000000"></path><path d="M0 766.7L0 800L33.8 766.7Z" fill="#b40090" stroke="#000000"></path><path d="M641.3 133.3L641.3 100L607.5 100Z" fill="#ff4b3c" stroke="#000000"></path><path d="M607.5 100L607.5 66.7L573.8 66.7Z" fill="#b40090" stroke="#000000"></path><path d="M573.8 66.7L573.8 33.3L540 33.3Z" fill="#8200a4" stroke="#000000"></path><path d="M675 133.3L641.3 100L641.3 133.3Z" fill="#2600b3" stroke="#000000"></path><path d="M33.8 66.7L33.8 100L67.5 66.7Z" fill="#d7007a" stroke="#000000"></path><path d="M33.8 66.7L0 100L33.8 100Z" fill="#b40090" stroke="#000000"></path><path d="M33.8 100L0 100L0 133.3Z" fill="#d7007a" stroke="#000000"></path><path d="M607.5 833.3L607.5 800L573.8 833.3Z" fill="#ff0050" stroke="#000000"></path><path d="M641.3 766.7L675 766.7L675 733.3Z" fill="#ff4b3c" stroke="#000000"></path><path d="M202.5 0L168.8 0L168.8 33.3Z" fill="#8200a4" stroke="#000000"></path><path d="M506.3 0L472.5 0L506.3 33.3Z" fill="#2600b3" stroke="#000000"></path><path d="M135 900L168.8 900L135 866.7Z" fill="#ff4b3c" stroke="#000000"></path><path d="M438.8 900L472.5 900L472.5 866.7Z" fill="#ff7723" stroke="#000000"></path><path d="M675 166.7L675 133.3L641.3 133.3Z" fill="#8200a4" stroke="#000000"></path><path d="M675 800L675 766.7L641.3 766.7Z" fill="#ef0065" stroke="#000000"></path><path d="M641.3 100L607.5 66.7L607.5 100Z" fill="#d7007a" stroke="#000000"></path><path d="M67.5 33.3L33.8 66.7L67.5 66.7Z" fill="#ff9f00" stroke="#000000"></path><path d="M0 800L33.8 833.3L33.8 800Z" fill="#ffc400" stroke="#000000"></path><path d="M573.8 866.7L607.5 833.3L573.8 833.3Z" fill="#ff9f00" stroke="#000000"></path><path d="M641.3 800L675 800L641.3 766.7Z" fill="#b40090" stroke="#000000"></path><path d="M168.8 0L135 0L135 33.3Z" fill="#ff4b3c" stroke="#000000"></path><path d="M101.3 33.3L67.5 33.3L67.5 66.7Z" fill="#ffc400" stroke="#000000"></path><path d="M540 0L506.3 0L540 33.3Z" fill="#ff0050" stroke="#000000"></path><path d="M540 33.3L506.3 0L506.3 33.3Z" fill="#2600b3" stroke="#000000"></path><path d="M101.3 900L135 900L101.3 866.7Z" fill="#8200a4" stroke="#000000"></path><path d="M101.3 866.7L135 900L135 866.7Z" fill="#2600b3" stroke="#000000"></path><path d="M472.5 900L506.3 900L506.3 866.7Z" fill="#ff4b3c" stroke="#000000"></path><path d="M540 866.7L573.8 866.7L573.8 833.3Z" fill="#ff0050" stroke="#000000"></path><path d="M607.5 66.7L573.8 33.3L573.8 66.7Z" fill="#ffe800" stroke="#000000"></path><path d="M101.3 0L67.5 33.3L101.3 33.3Z" fill="#b40090" stroke="#000000"></path><path d="M33.8 833.3L67.5 866.7L67.5 833.3Z" fill="#ef0065" stroke="#000000"></path><path d="M540 900L573.8 866.7L540 866.7Z" fill="#b40090" stroke="#000000"></path><path d="M641.3 833.3L675 800L641.3 800Z" fill="#ffc400" stroke="#000000"></path><path d="M641.3 833.3L641.3 800L607.5 833.3Z" fill="#ff0050" stroke="#000000"></path><path d="M675 133.3L675 100L641.3 100Z" fill="#2600b3" stroke="#000000"></path><path d="M641.3 100L641.3 66.7L607.5 66.7Z" fill="#ef0065" stroke="#000000"></path><path d="M607.5 66.7L607.5 33.3L573.8 33.3Z" fill="#ff7723" stroke="#000000"></path><path d="M675 100L641.3 66.7L641.3 100Z" fill="#b40090" stroke="#000000"></path><path d="M33.8 33.3L0 66.7L33.8 66.7Z" fill="#2600b3" stroke="#000000"></path><path d="M33.8 66.7L0 66.7L0 100Z" fill="#2600b3" stroke="#000000"></path><path d="M607.5 866.7L641.3 833.3L607.5 833.3Z" fill="#ffe800" stroke="#000000"></path><path d="M0 800L0 833.3L33.8 833.3Z" fill="#ff4b3c" stroke="#000000"></path><path d="M33.8 833.3L33.8 866.7L67.5 866.7Z" fill="#ff7723" stroke="#000000"></path><path d="M573.8 0L540 0L573.8 33.3Z" fill="#ff9f00" stroke="#000000"></path><path d="M573.8 33.3L540 0L540 33.3Z" fill="#ff0050" stroke="#000000"></path><path d="M135 0L101.3 0L101.3 33.3Z" fill="#ff9f00" stroke="#000000"></path><path d="M67.5 33.3L33.8 33.3L33.8 66.7Z" fill="#ffc400" stroke="#000000"></path><path d="M67.5 866.7L101.3 900L101.3 866.7Z" fill="#ff7723" stroke="#000000"></path><path d="M67.5 900L101.3 900L67.5 866.7Z" fill="#ff4b3c" stroke="#000000"></path><path d="M506.3 900L540 900L540 866.7Z" fill="#ff4b3c" stroke="#000000"></path><path d="M573.8 866.7L607.5 866.7L607.5 833.3Z" fill="#ef0065" stroke="#000000"></path><path d="M67.5 0L33.8 33.3L67.5 33.3Z" fill="#ef0065" stroke="#000000"></path><path d="M641.3 66.7L607.5 33.3L607.5 66.7Z" fill="#ff7723" stroke="#000000"></path><path d="M573.8 900L607.5 866.7L573.8 866.7Z" fill="#ff0050" stroke="#000000"></path><path d="M0 833.3L33.8 866.7L33.8 833.3Z" fill="#ffc400" stroke="#000000"></path><path d="M101.3 0L67.5 0L67.5 33.3Z" fill="#ff7723" stroke="#000000"></path><path d="M607.5 33.3L573.8 0L573.8 33.3Z" fill="#ff7723" stroke="#000000"></path><path d="M33.8 866.7L67.5 900L67.5 866.7Z" fill="#ffc400" stroke="#000000"></path><path d="M540 900L573.8 900L573.8 866.7Z" fill="#8200a4" stroke="#000000"></path><path d="M675 100L675 66.7L641.3 66.7Z" fill="#ff7723" stroke="#000000"></path><path d="M641.3 66.7L641.3 33.3L607.5 33.3Z" fill="#ff7723" stroke="#000000"></path><path d="M607.5 33.3L607.5 0L573.8 0Z" fill="#ff0050" stroke="#000000"></path><path d="M641.3 866.7L675 833.3L641.3 833.3Z" fill="#2600b3" stroke="#000000"></path><path d="M641.3 833.3L675 833.3L675 800Z" fill="#ef0065" stroke="#000000"></path><path d="M641.3 866.7L641.3 833.3L607.5 866.7Z" fill="#ff0050" stroke="#000000"></path><path d="M33.8 0L0 33.3L33.8 33.3Z" fill="#ff4b3c" stroke="#000000"></path><path d="M33.8 33.3L0 33.3L0 66.7Z" fill="#ff4b3c" stroke="#000000"></path><path d="M675 66.7L641.3 33.3L641.3 66.7Z" fill="#b40090" stroke="#000000"></path><path d="M0 833.3L0 866.7L33.8 866.7Z" fill="#ff9f00" stroke="#000000"></path><path d="M33.8 866.7L33.8 900L67.5 900Z" fill="#b40090" stroke="#000000"></path><path d="M607.5 900L641.3 866.7L607.5 866.7Z" fill="#2600b3" stroke="#000000"></path><path d="M641.3 33.3L607.5 0L607.5 33.3Z" fill="#8200a4" stroke="#000000"></path><path d="M67.5 0L33.8 0L33.8 33.3Z" fill="#b40090" stroke="#000000"></path><path d="M0 866.7L33.8 900L33.8 866.7Z" fill="#ff0050" stroke="#000000"></path><path d="M573.8 900L607.5 900L607.5 866.7Z" fill="#b40090" stroke="#000000"></path><path d="M675 66.7L675 33.3L641.3 33.3Z" fill="#b40090" stroke="#000000"></path><path d="M641.3 33.3L641.3 0L607.5 0Z" fill="#ff4b3c" stroke="#000000"></path><path d="M641.3 866.7L675 866.7L675 833.3Z" fill="#ff4b3c" stroke="#000000"></path><path d="M641.3 900L675 866.7L641.3 866.7Z" fill="#ffc400" stroke="#000000"></path><path d="M33.8 0L0 0L0 33.3Z" fill="#8200a4" stroke="#000000"></path><path d="M675 33.3L641.3 0L641.3 33.3Z" fill="#b40090" stroke="#000000"></path><path d="M0 866.7L0 900L33.8 900Z" fill="#d7007a" stroke="#000000"></path><path d="M607.5 900L641.3 900L641.3 866.7Z" fill="#ff9f00" stroke="#000000"></path><path d="M675 33.3L675 0L641.3 0Z" fill="#ffe800" stroke="#000000"></path><path d="M641.3 900L675 900L675 866.7Z" fill="#ff4b3c" stroke="#000000"></path></g></svg>