<svg id="visual" viewBox="0 0 675 900" width="675" height="900" xmlns="http://www.w3.org/2000/svg" xmlns:xlink="http://www.w3.org/1999/xlink" version="1.1"><rect width="675" height="900" fill="#309eb6"></rect><g><g transform="translate(267 295)"><path d="M15.8 -11.1C20.1 -7.1 23.1 -0.6 22.2 5.8C21.3 12.1 16.6 18.3 10.6 20.6C4.7 22.9 -2.4 21.4 -8.6 18.2C-14.7 15.1 -19.9 10.4 -21.6 4.5C-23.3 -1.4 -21.5 -8.5 -17.3 -12.5C-13.1 -16.4 -6.5 -17.1 -0.4 -16.8C5.7 -16.4 11.4 -15.1 15.8 -11.1Z" fill="#ffffff"></path></g><g transform="translate(450 30)"><path d="M9.7 -7.7C12 -4.8 12.9 -0.8 12.4 3.4C11.9 7.7 10 12.2 6.5 14.1C3.1 16 -2 15.3 -5.7 13C-9.5 10.8 -12.1 7.1 -13.5 2.5C-15 -2 -15.4 -7.3 -12.9 -10.1C-10.5 -13 -5.2 -13.5 -0.8 -12.8C3.7 -12.2 7.4 -10.5 9.7 -7.7Z" fill="#ffffff"></path></g><g transform="translate(254 671)"><path d="M2.5 -2.2C3.1 -1.4 3.1 -0.3 2.8 0.5C2.5 1.4 1.9 2.1 1.1 2.5C0.4 2.9 -0.6 3.1 -1.3 2.7C-2 2.4 -2.3 1.5 -2.5 0.6C-2.6 -0.2 -2.5 -1.1 -2.1 -1.8C-1.6 -2.6 -0.8 -3.3 0.1 -3.4C1 -3.5 2 -2.9 2.5 -2.2Z" fill="#ffffff"></path></g><g transform="translate(578 632)"><path d="M13.3 -10.4C17.5 -5.3 21.4 0.2 20.6 5.1C19.8 10 14.3 14.2 8.4 17C2.4 19.7 -4.2 20.9 -8.6 18.5C-13 16.1 -15.3 10.1 -16.9 3.6C-18.5 -2.8 -19.5 -9.6 -16.6 -14.4C-13.7 -19.2 -6.8 -22.2 -1.1 -21.2C4.5 -20.3 9.1 -15.6 13.3 -10.4Z" fill="#ffffff"></path></g><g transform="translate(353 413)"><path d="M10.6 -8.7C12.5 -6 12 -1.7 10.8 2.1C9.7 5.8 7.7 9 4.8 10.7C1.8 12.5 -2.3 12.9 -5.9 11.5C-9.4 10 -12.4 6.8 -13.2 3.1C-13.9 -0.5 -12.3 -4.5 -9.7 -7.3C-7.2 -10.1 -3.6 -11.7 0.4 -12C4.3 -12.3 8.7 -11.3 10.6 -8.7Z" fill="#ffffff"></path></g><g transform="translate(324 205)"><path d="M10.8 -9.1C13.1 -5.8 13.4 -1.3 12.2 2.3C11 5.8 8.2 8.5 5.1 9.6C2 10.8 -1.4 10.4 -4.4 9C-7.3 7.6 -9.9 5.2 -11 2C-12.2 -1.2 -11.9 -5.3 -9.9 -8.6C-7.8 -11.9 -3.9 -14.4 0.2 -14.5C4.3 -14.7 8.6 -12.5 10.8 -9.1Z" fill="#ffffff"></path></g><g transform="translate(519 276)"><path d="M3.3 -2.5C4.2 -1.5 4.9 -0.1 4.6 1C4.4 2.2 3.2 3.1 2 3.5C0.8 3.9 -0.5 3.7 -1.5 3.1C-2.6 2.6 -3.5 1.8 -3.9 0.8C-4.2 -0.3 -3.9 -1.6 -3.2 -2.6C-2.4 -3.6 -1.2 -4.4 0 -4.3C1.2 -4.3 2.4 -3.6 3.3 -2.5Z" fill="#ffffff"></path></g><g transform="translate(398 525)"><path d="M10.8 -9.4C13.4 -5.4 14.5 -0.9 13.8 3.6C13.2 8.1 10.7 12.7 6.9 14.5C3.2 16.4 -2 15.5 -5.8 13.2C-9.6 10.9 -12.1 7.1 -13.1 3C-14.1 -1.2 -13.5 -5.7 -11 -9.7C-8.6 -13.7 -4.3 -17.1 -0.1 -17C4.1 -16.9 8.2 -13.4 10.8 -9.4Z" fill="#ffffff"></path></g><g transform="translate(306 483)"><path d="M9.4 -7.5C11.2 -5.3 10.9 -1.4 9.9 1.9C8.9 5.3 7.1 8.1 4.3 9.8C1.6 11.4 -2.1 11.8 -5.1 10.4C-8.1 9.1 -10.3 6 -10.8 2.8C-11.2 -0.4 -9.9 -3.6 -7.8 -5.9C-5.7 -8.2 -2.8 -9.6 0.5 -10C3.8 -10.4 7.6 -9.8 9.4 -7.5Z" fill="#ffffff"></path></g><g transform="translate(391 624)"><path d="M15.7 -12.7C19.2 -8.1 20.3 -1.6 19.1 4.7C17.9 10.9 14.5 17 9.4 19.5C4.2 21.9 -2.6 20.9 -7.9 17.8C-13.2 14.7 -16.8 9.7 -18.3 4C-19.7 -1.6 -18.8 -8 -15.4 -12.6C-11.9 -17.2 -6 -20.1 0 -20.1C6.1 -20.2 12.1 -17.4 15.7 -12.7Z" fill="#ffffff"></path></g><g transform="translate(163 491)"><path d="M13.9 -12C17 -7.2 17.8 -1.5 16.4 3.3C15 8.2 11.3 12.1 6.8 14.3C2.3 16.6 -3.1 17.2 -7.7 15.2C-12.3 13.3 -16.1 8.9 -17.3 3.9C-18.6 -1.2 -17.2 -6.9 -13.9 -11.7C-10.6 -16.6 -5.3 -20.5 0.1 -20.5C5.4 -20.6 10.8 -16.8 13.9 -12Z" fill="#ffffff"></path></g><g transform="translate(76 213)"><path d="M7.4 -5.9C9.3 -3.6 10.2 -0.5 9.5 2.1C8.9 4.7 6.6 6.8 4 8C1.4 9.1 -1.5 9.1 -4.2 8.1C-7 7 -9.5 4.9 -10.7 1.8C-11.9 -1.2 -11.7 -5.2 -9.7 -7.5C-7.7 -9.8 -3.9 -10.4 -0.5 -9.9C2.8 -9.5 5.6 -8.1 7.4 -5.9Z" fill="#ffffff"></path></g><g transform="translate(215 436)"><path d="M5.4 -4.4C6.6 -2.7 7.2 -0.5 6.8 1.6C6.4 3.7 5 5.6 3.1 6.6C1.2 7.6 -1.3 7.7 -3.2 6.7C-5.2 5.8 -6.7 3.8 -7.2 1.7C-7.7 -0.5 -7.1 -2.9 -5.8 -4.7C-4.4 -6.4 -2.2 -7.6 -0.1 -7.5C2 -7.4 4.1 -6.2 5.4 -4.4Z" fill="#ffffff"></path></g><g transform="translate(464 778)"><path d="M15.3 -12.3C18.3 -8.5 18.1 -2.2 16.3 3.1C14.6 8.4 11.4 12.7 7.1 14.8C2.8 16.9 -2.6 16.8 -6.8 14.6C-10.9 12.4 -13.8 8.1 -14.9 3.5C-15.9 -1.2 -15 -6.2 -12.2 -10C-9.4 -13.8 -4.7 -16.4 0.7 -17C6.2 -17.6 12.3 -16.1 15.3 -12.3Z" fill="#ffffff"></path></g><g transform="translate(181 699)"><path d="M9.8 -8.6C12.2 -4.7 13.6 -0.6 13.2 3.8C12.9 8.3 10.8 13.2 6.8 15.7C2.8 18.2 -3 18.3 -7.3 16C-11.6 13.6 -14.3 8.7 -15.4 3.6C-16.5 -1.5 -16 -7 -13.2 -10.9C-10.3 -14.9 -5.2 -17.5 -0.8 -16.9C3.6 -16.3 7.3 -12.5 9.8 -8.6Z" fill="#ffffff"></path></g><g transform="translate(631 468)"><path d="M11.6 -9.7C14 -6.2 14.2 -1.5 12.7 2.1C11.3 5.7 8.2 8.2 4.8 9.8C1.3 11.4 -2.5 12.2 -5.8 11C-9.1 9.8 -12 6.6 -13.2 2.7C-14.3 -1.2 -13.7 -5.8 -11.2 -9.3C-8.7 -12.8 -4.4 -15.2 0.1 -15.3C4.6 -15.4 9.2 -13.2 11.6 -9.7Z" fill="#ffffff"></path></g><g transform="translate(404 271)"><path d="M9.6 -7.2C11.8 -4.9 12.5 -1 11.5 2.2C10.4 5.4 7.7 7.8 4.6 9.2C1.5 10.6 -2 11 -5 9.8C-8 8.6 -10.5 5.8 -11.2 2.6C-11.9 -0.6 -10.8 -4.2 -8.7 -6.5C-6.5 -8.8 -3.2 -9.9 0.2 -10.1C3.7 -10.3 7.4 -9.6 9.6 -7.2Z" fill="#ffffff"></path></g><g transform="translate(453 868)"><path d="M7.6 -5.8C9.6 -3.6 10.6 -0.5 10.2 2.7C9.8 6 7.9 9.2 4.9 11C1.9 12.8 -2.3 13.1 -5.7 11.5C-9.1 10 -11.9 6.7 -12.5 3.1C-13.1 -0.5 -11.7 -4.3 -9.2 -6.6C-6.8 -9 -3.4 -9.8 -0.3 -9.6C2.8 -9.3 5.7 -8.1 7.6 -5.8Z" fill="#ffffff"></path></g><g transform="translate(633 282)"><path d="M8.4 -6.4C10.4 -4.3 11.1 -0.8 10.6 2.8C10.1 6.4 8.4 10.1 5.6 11.2C2.9 12.4 -0.9 11 -4 9.2C-7.2 7.4 -9.7 5.1 -10.7 2C-11.8 -1.1 -11.4 -4.9 -9.3 -7.1C-7.3 -9.2 -3.7 -9.6 -0.2 -9.5C3.2 -9.3 6.5 -8.5 8.4 -6.4Z" fill="#ffffff"></path></g><g transform="translate(58 87)"><path d="M15.5 -11.2C19.2 -7.9 20.4 -1.5 19 4.2C17.6 9.8 13.5 14.6 8.2 17.1C3 19.6 -3.3 19.8 -8.5 17.4C-13.7 15 -17.7 10 -18.6 4.7C-19.4 -0.6 -17 -6.1 -13.4 -9.5C-9.7 -12.8 -4.9 -14 0.5 -14.4C6 -14.9 11.9 -14.6 15.5 -11.2Z" fill="#ffffff"></path></g><g transform="translate(552 833)"><path d="M7.9 -7.2C9.5 -4.4 9.4 -1.1 8.7 1.9C7.9 4.9 6.4 7.6 4.1 8.8C1.8 10 -1.3 9.6 -3.8 8.2C-6.3 6.9 -8.1 4.6 -9.1 1.7C-10 -1.2 -10.1 -4.7 -8.5 -7.5C-6.8 -10.4 -3.4 -12.6 -0.1 -12.5C3.2 -12.4 6.4 -10 7.9 -7.2Z" fill="#ffffff"></path></g><g transform="translate(434 384)"><path d="M8.7 -7C10.6 -4.5 11.1 -0.9 10 1.7C9 4.4 6.4 6.2 3.8 7C1.3 7.9 -1.3 7.9 -3.7 7C-6 6.1 -8.3 4.2 -9.4 1.5C-10.5 -1.2 -10.5 -4.8 -8.8 -7.2C-7 -9.6 -3.5 -10.8 -0.1 -10.8C3.4 -10.7 6.8 -9.4 8.7 -7Z" fill="#ffffff"></path></g><g transform="translate(47 756)"><path d="M8.6 -6.5C11 -3.9 12.6 -0.3 12.3 3.6C12 7.5 9.9 11.7 6.3 13.6C2.8 15.5 -2.1 15 -6.4 13.1C-10.7 11.1 -14.5 7.6 -15.3 3.6C-16.2 -0.5 -14.2 -5.1 -11.2 -7.8C-8.1 -10.5 -4.1 -11.3 -0.5 -10.9C3.1 -10.6 6.3 -9 8.6 -6.5Z" fill="#ffffff"></path></g><g transform="translate(524 168)"><path d="M9.3 -7.3C12.2 -3.8 14.8 0.1 14.3 3.7C13.8 7.3 10.2 10.5 6 12.7C1.8 14.8 -3.1 15.7 -6.4 13.9C-9.7 12.1 -11.4 7.6 -12.5 2.9C-13.5 -1.8 -13.9 -6.6 -11.7 -9.9C-9.5 -13.3 -4.8 -15.2 -0.8 -14.5C3.2 -13.9 6.4 -10.8 9.3 -7.3Z" fill="#ffffff"></path></g><g transform="translate(499 493)"><path d="M8.1 -6C10 -4 10.9 -0.6 10.2 2.3C9.5 5.2 7.2 7.6 4.3 9C1.5 10.4 -1.9 10.7 -4.6 9.4C-7.2 8.2 -9.2 5.3 -9.8 2.3C-10.4 -0.7 -9.7 -3.9 -7.8 -5.9C-6 -8 -3 -8.9 0 -8.9C3 -8.9 6.1 -8.1 8.1 -6Z" fill="#ffffff"></path></g><g transform="translate(325 753)"><path d="M10.2 -7.4C13.1 -4.5 15.2 -0.3 14.8 4.2C14.4 8.6 11.5 13.2 7.2 15.4C2.9 17.7 -2.7 17.5 -6.9 15.1C-11 12.8 -13.7 8.3 -14.1 4C-14.5 -0.4 -12.6 -4.4 -9.9 -7.3C-7.1 -10.1 -3.6 -11.7 0 -11.8C3.6 -11.8 7.3 -10.3 10.2 -7.4Z" fill="#ffffff"></path></g><g transform="translate(135 860)"><path d="M14.2 -10.2C18 -6.5 20.6 -0.6 19.6 4.7C18.5 9.9 13.9 14.5 8.6 16.5C3.4 18.4 -2.4 17.8 -6.9 15.2C-11.3 12.7 -14.5 8.4 -16 3.2C-17.6 -2 -17.6 -8 -14.6 -11.6C-11.7 -15.1 -5.8 -16.3 -0.3 -16C5.2 -15.7 10.3 -14 14.2 -10.2Z" fill="#ffffff"></path></g><g transform="translate(237 568)"><path d="M5.7 -4.6C7.2 -2.7 8 -0.3 7.5 1.8C7.1 3.9 5.4 5.8 3.4 6.6C1.4 7.3 -0.9 7 -2.8 6C-4.7 5.1 -6.2 3.4 -6.6 1.5C-7 -0.3 -6.4 -2.4 -5.1 -4.3C-3.8 -6.2 -1.9 -7.8 0.1 -7.9C2.1 -8 4.2 -6.5 5.7 -4.6Z" fill="#ffffff"></path></g><g transform="translate(537 34)"><path d="M12 -9.6C14.4 -6.7 14.2 -1.7 13.2 3.1C12.1 7.9 10.2 12.6 6.4 15.1C2.5 17.7 -3.2 18.2 -8.2 16.1C-13.1 14.1 -17.3 9.5 -18.3 4.4C-19.2 -0.7 -17 -6.2 -13.4 -9.4C-9.8 -12.6 -4.9 -13.4 0 -13.4C4.8 -13.3 9.7 -12.5 12 -9.6Z" fill="#ffffff"></path></g><g transform="translate(239 243)"><path d="M4.5 -3.4C5.6 -2.3 5.9 -0.4 5.4 1.1C5 2.7 3.7 3.9 2.2 4.8C0.6 5.6 -1.3 6.1 -2.7 5.4C-4.2 4.8 -5.3 3.1 -5.8 1.3C-6.3 -0.6 -6.1 -2.6 -5 -3.8C-3.9 -4.9 -2 -5.1 -0.1 -5C1.7 -4.9 3.5 -4.6 4.5 -3.4Z" fill="#ffffff"></path></g><g transform="translate(574 106)"><path d="M2 -1.5C2.6 -0.9 3 -0.1 2.8 0.6C2.6 1.3 1.9 1.8 1.1 2.2C0.2 2.6 -0.6 2.9 -1.3 2.6C-1.9 2.3 -2.2 1.5 -2.3 0.7C-2.4 -0.2 -2.2 -0.9 -1.8 -1.5C-1.3 -2 -0.7 -2.5 0 -2.5C0.7 -2.5 1.5 -2.1 2 -1.5Z" fill="#ffffff"></path></g><g transform="translate(30 169)"><path d="M4 -3.1C5.1 -1.8 5.8 -0.2 5.4 1.1C5 2.3 3.5 3.1 1.9 3.8C0.4 4.4 -1.1 4.9 -2.4 4.4C-3.8 4 -5.1 2.7 -5.4 1.3C-5.7 -0.2 -5 -1.8 -4 -3C-2.9 -4.3 -1.4 -5 0 -5.1C1.5 -5.1 2.9 -4.3 4 -3.1Z" fill="#ffffff"></path></g><g transform="translate(52 590)"><path d="M13.3 -10.3C16.5 -6.5 18 -1 16.8 3.6C15.5 8.2 11.6 12 7.1 13.8C2.7 15.6 -2.3 15.3 -7.1 13.5C-11.8 11.6 -16.4 8.2 -18 3.5C-19.6 -1.3 -18.2 -7.4 -14.7 -11.2C-11.2 -15.1 -5.6 -16.7 -0.3 -16.5C5 -16.3 10 -14.1 13.3 -10.3Z" fill="#ffffff"></path></g><g transform="translate(305 871)"><path d="M14.1 -10.7C16.9 -7.7 16.9 -2 15.1 2.4C13.3 6.8 9.7 9.8 5.5 12.1C1.3 14.4 -3.6 16 -7.1 14.5C-10.7 12.9 -12.9 8.2 -13.8 3.4C-14.6 -1.3 -14.1 -6.1 -11.6 -9C-9.1 -11.9 -4.5 -12.9 0.6 -13.3C5.7 -13.8 11.3 -13.7 14.1 -10.7Z" fill="#ffffff"></path></g><g transform="translate(210 126)"><path d="M7.1 -6.1C8.9 -3.5 9.8 -0.5 9.4 2.4C8.9 5.4 7.2 8.3 4.7 9.2C2.3 10.2 -0.8 9.1 -3.9 7.8C-6.9 6.4 -9.9 4.7 -11 1.9C-12.1 -0.9 -11.4 -4.7 -9.2 -7.4C-7.1 -10.1 -3.5 -11.7 -0.4 -11.4C2.7 -11 5.4 -8.7 7.1 -6.1Z" fill="#ffffff"></path></g><g transform="translate(427 105)"><path d="M12.4 -10.2C15.5 -6.1 16.9 -0.9 16.2 4.3C15.5 9.5 12.6 14.9 8.4 16.7C4.1 18.5 -1.6 16.8 -6.8 14.2C-12.1 11.7 -17 8.3 -18.2 3.9C-19.4 -0.5 -16.8 -5.9 -13.2 -10.2C-9.5 -14.5 -4.8 -17.5 0 -17.5C4.7 -17.5 9.4 -14.3 12.4 -10.2Z" fill="#ffffff"></path></g><g transform="translate(467 599)"><path d="M11.1 -9.1C13.7 -5.6 14.6 -1 13.5 2.8C12.4 6.5 9.2 9.5 5.4 11.4C1.6 13.3 -2.8 14.1 -5.8 12.5C-8.8 10.9 -10.4 6.8 -11.7 2.4C-13 -2.1 -13.9 -7 -11.9 -10.3C-9.9 -13.7 -5 -15.5 -0.4 -15.2C4.2 -15 8.5 -12.5 11.1 -9.1Z" fill="#ffffff"></path></g><g transform="translate(189 280)"><path d="M12.8 -9.1C16.5 -5.5 19.4 -0.2 18.4 4.2C17.4 8.6 12.4 12 7.3 14.1C2.2 16.2 -3.2 16.9 -7 14.9C-10.8 12.9 -13.2 8.2 -14.7 3C-16.2 -2.3 -16.9 -8.1 -14.3 -11.4C-11.7 -14.7 -5.8 -15.4 -0.7 -14.9C4.5 -14.4 9 -12.6 12.8 -9.1Z" fill="#ffffff"></path></g><g transform="translate(145 398)"><path d="M11.4 -8C14.7 -5.1 17 -0.3 16.1 3.6C15.1 7.6 11 10.9 6.4 12.9C1.9 14.9 -3 15.7 -6.4 13.9C-9.8 12 -11.7 7.6 -12.7 3C-13.7 -1.6 -13.7 -6.3 -11.4 -9C-9.2 -11.7 -4.6 -12.5 -0.2 -12.3C4.1 -12.2 8.2 -11 11.4 -8Z" fill="#ffffff"></path></g><g transform="translate(159 791)"><path d="M6.1 -4.4C7.7 -2.9 8.7 -0.3 8.3 2.2C7.9 4.7 6.3 7.2 4 8.2C1.7 9.3 -1.3 9 -3.6 7.8C-5.9 6.5 -7.6 4.3 -8.1 1.9C-8.6 -0.6 -8 -3.2 -6.5 -4.7C-4.9 -6.3 -2.5 -6.7 -0.1 -6.6C2.3 -6.5 4.5 -6 6.1 -4.4Z" fill="#ffffff"></path></g><g transform="translate(103 532)"><path d="M2.6 -2C3.2 -1.3 3.5 -0.2 3.3 0.8C3.1 1.7 2.4 2.6 1.4 3.2C0.4 3.8 -0.9 4.1 -2 3.7C-3 3.3 -3.9 2.2 -4.1 1C-4.3 -0.2 -3.8 -1.4 -3 -2.2C-2.2 -2.9 -1.1 -3.2 -0.1 -3.1C1 -3.1 2 -2.7 2.6 -2Z" fill="#ffffff"></path></g><g transform="translate(411 212)"><path d="M17.6 -13.6C21.8 -8.9 23.3 -1.6 21.8 4.9C20.3 11.5 15.7 17.2 9.9 19.7C4.1 22.1 -2.8 21.2 -8.9 18.3C-15 15.4 -20.3 10.6 -20.9 5.4C-21.6 0.2 -17.6 -5.4 -13.4 -10.1C-9.1 -14.9 -4.6 -18.8 1.1 -19.6C6.7 -20.5 13.5 -18.3 17.6 -13.6Z" fill="#ffffff"></path></g><g transform="translate(637 704)"><path d="M9.4 -7.1C11.8 -4.6 12.9 -0.7 12 2.5C11 5.6 8 8 4.7 9.5C1.4 10.9 -2.2 11.4 -4.8 10.1C-7.5 8.8 -9.2 5.6 -9.9 2.3C-10.6 -1 -10.3 -4.5 -8.5 -6.9C-6.7 -9.2 -3.3 -10.5 0.1 -10.6C3.5 -10.6 7.1 -9.6 9.4 -7.1Z" fill="#ffffff"></path></g><g transform="translate(529 438)"><path d="M12.8 -10.3C15.9 -6.4 17 -1.1 16.3 4.4C15.5 9.9 12.9 15.6 8.3 18.3C3.7 20.9 -3 20.4 -8.1 17.7C-13.2 14.9 -16.7 9.7 -18.3 3.9C-19.9 -2 -19.6 -8.7 -16.2 -12.6C-12.8 -16.5 -6.4 -17.7 -0.8 -17.1C4.9 -16.5 9.8 -14.1 12.8 -10.3Z" fill="#ffffff"></path></g><g transform="translate(47 468)"><path d="M6.9 -5.5C8.4 -3.7 8.6 -0.8 8 1.8C7.4 4.4 5.9 6.8 3.7 8C1.6 9.1 -1.3 8.9 -3.6 7.7C-5.9 6.5 -7.6 4.3 -8.3 1.7C-9 -0.9 -8.8 -3.8 -7.2 -5.7C-5.7 -7.6 -2.8 -8.3 -0.1 -8.3C2.7 -8.3 5.5 -7.4 6.9 -5.5Z" fill="#ffffff"></path></g><g transform="translate(84 811)"><path d="M11.7 -8.7C14.7 -5.7 16.1 -0.8 15.4 4C14.7 8.8 11.8 13.6 7.5 15.8C3.2 17.9 -2.5 17.4 -6.4 14.9C-10.4 12.4 -12.7 7.9 -14 3C-15.3 -2 -15.7 -7.4 -13.2 -10.3C-10.7 -13.2 -5.4 -13.5 -0.5 -13.1C4.4 -12.7 8.8 -11.6 11.7 -8.7Z" fill="#ffffff"></path></g><g transform="translate(630 763)"><path d="M3.5 -2.7C4.3 -1.8 4.5 -0.4 4.1 0.8C3.7 1.9 2.7 2.8 1.6 3.3C0.4 3.9 -0.9 4.2 -1.9 3.7C-2.9 3.3 -3.6 2.1 -4 0.8C-4.4 -0.6 -4.5 -2.1 -3.8 -2.9C-3 -3.7 -1.5 -3.8 -0.1 -3.7C1.4 -3.7 2.8 -3.5 3.5 -2.7Z" fill="#ffffff"></path></g><g transform="translate(318 618)"><path d="M12.6 -10.3C16.2 -5.6 18.9 -0.3 17.9 4.2C17 8.7 12.4 12.5 7.5 14.3C2.7 16.1 -2.5 16 -7.7 14.2C-13 12.4 -18.3 8.9 -20.1 3.8C-21.9 -1.3 -20.2 -8 -16.3 -12.8C-12.3 -17.7 -6.2 -20.6 -0.8 -20C4.5 -19.3 9 -15.1 12.6 -10.3Z" fill="#ffffff"></path></g><g transform="translate(104 321)"><path d="M15.8 -12C19.7 -7.6 21.8 -1.1 20.6 4.9C19.4 10.9 15 16.4 9.7 18.2C4.4 20.1 -1.8 18.3 -7.4 15.5C-13 12.7 -18.1 9 -19.9 3.8C-21.7 -1.4 -20.1 -8.1 -16.2 -12.5C-12.3 -16.8 -6.2 -18.9 -0.1 -18.8C5.9 -18.7 11.8 -16.4 15.8 -12Z" fill="#ffffff"></path></g><g transform="translate(327 59)"><path d="M11 -9C13.7 -5.3 15.1 -0.8 14.1 3.1C13.2 7 9.8 10.2 6.1 11.6C2.4 12.9 -1.7 12.4 -5 10.7C-8.3 9 -10.8 6 -12.2 2.1C-13.6 -1.7 -13.8 -6.5 -11.6 -10C-9.4 -13.6 -4.7 -15.9 -0.3 -15.7C4.1 -15.4 8.2 -12.6 11 -9Z" fill="#ffffff"></path></g><g transform="translate(382 788)"><path d="M3.6 -2.8C4.4 -1.7 4.9 -0.3 4.5 0.9C4.1 2 2.9 2.8 1.6 3.4C0.3 4.1 -1.1 4.6 -2.3 4.2C-3.6 3.9 -4.7 2.6 -5 1.2C-5.3 -0.3 -4.8 -1.8 -3.8 -3C-2.8 -4.1 -1.4 -4.8 0 -4.7C1.3 -4.7 2.7 -4 3.6 -2.8Z" fill="#ffffff"></path></g><g transform="translate(614 40)"><path d="M12.4 -10.3C15 -6.7 15.2 -1.6 13.7 2.3C12.1 6.3 8.9 9.1 5.1 11C1.3 13 -3 14.2 -6.3 12.7C-9.6 11.3 -11.7 7.2 -12.4 3.1C-13.1 -1 -12.3 -5.1 -10 -8.6C-7.7 -12.1 -3.8 -15 0.5 -15.4C4.9 -15.8 9.9 -13.8 12.4 -10.3Z" fill="#ffffff"></path></g><g transform="translate(556 365)"><path d="M6.1 -4.9C7.8 -2.8 9 -0.2 8.7 2.4C8.4 5.1 6.8 7.8 4.2 9.3C1.5 10.9 -2 11.2 -4.4 9.8C-6.9 8.4 -8.2 5.3 -8.8 2.1C-9.5 -1.1 -9.4 -4.3 -7.9 -6.4C-6.3 -8.5 -3.1 -9.5 -0.5 -9.1C2.2 -8.7 4.4 -7 6.1 -4.9Z" fill="#ffffff"></path></g><g transform="translate(150 594)"><path d="M6.8 -6C8.3 -3.5 8.7 -0.7 8 1.6C7.3 4 5.5 5.9 3.1 7.5C0.7 9 -2.4 10.3 -4.6 9.3C-6.7 8.4 -7.9 5.2 -8.5 2.1C-9 -1 -9.1 -4.1 -7.6 -6.6C-6.1 -9.2 -3 -11.1 -0.2 -10.9C2.6 -10.8 5.3 -8.6 6.8 -6Z" fill="#ffffff"></path></g><g transform="translate(244 372)"><path d="M3.8 -3.1C4.5 -2.2 4.4 -0.6 3.9 0.7C3.5 2 2.7 3.1 1.7 3.5C0.7 4 -0.5 3.9 -1.6 3.3C-2.6 2.8 -3.5 1.9 -3.8 0.8C-4 -0.3 -3.7 -1.5 -3 -2.4C-2.3 -3.4 -1.1 -4.1 0.2 -4.2C1.6 -4.4 3.1 -4.1 3.8 -3.1Z" fill="#ffffff"></path></g><g transform="translate(362 341)"><path d="M13.9 -11.2C16.8 -7.4 17.1 -1.7 15.9 3.6C14.7 8.9 11.9 13.9 7.6 16.1C3.3 18.2 -2.5 17.7 -6.7 15.2C-11 12.6 -13.9 8.2 -15.7 2.8C-17.5 -2.6 -18.3 -8.9 -15.6 -12.7C-12.8 -16.4 -6.4 -17.4 -0.5 -17.1C5.5 -16.7 11 -14.9 13.9 -11.2Z" fill="#ffffff"></path></g><g transform="translate(517 753)"><path d="M9.6 -7.8C11.7 -5.2 11.9 -1.2 10.8 2C9.7 5.3 7.4 7.8 4.5 9.2C1.6 10.5 -1.9 10.8 -5 9.6C-8.1 8.4 -10.9 5.7 -11.3 2.9C-11.7 0.1 -9.6 -3 -7.4 -5.7C-5.1 -8.4 -2.5 -10.6 0.6 -11.1C3.8 -11.7 7.6 -10.4 9.6 -7.8Z" fill="#ffffff"></path></g><g transform="translate(95 657)"><path d="M3.5 -2.8C4.4 -1.6 5 -0.2 4.7 1C4.4 2.2 3.2 3.2 1.9 3.7C0.6 4.3 -0.8 4.4 -2.1 4C-3.5 3.5 -4.7 2.4 -5.1 1.1C-5.5 -0.3 -5 -1.9 -4 -3.1C-3 -4.3 -1.5 -5.1 -0.1 -5C1.3 -4.9 2.6 -4 3.5 -2.8Z" fill="#ffffff"></path></g><g transform="translate(581 183)"><path d="M9.8 -7.4C12.5 -4.3 14.5 -0.3 13.7 3C12.8 6.3 9.1 8.8 5.5 10.1C1.8 11.4 -1.9 11.5 -5 10.1C-8.1 8.7 -10.7 5.9 -11.4 2.7C-12.1 -0.5 -10.9 -4.1 -8.6 -7.1C-6.4 -10.1 -3.2 -12.5 0.1 -12.6C3.5 -12.7 7 -10.5 9.8 -7.4Z" fill="#ffffff"></path></g><g transform="translate(221 835)"><path d="M7.5 -6.2C9 -4.1 9.1 -1 8.5 2.1C7.9 5.1 6.7 8.2 4.3 9.7C1.8 11.2 -1.7 11.1 -4.2 9.6C-6.7 8.1 -8 5.1 -8.5 2.2C-9 -0.8 -8.6 -3.7 -7.1 -5.8C-5.5 -7.9 -2.8 -9.2 0.1 -9.3C3 -9.4 6 -8.3 7.5 -6.2Z" fill="#ffffff"></path></g><g transform="translate(463 239)"><path d="M7.5 -6C9 -4 9.1 -1 8.5 1.9C7.8 4.8 6.4 7.6 4.2 8.6C2 9.6 -1 8.9 -3.1 7.5C-5.3 6.1 -6.7 4 -7.5 1.4C-8.4 -1.2 -8.7 -4.2 -7.4 -6.1C-6 -8.1 -3 -8.9 0 -8.9C3 -8.9 6 -8 7.5 -6Z" fill="#ffffff"></path></g><g transform="translate(368 159)"><path d="M10.5 -7.4C13.8 -4.4 16.5 0 16.2 4.5C15.8 9.1 12.4 13.7 8.1 15.2C3.8 16.6 -1.2 14.8 -5.9 12.4C-10.7 10.1 -15.1 7.3 -16.4 3.3C-17.7 -0.7 -15.8 -5.9 -12.5 -8.9C-9.3 -11.9 -4.6 -12.7 -0.5 -12.4C3.7 -12 7.3 -10.4 10.5 -7.4Z" fill="#ffffff"></path></g><g transform="translate(638 367)"><path d="M10.9 -9C13.4 -5.6 14.2 -1.1 13.5 3.4C12.7 7.9 10.4 12.3 6.6 14.5C2.8 16.7 -2.6 16.5 -6.7 14.4C-10.9 12.2 -13.9 8.1 -14.5 3.8C-15.1 -0.5 -13.3 -4.8 -10.5 -8.3C-7.6 -11.7 -3.8 -14.3 0.2 -14.5C4.2 -14.7 8.4 -12.4 10.9 -9Z" fill="#ffffff"></path></g><g transform="translate(32 655)"><path d="M11 -9.3C13 -6.3 12.4 -1.8 11.5 2.8C10.6 7.4 9.4 12.2 6.4 13.7C3.5 15.3 -1.1 13.6 -5 11.4C-8.8 9.1 -11.8 6.2 -12.8 2.7C-13.8 -0.9 -12.9 -5.2 -10.4 -8.3C-7.9 -11.4 -4 -13.4 0.3 -13.6C4.5 -13.9 9 -12.3 11 -9.3Z" fill="#ffffff"></path></g><g transform="translate(641 213)"><path d="M13.8 -11.6C17.1 -6.9 18.4 -1.2 17 3.5C15.6 8.1 11.5 11.7 6.8 13.9C2.1 16 -3.1 16.7 -8.1 15C-13 13.3 -17.7 9.2 -18.9 4.3C-20 -0.7 -17.7 -6.4 -13.9 -11.3C-10.2 -16.1 -5.1 -20 0.1 -20.1C5.3 -20.1 10.5 -16.4 13.8 -11.6Z" fill="#ffffff"></path></g><g transform="translate(130 107)"><path d="M1.6 -1.4C1.9 -0.9 1.9 -0.2 1.7 0.4C1.6 1 1.3 1.6 0.8 1.9C0.3 2.3 -0.4 2.3 -1 2C-1.6 1.7 -2 1.1 -2.1 0.6C-2.1 0 -1.8 -0.6 -1.4 -1.1C-1 -1.6 -0.5 -2 0.1 -2.1C0.7 -2.1 1.3 -1.8 1.6 -1.4Z" fill="#ffffff"></path></g><g transform="translate(392 55)"><path d="M10.3 -8.6C12.6 -5.2 13.3 -1 12.1 2.2C10.9 5.4 7.8 7.6 4.3 9.6C0.8 11.5 -3.2 13.1 -5.8 11.9C-8.5 10.7 -10 6.7 -10.4 2.9C-10.8 -0.8 -10.2 -4.2 -8.3 -7.4C-6.4 -10.7 -3.2 -13.7 0.4 -14C4 -14.3 7.9 -11.9 10.3 -8.6Z" fill="#ffffff"></path></g><g transform="translate(473 670)"><path d="M7.2 -5.4C9 -3.5 9.9 -0.6 9.2 2C8.5 4.5 6.3 6.6 3.8 7.7C1.3 8.8 -1.6 9 -3.8 7.9C-6.1 6.8 -7.8 4.5 -8.3 2C-8.8 -0.5 -8.1 -3.2 -6.5 -5C-4.9 -6.9 -2.5 -7.9 0.1 -8C2.7 -8.2 5.5 -7.3 7.2 -5.4Z" fill="#ffffff"></path></g><g transform="translate(642 142)"><path d="M11 -8.4C14 -5 16 -0.4 15.2 3.5C14.3 7.5 10.6 10.9 6.4 12.6C2.3 14.3 -2.3 14.3 -6.7 12.7C-11.1 11 -15.2 7.7 -15.7 4C-16.3 0.3 -13.1 -3.8 -9.9 -7.3C-6.7 -10.7 -3.3 -13.4 0.3 -13.7C4 -14 8 -11.7 11 -8.4Z" fill="#ffffff"></path></g><g transform="translate(246 774)"><path d="M14.5 -11C18.6 -6.6 21.3 -0.5 20.2 4.6C19 9.8 14 14.2 8.2 16.8C2.5 19.4 -3.8 20.3 -9.7 18.2C-15.5 16.1 -20.8 11 -21.5 5.5C-22.3 0 -18.5 -5.9 -14.2 -10.3C-9.8 -14.8 -4.9 -17.8 0.2 -17.9C5.3 -18.1 10.5 -15.3 14.5 -11Z" fill="#ffffff"></path></g><g transform="translate(158 228)"><path d="M4.1 -3.4C5.1 -2.1 5.4 -0.4 5.2 1.5C5 3.5 4.4 5.6 3 6.3C1.6 6.9 -0.4 6.1 -2.1 5C-3.7 4 -4.8 2.7 -5.3 1.1C-5.7 -0.4 -5.4 -2.3 -4.4 -3.6C-3.4 -4.9 -1.7 -5.8 -0.1 -5.8C1.6 -5.7 3.2 -4.8 4.1 -3.4Z" fill="#ffffff"></path></g><g transform="translate(345 686)"><path d="M11.2 -8.7C13.7 -5.7 14.5 -1.1 13.4 2.8C12.3 6.8 9.4 10.2 5.8 11.9C2.1 13.5 -2.2 13.6 -5.4 11.8C-8.5 10 -10.5 6.4 -11.3 2.6C-12.2 -1.2 -11.8 -5.2 -9.7 -8.1C-7.7 -11 -3.8 -12.8 0.2 -13C4.3 -13.2 8.6 -11.8 11.2 -8.7Z" fill="#ffffff"></path></g><g transform="translate(37 258)"><path d="M2.8 -2.1C3.7 -1.2 4.3 0 4.1 1.1C4 2.2 3 3.2 1.8 3.7C0.7 4.3 -0.7 4.3 -1.9 3.8C-3 3.3 -4 2.2 -4.4 0.9C-4.9 -0.5 -4.8 -2.1 -3.9 -3C-3.1 -3.9 -1.6 -4.1 -0.3 -3.9C1 -3.7 2 -3 2.8 -2.1Z" fill="#ffffff"></path></g><g transform="translate(55 29)"><path d="M14.6 -11C18.2 -7.1 19.9 -1.1 18.3 3.5C16.7 8.1 11.9 11.3 7 13.2C2.1 15 -2.7 15.4 -7.1 13.7C-11.5 12 -15.4 8.2 -16.9 3.4C-18.3 -1.4 -17.3 -7.2 -14.1 -11C-10.9 -14.8 -5.4 -16.7 0 -16.7C5.5 -16.7 11 -14.9 14.6 -11Z" fill="#ffffff"></path></g><g transform="translate(454 453)"><path d="M10.2 -7.8C12.9 -4.7 14.5 -0.5 13.6 3C12.7 6.5 9.2 9.2 5.2 11.4C1.2 13.6 -3.4 15.2 -6.5 13.6C-9.6 12.1 -11.2 7.5 -11.8 3.2C-12.3 -1 -11.8 -5 -9.6 -7.9C-7.5 -10.9 -3.7 -12.9 0 -12.9C3.7 -12.9 7.5 -10.9 10.2 -7.8Z" fill="#ffffff"></path></g><g transform="translate(575 693)"><path d="M8.9 -6.6C11.2 -4.2 12.5 -0.5 11.7 2.5C10.8 5.6 7.9 8 4.7 9.5C1.4 11 -2.3 11.6 -5.2 10.4C-8.2 9.2 -10.6 6 -11.1 2.8C-11.7 -0.5 -10.5 -4 -8.4 -6.3C-6.2 -8.7 -3.1 -9.9 0.1 -9.9C3.3 -10 6.6 -8.9 8.9 -6.6Z" fill="#ffffff"></path></g><g transform="translate(190 345)"><path d="M11.1 -9.7C13.7 -5.5 14.9 -0.9 14.2 3.8C13.6 8.5 11.2 13.3 7.1 15.6C3 17.9 -2.7 17.6 -6.9 15.2C-11.2 12.8 -14.1 8.4 -15.3 3.4C-16.5 -1.6 -16.1 -7.1 -13.3 -11.4C-10.5 -15.7 -5.2 -18.7 -0.5 -18.3C4.2 -17.9 8.4 -14 11.1 -9.7Z" fill="#ffffff"></path></g><g transform="translate(213 68)"><path d="M9.7 -7.8C12 -4.9 12.8 -0.9 11.9 2.4C10.9 5.8 8.1 8.4 5.1 9.4C2.1 10.5 -1.2 9.9 -4.5 8.5C-7.7 7.2 -11 5.3 -12 2.4C-12.9 -0.5 -11.6 -4.3 -9.2 -7.3C-6.8 -10.2 -3.4 -12.2 0.2 -12.3C3.7 -12.5 7.5 -10.7 9.7 -7.8Z" fill="#ffffff"></path></g><g transform="translate(606 417)"><path d="M5 -3.7C6.2 -2.5 6.6 -0.5 6.2 1.5C5.8 3.4 4.6 5.2 2.9 6C1.2 6.8 -0.9 6.5 -2.4 5.6C-3.9 4.6 -4.8 3 -5 1.3C-5.3 -0.4 -4.9 -2 -4 -3.1C-3 -4.2 -1.5 -4.7 0.2 -4.8C1.9 -5 3.8 -4.8 5 -3.7Z" fill="#ffffff"></path></g><g transform="translate(619 583)"><path d="M15.6 -12.5C18.5 -8.7 18.2 -2.3 16.6 3.3C14.9 8.9 11.9 13.6 7.7 15.5C3.5 17.4 -2 16.4 -6.1 13.9C-10.3 11.4 -13.1 7.5 -14.4 2.9C-15.8 -1.7 -15.6 -7 -12.9 -10.7C-10.2 -14.4 -5.1 -16.6 0.6 -17.1C6.3 -17.6 12.6 -16.3 15.6 -12.5Z" fill="#ffffff"></path></g><g transform="translate(491 340)"><path d="M1.9 -1.5C2.4 -1 2.5 -0.2 2.4 0.6C2.2 1.3 1.8 2 1.2 2.2C0.5 2.5 -0.2 2.2 -0.7 1.8C-1.3 1.5 -1.6 0.9 -1.8 0.3C-2 -0.3 -2.1 -1.1 -1.8 -1.6C-1.5 -2.1 -0.7 -2.3 0 -2.3C0.7 -2.3 1.5 -2 1.9 -1.5Z" fill="#ffffff"></path></g><g transform="translate(504 112)"><path d="M11.5 -8C15.1 -4.7 18.3 0.1 17.7 4.4C17 8.7 12.4 12.5 7.2 14.9C2.1 17.4 -3.7 18.6 -8.6 16.7C-13.5 14.8 -17.6 9.9 -18.5 4.6C-19.4 -0.7 -17.1 -6.3 -13.5 -9.5C-9.9 -12.8 -5 -13.7 -0.5 -13.3C4 -12.9 8 -11.2 11.5 -8Z" fill="#ffffff"></path></g><g transform="translate(234 490)"><path d="M14.3 -11.4C17.1 -8 16.8 -2.1 15.4 3.3C14 8.6 11.4 13.5 7.3 15.6C3.2 17.8 -2.4 17.2 -7.8 15C-13.2 12.8 -18.4 9.1 -19.2 4.7C-19.9 0.3 -16.2 -4.8 -12.3 -8.6C-8.3 -12.3 -4.2 -14.6 0.8 -15.3C5.8 -15.9 11.6 -14.9 14.3 -11.4Z" fill="#ffffff"></path></g><g transform="translate(558 524)"><path d="M9.6 -7.5C12.1 -4.4 13.7 -0.5 12.8 2.7C11.9 6 8.6 8.4 5.1 9.9C1.6 11.3 -2.1 11.6 -5.2 10.3C-8.4 9 -10.9 6.1 -11.3 3C-11.6 0 -9.7 -3.1 -7.5 -6.1C-5.2 -9.1 -2.6 -11.9 0.4 -12.2C3.5 -12.6 7 -10.5 9.6 -7.5Z" fill="#ffffff"></path></g><g transform="translate(77 418)"><path d="M3.6 -2.7C4.5 -1.8 5 -0.3 4.7 1C4.3 2.3 3.2 3.4 2 3.7C0.9 4.1 -0.4 3.8 -1.6 3.2C-2.8 2.7 -3.9 1.9 -4.1 0.9C-4.4 -0.1 -3.8 -1.4 -3 -2.3C-2.2 -3.2 -1.1 -3.9 0.1 -4C1.4 -4.1 2.7 -3.7 3.6 -2.7Z" fill="#ffffff"></path></g><g transform="translate(281 431)"><path d="M13.1 -10.7C16.6 -6 19 -0.5 18.1 4.5C17.2 9.4 13.1 14 8.3 15.8C3.5 17.6 -2 16.6 -6.9 14.2C-11.9 11.9 -16.3 8.3 -17.2 4C-18.1 -0.3 -15.4 -5.2 -12 -9.9C-8.5 -14.6 -4.3 -19.1 0.2 -19.3C4.7 -19.5 9.5 -15.4 13.1 -10.7Z" fill="#ffffff"></path></g><g transform="translate(215 623)"><path d="M12.5 -10.3C15.4 -6.4 16.3 -1.2 15.6 4.3C14.9 9.8 12.6 15.7 8.3 18.1C4 20.5 -2.4 19.4 -8.4 16.8C-14.4 14.2 -20.1 10 -21.6 4.5C-23.2 -1 -20.7 -7.8 -16.5 -11.9C-12.2 -16.1 -6.1 -17.6 -0.6 -17.1C4.8 -16.6 9.7 -14.1 12.5 -10.3Z" fill="#ffffff"></path></g><g transform="translate(107 760)"><path d="M8 -6.1C10.2 -3.5 11.9 -0.2 11.3 2.6C10.6 5.4 7.7 7.6 4.5 9.1C1.2 10.6 -2.3 11.3 -4.7 10C-7.1 8.7 -8.4 5.5 -8.7 2.4C-9.1 -0.6 -8.5 -3.5 -6.9 -5.9C-5.3 -8.4 -2.6 -10.4 0.1 -10.5C2.8 -10.6 5.7 -8.7 8 -6.1Z" fill="#ffffff"></path></g><g transform="translate(285 158)"><path d="M4.9 -4.1C5.8 -2.7 5.7 -0.7 5.1 0.8C4.4 2.4 3.3 3.5 1.9 4.3C0.5 5.2 -1.3 5.7 -2.5 5.2C-3.7 4.6 -4.3 2.8 -4.7 1C-5.2 -0.8 -5.4 -2.7 -4.6 -4C-3.8 -5.4 -1.9 -6.2 0 -6.2C2 -6.2 3.9 -5.5 4.9 -4.1Z" fill="#ffffff"></path></g><g transform="translate(122 35)"><path d="M7.8 -6.6C9.8 -3.7 11 -0.4 10.7 2.9C10.3 6.3 8.4 9.9 5.2 11.8C2 13.7 -2.4 13.9 -5.5 12.1C-8.5 10.3 -10.3 6.5 -11.3 2.4C-12.4 -1.7 -12.7 -6.1 -10.7 -8.9C-8.7 -11.8 -4.4 -13.2 -0.7 -12.6C2.9 -12 5.8 -9.5 7.8 -6.6Z" fill="#ffffff"></path></g><g transform="translate(532 576)"><path d="M6.5 -5.5C7.9 -3.4 8.3 -0.7 7.8 1.9C7.2 4.5 5.9 7 3.8 8C1.7 9 -1.1 8.6 -3.3 7.4C-5.6 6.1 -7.2 4.1 -7.7 1.8C-8.3 -0.6 -7.7 -3.1 -6.2 -5.2C-4.8 -7.3 -2.4 -8.9 0.1 -9C2.5 -9 5.1 -7.5 6.5 -5.5Z" fill="#ffffff"></path></g><g transform="translate(262 35)"><path d="M2.1 -1.7C2.6 -1 2.9 -0.1 2.7 0.6C2.6 1.4 1.9 2 1.1 2.5C0.3 3 -0.7 3.3 -1.4 2.9C-2.1 2.6 -2.4 1.6 -2.6 0.6C-2.9 -0.4 -3 -1.4 -2.5 -2.2C-2.1 -2.9 -1 -3.3 -0.1 -3.2C0.8 -3.1 1.6 -2.5 2.1 -1.7Z" fill="#ffffff"></path></g><g transform="translate(106 164)"><path d="M7.8 -5.9C10.1 -3.2 12.2 0 11.6 2.7C11 5.3 7.8 7.3 4.4 8.9C0.9 10.5 -2.6 11.7 -5.9 10.7C-9.2 9.7 -12.2 6.6 -12.9 3.1C-13.6 -0.5 -12 -4.4 -9.5 -7.1C-7 -9.8 -3.5 -11.2 -0.4 -10.9C2.7 -10.6 5.4 -8.5 7.8 -5.9Z" fill="#ffffff"></path></g><g transform="translate(42 357)"><path d="M8.4 -6.1C10.8 -3.7 12.6 -0.2 11.9 2.7C11.3 5.7 8.2 8.1 4.8 9.7C1.3 11.3 -2.4 12 -5.3 10.7C-8.2 9.4 -10.3 6.1 -11.2 2.5C-12 -1.1 -11.7 -5.1 -9.6 -7.4C-7.5 -9.7 -3.8 -10.3 -0.4 -10C3 -9.7 6.1 -8.5 8.4 -6.1Z" fill="#ffffff"></path></g><g transform="translate(367 471)"><path d="M14.6 -11.8C17.7 -7.7 18.2 -1.7 16.7 3.4C15.2 8.4 11.6 12.5 7.4 14.2C3.1 15.8 -1.8 14.9 -5.7 12.7C-9.5 10.5 -12.3 7 -13.5 2.7C-14.7 -1.5 -14.4 -6.4 -11.9 -10.4C-9.4 -14.3 -4.7 -17.4 0.5 -17.8C5.7 -18.2 11.4 -15.9 14.6 -11.8Z" fill="#ffffff"></path></g><g transform="translate(404 701)"><path d="M12.6 -10.6C15.4 -6.6 15.9 -1.4 15 3.7C14 8.8 11.6 13.9 7.3 16.4C3 18.9 -3 18.9 -8.6 16.7C-14.1 14.5 -19.2 10 -20.4 4.7C-21.6 -0.7 -19 -6.9 -14.9 -11.1C-10.9 -15.4 -5.4 -17.8 -0.2 -17.6C5 -17.4 9.9 -14.6 12.6 -10.6Z" fill="#ffffff"></path></g><g transform="translate(324 279)"><path d="M1.9 -1.7C2.4 -0.9 2.7 -0.1 2.6 0.7C2.5 1.5 2 2.4 1.3 2.7C0.6 3 -0.3 2.7 -1.1 2.3C-2 1.9 -2.8 1.4 -3 0.7C-3.2 -0.1 -2.7 -1 -2.1 -1.7C-1.5 -2.5 -0.8 -3.1 0 -3.1C0.7 -3.1 1.4 -2.4 1.9 -1.7Z" fill="#ffffff"></path></g><g transform="translate(360 571)"><path d="M9 -6.9C10.8 -4.9 10.8 -1.2 9.9 2C9 5.3 7.1 8.1 4.6 9.2C2.1 10.3 -1.1 9.6 -3.9 8.2C-6.7 6.8 -9.1 4.7 -10.4 1.7C-11.6 -1.3 -11.6 -5.3 -9.7 -7.3C-7.8 -9.4 -3.9 -9.5 -0.1 -9.4C3.6 -9.2 7.2 -8.9 9 -6.9Z" fill="#ffffff"></path></g><g transform="translate(304 360)"><path d="M9.7 -7.6C11.8 -5 12.3 -1.1 11.2 2.1C10.1 5.2 7.4 7.4 4.1 9.2C0.9 11 -2.9 12.4 -6.3 11.4C-9.7 10.4 -12.8 7 -13.8 3C-14.8 -1 -13.8 -5.6 -11.2 -8.3C-8.6 -10.9 -4.3 -11.6 -0.3 -11.4C3.8 -11.2 7.5 -10.1 9.7 -7.6Z" fill="#ffffff"></path></g><g transform="translate(44 869)"><path d="M13.1 -10.3C16.1 -6.7 17.1 -1.3 15.7 3.1C14.3 7.4 10.5 10.7 6.1 12.8C1.7 15 -3.3 16.1 -8 14.6C-12.6 13.1 -17 9 -18 4.2C-19 -0.5 -16.6 -5.9 -13 -9.7C-9.5 -13.5 -4.7 -15.8 0.2 -15.9C5 -16 10.1 -14 13.1 -10.3Z" fill="#ffffff"></path></g><g transform="translate(359 847)"><path d="M6.3 -5.5C8 -3 8.9 -0.4 8.3 1.8C7.7 3.9 5.6 5.7 3.2 6.9C0.8 8.2 -2 9.1 -4.6 8.3C-7.1 7.5 -9.4 5.1 -10 2.4C-10.5 -0.4 -9.3 -3.4 -7.4 -6C-5.4 -8.6 -2.7 -10.7 -0.2 -10.5C2.4 -10.4 4.7 -8 6.3 -5.5Z" fill="#ffffff"></path></g><g transform="translate(195 181)"><path d="M10.7 -8.7C13.1 -5.6 13.6 -1.2 12.7 3C11.9 7.2 9.6 11.2 5.8 13.6C2 16 -3.3 16.9 -7.4 15.1C-11.6 13.2 -14.7 8.6 -15.7 3.7C-16.8 -1.3 -15.9 -6.6 -12.9 -9.8C-10 -13.1 -5 -14.2 -0.4 -13.9C4.2 -13.6 8.4 -11.8 10.7 -8.7Z" fill="#ffffff"></path></g><g transform="translate(635 825)"><path d="M7.7 -5.8C9.6 -3.7 10.5 -0.6 10.1 2.7C9.7 5.9 7.8 9.2 5 10.7C2.2 12.2 -1.7 11.9 -4.3 10.2C-6.9 8.4 -8.2 5.3 -9 2.1C-9.7 -1.2 -9.8 -4.6 -8.2 -6.5C-6.6 -8.5 -3.3 -9 -0.2 -8.9C2.9 -8.7 5.8 -7.8 7.7 -5.8Z" fill="#ffffff"></path></g><g transform="translate(578 302)"><path d="M2 -1.6C2.5 -1 2.7 -0.2 2.4 0.4C2.2 1 1.5 1.4 0.9 1.7C0.2 2 -0.5 2.2 -1 2C-1.5 1.8 -1.9 1.2 -2 0.5C-2.1 -0.1 -2 -0.8 -1.6 -1.3C-1.2 -1.9 -0.6 -2.3 0.1 -2.4C0.8 -2.4 1.5 -2.1 2 -1.6Z" fill="#ffffff"></path></g><g transform="translate(567 240)"><path d="M7.6 -5.9C9.6 -3.6 10.7 -0.4 10 2.1C9.3 4.6 6.7 6.6 4 7.7C1.2 8.9 -1.7 9.2 -4.2 8.2C-6.8 7.2 -9 4.9 -10.1 1.9C-11.1 -1.2 -10.9 -4.9 -9.1 -7.1C-7.2 -9.4 -3.6 -10.2 -0.4 -9.9C2.8 -9.6 5.6 -8.2 7.6 -5.9Z" fill="#ffffff"></path></g><g transform="translate(304 553)"><path d="M8.9 -8.2C10.8 -4.8 10.9 -1.1 10.1 2.2C9.2 5.5 7.4 8.4 4.5 10.1C1.6 11.8 -2.2 12.1 -5.6 10.8C-9 9.5 -12 6.5 -13.1 2.7C-14.2 -1.1 -13.4 -5.6 -10.9 -9.2C-8.4 -12.7 -4.2 -15.4 -0.3 -15.1C3.5 -14.8 7 -11.6 8.9 -8.2Z" fill="#ffffff"></path></g><g transform="translate(275 91)"><path d="M1.6 -1.3C1.9 -0.9 1.9 -0.2 1.7 0.3C1.6 0.9 1.2 1.4 0.8 1.7C0.3 1.9 -0.4 2 -1 1.8C-1.6 1.6 -2.3 1.1 -2.4 0.5C-2.6 -0.1 -2.4 -0.9 -1.9 -1.4C-1.4 -1.8 -0.7 -1.9 0 -1.9C0.6 -1.9 1.3 -1.7 1.6 -1.3Z" fill="#ffffff"></path></g><g transform="translate(292 809)"><path d="M2.8 -2.4C3.5 -1.5 3.6 -0.3 3.4 0.8C3.2 2 2.6 3 1.6 3.6C0.7 4.1 -0.7 4.1 -1.7 3.6C-2.8 3.1 -3.6 2.1 -3.8 1C-4 -0.1 -3.5 -1.3 -2.8 -2.2C-2.1 -3.2 -1 -3.9 0 -3.9C1.1 -3.9 2.2 -3.3 2.8 -2.4Z" fill="#ffffff"></path></g><g transform="translate(644 646)"><path d="M1.8 -1.5C2.2 -1 2.2 -0.2 2 0.4C1.8 0.9 1.3 1.4 0.8 1.7C0.2 2 -0.4 2.1 -0.9 1.8C-1.4 1.6 -1.7 1 -1.9 0.4C-2.1 -0.3 -2.1 -1 -1.8 -1.5C-1.5 -2 -0.7 -2.3 0 -2.3C0.7 -2.3 1.4 -2 1.8 -1.5Z" fill="#ffffff"></path></g><g transform="translate(447 162)"><path d="M8.4 -6.9C10.6 -3.9 12 -0.4 11.3 2.6C10.7 5.6 7.9 8.2 4.7 9.7C1.5 11.2 -2.1 11.6 -5.9 10.4C-9.6 9.3 -13.5 6.6 -14.5 3C-15.6 -0.6 -13.8 -5.1 -10.9 -8.3C-8 -11.4 -4 -13.2 -0.5 -12.8C3.1 -12.5 6.1 -9.9 8.4 -6.9Z" fill="#ffffff"></path></g><g transform="translate(522 641)"><path d="M6.7 -4.8C8.7 -2.9 10.2 -0.1 9.7 2.4C9.3 4.9 6.9 7.2 4.2 8.4C1.5 9.5 -1.6 9.6 -3.8 8.4C-5.9 7.1 -7.2 4.5 -7.8 1.8C-8.5 -1 -8.5 -3.9 -7.1 -5.7C-5.7 -7.5 -2.8 -8.2 -0.2 -8C2.4 -7.9 4.8 -6.8 6.7 -4.8Z" fill="#ffffff"></path></g><g transform="translate(185 545)"><path d="M10.9 -9.1C14.2 -4.5 17.1 0 16.4 4.1C15.8 8.2 11.6 11.9 7.2 13.4C2.7 15 -2 14.5 -6.5 12.6C-10.9 10.8 -15.2 7.6 -16 3.8C-16.8 -0.1 -14.1 -4.6 -10.8 -9.1C-7.6 -13.6 -3.8 -18.1 0 -18.1C3.8 -18.1 7.6 -13.6 10.9 -9.1Z" fill="#ffffff"></path></g><g transform="translate(28 536)"><path d="M13 -10.7C15.2 -7.6 14.3 -2.3 12.6 1.9C10.8 6 8.3 9 4.8 11.2C1.2 13.4 -3.3 14.8 -6.9 13.4C-10.6 12 -13.4 7.8 -13.9 3.6C-14.5 -0.6 -12.9 -4.8 -10.2 -8C-7.5 -11.3 -3.8 -13.5 0.8 -14.1C5.4 -14.8 10.7 -13.8 13 -10.7Z" fill="#ffffff"></path></g><g transform="translate(109 464)"><path d="M6 -4.7C7.8 -2.5 9.4 0 9.2 2.6C9 5.1 7 7.7 4.3 9C1.7 10.3 -1.6 10.3 -3.9 8.9C-6.1 7.5 -7.3 4.7 -7.6 2.2C-7.8 -0.4 -7.1 -2.8 -5.7 -4.9C-4.3 -7.1 -2.1 -9 0 -9C2.1 -9 4.1 -7 6 -4.7Z" fill="#ffffff"></path></g></g></svg>