<svg id="visual" viewBox="0 0 600 900" width="600" height="900" xmlns="http://www.w3.org/2000/svg" xmlns:xlink="http://www.w3.org/1999/xlink" version="1.1"><rect x="0" y="0" width="600" height="900" fill="#120057"></rect><defs><linearGradient id="grad1_0" x1="0%" y1="0%" x2="100%" y2="100%"><stop offset="30%" stop-color="#ff0000" stop-opacity="1"></stop><stop offset="70%" stop-color="#ff0000" stop-opacity="1"></stop></linearGradient></defs><defs><linearGradient id="grad1_1" x1="0%" y1="0%" x2="100%" y2="100%"><stop offset="30%" stop-color="#ff0000" stop-opacity="1"></stop><stop offset="70%" stop-color="#f0002b" stop-opacity="1"></stop></linearGradient></defs><defs><linearGradient id="grad1_2" x1="0%" y1="0%" x2="100%" y2="100%"><stop offset="30%" stop-color="#d90041" stop-opacity="1"></stop><stop offset="70%" stop-color="#f0002b" stop-opacity="1"></stop></linearGradient></defs><defs><linearGradient id="grad1_3" x1="0%" y1="0%" x2="100%" y2="100%"><stop offset="30%" stop-color="#d90041" stop-opacity="1"></stop><stop offset="70%" stop-color="#bb0051" stop-opacity="1"></stop></linearGradient></defs><defs><linearGradient id="grad1_4" x1="0%" y1="0%" x2="100%" y2="100%"><stop offset="30%" stop-color="#98005c" stop-opacity="1"></stop><stop offset="70%" stop-color="#bb0051" stop-opacity="1"></stop></linearGradient></defs><defs><linearGradient id="grad1_5" x1="0%" y1="0%" x2="100%" y2="100%"><stop offset="30%" stop-color="#98005c" stop-opacity="1"></stop><stop offset="70%" stop-color="#710061" stop-opacity="1"></stop></linearGradient></defs><defs><linearGradient id="grad1_6" x1="0%" y1="0%" x2="100%" y2="100%"><stop offset="30%" stop-color="#47005f" stop-opacity="1"></stop><stop offset="70%" stop-color="#710061" stop-opacity="1"></stop></linearGradient></defs><defs><linearGradient id="grad1_7" x1="0%" y1="0%" x2="100%" y2="100%"><stop offset="30%" stop-color="#47005f" stop-opacity="1"></stop><stop offset="70%" stop-color="#120057" stop-opacity="1"></stop></linearGradient></defs><defs><linearGradient id="grad2_0" x1="0%" y1="0%" x2="100%" y2="100%"><stop offset="30%" stop-color="#ff0000" stop-opacity="1"></stop><stop offset="70%" stop-color="#ff0000" stop-opacity="1"></stop></linearGradient></defs><defs><linearGradient id="grad2_1" x1="0%" y1="0%" x2="100%" y2="100%"><stop offset="30%" stop-color="#f0002b" stop-opacity="1"></stop><stop offset="70%" stop-color="#ff0000" stop-opacity="1"></stop></linearGradient></defs><defs><linearGradient id="grad2_2" x1="0%" y1="0%" x2="100%" y2="100%"><stop offset="30%" stop-color="#f0002b" stop-opacity="1"></stop><stop offset="70%" stop-color="#d90041" stop-opacity="1"></stop></linearGradient></defs><defs><linearGradient id="grad2_3" x1="0%" y1="0%" x2="100%" y2="100%"><stop offset="30%" stop-color="#bb0051" stop-opacity="1"></stop><stop offset="70%" stop-color="#d90041" stop-opacity="1"></stop></linearGradient></defs><defs><linearGradient id="grad2_4" x1="0%" y1="0%" x2="100%" y2="100%"><stop offset="30%" stop-color="#bb0051" stop-opacity="1"></stop><stop offset="70%" stop-color="#98005c" stop-opacity="1"></stop></linearGradient></defs><defs><linearGradient id="grad2_5" x1="0%" y1="0%" x2="100%" y2="100%"><stop offset="30%" stop-color="#710061" stop-opacity="1"></stop><stop offset="70%" stop-color="#98005c" stop-opacity="1"></stop></linearGradient></defs><defs><linearGradient id="grad2_6" x1="0%" y1="0%" x2="100%" y2="100%"><stop offset="30%" stop-color="#710061" stop-opacity="1"></stop><stop offset="70%" stop-color="#47005f" stop-opacity="1"></stop></linearGradient></defs><defs><linearGradient id="grad2_7" x1="0%" y1="0%" x2="100%" y2="100%"><stop offset="30%" stop-color="#120057" stop-opacity="1"></stop><stop offset="70%" stop-color="#47005f" stop-opacity="1"></stop></linearGradient></defs><g transform="translate(600, 0)"><path d="M0 378.6C-20.2 289.6 -40.3 200.6 -104 180.1C-167.7 159.7 -274.8 207.9 -327.9 189.3C-380.9 170.7 -379.7 85.4 -378.6 0L0 0Z" fill="#30005c"></path><path d="M0 331.3C-17.6 253.4 -35.3 175.5 -91 157.6C-146.7 139.7 -240.5 181.9 -286.9 165.6C-333.3 149.4 -332.3 74.7 -331.3 0L0 0Z" fill="#5d0061"></path><path d="M0 283.9C-15.1 217.2 -30.2 150.4 -78 135.1C-125.8 119.8 -206.1 155.9 -245.9 142C-285.7 128 -284.8 64 -283.9 0L0 0Z" fill="#85005f"></path><path d="M0 236.6C-12.6 181 -25.2 125.3 -65 112.6C-104.8 99.8 -171.8 129.9 -204.9 118.3C-238 106.7 -237.3 53.3 -236.6 0L0 0Z" fill="#aa0057"></path><path d="M0 189.3C-10.1 144.8 -20.2 100.3 -52 90.1C-83.8 79.9 -137.4 103.9 -163.9 94.6C-190.4 85.4 -189.9 42.7 -189.3 0L0 0Z" fill="#cb004a"></path><path d="M0 142C-7.6 108.6 -15.1 75.2 -39 67.5C-62.9 59.9 -103.1 78 -122.9 71C-142.8 64 -142.4 32 -142 0L0 0Z" fill="#e50037"></path><path d="M0 94.6C-5 72.4 -10.1 50.1 -26 45C-41.9 39.9 -68.7 52 -82 47.3C-95.2 42.7 -94.9 21.3 -94.6 0L0 0Z" fill="#f8001c"></path><path d="M0 47.3C-2.5 36.2 -5 25.1 -13 22.5C-21 20 -34.4 26 -41 23.7C-47.6 21.3 -47.5 10.7 -47.3 0L0 0Z" fill="#ff0000"></path></g><g transform="translate(0, 900)"><path d="M0 -378.6C50.8 -342.7 101.7 -306.8 161.5 -279.7C221.3 -252.7 290.2 -234.4 327.9 -189.3C365.5 -144.1 372.1 -72.1 378.6 0L0 0Z" fill="#30005c"></path><path d="M0 -331.3C44.5 -299.8 89 -268.4 141.3 -244.8C193.7 -221.1 253.9 -205.1 286.9 -165.6C319.9 -126.1 325.6 -63.1 331.3 0L0 0Z" fill="#5d0061"></path><path d="M0 -283.9C38.1 -257 76.2 -230.1 121.1 -209.8C166 -189.5 217.6 -175.8 245.9 -142C274.2 -108.1 279 -54.1 283.9 0L0 0Z" fill="#85005f"></path><path d="M0 -236.6C31.8 -214.2 63.5 -191.7 100.9 -174.8C138.3 -157.9 181.4 -146.5 204.9 -118.3C228.5 -90.1 232.5 -45 236.6 0L0 0Z" fill="#aa0057"></path><path d="M0 -189.3C25.4 -171.3 50.8 -153.4 80.7 -139.9C110.7 -126.3 145.1 -117.2 163.9 -94.6C182.8 -72.1 186 -36 189.3 0L0 0Z" fill="#cb004a"></path><path d="M0 -142C19.1 -128.5 38.1 -115 60.6 -104.9C83 -94.7 108.8 -87.9 122.9 -71C137.1 -54.1 139.5 -27 142 0L0 0Z" fill="#e50037"></path><path d="M0 -94.6C12.7 -85.7 25.4 -76.7 40.4 -69.9C55.3 -63.2 72.5 -58.6 82 -47.3C91.4 -36 93 -18 94.6 0L0 0Z" fill="#f8001c"></path><path d="M0 -47.3C6.4 -42.8 12.7 -38.3 20.2 -35C27.7 -31.6 36.3 -29.3 41 -23.7C45.7 -18 46.5 -9 47.3 0L0 0Z" fill="#ff0000"></path></g></svg>