<svg id="visual" viewBox="0 0 675 900" width="675" height="900" xmlns="http://www.w3.org/2000/svg" xmlns:xlink="http://www.w3.org/1999/xlink" version="1.1"><path d="M0 568L37.5 505C75 442 150 316 225 298C300 280 375 370 450 361C525 352 600 244 637.5 190L675 136L675 0L637.5 0C600 0 525 0 450 0C375 0 300 0 225 0C150 0 75 0 37.5 0L0 0Z" fill="#1e0046"></path><path d="M0 685L37.5 602.5C75 520 150 355 225 338.5C300 322 375 454 450 476.5C525 499 600 412 637.5 368.5L675 325L675 134L637.5 188C600 242 525 350 450 359C375 368 300 278 225 296C150 314 75 440 37.5 503L0 566Z" fill="#5f145b"></path><path d="M0 703L37.5 685C75 667 150 631 225 628C300 625 375 655 450 653.5C525 652 600 619 637.5 602.5L675 586L675 323L637.5 366.5C600 410 525 497 450 474.5C375 452 300 320 225 336.5C150 353 75 518 37.5 600.5L0 683Z" fill="#98366c"></path><path d="M0 739L37.5 731.5C75 724 150 709 225 730C300 751 375 808 450 826C525 844 600 823 637.5 812.5L675 802L675 584L637.5 600.5C600 617 525 650 450 651.5C375 653 300 623 225 626C150 629 75 665 37.5 683L0 701Z" fill="#cd5f7c"></path><path d="M0 901L37.5 901C75 901 150 901 225 901C300 901 375 901 450 901C525 901 600 901 637.5 901L675 901L675 800L637.5 810.5C600 821 525 842 450 824C375 806 300 749 225 728C150 707 75 722 37.5 729.5L0 737Z" fill="#fd8d8d"></path></svg>