<svg id="visual" viewBox="0 0 675 900" width="675" height="900" xmlns="http://www.w3.org/2000/svg" xmlns:xlink="http://www.w3.org/1999/xlink" version="1.1"><g stroke-width="22" stroke-linejoin="bevel"><path d="M335.3 471.3L347 458L337.3 457.7Z" fill="#c6dc00" stroke="#000000"></path><path d="M333.5 412L313.3 427L337.3 457.7Z" fill="#e3b700" stroke="#000000"></path><path d="M337.3 457.7L313.3 427L335.3 471.3Z" fill="#ff001d" stroke="#000000"></path><path d="M347 458L333.5 412L337.3 457.7Z" fill="#1f00ff" stroke="#000000"></path><path d="M278.3 510.3L336 521.7L335.3 471.3Z" fill="#f78d00" stroke="#000000"></path><path d="M335.3 471.3L404.3 502.7L347 458Z" fill="#e3b700" stroke="#000000"></path><path d="M333.5 412L296 418L313.3 427Z" fill="#e3b700" stroke="#000000"></path><path d="M313.3 427L268.5 449L335.3 471.3Z" fill="#c6dc00" stroke="#000000"></path><path d="M347 458L354.5 398L333.5 412Z" fill="#ff001d" stroke="#000000"></path><path d="M274.5 388.3L278.3 409.7L296 418Z" fill="#9bff13" stroke="#000000"></path><path d="M336 521.7L404.3 502.7L335.3 471.3Z" fill="#9bff13" stroke="#000000"></path><path d="M347 458L396.8 413.3L354.5 398Z" fill="#ff001d" stroke="#000000"></path><path d="M296 418L268.5 449L313.3 427Z" fill="#c6dc00" stroke="#000000"></path><path d="M407.5 425L396.8 413.3L347 458Z" fill="#ff001d" stroke="#000000"></path><path d="M423.3 456L407.5 425L347 458Z" fill="#9bff13" stroke="#000000"></path><path d="M268.5 449L278.3 510.3L335.3 471.3Z" fill="#c6dc00" stroke="#000000"></path><path d="M404.3 502.7L423.3 456L347 458Z" fill="#e7009f" stroke="#000000"></path><path d="M336 521.7L398.8 526.7L404.3 502.7Z" fill="#1f00ff" stroke="#000000"></path><path d="M450.3 480L441.3 457.3L423.3 456Z" fill="#e7009f" stroke="#000000"></path><path d="M320.5 367.7L296 418L333.5 412Z" fill="#f78d00" stroke="#000000"></path><path d="M296 418L265.8 419L268.5 449Z" fill="#ff0045" stroke="#000000"></path><path d="M407.5 425L407.3 409.3L396.8 413.3Z" fill="#f78d00" stroke="#000000"></path><path d="M396.8 413.3L413 393L354.5 398Z" fill="#ff0045" stroke="#000000"></path><path d="M440 401L407.3 409.3L407.5 425Z" fill="#ff001d" stroke="#000000"></path><path d="M268.5 449L261 495.7L278.3 510.3Z" fill="#e3b700" stroke="#000000"></path><path d="M261 495.7L286 532.7L278.3 510.3Z" fill="#c6dc00" stroke="#000000"></path><path d="M278.3 510.3L286 532.7L336 521.7Z" fill="#b200d1" stroke="#000000"></path><path d="M379.8 569L411.8 550.3L398.8 526.7Z" fill="#f78d00" stroke="#000000"></path><path d="M441.3 457.3L427.8 446.3L423.3 456Z" fill="#f78d00" stroke="#000000"></path><path d="M423.3 456L427.8 446.3L407.5 425Z" fill="#e7009f" stroke="#000000"></path><path d="M278.3 409.7L265.8 419L296 418Z" fill="#9bff13" stroke="#000000"></path><path d="M268.5 449L252.3 477.7L261 495.7Z" fill="#9bff13" stroke="#000000"></path><path d="M229 470.3L252.3 477.7L268.5 449Z" fill="#ff006f" stroke="#000000"></path><path d="M286 532.7L307.3 551L336 521.7Z" fill="#c6dc00" stroke="#000000"></path><path d="M278.3 409.7L260.5 413L265.8 419Z" fill="#e3b700" stroke="#000000"></path><path d="M265.8 419L240.5 418.3L268.5 449Z" fill="#ff0045" stroke="#000000"></path><path d="M411.8 550.3L420 523L398.8 526.7Z" fill="#c6dc00" stroke="#000000"></path><path d="M398.8 526.7L420 523L404.3 502.7Z" fill="#ff0045" stroke="#000000"></path><path d="M450.3 480L423.3 456L404.3 502.7Z" fill="#e7009f" stroke="#000000"></path><path d="M440 401L413 393L407.3 409.3Z" fill="#f78d00" stroke="#000000"></path><path d="M271 568.7L292.5 552L286 532.7Z" fill="#b200d1" stroke="#000000"></path><path d="M286 532.7L292.5 552L307.3 551Z" fill="#c6dc00" stroke="#000000"></path><path d="M361 363.3L320.5 367.7L354.5 398Z" fill="#9bff13" stroke="#000000"></path><path d="M354.5 398L320.5 367.7L333.5 412Z" fill="#ff5c00" stroke="#000000"></path><path d="M278.3 409.7L256.8 396.7L260.5 413Z" fill="#1f00ff" stroke="#000000"></path><path d="M450 421L407.5 425L427.8 446.3Z" fill="#9bff13" stroke="#000000"></path><path d="M407.3 409.3L413 393L396.8 413.3Z" fill="#ff001d" stroke="#000000"></path><path d="M320.5 367.7L274.5 388.3L296 418Z" fill="#e3b700" stroke="#000000"></path><path d="M413 393L361 363.3L354.5 398Z" fill="#c6dc00" stroke="#000000"></path><path d="M361 363.3L321.5 358.3L320.5 367.7Z" fill="#1f00ff" stroke="#000000"></path><path d="M320.5 367.7L265.5 367.7L274.5 388.3Z" fill="#e3b700" stroke="#000000"></path><path d="M265.5 367.7L256.8 396.7L274.5 388.3Z" fill="#e3b700" stroke="#000000"></path><path d="M274.5 388.3L256.8 396.7L278.3 409.7Z" fill="#1f00ff" stroke="#000000"></path><path d="M260.5 413L240.5 418.3L265.8 419Z" fill="#1f00ff" stroke="#000000"></path><path d="M446 512.7L450.3 480L404.3 502.7Z" fill="#c6dc00" stroke="#000000"></path><path d="M457.3 470.7L449 441.3L441.3 457.3Z" fill="#1f00ff" stroke="#000000"></path><path d="M441.3 457.3L449 441.3L427.8 446.3Z" fill="#f78d00" stroke="#000000"></path><path d="M379.8 569L398.8 526.7L336 521.7Z" fill="#ff006f" stroke="#000000"></path><path d="M420 523L446 512.7L404.3 502.7Z" fill="#b200d1" stroke="#000000"></path><path d="M379.8 569L336 521.7L343 576.3Z" fill="#ff0045" stroke="#000000"></path><path d="M343 576.3L336 521.7L307.3 551Z" fill="#ff001d" stroke="#000000"></path><path d="M333 599.3L343 576.3L307.3 551Z" fill="#1f00ff" stroke="#000000"></path><path d="M256.8 396.7L240.5 418.3L260.5 413Z" fill="#e3b700" stroke="#000000"></path><path d="M240.5 418.3L229 470.3L268.5 449Z" fill="#1f00ff" stroke="#000000"></path><path d="M252.3 477.7L229 470.3L261 495.7Z" fill="#b200d1" stroke="#000000"></path><path d="M261 495.7L271 568.7L286 532.7Z" fill="#ff001d" stroke="#000000"></path><path d="M428.8 555.7L446 512.7L420 523Z" fill="#f78d00" stroke="#000000"></path><path d="M401.8 576.7L418.5 551.7L411.8 550.3Z" fill="#ff0045" stroke="#000000"></path><path d="M411.8 550.3L418.5 551.7L420 523Z" fill="#1f00ff" stroke="#000000"></path><path d="M480.8 474.7L457.3 470.7L450.3 480Z" fill="#ff001d" stroke="#000000"></path><path d="M450.3 480L457.3 470.7L441.3 457.3Z" fill="#ff006f" stroke="#000000"></path><path d="M462.5 427.3L450 421L449 441.3Z" fill="#1f00ff" stroke="#000000"></path><path d="M449 441.3L450 421L427.8 446.3Z" fill="#f78d00" stroke="#000000"></path><path d="M450 421L440 401L407.5 425Z" fill="#e7009f" stroke="#000000"></path><path d="M400.8 356L378 346.7L361 363.3Z" fill="#ff0045" stroke="#000000"></path><path d="M240.5 418.3L222.5 467.7L229 470.3Z" fill="#b200d1" stroke="#000000"></path><path d="M253.8 580.7L271 568.7L199.3 514.7Z" fill="#ff5c00" stroke="#000000"></path><path d="M321.5 358.3L265.5 367.7L320.5 367.7Z" fill="#1f00ff" stroke="#000000"></path><path d="M168.3 430L192 436L153.8 388Z" fill="#b200d1" stroke="#000000"></path><path d="M400.8 356L361 363.3L413 393Z" fill="#ff0045" stroke="#000000"></path><path d="M361 363.3L346.8 318.7L321.5 358.3Z" fill="#ff5c00" stroke="#000000"></path><path d="M321.5 358.3L293.3 322.3L265.5 367.7Z" fill="#ff5c00" stroke="#000000"></path><path d="M446 351.3L400.8 356L413 393Z" fill="#e7009f" stroke="#000000"></path><path d="M271 568.7L261 495.7L199.3 514.7Z" fill="#ff5c00" stroke="#000000"></path><path d="M292.5 552L333 599.3L307.3 551Z" fill="#f78d00" stroke="#000000"></path><path d="M401.8 576.7L428.8 555.7L418.5 551.7Z" fill="#9bff13" stroke="#000000"></path><path d="M418.5 551.7L428.8 555.7L420 523Z" fill="#ff0045" stroke="#000000"></path><path d="M389.5 591L401.8 576.7L379.8 569Z" fill="#f78d00" stroke="#000000"></path><path d="M379.8 569L401.8 576.7L411.8 550.3Z" fill="#e7009f" stroke="#000000"></path><path d="M457.3 470.7L462.5 427.3L449 441.3Z" fill="#b200d1" stroke="#000000"></path><path d="M450 421L460 420L440 401Z" fill="#9bff13" stroke="#000000"></path><path d="M462.5 427.3L460 420L450 421Z" fill="#f78d00" stroke="#000000"></path><path d="M440 401L446 351.3L413 393Z" fill="#9bff13" stroke="#000000"></path><path d="M271 568.7L333 599.3L292.5 552Z" fill="#ff001d" stroke="#000000"></path><path d="M356.3 603L389.5 591L379.8 569Z" fill="#b200d1" stroke="#000000"></path><path d="M356.3 603L379.8 569L343 576.3Z" fill="#e7009f" stroke="#000000"></path><path d="M401.8 576.7L447 613.3L428.8 555.7Z" fill="#e3b700" stroke="#000000"></path><path d="M333 599.3L356.3 603L343 576.3Z" fill="#ff5c00" stroke="#000000"></path><path d="M446 512.7L480.8 474.7L450.3 480Z" fill="#b200d1" stroke="#000000"></path><path d="M457.3 470.7L480.8 474.7L462.5 427.3Z" fill="#ff5c00" stroke="#000000"></path><path d="M462.5 427.3L477.8 421L460 420Z" fill="#e3b700" stroke="#000000"></path><path d="M504.8 572.7L480.8 474.7L446 512.7Z" fill="#e7009f" stroke="#000000"></path><path d="M480.8 474.7L477.8 421L462.5 427.3Z" fill="#f78d00" stroke="#000000"></path><path d="M460 420L480.5 410.7L440 401Z" fill="#1f00ff" stroke="#000000"></path><path d="M328.3 621L333.5 609.3L333 599.3Z" fill="#f78d00" stroke="#000000"></path><path d="M333 599.3L333.5 609.3L356.3 603Z" fill="#9bff13" stroke="#000000"></path><path d="M199.3 514.7L261 495.7L229 470.3Z" fill="#1f00ff" stroke="#000000"></path><path d="M271 568.7L267.3 598L333 599.3Z" fill="#9bff13" stroke="#000000"></path><path d="M369 296.7L346.8 318.7L378 346.7Z" fill="#1f00ff" stroke="#000000"></path><path d="M378 346.7L346.8 318.7L361 363.3Z" fill="#ff001d" stroke="#000000"></path><path d="M494.5 424.7L480.5 410.7L477.8 421Z" fill="#e7009f" stroke="#000000"></path><path d="M477.8 421L480.5 410.7L460 420Z" fill="#ff0045" stroke="#000000"></path><path d="M400.8 356L421.3 319L378 346.7Z" fill="#e7009f" stroke="#000000"></path><path d="M161.8 480L199.3 514.7L222.5 467.7Z" fill="#9bff13" stroke="#000000"></path><path d="M222.5 467.7L199.3 514.7L229 470.3Z" fill="#1f00ff" stroke="#000000"></path><path d="M320.3 302.7L293.3 322.3L321.5 358.3Z" fill="#f78d00" stroke="#000000"></path><path d="M276.8 616.3L267.3 598L259.5 615.3Z" fill="#ff5c00" stroke="#000000"></path><path d="M253.8 580.7L267.3 598L271 568.7Z" fill="#ff0045" stroke="#000000"></path><path d="M192 436L240.5 418.3L153.8 388Z" fill="#e3b700" stroke="#000000"></path><path d="M240.5 418.3L192 436L222.5 467.7Z" fill="#ff001d" stroke="#000000"></path><path d="M240.5 418.3L256.8 396.7L216.5 340Z" fill="#1f00ff" stroke="#000000"></path><path d="M356.3 603L378 614.7L389.5 591Z" fill="#b200d1" stroke="#000000"></path><path d="M389.5 591L398.5 615.3L401.8 576.7Z" fill="#c6dc00" stroke="#000000"></path><path d="M328.3 621L378 614.7L356.3 603Z" fill="#ff0045" stroke="#000000"></path><path d="M478.8 379.3L446 351.3L440 401Z" fill="#c6dc00" stroke="#000000"></path><path d="M298.5 631.3L328.3 621L333 599.3Z" fill="#e3b700" stroke="#000000"></path><path d="M333.5 609.3L328.3 621L356.3 603Z" fill="#f78d00" stroke="#000000"></path><path d="M261.8 313.7L273.3 323.3L293.3 322.3Z" fill="#ff5c00" stroke="#000000"></path><path d="M293.3 322.3L273.3 323.3L265.5 367.7Z" fill="#1f00ff" stroke="#000000"></path><path d="M505.8 455.7L494.5 424.7L477.8 421Z" fill="#c6dc00" stroke="#000000"></path><path d="M480.5 410.7L478.8 379.3L440 401Z" fill="#ff5c00" stroke="#000000"></path><path d="M412.5 653.3L398.5 615.3L378 614.7Z" fill="#f78d00" stroke="#000000"></path><path d="M378 614.7L398.5 615.3L389.5 591Z" fill="#e7009f" stroke="#000000"></path><path d="M519.8 453.3L505.8 455.7L559.3 514Z" fill="#c6dc00" stroke="#000000"></path><path d="M531 378.3L478.8 379.3L480.5 410.7Z" fill="#e3b700" stroke="#000000"></path><path d="M341.8 280L320.3 302.7L346.8 318.7Z" fill="#ff0045" stroke="#000000"></path><path d="M346.8 318.7L320.3 302.7L321.5 358.3Z" fill="#ff001d" stroke="#000000"></path><path d="M505.8 455.7L480.8 474.7L559.3 514Z" fill="#ff006f" stroke="#000000"></path><path d="M480.8 474.7L505.8 455.7L477.8 421Z" fill="#ff0045" stroke="#000000"></path><path d="M494.5 424.7L531 378.3L480.5 410.7Z" fill="#c6dc00" stroke="#000000"></path><path d="M259.5 615.3L267.3 598L253.8 580.7Z" fill="#9bff13" stroke="#000000"></path><path d="M267.3 598L276.8 616.3L333 599.3Z" fill="#9bff13" stroke="#000000"></path><path d="M414.3 302L421.3 319L447 282.3Z" fill="#b200d1" stroke="#000000"></path><path d="M446 351.3L421.3 319L400.8 356Z" fill="#c6dc00" stroke="#000000"></path><path d="M168.3 430L173.5 442L192 436Z" fill="#ff001d" stroke="#000000"></path><path d="M192 436L173.5 442L222.5 467.7Z" fill="#ff0045" stroke="#000000"></path><path d="M414.3 302L369 296.7L378 346.7Z" fill="#ff5c00" stroke="#000000"></path><path d="M233.8 632L259.5 615.3L253.8 580.7Z" fill="#ff006f" stroke="#000000"></path><path d="M276.8 616.3L298.5 631.3L333 599.3Z" fill="#9bff13" stroke="#000000"></path><path d="M272.8 274.3L261.8 313.7L293.3 322.3Z" fill="#b200d1" stroke="#000000"></path><path d="M273.3 323.3L261.8 313.7L265.5 367.7Z" fill="#ff001d" stroke="#000000"></path><path d="M274.8 626.3L298.5 631.3L276.8 616.3Z" fill="#e3b700" stroke="#000000"></path><path d="M328.3 621L337 661L378 614.7Z" fill="#e7009f" stroke="#000000"></path><path d="M171.5 587.7L197.5 562.7L137 562Z" fill="#e3b700" stroke="#000000"></path><path d="M199.3 514.7L197.5 562.7L253.8 580.7Z" fill="#e7009f" stroke="#000000"></path><path d="M259.5 615.3L274.8 626.3L276.8 616.3Z" fill="#c6dc00" stroke="#000000"></path><path d="M216.5 340L256.8 396.7L265.5 367.7Z" fill="#c6dc00" stroke="#000000"></path><path d="M173.5 442L161.8 480L222.5 467.7Z" fill="#ff001d" stroke="#000000"></path><path d="M261.8 313.7L216.5 340L265.5 367.7Z" fill="#f78d00" stroke="#000000"></path><path d="M504.8 572.7L446 512.7L428.8 555.7Z" fill="#ff006f" stroke="#000000"></path><path d="M505.8 455.7L519.8 453.3L494.5 424.7Z" fill="#1f00ff" stroke="#000000"></path><path d="M447 282.3L421.3 319L486 310Z" fill="#e3b700" stroke="#000000"></path><path d="M421.3 319L414.3 302L378 346.7Z" fill="#ff0045" stroke="#000000"></path><path d="M152 480.7L161.8 480L134.5 458.7Z" fill="#f78d00" stroke="#000000"></path><path d="M412.5 653.3L447 613.3L398.5 615.3Z" fill="#e7009f" stroke="#000000"></path><path d="M398.5 615.3L447 613.3L401.8 576.7Z" fill="#ff5c00" stroke="#000000"></path><path d="M378.5 278.3L341.8 280L369 296.7Z" fill="#f78d00" stroke="#000000"></path><path d="M369 296.7L341.8 280L346.8 318.7Z" fill="#ff0045" stroke="#000000"></path><path d="M320.3 302.7L272.8 274.3L293.3 322.3Z" fill="#f78d00" stroke="#000000"></path><path d="M261.8 313.7L233.8 310.3L216.5 340Z" fill="#ff0045" stroke="#000000"></path><path d="M254.3 272.3L233.8 310.3L261.8 313.7Z" fill="#ff006f" stroke="#000000"></path><path d="M134.5 458.7L161.8 480L173.5 442Z" fill="#b200d1" stroke="#000000"></path><path d="M161.8 480L152 480.7L199.3 514.7Z" fill="#ff006f" stroke="#000000"></path><path d="M414.3 302L378.5 278.3L369 296.7Z" fill="#ff006f" stroke="#000000"></path><path d="M447 613.3L491.3 585.7L428.8 555.7Z" fill="#ff001d" stroke="#000000"></path><path d="M312.8 663L316.3 656.3L298.5 631.3Z" fill="#ff006f" stroke="#000000"></path><path d="M298.5 631.3L316.3 656.3L328.3 621Z" fill="#ff001d" stroke="#000000"></path><path d="M312.8 663L298.5 631.3L261 664Z" fill="#e3b700" stroke="#000000"></path><path d="M491.3 585.7L504.8 572.7L428.8 555.7Z" fill="#b200d1" stroke="#000000"></path><path d="M316.3 656.3L337 661L328.3 621Z" fill="#e7009f" stroke="#000000"></path><path d="M199.8 605.3L253.8 580.7L197.5 562.7Z" fill="#e7009f" stroke="#000000"></path><path d="M199.8 605.3L233.8 632L253.8 580.7Z" fill="#e3b700" stroke="#000000"></path><path d="M259.5 615.3L233.8 632L274.8 626.3Z" fill="#ff001d" stroke="#000000"></path><path d="M171.5 587.7L199.8 605.3L197.5 562.7Z" fill="#1f00ff" stroke="#000000"></path><path d="M261 664L298.5 631.3L274.8 626.3Z" fill="#b200d1" stroke="#000000"></path><path d="M316.3 656.3L312.8 663L337 661Z" fill="#ff006f" stroke="#000000"></path><path d="M341.5 250.3L317 267L341.8 280Z" fill="#ff0045" stroke="#000000"></path><path d="M341.8 280L317 267L320.3 302.7Z" fill="#f78d00" stroke="#000000"></path><path d="M337 661L412.5 653.3L378 614.7Z" fill="#ff0045" stroke="#000000"></path><path d="M447 613.3L470.5 629.3L491.3 585.7Z" fill="#b200d1" stroke="#000000"></path><path d="M317 267L272.8 274.3L320.3 302.7Z" fill="#9bff13" stroke="#000000"></path><path d="M216.5 340L153.8 388L240.5 418.3Z" fill="#ff006f" stroke="#000000"></path><path d="M168.3 430L134.5 458.7L173.5 442Z" fill="#b200d1" stroke="#000000"></path><path d="M145.5 358.7L153.8 388L157.8 336.3Z" fill="#e3b700" stroke="#000000"></path><path d="M195.8 278.7L204 315.7L233.8 310.3Z" fill="#e3b700" stroke="#000000"></path><path d="M233.8 310.3L204 315.7L216.5 340Z" fill="#ff001d" stroke="#000000"></path><path d="M582.3 481L546.3 438.7L519.8 453.3Z" fill="#e7009f" stroke="#000000"></path><path d="M519.8 453.3L546.3 438.7L494.5 424.7Z" fill="#c6dc00" stroke="#000000"></path><path d="M486 310L421.3 319L446 351.3Z" fill="#ff006f" stroke="#000000"></path><path d="M412.5 653.3L454 639L447 613.3Z" fill="#e7009f" stroke="#000000"></path><path d="M541.3 623L542.3 571L504.8 572.7Z" fill="#ff5c00" stroke="#000000"></path><path d="M341.5 250.3L310 261L317 267Z" fill="#e3b700" stroke="#000000"></path><path d="M317 267L310 261L272.8 274.3Z" fill="#c6dc00" stroke="#000000"></path><path d="M127 399.3L134.5 458.7L168.3 430Z" fill="#ff0045" stroke="#000000"></path><path d="M137 562L197.5 562.7L199.3 514.7Z" fill="#ff0045" stroke="#000000"></path><path d="M310 261L266.3 271.7L272.8 274.3Z" fill="#9bff13" stroke="#000000"></path><path d="M272.8 274.3L266.3 271.7L261.8 313.7Z" fill="#f78d00" stroke="#000000"></path><path d="M536.3 383.7L531 378.3L494.5 424.7Z" fill="#e7009f" stroke="#000000"></path><path d="M414.3 302L426.5 251.7L378.5 278.3Z" fill="#ff006f" stroke="#000000"></path><path d="M454 639L470.5 629.3L447 613.3Z" fill="#ff5c00" stroke="#000000"></path><path d="M137 562L199.3 514.7L152 480.7Z" fill="#9bff13" stroke="#000000"></path><path d="M219 658.7L261 664L233.8 632Z" fill="#e3b700" stroke="#000000"></path><path d="M546.3 438.7L536.3 383.7L494.5 424.7Z" fill="#ff006f" stroke="#000000"></path><path d="M486 310L478.8 379.3L524.8 326.3Z" fill="#ff5c00" stroke="#000000"></path><path d="M486 310L446 351.3L478.8 379.3Z" fill="#1f00ff" stroke="#000000"></path><path d="M378.5 278.3L341.5 250.3L341.8 280Z" fill="#ff0045" stroke="#000000"></path><path d="M524.8 326.3L478.8 379.3L531 378.3Z" fill="#ff5c00" stroke="#000000"></path><path d="M238 220.7L254.3 272.3L266.3 271.7Z" fill="#b200d1" stroke="#000000"></path><path d="M266.3 271.7L254.3 272.3L261.8 313.7Z" fill="#ff0045" stroke="#000000"></path><path d="M312.8 663L333 678.3L337 661Z" fill="#9bff13" stroke="#000000"></path><path d="M337 661L343.8 699.7L412.5 653.3Z" fill="#ff001d" stroke="#000000"></path><path d="M294.5 690L333 678.3L312.8 663Z" fill="#ff006f" stroke="#000000"></path><path d="M207.3 635.3L233.8 632L199.8 605.3Z" fill="#e3b700" stroke="#000000"></path><path d="M233.8 632L261 664L274.8 626.3Z" fill="#c6dc00" stroke="#000000"></path><path d="M412.5 653.3L445.3 653.3L454 639Z" fill="#f78d00" stroke="#000000"></path><path d="M454 639L453.8 663L470.5 629.3Z" fill="#ff0045" stroke="#000000"></path><path d="M445 667.3L445.3 653.3L412.5 653.3Z" fill="#ff006f" stroke="#000000"></path><path d="M583.5 472.3L554 433L546.3 438.7Z" fill="#e7009f" stroke="#000000"></path><path d="M546.3 438.7L560 421.7L536.3 383.7Z" fill="#9bff13" stroke="#000000"></path><path d="M376.5 243.3L341.5 250.3L378.5 278.3Z" fill="#ff006f" stroke="#000000"></path><path d="M238 220.7L203 268.7L254.3 272.3Z" fill="#f78d00" stroke="#000000"></path><path d="M109.5 471.3L127.5 482.3L134.5 458.7Z" fill="#e7009f" stroke="#000000"></path><path d="M134.5 458.7L127.5 482.3L152 480.7Z" fill="#ff0045" stroke="#000000"></path><path d="M173.3 607.7L207.3 635.3L199.8 605.3Z" fill="#b200d1" stroke="#000000"></path><path d="M169.3 612.3L173.3 607.7L171.5 587.7Z" fill="#e3b700" stroke="#000000"></path><path d="M171.5 587.7L173.3 607.7L199.8 605.3Z" fill="#c6dc00" stroke="#000000"></path><path d="M563.8 427L560 421.7L554 433Z" fill="#e7009f" stroke="#000000"></path><path d="M554 433L560 421.7L546.3 438.7Z" fill="#9bff13" stroke="#000000"></path><path d="M551.3 553.7L559.3 514L504.8 572.7Z" fill="#ff0045" stroke="#000000"></path><path d="M504.8 572.7L559.3 514L480.8 474.7Z" fill="#ff006f" stroke="#000000"></path><path d="M157.8 336.3L216.5 340L204 315.7Z" fill="#e7009f" stroke="#000000"></path><path d="M157.8 336.3L153.8 388L216.5 340Z" fill="#c6dc00" stroke="#000000"></path><path d="M153.8 388L127 399.3L168.3 430Z" fill="#e7009f" stroke="#000000"></path><path d="M426.5 251.7L376.5 243.3L378.5 278.3Z" fill="#1f00ff" stroke="#000000"></path><path d="M145.5 358.7L127 399.3L153.8 388Z" fill="#1f00ff" stroke="#000000"></path><path d="M152.3 318.3L157.8 336.3L157.5 309.3Z" fill="#b200d1" stroke="#000000"></path><path d="M587.3 438.3L563.8 427L554 433Z" fill="#f78d00" stroke="#000000"></path><path d="M555.3 363.3L531 378.3L536.3 383.7Z" fill="#9bff13" stroke="#000000"></path><path d="M111.8 496.7L137 562L152 480.7Z" fill="#ff0045" stroke="#000000"></path><path d="M511 628.7L491.3 585.7L470.5 629.3Z" fill="#ff006f" stroke="#000000"></path><path d="M511 628.7L504.8 572.7L491.3 585.7Z" fill="#9bff13" stroke="#000000"></path><path d="M158 622L169.3 612.3L156.3 620.7Z" fill="#e7009f" stroke="#000000"></path><path d="M173.3 607.7L169.3 612.3L207.3 635.3Z" fill="#e3b700" stroke="#000000"></path><path d="M440 720L445 667.3L412.5 653.3Z" fill="#c6dc00" stroke="#000000"></path><path d="M445.3 653.3L453.8 663L454 639Z" fill="#1f00ff" stroke="#000000"></path><path d="M445 667.3L453.8 663L445.3 653.3Z" fill="#1f00ff" stroke="#000000"></path><path d="M542.3 571L551.3 553.7L504.8 572.7Z" fill="#b200d1" stroke="#000000"></path><path d="M132.5 685.7L219 658.7L207.3 635.3Z" fill="#1f00ff" stroke="#000000"></path><path d="M207.3 635.3L219 658.7L233.8 632Z" fill="#ff001d" stroke="#000000"></path><path d="M261 664L294.5 690L312.8 663Z" fill="#b200d1" stroke="#000000"></path><path d="M445 667.3L453.5 665.7L453.8 663Z" fill="#b200d1" stroke="#000000"></path><path d="M496 661.3L511 628.7L470.5 629.3Z" fill="#ff006f" stroke="#000000"></path><path d="M127 399.3L112.8 451L134.5 458.7Z" fill="#ff0045" stroke="#000000"></path><path d="M127.5 482.3L111.8 496.7L152 480.7Z" fill="#f78d00" stroke="#000000"></path><path d="M254.5 695L294.5 690L261 664Z" fill="#9bff13" stroke="#000000"></path><path d="M333 678.3L343.8 699.7L337 661Z" fill="#1f00ff" stroke="#000000"></path><path d="M555.3 363.3L524.8 326.3L531 378.3Z" fill="#ff001d" stroke="#000000"></path><path d="M457.8 242L426.5 251.7L447 282.3Z" fill="#ff001d" stroke="#000000"></path><path d="M555.3 363.3L536.3 383.7L571.3 381.3Z" fill="#b200d1" stroke="#000000"></path><path d="M486 262.3L447 282.3L486 310Z" fill="#e3b700" stroke="#000000"></path><path d="M447 282.3L426.5 251.7L414.3 302Z" fill="#ff5c00" stroke="#000000"></path><path d="M109.5 471.3L111.8 496.7L127.5 482.3Z" fill="#f78d00" stroke="#000000"></path><path d="M112.8 451L109.5 471.3L134.5 458.7Z" fill="#ff5c00" stroke="#000000"></path><path d="M294.5 690L343.8 699.7L333 678.3Z" fill="#ff5c00" stroke="#000000"></path><path d="M506.8 665.3L496 661.3L491 686Z" fill="#e3b700" stroke="#000000"></path><path d="M496 661.3L470.5 629.3L453.8 663Z" fill="#f78d00" stroke="#000000"></path><path d="M564.8 593L553.5 570.7L542.3 571Z" fill="#e7009f" stroke="#000000"></path><path d="M542.3 571L553.5 570.7L551.3 553.7Z" fill="#ff5c00" stroke="#000000"></path><path d="M551.3 553.7L608.8 550.3L559.3 514Z" fill="#ff006f" stroke="#000000"></path><path d="M571.3 381.3L536.3 383.7L560 421.7Z" fill="#e3b700" stroke="#000000"></path><path d="M203 268.7L233.8 310.3L254.3 272.3Z" fill="#ff0045" stroke="#000000"></path><path d="M203 268.7L195.8 278.7L233.8 310.3Z" fill="#c6dc00" stroke="#000000"></path><path d="M266.3 271.7L310 261L238 220.7Z" fill="#e3b700" stroke="#000000"></path><path d="M137 562L129 574.3L171.5 587.7Z" fill="#ff001d" stroke="#000000"></path><path d="M120.5 561.3L129 574.3L137 562Z" fill="#ff006f" stroke="#000000"></path><path d="M157.5 309.3L157.8 336.3L204 315.7Z" fill="#ff0045" stroke="#000000"></path><path d="M157.8 336.3L129.8 313.3L145.5 358.7Z" fill="#c6dc00" stroke="#000000"></path><path d="M50.5 383.7L92.3 429.3L127 399.3Z" fill="#e7009f" stroke="#000000"></path><path d="M331.3 215L310 261L341.5 250.3Z" fill="#ff5c00" stroke="#000000"></path><path d="M195.8 278.7L157.5 309.3L204 315.7Z" fill="#f78d00" stroke="#000000"></path><path d="M619.8 513.7L582.3 481L559.3 514Z" fill="#f78d00" stroke="#000000"></path><path d="M559.3 514L582.3 481L519.8 453.3Z" fill="#e7009f" stroke="#000000"></path><path d="M591.5 402.3L571.3 381.3L560 421.7Z" fill="#b200d1" stroke="#000000"></path><path d="M426.5 251.7L379.8 227.3L376.5 243.3Z" fill="#e3b700" stroke="#000000"></path><path d="M376.5 243.3L379.8 227.3L341.5 250.3Z" fill="#ff006f" stroke="#000000"></path><path d="M111.8 496.7L120.5 561.3L137 562Z" fill="#e7009f" stroke="#000000"></path><path d="M129.8 313.3L157.5 309.3L134.8 280.3Z" fill="#c6dc00" stroke="#000000"></path><path d="M156.3 620.7L171.5 587.7L125.8 584.3Z" fill="#c6dc00" stroke="#000000"></path><path d="M156.3 620.7L169.3 612.3L171.5 587.7Z" fill="#9bff13" stroke="#000000"></path><path d="M169.3 612.3L158 622L207.3 635.3Z" fill="#e3b700" stroke="#000000"></path><path d="M582.3 481L583.5 472.3L546.3 438.7Z" fill="#1f00ff" stroke="#000000"></path><path d="M125.8 584.3L171.5 587.7L129 574.3Z" fill="#e3b700" stroke="#000000"></path><path d="M555.3 363.3L540.8 327L524.8 326.3Z" fill="#ff0045" stroke="#000000"></path><path d="M539.3 306L486 262.3L486 310Z" fill="#ff006f" stroke="#000000"></path><path d="M591.5 402.3L560 421.7L563.8 427Z" fill="#c6dc00" stroke="#000000"></path><path d="M580.3 292.3L557.5 294L540.8 327Z" fill="#ff006f" stroke="#000000"></path><path d="M237.5 690L261 664L219 658.7Z" fill="#1f00ff" stroke="#000000"></path><path d="M237.5 690L254.5 695L261 664Z" fill="#9bff13" stroke="#000000"></path><path d="M330 749.7L354.5 715.7L343.8 699.7Z" fill="#e3b700" stroke="#000000"></path><path d="M118.8 588.7L125.8 584.3L129 574.3Z" fill="#ff006f" stroke="#000000"></path><path d="M583.5 472.3L587.3 438.3L554 433Z" fill="#ff006f" stroke="#000000"></path><path d="M243.5 703.7L237.5 690L201 708Z" fill="#ff001d" stroke="#000000"></path><path d="M243.5 703.7L201 708L239.8 725Z" fill="#b200d1" stroke="#000000"></path><path d="M539.3 306L486 310L524.8 326.3Z" fill="#9bff13" stroke="#000000"></path><path d="M426.5 251.7L422.8 177L379.8 227.3Z" fill="#ff5c00" stroke="#000000"></path><path d="M109.5 471.3L93.3 481L111.8 496.7Z" fill="#ff5c00" stroke="#000000"></path><path d="M111.8 496.7L104.8 556.7L120.5 561.3Z" fill="#b200d1" stroke="#000000"></path><path d="M120.5 561.3L118.8 588.7L129 574.3Z" fill="#e3b700" stroke="#000000"></path><path d="M89 459.7L93.3 481L109.5 471.3Z" fill="#b200d1" stroke="#000000"></path><path d="M89 459.7L109.5 471.3L112.8 451Z" fill="#f78d00" stroke="#000000"></path><path d="M92.3 429.3L112.8 451L127 399.3Z" fill="#c6dc00" stroke="#000000"></path><path d="M453.5 665.7L496 661.3L453.8 663Z" fill="#ff001d" stroke="#000000"></path><path d="M511 628.7L541.3 623L504.8 572.7Z" fill="#e7009f" stroke="#000000"></path><path d="M496 661.3L453.5 665.7L491 686Z" fill="#ff0045" stroke="#000000"></path><path d="M379.8 227.3L331.3 215L341.5 250.3Z" fill="#e3b700" stroke="#000000"></path><path d="M285.3 714L343.8 699.7L294.5 690Z" fill="#c6dc00" stroke="#000000"></path><path d="M343.8 699.7L354.5 715.7L412.5 653.3Z" fill="#ff001d" stroke="#000000"></path><path d="M486 262.3L457.8 242L447 282.3Z" fill="#e7009f" stroke="#000000"></path><path d="M344.8 179.7L317.5 182.7L331.3 215Z" fill="#ff5c00" stroke="#000000"></path><path d="M50.5 383.7L127 399.3L46.3 372.3Z" fill="#b200d1" stroke="#000000"></path><path d="M83.5 454L89 459.7L112.8 451Z" fill="#ff5c00" stroke="#000000"></path><path d="M557.5 294L539.3 306L540.8 327Z" fill="#c6dc00" stroke="#000000"></path><path d="M540.8 327L539.3 306L524.8 326.3Z" fill="#1f00ff" stroke="#000000"></path><path d="M35.3 508.3L111.8 496.7L93.3 481Z" fill="#1f00ff" stroke="#000000"></path><path d="M35.3 508.3L104.8 556.7L111.8 496.7Z" fill="#ff0045" stroke="#000000"></path><path d="M542.5 624L541.3 623L511 628.7Z" fill="#ff5c00" stroke="#000000"></path><path d="M553.5 570.7L575.3 586.7L551.3 553.7Z" fill="#1f00ff" stroke="#000000"></path><path d="M125.8 584.3L118.8 588.7L156.3 620.7Z" fill="#ff0045" stroke="#000000"></path><path d="M104.8 556.7L118.8 588.7L120.5 561.3Z" fill="#e3b700" stroke="#000000"></path><path d="M243.5 703.7L285.3 714L254.5 695Z" fill="#c6dc00" stroke="#000000"></path><path d="M254.5 695L285.3 714L294.5 690Z" fill="#f78d00" stroke="#000000"></path><path d="M544.3 655.7L542.5 624L511 628.7Z" fill="#9bff13" stroke="#000000"></path><path d="M559.3 602.3L564.8 593L542.3 571Z" fill="#c6dc00" stroke="#000000"></path><path d="M559.3 602.3L542.3 571L541.3 623Z" fill="#ff0045" stroke="#000000"></path><path d="M542.5 624L559.3 602.3L541.3 623Z" fill="#ff5c00" stroke="#000000"></path><path d="M643.8 415.7L591.5 402.3L587.3 438.3Z" fill="#e3b700" stroke="#000000"></path><path d="M587.3 438.3L591.5 402.3L563.8 427Z" fill="#ff001d" stroke="#000000"></path><path d="M580.3 292.3L540.8 327L555.3 363.3Z" fill="#ff0045" stroke="#000000"></path><path d="M237.5 690L219 658.7L201 708Z" fill="#e3b700" stroke="#000000"></path><path d="M237.5 690L243.5 703.7L254.5 695Z" fill="#ff001d" stroke="#000000"></path><path d="M219 658.7L132.5 685.7L201 708Z" fill="#9bff13" stroke="#000000"></path><path d="M92.3 429.3L83.5 454L112.8 451Z" fill="#c6dc00" stroke="#000000"></path><path d="M89 459.7L73.3 470.7L93.3 481Z" fill="#1f00ff" stroke="#000000"></path><path d="M496 661.3L506.8 665.3L511 628.7Z" fill="#ff001d" stroke="#000000"></path><path d="M491 686L453.5 665.7L440 720Z" fill="#b200d1" stroke="#000000"></path><path d="M157.5 309.3L129.8 313.3L152.3 318.3Z" fill="#ff006f" stroke="#000000"></path><path d="M152.3 318.3L129.8 313.3L157.8 336.3Z" fill="#ff001d" stroke="#000000"></path><path d="M68.5 470L73.3 470.7L83.5 454Z" fill="#f78d00" stroke="#000000"></path><path d="M134.8 280.3L157.5 309.3L195.8 278.7Z" fill="#ff0045" stroke="#000000"></path><path d="M582.3 602.7L564.8 593L559.3 602.3Z" fill="#f78d00" stroke="#000000"></path><path d="M582.3 602.7L575.3 586.7L564.8 593Z" fill="#f78d00" stroke="#000000"></path><path d="M564.8 593L575.3 586.7L553.5 570.7Z" fill="#f78d00" stroke="#000000"></path><path d="M582.3 481L615.8 454.3L583.5 472.3Z" fill="#ff5c00" stroke="#000000"></path><path d="M583.5 472.3L615.8 454.3L587.3 438.3Z" fill="#ff0045" stroke="#000000"></path><path d="M582.3 602.7L559.3 602.3L574.5 624.3Z" fill="#e7009f" stroke="#000000"></path><path d="M275.3 186L238 220.7L310 261Z" fill="#c6dc00" stroke="#000000"></path><path d="M203 268.7L189 245.3L195.8 278.7Z" fill="#ff001d" stroke="#000000"></path><path d="M440 720L453.5 665.7L445 667.3Z" fill="#f78d00" stroke="#000000"></path><path d="M574.5 624.3L559.3 602.3L542.5 624Z" fill="#ff001d" stroke="#000000"></path><path d="M238 220.7L189 245.3L203 268.7Z" fill="#1f00ff" stroke="#000000"></path><path d="M68.5 470L83.5 454L48.8 442Z" fill="#ff0045" stroke="#000000"></path><path d="M83.5 454L73.3 470.7L89 459.7Z" fill="#ff0045" stroke="#000000"></path><path d="M492.8 228.7L475 231.3L486 262.3Z" fill="#b200d1" stroke="#000000"></path><path d="M486 262.3L475 231.3L457.8 242Z" fill="#e3b700" stroke="#000000"></path><path d="M457.8 242L422.8 177L426.5 251.7Z" fill="#e3b700" stroke="#000000"></path><path d="M391.5 740L412.5 653.3L354.5 715.7Z" fill="#e7009f" stroke="#000000"></path><path d="M391.5 740L440 720L412.5 653.3Z" fill="#c6dc00" stroke="#000000"></path><path d="M48.8 442L83.5 454L92.3 429.3Z" fill="#1f00ff" stroke="#000000"></path><path d="M73.3 470.7L35.3 508.3L93.3 481Z" fill="#ff001d" stroke="#000000"></path><path d="M330 749.7L343.8 699.7L285.3 714Z" fill="#c6dc00" stroke="#000000"></path><path d="M330 749.7L367.3 738L354.5 715.7Z" fill="#b200d1" stroke="#000000"></path><path d="M619.8 513.7L615.8 454.3L582.3 481Z" fill="#9bff13" stroke="#000000"></path><path d="M620.5 376.7L555.3 363.3L571.3 381.3Z" fill="#9bff13" stroke="#000000"></path><path d="M539.3 306L557.5 294L486 262.3Z" fill="#9bff13" stroke="#000000"></path><path d="M620.5 376.7L571.3 381.3L591.5 402.3Z" fill="#9bff13" stroke="#000000"></path><path d="M544.3 655.7L511 628.7L506.8 665.3Z" fill="#f78d00" stroke="#000000"></path><path d="M575.3 586.7L608.8 550.3L551.3 553.7Z" fill="#b200d1" stroke="#000000"></path><path d="M166.3 244L134.8 280.3L195.8 278.7Z" fill="#e7009f" stroke="#000000"></path><path d="M129.8 313.3L105.8 303.7L145.5 358.7Z" fill="#9bff13" stroke="#000000"></path><path d="M499.3 698L506.8 665.3L491 686Z" fill="#1f00ff" stroke="#000000"></path><path d="M536.8 706.7L544.3 655.7L506.8 665.3Z" fill="#b200d1" stroke="#000000"></path><path d="M207.3 635.3L158 622L132.5 685.7Z" fill="#ff001d" stroke="#000000"></path><path d="M243.5 703.7L239.8 725L285.3 714Z" fill="#1f00ff" stroke="#000000"></path><path d="M367.3 738L391.5 740L354.5 715.7Z" fill="#1f00ff" stroke="#000000"></path><path d="M391.5 740L436.5 728L440 720Z" fill="#e3b700" stroke="#000000"></path><path d="M457 736L499.3 698L491 686Z" fill="#ff0045" stroke="#000000"></path><path d="M275.3 186L231.8 208L238 220.7Z" fill="#e3b700" stroke="#000000"></path><path d="M238 220.7L231.8 208L189 245.3Z" fill="#e3b700" stroke="#000000"></path><path d="M189 245.3L166.3 244L195.8 278.7Z" fill="#e3b700" stroke="#000000"></path><path d="M625.8 556.7L608.8 550.3L618.8 585.3Z" fill="#e3b700" stroke="#000000"></path><path d="M132.5 685.7L158 622L156.3 620.7Z" fill="#c6dc00" stroke="#000000"></path><path d="M557.5 294L492.8 228.7L486 262.3Z" fill="#f78d00" stroke="#000000"></path><path d="M344.8 179.7L331.3 215L379.8 227.3Z" fill="#e7009f" stroke="#000000"></path><path d="M99 616.7L109.5 623L118.8 588.7Z" fill="#e3b700" stroke="#000000"></path><path d="M118.8 588.7L109.5 623L156.3 620.7Z" fill="#ff006f" stroke="#000000"></path><path d="M94 599.3L118.8 588.7L84.8 582Z" fill="#c6dc00" stroke="#000000"></path><path d="M457 736L491 686L440 720Z" fill="#ff0045" stroke="#000000"></path><path d="M84.8 582L118.8 588.7L104.8 556.7Z" fill="#f78d00" stroke="#000000"></path><path d="M562.5 650L574.5 624.3L542.5 624Z" fill="#ff001d" stroke="#000000"></path><path d="M625.8 556.7L614 543.7L608.8 550.3Z" fill="#1f00ff" stroke="#000000"></path><path d="M619.5 526.7L619.8 513.7L559.3 514Z" fill="#b200d1" stroke="#000000"></path><path d="M28.8 566.3L84.8 582L104.8 556.7Z" fill="#c6dc00" stroke="#000000"></path><path d="M169 223.7L166.3 244L189 245.3Z" fill="#ff0045" stroke="#000000"></path><path d="M608.8 550.3L614 543.7L559.3 514Z" fill="#9bff13" stroke="#000000"></path><path d="M608.8 550.3L575.3 586.7L618.8 585.3Z" fill="#e3b700" stroke="#000000"></path><path d="M344.8 179.7L379.8 227.3L407 161Z" fill="#ff001d" stroke="#000000"></path><path d="M331.3 215L275.3 186L310 261Z" fill="#e7009f" stroke="#000000"></path><path d="M614 543.7L619.5 526.7L559.3 514Z" fill="#ff0045" stroke="#000000"></path><path d="M316.3 768.7L330 749.7L285.3 714Z" fill="#c6dc00" stroke="#000000"></path><path d="M377.5 830.7L411.5 819.3L391.5 740Z" fill="#ff001d" stroke="#000000"></path><path d="M422.8 177L457.8 242L475 231.3Z" fill="#b200d1" stroke="#000000"></path><path d="M119.3 279.7L129.8 313.3L134.8 280.3Z" fill="#e3b700" stroke="#000000"></path><path d="M119.3 279.7L105.8 303.7L129.8 313.3Z" fill="#b200d1" stroke="#000000"></path><path d="M92.3 633.3L99 616.7L68.8 619.7Z" fill="#e3b700" stroke="#000000"></path><path d="M94 599.3L99 616.7L118.8 588.7Z" fill="#ff001d" stroke="#000000"></path><path d="M98.8 650L132.5 685.7L156.3 620.7Z" fill="#e3b700" stroke="#000000"></path><path d="M316.3 169L275.3 186L317.5 182.7Z" fill="#ff0045" stroke="#000000"></path><path d="M317.5 182.7L275.3 186L331.3 215Z" fill="#e3b700" stroke="#000000"></path><path d="M544.3 655.7L562.5 650L542.5 624Z" fill="#b200d1" stroke="#000000"></path><path d="M618.8 585.3L575.3 586.7L582.3 602.7Z" fill="#e7009f" stroke="#000000"></path><path d="M562.5 694.7L562.5 650L544.3 655.7Z" fill="#e3b700" stroke="#000000"></path><path d="M143.3 246L119.3 279.7L134.8 280.3Z" fill="#e7009f" stroke="#000000"></path><path d="M344.8 179.7L328.3 174.7L317.5 182.7Z" fill="#ff0045" stroke="#000000"></path><path d="M620.5 376.7L591.5 402.3L643.8 415.7Z" fill="#ff0045" stroke="#000000"></path><path d="M635.3 381.3L620.5 376.7L643.8 415.7Z" fill="#e3b700" stroke="#000000"></path><path d="M44 405L48.8 442L92.3 429.3Z" fill="#9bff13" stroke="#000000"></path><path d="M68.5 470L35.3 508.3L73.3 470.7Z" fill="#c6dc00" stroke="#000000"></path><path d="M436.5 728L457 736L440 720Z" fill="#e7009f" stroke="#000000"></path><path d="M499.3 698L536.8 706.7L506.8 665.3Z" fill="#b200d1" stroke="#000000"></path><path d="M451.3 751.7L457 736L436.5 728Z" fill="#1f00ff" stroke="#000000"></path><path d="M420.3 749.7L436.5 728L391.5 740Z" fill="#c6dc00" stroke="#000000"></path><path d="M620.5 376.7L580.3 292.3L555.3 363.3Z" fill="#ff5c00" stroke="#000000"></path><path d="M511.5 194.3L496 214L560.5 195Z" fill="#ff5c00" stroke="#000000"></path><path d="M661.3 510.3L636.5 459.3L619.8 513.7Z" fill="#e7009f" stroke="#000000"></path><path d="M619.8 513.7L636.5 459.3L615.8 454.3Z" fill="#ff006f" stroke="#000000"></path><path d="M496 214L492.8 228.7L560.5 195Z" fill="#1f00ff" stroke="#000000"></path><path d="M492.8 228.7L496 214L475 231.3Z" fill="#b200d1" stroke="#000000"></path><path d="M340 151.3L316.3 169L328.3 174.7Z" fill="#f78d00" stroke="#000000"></path><path d="M411.5 819.3L420.3 749.7L391.5 740Z" fill="#f78d00" stroke="#000000"></path><path d="M169 223.7L143.3 246L166.3 244Z" fill="#e7009f" stroke="#000000"></path><path d="M166.3 244L143.3 246L134.8 280.3Z" fill="#1f00ff" stroke="#000000"></path><path d="M169 223.7L189 245.3L231.8 208Z" fill="#b200d1" stroke="#000000"></path><path d="M190.3 173.3L169 223.7L231.8 208Z" fill="#9bff13" stroke="#000000"></path><path d="M328.3 174.7L316.3 169L317.5 182.7Z" fill="#9bff13" stroke="#000000"></path><path d="M121.5 216.3L143.3 246L169 223.7Z" fill="#ff006f" stroke="#000000"></path><path d="M340 151.3L328.3 174.7L344.8 179.7Z" fill="#9bff13" stroke="#000000"></path><path d="M618.8 585.3L582.3 602.7L631 613.3Z" fill="#e3b700" stroke="#000000"></path><path d="M614 543.7L634 533L619.5 526.7Z" fill="#ff001d" stroke="#000000"></path><path d="M619.5 526.7L642.3 521L619.8 513.7Z" fill="#ff5c00" stroke="#000000"></path><path d="M473 163.7L422.8 177L475 231.3Z" fill="#e3b700" stroke="#000000"></path><path d="M634 546.3L634 533L614 543.7Z" fill="#ff006f" stroke="#000000"></path><path d="M68.8 619.7L99 616.7L94 599.3Z" fill="#ff001d" stroke="#000000"></path><path d="M99 616.7L92.3 633.3L109.5 623Z" fill="#ff5c00" stroke="#000000"></path><path d="M68.8 619.7L94 599.3L84.8 582Z" fill="#f78d00" stroke="#000000"></path><path d="M631 613.3L582.3 602.7L574.5 624.3Z" fill="#ff5c00" stroke="#000000"></path><path d="M625.8 556.7L634 546.3L614 543.7Z" fill="#1f00ff" stroke="#000000"></path><path d="M46.3 372.3L145.5 358.7L105.8 303.7Z" fill="#1f00ff" stroke="#000000"></path><path d="M46.3 372.3L127 399.3L145.5 358.7Z" fill="#c6dc00" stroke="#000000"></path><path d="M675 534.7L634 546.3L676.5 591.7Z" fill="#ff001d" stroke="#000000"></path><path d="M634 533L642.3 521L619.5 526.7Z" fill="#ff5c00" stroke="#000000"></path><path d="M45.8 394.3L44 405L92.3 429.3Z" fill="#ff0045" stroke="#000000"></path><path d="M98.8 650L156.3 620.7L109.5 623Z" fill="#1f00ff" stroke="#000000"></path><path d="M211.8 776L271.3 774.3L239.8 725Z" fill="#ff006f" stroke="#000000"></path><path d="M271.3 774.3L316.3 768.7L285.3 714Z" fill="#ff0045" stroke="#000000"></path><path d="M330 749.7L377.5 830.7L367.3 738Z" fill="#e3b700" stroke="#000000"></path><path d="M271.3 774.3L285.3 714L239.8 725Z" fill="#e7009f" stroke="#000000"></path><path d="M50.5 383.7L45.8 394.3L92.3 429.3Z" fill="#e3b700" stroke="#000000"></path><path d="M643.8 415.7L587.3 438.3L615.8 454.3Z" fill="#b200d1" stroke="#000000"></path><path d="M653.8 290.3L622 255.7L580.3 292.3Z" fill="#ff0045" stroke="#000000"></path><path d="M92.3 633.3L98.8 650L109.5 623Z" fill="#9bff13" stroke="#000000"></path><path d="M675 531L642.3 521L675 534.7Z" fill="#c6dc00" stroke="#000000"></path><path d="M636.5 459.3L643.8 415.7L615.8 454.3Z" fill="#c6dc00" stroke="#000000"></path><path d="M675 444.3L643.8 415.7L636.5 459.3Z" fill="#1f00ff" stroke="#000000"></path><path d="M509.8 768L465.3 821.3L517.3 792.3Z" fill="#ff5c00" stroke="#000000"></path><path d="M420.3 749.7L451.3 751.7L436.5 728Z" fill="#1f00ff" stroke="#000000"></path><path d="M457 736L522 715.7L499.3 698Z" fill="#9bff13" stroke="#000000"></path><path d="M5.5 456.7L34.5 488.3L48.8 442Z" fill="#1f00ff" stroke="#000000"></path><path d="M48.8 442L34.5 488.3L68.5 470Z" fill="#1f00ff" stroke="#000000"></path><path d="M92.3 633.3L79.8 646.7L98.8 650Z" fill="#e3b700" stroke="#000000"></path><path d="M530.8 747.7L522 715.7L509.8 768Z" fill="#1f00ff" stroke="#000000"></path><path d="M562.5 650L592.8 656L574.5 624.3Z" fill="#ff0045" stroke="#000000"></path><path d="M34.5 488.3L35.3 508.3L68.5 470Z" fill="#ff0045" stroke="#000000"></path><path d="M45.8 394.3L1.3 363.7L44 405Z" fill="#c6dc00" stroke="#000000"></path><path d="M44 405L5.5 456.7L48.8 442Z" fill="#b200d1" stroke="#000000"></path><path d="M50.5 383.7L46.3 372.3L45.8 394.3Z" fill="#ff0045" stroke="#000000"></path><path d="M35.5 357L46.3 372.3L105.8 303.7Z" fill="#ff5c00" stroke="#000000"></path><path d="M87 274.3L105.8 303.7L119.3 279.7Z" fill="#f78d00" stroke="#000000"></path><path d="M522 715.7L536.8 706.7L499.3 698Z" fill="#f78d00" stroke="#000000"></path><path d="M452.5 136.7L407 161L422.8 177Z" fill="#ff0045" stroke="#000000"></path><path d="M422.8 177L407 161L379.8 227.3Z" fill="#e3b700" stroke="#000000"></path><path d="M511.5 194.3L493.8 193.7L496 214Z" fill="#9bff13" stroke="#000000"></path><path d="M496 214L493.8 193.7L475 231.3Z" fill="#ff5c00" stroke="#000000"></path><path d="M28.8 566.3L68.8 619.7L84.8 582Z" fill="#e3b700" stroke="#000000"></path><path d="M98.8 650L102.8 694.7L132.5 685.7Z" fill="#1f00ff" stroke="#000000"></path><path d="M370.8 126.7L340 151.3L344.8 179.7Z" fill="#e7009f" stroke="#000000"></path><path d="M224.5 147.3L231.8 208L275.3 186Z" fill="#e7009f" stroke="#000000"></path><path d="M562.5 694.7L592.8 656L562.5 650Z" fill="#1f00ff" stroke="#000000"></path><path d="M675 501.7L661.3 510.3L675 509Z" fill="#b200d1" stroke="#000000"></path><path d="M186.5 746.3L239.8 725L201 708Z" fill="#ff001d" stroke="#000000"></path><path d="M37.5 654.3L68.3 627L68.8 619.7Z" fill="#b200d1" stroke="#000000"></path><path d="M68.8 619.7L68.3 627L92.3 633.3Z" fill="#ff0045" stroke="#000000"></path><path d="M568.5 732.3L562.5 694.7L536.8 706.7Z" fill="#c6dc00" stroke="#000000"></path><path d="M536.8 706.7L562.5 694.7L544.3 655.7Z" fill="#e3b700" stroke="#000000"></path><path d="M107 235.7L119.3 279.7L143.3 246Z" fill="#e3b700" stroke="#000000"></path><path d="M107 235.7L87 274.3L119.3 279.7Z" fill="#ff5c00" stroke="#000000"></path><path d="M68.3 627L79.8 646.7L92.3 633.3Z" fill="#b200d1" stroke="#000000"></path><path d="M588.8 223L492.8 228.7L557.5 294Z" fill="#1f00ff" stroke="#000000"></path><path d="M493.8 193.7L473 163.7L475 231.3Z" fill="#ff5c00" stroke="#000000"></path><path d="M169.8 749.7L201 708L128.5 724.7Z" fill="#e3b700" stroke="#000000"></path><path d="M169.8 749.7L186.5 746.3L201 708Z" fill="#ff001d" stroke="#000000"></path><path d="M675 524.3L661.3 510.3L642.3 521Z" fill="#b200d1" stroke="#000000"></path><path d="M642.3 521L661.3 510.3L619.8 513.7Z" fill="#ff0045" stroke="#000000"></path><path d="M676.5 591.7L625.8 556.7L618.8 585.3Z" fill="#1f00ff" stroke="#000000"></path><path d="M608 656.7L574.5 624.3L592.8 656Z" fill="#f78d00" stroke="#000000"></path><path d="M608 656.7L631 613.3L574.5 624.3Z" fill="#9bff13" stroke="#000000"></path><path d="M27.5 329.7L35.5 357L105.8 303.7Z" fill="#ff001d" stroke="#000000"></path><path d="M46.3 372.3L1.3 363.7L45.8 394.3Z" fill="#e3b700" stroke="#000000"></path><path d="M606.3 712.3L608 656.7L592.8 656Z" fill="#f78d00" stroke="#000000"></path><path d="M190.3 173.3L231.8 208L224.5 147.3Z" fill="#ff5c00" stroke="#000000"></path><path d="M121.5 216.3L107 235.7L143.3 246Z" fill="#9bff13" stroke="#000000"></path><path d="M87 274.3L27.5 329.7L105.8 303.7Z" fill="#ff5c00" stroke="#000000"></path><path d="M509.3 182L473 163.7L493.8 193.7Z" fill="#1f00ff" stroke="#000000"></path><path d="M370.8 126.7L339.5 129L340 151.3Z" fill="#ff001d" stroke="#000000"></path><path d="M224.5 147.3L275.3 186L284.5 104.7Z" fill="#b200d1" stroke="#000000"></path><path d="M14.3 563.7L28.8 566.3L35.3 508.3Z" fill="#ff006f" stroke="#000000"></path><path d="M35.3 508.3L28.8 566.3L104.8 556.7Z" fill="#b200d1" stroke="#000000"></path><path d="M70.3 691.3L98.8 650L79.8 646.7Z" fill="#ff0045" stroke="#000000"></path><path d="M0 498L35.3 508.3L34.5 488.3Z" fill="#ff001d" stroke="#000000"></path><path d="M513.8 176L509.3 182L511.5 194.3Z" fill="#ff001d" stroke="#000000"></path><path d="M511.5 194.3L509.3 182L493.8 193.7Z" fill="#e3b700" stroke="#000000"></path><path d="M57 673.3L79.8 646.7L37.5 654.3Z" fill="#9bff13" stroke="#000000"></path><path d="M70.3 691.3L102.8 694.7L98.8 650Z" fill="#c6dc00" stroke="#000000"></path><path d="M128.5 724.7L201 708L132.5 685.7Z" fill="#b200d1" stroke="#000000"></path><path d="M186.5 746.3L211.8 776L239.8 725Z" fill="#b200d1" stroke="#000000"></path><path d="M144.3 185.3L121.5 216.3L169 223.7Z" fill="#b200d1" stroke="#000000"></path><path d="M675 501.7L675 444.3L636.5 459.3Z" fill="#ff5c00" stroke="#000000"></path><path d="M643.8 415.7L675 372.7L635.3 381.3Z" fill="#ff001d" stroke="#000000"></path><path d="M588.8 223L557.5 294L580.3 292.3Z" fill="#1f00ff" stroke="#000000"></path><path d="M675 509L661.3 510.3L675 524.3Z" fill="#ff006f" stroke="#000000"></path><path d="M661.3 510.3L675 501.7L636.5 459.3Z" fill="#ff006f" stroke="#000000"></path><path d="M102.8 694.7L128.5 724.7L132.5 685.7Z" fill="#e3b700" stroke="#000000"></path><path d="M675 524.3L642.3 521L675 531Z" fill="#e3b700" stroke="#000000"></path><path d="M370.8 126.7L344.8 179.7L407 161Z" fill="#1f00ff" stroke="#000000"></path><path d="M340 151.3L328.5 118.7L316.3 169Z" fill="#1f00ff" stroke="#000000"></path><path d="M0 456.3L5.5 456.7L0 453.7Z" fill="#ff001d" stroke="#000000"></path><path d="M509.3 182L513.8 176L473 163.7Z" fill="#ff006f" stroke="#000000"></path><path d="M547.3 167.7L513.8 176L511.5 194.3Z" fill="#ff006f" stroke="#000000"></path><path d="M658.8 303L620.5 376.7L675 321Z" fill="#c6dc00" stroke="#000000"></path><path d="M240.5 802.7L211.8 776L230.8 819.3Z" fill="#e3b700" stroke="#000000"></path><path d="M169.8 749.7L211.8 776L186.5 746.3Z" fill="#ff5c00" stroke="#000000"></path><path d="M642.3 521L634 533L675 534.7Z" fill="#f78d00" stroke="#000000"></path><path d="M284.5 104.7L275.3 186L316.3 169Z" fill="#ff006f" stroke="#000000"></path><path d="M190.3 173.3L144.3 185.3L169 223.7Z" fill="#ff006f" stroke="#000000"></path><path d="M675 534.7L634 533L634 546.3Z" fill="#ff006f" stroke="#000000"></path><path d="M634 546.3L625.8 556.7L676.5 591.7Z" fill="#f78d00" stroke="#000000"></path><path d="M509.8 768L522 715.7L457 736Z" fill="#1f00ff" stroke="#000000"></path><path d="M522 715.7L530.8 747.7L536.8 706.7Z" fill="#e3b700" stroke="#000000"></path><path d="M562.5 694.7L606.3 712.3L592.8 656Z" fill="#9bff13" stroke="#000000"></path><path d="M509.8 768L457 736L451.3 751.7Z" fill="#ff5c00" stroke="#000000"></path><path d="M451.3 751.7L420.3 749.7L411.5 819.3Z" fill="#e3b700" stroke="#000000"></path><path d="M374.5 120L370.8 126.7L407 161Z" fill="#b200d1" stroke="#000000"></path><path d="M452.5 136.7L422.8 177L473 163.7Z" fill="#b200d1" stroke="#000000"></path><path d="M676.5 591.7L618.8 585.3L631 613.3Z" fill="#ff0045" stroke="#000000"></path><path d="M224 91.3L223 146.3L224.5 147.3Z" fill="#1f00ff" stroke="#000000"></path><path d="M224.5 147.3L223 146.3L190.3 173.3Z" fill="#f78d00" stroke="#000000"></path><path d="M108.8 210.3L107 235.7L121.5 216.3Z" fill="#c6dc00" stroke="#000000"></path><path d="M108.8 210.3L90 235L107 235.7Z" fill="#ff001d" stroke="#000000"></path><path d="M107 235.7L90 235L87 274.3Z" fill="#1f00ff" stroke="#000000"></path><path d="M0 456.3L0 473L5.5 456.7Z" fill="#ff0045" stroke="#000000"></path><path d="M5.5 456.7L0 473L34.5 488.3Z" fill="#c6dc00" stroke="#000000"></path><path d="M0 453.7L5.5 456.7L44 405Z" fill="#ff5c00" stroke="#000000"></path><path d="M0 505L14.3 563.7L35.3 508.3Z" fill="#c6dc00" stroke="#000000"></path><path d="M0 641L37.5 654.3L68.8 619.7Z" fill="#c6dc00" stroke="#000000"></path><path d="M-19.5 421.3L0 453.7L44 405Z" fill="#ff006f" stroke="#000000"></path><path d="M63.5 257.3L27.5 329.7L87 274.3Z" fill="#ff0045" stroke="#000000"></path><path d="M35.5 357L1.3 363.7L46.3 372.3Z" fill="#ff0045" stroke="#000000"></path><path d="M168.8 136.7L144.3 185.3L190.3 173.3Z" fill="#ff0045" stroke="#000000"></path><path d="M513.8 176L467.3 145.7L473 163.7Z" fill="#ff5c00" stroke="#000000"></path><path d="M0 473L0 498L34.5 488.3Z" fill="#9bff13" stroke="#000000"></path><path d="M0 498L0 505L35.3 508.3Z" fill="#9bff13" stroke="#000000"></path><path d="M144.3 185.3L108.8 210.3L121.5 216.3Z" fill="#c6dc00" stroke="#000000"></path><path d="M675 444.3L675 372.7L643.8 415.7Z" fill="#f78d00" stroke="#000000"></path><path d="M622 255.7L588.8 223L580.3 292.3Z" fill="#ff5c00" stroke="#000000"></path><path d="M458 128L452.5 136.7L467.3 145.7Z" fill="#e3b700" stroke="#000000"></path><path d="M391.5 740L367.3 738L377.5 830.7Z" fill="#ff5c00" stroke="#000000"></path><path d="M318 845.7L316.3 768.7L271.3 774.3Z" fill="#1f00ff" stroke="#000000"></path><path d="M370.8 126.7L355.8 119.3L339.5 129Z" fill="#c6dc00" stroke="#000000"></path><path d="M339.5 129L328.5 118.7L340 151.3Z" fill="#ff0045" stroke="#000000"></path><path d="M374.5 120L355.8 119.3L370.8 126.7Z" fill="#1f00ff" stroke="#000000"></path><path d="M467.3 145.7L452.5 136.7L473 163.7Z" fill="#b200d1" stroke="#000000"></path><path d="M406.3 101.3L374.5 120L407 161Z" fill="#ff0045" stroke="#000000"></path><path d="M340.5 110.3L328.5 118.7L339.5 129Z" fill="#ff006f" stroke="#000000"></path><path d="M45.3 216L63.5 257.3L90 235Z" fill="#e7009f" stroke="#000000"></path><path d="M90 235L63.5 257.3L87 274.3Z" fill="#c6dc00" stroke="#000000"></path><path d="M588.8 223L560.5 195L492.8 228.7Z" fill="#ff5c00" stroke="#000000"></path><path d="M458 128L455.5 129L452.5 136.7Z" fill="#1f00ff" stroke="#000000"></path><path d="M658.8 303L580.3 292.3L620.5 376.7Z" fill="#ff0045" stroke="#000000"></path><path d="M588.8 223L594.3 198.7L560.5 195Z" fill="#ff001d" stroke="#000000"></path><path d="M530.8 747.7L568.5 732.3L536.8 706.7Z" fill="#1f00ff" stroke="#000000"></path><path d="M675 641.7L676.5 591.7L631 613.3Z" fill="#e3b700" stroke="#000000"></path><path d="M536.8 801L568.5 732.3L530.8 747.7Z" fill="#ff0045" stroke="#000000"></path><path d="M-12.2 479.3L-8.5 496.7L0 498Z" fill="#e7009f" stroke="#000000"></path><path d="M0 498L-8.5 496.7L0 505Z" fill="#ff0045" stroke="#000000"></path><path d="M0 505L0 572.7L14.3 563.7Z" fill="#ff006f" stroke="#000000"></path><path d="M-12.2 479.3L0 498L0 473Z" fill="#ff001d" stroke="#000000"></path><path d="M-12.2 479.3L0 473L0 456.3Z" fill="#c6dc00" stroke="#000000"></path><path d="M142.8 798.3L211.8 776L169.8 749.7Z" fill="#9bff13" stroke="#000000"></path><path d="M211.8 776L240.5 802.7L271.3 774.3Z" fill="#f78d00" stroke="#000000"></path><path d="M37.5 654.3L79.8 646.7L68.3 627Z" fill="#1f00ff" stroke="#000000"></path><path d="M102.8 694.7L105.5 728L128.5 724.7Z" fill="#f78d00" stroke="#000000"></path><path d="M57 673.3L70.3 691.3L79.8 646.7Z" fill="#e7009f" stroke="#000000"></path><path d="M128.5 724.7L120.3 759L169.8 749.7Z" fill="#c6dc00" stroke="#000000"></path><path d="M168.8 136.7L191.3 145.7L224 91.3Z" fill="#9bff13" stroke="#000000"></path><path d="M223 146.3L191.3 145.7L190.3 173.3Z" fill="#ff0045" stroke="#000000"></path><path d="M108.5 161L94.8 198.7L108.8 210.3Z" fill="#f78d00" stroke="#000000"></path><path d="M70.3 691.3L105.5 728L102.8 694.7Z" fill="#c6dc00" stroke="#000000"></path><path d="M675 501.7L695.5 471L675 444.3Z" fill="#ff001d" stroke="#000000"></path><path d="M675 444.3L695.5 471L675 372.7Z" fill="#1f00ff" stroke="#000000"></path><path d="M675 509L695.5 471L675 501.7Z" fill="#f78d00" stroke="#000000"></path><path d="M675 524.3L695.5 471L675 509Z" fill="#9bff13" stroke="#000000"></path><path d="M675 531L695.5 471L675 524.3Z" fill="#ff5c00" stroke="#000000"></path><path d="M700.5 598L695.5 471L675 531Z" fill="#e3b700" stroke="#000000"></path><path d="M0 453.7L-12.2 479.3L0 456.3Z" fill="#ff006f" stroke="#000000"></path><path d="M-19.5 421.3L-12.2 479.3L0 453.7Z" fill="#c6dc00" stroke="#000000"></path><path d="M355.8 119.3L340.5 110.3L339.5 129Z" fill="#f78d00" stroke="#000000"></path><path d="M328.5 118.7L284.5 104.7L316.3 169Z" fill="#ff006f" stroke="#000000"></path><path d="M346 96.3L340.5 110.3L355.8 119.3Z" fill="#ff0045" stroke="#000000"></path><path d="M367.5 108.7L355.8 119.3L374.5 120Z" fill="#b200d1" stroke="#000000"></path><path d="M458 128L467.3 145.7L458.8 124.3Z" fill="#b200d1" stroke="#000000"></path><path d="M452.5 136.7L406.3 101.3L407 161Z" fill="#c6dc00" stroke="#000000"></path><path d="M-50.2 301.3L1.3 363.7L27.5 329.7Z" fill="#f78d00" stroke="#000000"></path><path d="M27.5 329.7L1.3 363.7L35.5 357Z" fill="#f78d00" stroke="#000000"></path><path d="M675 321L620.5 376.7L635.3 381.3Z" fill="#1f00ff" stroke="#000000"></path><path d="M458.8 124.3L530.8 94.7L472 80.3Z" fill="#c6dc00" stroke="#000000"></path><path d="M379 94.7L367.5 108.7L374.5 120Z" fill="#e3b700" stroke="#000000"></path><path d="M406.3 101.3L452.5 136.7L447 104.7Z" fill="#f78d00" stroke="#000000"></path><path d="M658.8 303L653.8 290.3L580.3 292.3Z" fill="#ff0045" stroke="#000000"></path><path d="M675 641.7L631 613.3L608 656.7Z" fill="#e3b700" stroke="#000000"></path><path d="M675 534.7L700.5 598L675 531Z" fill="#9bff13" stroke="#000000"></path><path d="M0 720L80 750.7L70.3 691.3Z" fill="#ff5c00" stroke="#000000"></path><path d="M0 641L68.8 619.7L28.8 566.3Z" fill="#1f00ff" stroke="#000000"></path><path d="M0 576.3L28.8 566.3L14.3 563.7Z" fill="#ff5c00" stroke="#000000"></path><path d="M0 576.3L0 572.7L-20.2 662Z" fill="#c6dc00" stroke="#000000"></path><path d="M-8.5 496.7L0 572.7L0 505Z" fill="#e7009f" stroke="#000000"></path><path d="M-5.2 636L0 576.3L-20.2 662Z" fill="#c6dc00" stroke="#000000"></path><path d="M0 572.7L0 576.3L14.3 563.7Z" fill="#e7009f" stroke="#000000"></path><path d="M530.8 94.7L467.3 145.7L513.8 176Z" fill="#ff006f" stroke="#000000"></path><path d="M458 128L458.8 124.3L455.5 129Z" fill="#ff001d" stroke="#000000"></path><path d="M377.5 830.7L330 749.7L316.3 768.7Z" fill="#1f00ff" stroke="#000000"></path><path d="M622 255.7L618.5 233L588.8 223Z" fill="#b200d1" stroke="#000000"></path><path d="M560.5 195L547.3 167.7L511.5 194.3Z" fill="#b200d1" stroke="#000000"></path><path d="M618.8 232.7L618.5 233L622 255.7Z" fill="#b200d1" stroke="#000000"></path><path d="M574.8 174L547.3 167.7L560.5 195Z" fill="#e7009f" stroke="#000000"></path><path d="M649.5 249.7L618.8 232.7L622 255.7Z" fill="#e3b700" stroke="#000000"></path><path d="M618.5 233L618.8 232.7L588.8 223Z" fill="#c6dc00" stroke="#000000"></path><path d="M616.3 762.7L606.3 712.3L568.5 732.3Z" fill="#ff0045" stroke="#000000"></path><path d="M568.5 732.3L606.3 712.3L562.5 694.7Z" fill="#b200d1" stroke="#000000"></path><path d="M104.5 754L109 743L80 750.7Z" fill="#1f00ff" stroke="#000000"></path><path d="M105.5 728L109 743L128.5 724.7Z" fill="#ff0045" stroke="#000000"></path><path d="M109 743L105.5 728L80 750.7Z" fill="#c6dc00" stroke="#000000"></path><path d="M675 281.3L655.3 283L653.8 290.3Z" fill="#1f00ff" stroke="#000000"></path><path d="M653.8 290.3L655.3 283L622 255.7Z" fill="#e7009f" stroke="#000000"></path><path d="M675 281.3L653.8 290.3L658.8 303Z" fill="#c6dc00" stroke="#000000"></path><path d="M675 372.7L675 321L635.3 381.3Z" fill="#ff0045" stroke="#000000"></path><path d="M707.3 260.7L675 321L675 372.7Z" fill="#ff001d" stroke="#000000"></path><path d="M230.8 819.3L253 817.3L240.5 802.7Z" fill="#c6dc00" stroke="#000000"></path><path d="M240.5 802.7L253 817.3L271.3 774.3Z" fill="#ff006f" stroke="#000000"></path><path d="M707.3 260.7L675 320L675 321Z" fill="#e7009f" stroke="#000000"></path><path d="M675 321L675 320L658.8 303Z" fill="#b200d1" stroke="#000000"></path><path d="M108.5 161L108.8 210.3L144.3 185.3Z" fill="#c6dc00" stroke="#000000"></path><path d="M108.8 210.3L94.8 198.7L90 235Z" fill="#1f00ff" stroke="#000000"></path><path d="M63.5 257.3L0 281.7L27.5 329.7Z" fill="#9bff13" stroke="#000000"></path><path d="M1.3 363.7L-19.5 421.3L44 405Z" fill="#1f00ff" stroke="#000000"></path><path d="M346 96.3L328.5 118.7L340.5 110.3Z" fill="#e3b700" stroke="#000000"></path><path d="M297.3 77.3L284.5 104.7L328.5 118.7Z" fill="#e7009f" stroke="#000000"></path><path d="M318 845.7L377.5 830.7L316.3 768.7Z" fill="#ff001d" stroke="#000000"></path><path d="M620.3 184.3L594.3 198.7L618.8 232.7Z" fill="#f78d00" stroke="#000000"></path><path d="M618.8 232.7L594.3 198.7L588.8 223Z" fill="#1f00ff" stroke="#000000"></path><path d="M104.5 754L120.3 759L109 743Z" fill="#9bff13" stroke="#000000"></path><path d="M109 743L120.3 759L128.5 724.7Z" fill="#ff5c00" stroke="#000000"></path><path d="M379 94.7L346 96.3L367.5 108.7Z" fill="#e3b700" stroke="#000000"></path><path d="M367.5 108.7L346 96.3L355.8 119.3Z" fill="#ff006f" stroke="#000000"></path><path d="M447 104.7L452.5 136.7L455.5 129Z" fill="#c6dc00" stroke="#000000"></path><path d="M227.5 832L230.8 819.3L192 831.3Z" fill="#1f00ff" stroke="#000000"></path><path d="M318 845.7L378.5 838L377.5 830.7Z" fill="#9bff13" stroke="#000000"></path><path d="M465.3 821.3L509.8 768L451.3 751.7Z" fill="#ff006f" stroke="#000000"></path><path d="M509.8 768L517.3 792.3L530.8 747.7Z" fill="#c6dc00" stroke="#000000"></path><path d="M465.3 821.3L451.3 751.7L411.5 819.3Z" fill="#1f00ff" stroke="#000000"></path><path d="M224 91.3L191.3 145.7L223 146.3Z" fill="#ff5c00" stroke="#000000"></path><path d="M191.3 145.7L168.8 136.7L190.3 173.3Z" fill="#f78d00" stroke="#000000"></path><path d="M406.3 101.3L379 94.7L374.5 120Z" fill="#e7009f" stroke="#000000"></path><path d="M594.3 198.7L574.8 174L560.5 195Z" fill="#ff5c00" stroke="#000000"></path><path d="M445.3 90.7L447 104.7L472 80.3Z" fill="#e7009f" stroke="#000000"></path><path d="M458.8 124.3L447 104.7L455.5 129Z" fill="#e7009f" stroke="#000000"></path><path d="M80 750.7L105.5 728L70.3 691.3Z" fill="#f78d00" stroke="#000000"></path><path d="M192 831.3L230.8 819.3L211.8 776Z" fill="#ff006f" stroke="#000000"></path><path d="M380.3 839L384.3 862.3L393.5 853.7Z" fill="#b200d1" stroke="#000000"></path><path d="M377.5 830.7L380.3 839L411.5 819.3Z" fill="#ff006f" stroke="#000000"></path><path d="M318 845.7L271.3 774.3L266.8 839.7Z" fill="#c6dc00" stroke="#000000"></path><path d="M378.5 838L380.3 839L377.5 830.7Z" fill="#9bff13" stroke="#000000"></path><path d="M447 104.7L458.8 124.3L472 80.3Z" fill="#9bff13" stroke="#000000"></path><path d="M406.3 101.3L375.8 81.7L379 94.7Z" fill="#ff001d" stroke="#000000"></path><path d="M585.3 128.7L557.5 140.3L574.8 174Z" fill="#ff0045" stroke="#000000"></path><path d="M655.3 283L649.5 249.7L622 255.7Z" fill="#e3b700" stroke="#000000"></path><path d="M675 262L649.5 249.7L655.3 283Z" fill="#ff001d" stroke="#000000"></path><path d="M266.8 839.7L254.3 831.7L225.3 863.7Z" fill="#ff5c00" stroke="#000000"></path><path d="M230.8 819.3L254.3 831.7L253 817.3Z" fill="#ff5c00" stroke="#000000"></path><path d="M432.3 834L465.3 821.3L411.5 819.3Z" fill="#f78d00" stroke="#000000"></path><path d="M675 660.3L675 641.7L608 656.7Z" fill="#b200d1" stroke="#000000"></path><path d="M676.5 591.7L700.5 598L675 534.7Z" fill="#ff001d" stroke="#000000"></path><path d="M521.5 803.7L522 799.3L517.3 792.3Z" fill="#ff006f" stroke="#000000"></path><path d="M517.3 792.3L536.8 801L530.8 747.7Z" fill="#e3b700" stroke="#000000"></path><path d="M679.5 679L675 660.3L675 695.3Z" fill="#ff5c00" stroke="#000000"></path><path d="M393.5 853.7L432.3 834L411.5 819.3Z" fill="#ff0045" stroke="#000000"></path><path d="M707.3 260.7L675 281.3L675 320Z" fill="#1f00ff" stroke="#000000"></path><path d="M675 320L675 281.3L658.8 303Z" fill="#e7009f" stroke="#000000"></path><path d="M266.8 839.7L271.3 774.3L253 817.3Z" fill="#ff0045" stroke="#000000"></path><path d="M380.3 839L393.5 853.7L411.5 819.3Z" fill="#b200d1" stroke="#000000"></path><path d="M227.5 832L254.3 831.7L230.8 819.3Z" fill="#e7009f" stroke="#000000"></path><path d="M254.3 831.7L266.8 839.7L253 817.3Z" fill="#ff5c00" stroke="#000000"></path><path d="M432.3 834L464.8 827.3L465.3 821.3Z" fill="#ff0045" stroke="#000000"></path><path d="M520.5 812.3L521.5 803.7L517.3 792.3Z" fill="#9bff13" stroke="#000000"></path><path d="M675 641.7L700.5 598L676.5 591.7Z" fill="#e7009f" stroke="#000000"></path><path d="M520.5 812.3L517.3 792.3L465.3 821.3Z" fill="#b200d1" stroke="#000000"></path><path d="M522 799.3L536.8 801L517.3 792.3Z" fill="#ff001d" stroke="#000000"></path><path d="M144.3 123L108.5 161L144.3 185.3Z" fill="#9bff13" stroke="#000000"></path><path d="M94.8 198.7L61 200L90 235Z" fill="#b200d1" stroke="#000000"></path><path d="M142.8 798.3L169.8 749.7L120.3 759Z" fill="#c6dc00" stroke="#000000"></path><path d="M0 576.3L0 641L28.8 566.3Z" fill="#ff0045" stroke="#000000"></path><path d="M37.5 654.3L0 709.3L57 673.3Z" fill="#b200d1" stroke="#000000"></path><path d="M-5.2 636L0 641L0 576.3Z" fill="#ff001d" stroke="#000000"></path><path d="M0 572.7L-8.5 496.7L-20.2 662Z" fill="#9bff13" stroke="#000000"></path><path d="M414 56.3L375.8 81.7L406.3 101.3Z" fill="#ff0045" stroke="#000000"></path><path d="M379 94.7L375.8 81.7L346 96.3Z" fill="#e7009f" stroke="#000000"></path><path d="M346 96.3L297.3 77.3L328.5 118.7Z" fill="#ff001d" stroke="#000000"></path><path d="M675 660.3L608 656.7L675 695.3Z" fill="#e7009f" stroke="#000000"></path><path d="M675 641.7L728.3 653.3L700.5 598Z" fill="#b200d1" stroke="#000000"></path><path d="M81.5 172L61 200L94.8 198.7Z" fill="#ff006f" stroke="#000000"></path><path d="M-20.2 662L-8.5 496.7L-12.2 479.3Z" fill="#ff001d" stroke="#000000"></path><path d="M0 709.3L70.3 691.3L57 673.3Z" fill="#e7009f" stroke="#000000"></path><path d="M0 648.3L37.5 654.3L0 641Z" fill="#f78d00" stroke="#000000"></path><path d="M113.3 786L142.8 798.3L120.3 759Z" fill="#ff006f" stroke="#000000"></path><path d="M61 200L45.3 216L90 235Z" fill="#e7009f" stroke="#000000"></path><path d="M1.3 363.7L-50.2 301.3L-19.5 421.3Z" fill="#c6dc00" stroke="#000000"></path><path d="M-5.2 636L0 648.3L0 641Z" fill="#f78d00" stroke="#000000"></path><path d="M91.8 769.3L120.3 759L104.5 754Z" fill="#9bff13" stroke="#000000"></path><path d="M0 263.7L0 281.7L63.5 257.3Z" fill="#9bff13" stroke="#000000"></path><path d="M520.5 812.3L536.8 801L521.5 803.7Z" fill="#ff006f" stroke="#000000"></path><path d="M521.5 803.7L536.8 801L522 799.3Z" fill="#e3b700" stroke="#000000"></path><path d="M557.5 140.3L513.8 176L547.3 167.7Z" fill="#ff5c00" stroke="#000000"></path><path d="M447 104.7L445.3 90.7L406.3 101.3Z" fill="#e7009f" stroke="#000000"></path><path d="M-20.2 662L0 652.7L0 648.3Z" fill="#e7009f" stroke="#000000"></path><path d="M0 648.3L0 652.7L37.5 654.3Z" fill="#ff5c00" stroke="#000000"></path><path d="M604 165.3L574.8 174L594.3 198.7Z" fill="#e3b700" stroke="#000000"></path><path d="M574.8 174L557.5 140.3L547.3 167.7Z" fill="#ff0045" stroke="#000000"></path><path d="M707.3 260.7L675 262L675 281.3Z" fill="#ff006f" stroke="#000000"></path><path d="M675 281.3L675 262L655.3 283Z" fill="#f78d00" stroke="#000000"></path><path d="M675 201.7L620.3 184.3L618.8 232.7Z" fill="#ff001d" stroke="#000000"></path><path d="M464.8 827.3L520.5 812.3L465.3 821.3Z" fill="#ff0045" stroke="#000000"></path><path d="M351 55.3L297.3 77.3L346 96.3Z" fill="#c6dc00" stroke="#000000"></path><path d="M284.5 104.7L224 91.3L224.5 147.3Z" fill="#ff0045" stroke="#000000"></path><path d="M168.8 136.7L144.3 123L144.3 185.3Z" fill="#1f00ff" stroke="#000000"></path><path d="M384.3 862.3L380.3 839L378.5 838Z" fill="#ff0045" stroke="#000000"></path><path d="M432.3 834L458 900L464.8 827.3Z" fill="#f78d00" stroke="#000000"></path><path d="M464.8 827.3L496.5 900L520.5 812.3Z" fill="#ff001d" stroke="#000000"></path><path d="M263.8 62.3L224 91.3L284.5 104.7Z" fill="#b200d1" stroke="#000000"></path><path d="M108.5 161L81.5 172L94.8 198.7Z" fill="#c6dc00" stroke="#000000"></path><path d="M61 200L54 189L45.3 216Z" fill="#b200d1" stroke="#000000"></path><path d="M52.3 133L81.5 172L108.5 161Z" fill="#e3b700" stroke="#000000"></path><path d="M111.5 811.7L91.8 769.3L96 838.7Z" fill="#1f00ff" stroke="#000000"></path><path d="M80 750.7L91.8 769.3L104.5 754Z" fill="#ff5c00" stroke="#000000"></path><path d="M91.8 769.3L113.3 786L120.3 759Z" fill="#ff001d" stroke="#000000"></path><path d="M161 80.3L144.3 123L168.8 136.7Z" fill="#ff001d" stroke="#000000"></path><path d="M174.8 832L192 831.3L211.8 776Z" fill="#ff0045" stroke="#000000"></path><path d="M227.5 832L225.3 863.7L254.3 831.7Z" fill="#ff0045" stroke="#000000"></path><path d="M405.3 889.7L384.3 862.3L402 900.3Z" fill="#9bff13" stroke="#000000"></path><path d="M150.8 817.7L211.8 776L142.8 798.3Z" fill="#1f00ff" stroke="#000000"></path><path d="M675 201.7L618.8 232.7L649.5 249.7Z" fill="#1f00ff" stroke="#000000"></path><path d="M0 259.3L63.5 257.3L0 258.7Z" fill="#e3b700" stroke="#000000"></path><path d="M0 259.3L0 263.7L63.5 257.3Z" fill="#b200d1" stroke="#000000"></path><path d="M0 281.7L-50.2 301.3L27.5 329.7Z" fill="#f78d00" stroke="#000000"></path><path d="M707.3 260.7L675 247.7L675 262Z" fill="#ff001d" stroke="#000000"></path><path d="M675 262L675 247.7L649.5 249.7Z" fill="#b200d1" stroke="#000000"></path><path d="M614.5 153.3L604 165.3L620.3 184.3Z" fill="#9bff13" stroke="#000000"></path><path d="M620.3 184.3L604 165.3L594.3 198.7Z" fill="#ff0045" stroke="#000000"></path><path d="M0.8 188L54 189L22.5 158.7Z" fill="#ff001d" stroke="#000000"></path><path d="M81.5 172L54 189L61 200Z" fill="#e3b700" stroke="#000000"></path><path d="M0 258.7L63.5 257.3L14.8 226Z" fill="#9bff13" stroke="#000000"></path><path d="M0 263.7L-50.2 301.3L0 281.7Z" fill="#e3b700" stroke="#000000"></path><path d="M318 845.7L384.3 862.3L378.5 838Z" fill="#ff006f" stroke="#000000"></path><path d="M393.5 853.7L420.8 881L432.3 834Z" fill="#ff5c00" stroke="#000000"></path><path d="M323.8 900L318 845.7L271.3 900Z" fill="#9bff13" stroke="#000000"></path><path d="M14.8 226L63.5 257.3L45.3 216Z" fill="#ff0045" stroke="#000000"></path><path d="M0 259.3L-50.2 301.3L0 263.7Z" fill="#ff5c00" stroke="#000000"></path><path d="M675 695.3L608 656.7L606.3 712.3Z" fill="#f78d00" stroke="#000000"></path><path d="M675 660.3L728.3 653.3L675 641.7Z" fill="#ff5c00" stroke="#000000"></path><path d="M124.5 832.3L150.8 817.7L142.8 798.3Z" fill="#e7009f" stroke="#000000"></path><path d="M115.8 802.3L142.8 798.3L113.3 786Z" fill="#ff001d" stroke="#000000"></path><path d="M150.8 817.7L174.8 832L211.8 776Z" fill="#b200d1" stroke="#000000"></path><path d="M192 831.3L225.3 863.7L227.5 832Z" fill="#9bff13" stroke="#000000"></path><path d="M601 809.3L568.5 732.3L536.8 801Z" fill="#f78d00" stroke="#000000"></path><path d="M601 809.3L616.3 762.7L568.5 732.3Z" fill="#ff006f" stroke="#000000"></path><path d="M664.3 736L675 695.3L606.3 712.3Z" fill="#9bff13" stroke="#000000"></path><path d="M0 210L14.8 226L0 199.3Z" fill="#1f00ff" stroke="#000000"></path><path d="M111.5 811.7L113.3 786L91.8 769.3Z" fill="#ff5c00" stroke="#000000"></path><path d="M111.5 811.7L115.8 802.3L113.3 786Z" fill="#ff5c00" stroke="#000000"></path><path d="M150.8 817.7L126.8 837.7L174.8 832Z" fill="#e7009f" stroke="#000000"></path><path d="M530.8 94.7L458.8 124.3L467.3 145.7Z" fill="#e7009f" stroke="#000000"></path><path d="M397.8 48.3L351 55.3L375.8 81.7Z" fill="#1f00ff" stroke="#000000"></path><path d="M375.8 81.7L351 55.3L346 96.3Z" fill="#ff006f" stroke="#000000"></path><path d="M530.8 94.7L513.8 176L557.5 140.3Z" fill="#9bff13" stroke="#000000"></path><path d="M435.5 61.3L406.3 101.3L445.3 90.7Z" fill="#e3b700" stroke="#000000"></path><path d="M297.3 77.3L263.8 62.3L284.5 104.7Z" fill="#ff5c00" stroke="#000000"></path><path d="M272.8 45L263.8 62.3L297.3 77.3Z" fill="#b200d1" stroke="#000000"></path><path d="M145.8 77.3L120.8 106L144.3 123Z" fill="#9bff13" stroke="#000000"></path><path d="M-5.2 636L-20.2 662L0 648.3Z" fill="#ff0045" stroke="#000000"></path><path d="M0 652.7L0 709.3L37.5 654.3Z" fill="#f78d00" stroke="#000000"></path><path d="M-19.5 421.3L-20.2 662L-12.2 479.3Z" fill="#f78d00" stroke="#000000"></path><path d="M628.8 142.3L614.5 153.3L620.3 184.3Z" fill="#f78d00" stroke="#000000"></path><path d="M604 165.3L585.3 128.7L574.8 174Z" fill="#ff5c00" stroke="#000000"></path><path d="M483 35L435.5 61.3L472 80.3Z" fill="#ff001d" stroke="#000000"></path><path d="M472 80.3L435.5 61.3L445.3 90.7Z" fill="#1f00ff" stroke="#000000"></path><path d="M232.8 900L225.3 863.7L226 900Z" fill="#ff5c00" stroke="#000000"></path><path d="M197.3 900L225.3 863.7L192 831.3Z" fill="#e3b700" stroke="#000000"></path><path d="M435.5 61.3L414 56.3L406.3 101.3Z" fill="#f78d00" stroke="#000000"></path><path d="M614.5 153.3L585.3 128.7L604 165.3Z" fill="#f78d00" stroke="#000000"></path><path d="M38.3 775.7L91.8 769.3L80 750.7Z" fill="#f78d00" stroke="#000000"></path><path d="M115.8 802.3L124.5 832.3L142.8 798.3Z" fill="#b200d1" stroke="#000000"></path><path d="M585.3 128.7L530.8 94.7L557.5 140.3Z" fill="#e7009f" stroke="#000000"></path><path d="M0 210L0 225L14.8 226Z" fill="#1f00ff" stroke="#000000"></path><path d="M14.8 226L0 225L0 258.7Z" fill="#ff001d" stroke="#000000"></path><path d="M0 258.7L-50.2 301.3L0 259.3Z" fill="#ff001d" stroke="#000000"></path><path d="M14.8 226L45.3 216L0 199.3Z" fill="#c6dc00" stroke="#000000"></path><path d="M397.5 27.3L411 52.7L420.3 3.7Z" fill="#f78d00" stroke="#000000"></path><path d="M435.5 61.3L411 52.7L414 56.3Z" fill="#ff006f" stroke="#000000"></path><path d="M414 56.3L397.8 48.3L375.8 81.7Z" fill="#ff006f" stroke="#000000"></path><path d="M695.5 471L707.3 260.7L675 372.7Z" fill="#9bff13" stroke="#000000"></path><path d="M675 247.7L675 201.7L649.5 249.7Z" fill="#ff001d" stroke="#000000"></path><path d="M728.3 653.3L707.3 260.7L695.5 471Z" fill="#ff0045" stroke="#000000"></path><path d="M-20.2 662L0 709.3L0 652.7Z" fill="#1f00ff" stroke="#000000"></path><path d="M411 52.7L397.8 48.3L414 56.3Z" fill="#1f00ff" stroke="#000000"></path><path d="M330 21L272.8 45L297.3 77.3Z" fill="#b200d1" stroke="#000000"></path><path d="M564.5 59L529.5 88.7L530.8 94.7Z" fill="#9bff13" stroke="#000000"></path><path d="M530.8 94.7L529.5 88.7L472 80.3Z" fill="#e3b700" stroke="#000000"></path><path d="M411 52.7L397.5 27.3L397.8 48.3Z" fill="#f78d00" stroke="#000000"></path><path d="M616.3 762.7L664.3 736L606.3 712.3Z" fill="#1f00ff" stroke="#000000"></path><path d="M701.5 712.7L728.3 653.3L679.5 679Z" fill="#ff0045" stroke="#000000"></path><path d="M161 80.3L168.8 136.7L224 91.3Z" fill="#ff001d" stroke="#000000"></path><path d="M144.3 123L120.8 106L108.5 161Z" fill="#e7009f" stroke="#000000"></path><path d="M405.3 889.7L393.5 853.7L384.3 862.3Z" fill="#ff006f" stroke="#000000"></path><path d="M405.3 889.7L420.8 881L393.5 853.7Z" fill="#ff006f" stroke="#000000"></path><path d="M580.8 824.3L601 809.3L536.8 801Z" fill="#b200d1" stroke="#000000"></path><path d="M675 744.3L675 738L664.3 736Z" fill="#ff001d" stroke="#000000"></path><path d="M707.3 260.7L675 201.7L675 247.7Z" fill="#1f00ff" stroke="#000000"></path><path d="M614.5 153.3L628.8 142.3L585.3 128.7Z" fill="#ff001d" stroke="#000000"></path><path d="M-31.5 209.3L-50.2 301.3L0 258.7Z" fill="#b200d1" stroke="#000000"></path><path d="M-19.5 421.3L-50.2 301.3L-20.2 662Z" fill="#ff0045" stroke="#000000"></path><path d="M161.3 73.7L161 80.3L224 91.3Z" fill="#1f00ff" stroke="#000000"></path><path d="M330 21L297.3 77.3L351 55.3Z" fill="#ff006f" stroke="#000000"></path><path d="M167.8 32L161.3 73.7L224 91.3Z" fill="#ff5c00" stroke="#000000"></path><path d="M-20.2 662L0 720L0 709.3Z" fill="#c6dc00" stroke="#000000"></path><path d="M0 709.3L0 720L70.3 691.3Z" fill="#ff001d" stroke="#000000"></path><path d="M126.8 837.7L124.5 832.3L96 838.7Z" fill="#ff0045" stroke="#000000"></path><path d="M111.5 811.7L124.5 832.3L115.8 802.3Z" fill="#e7009f" stroke="#000000"></path><path d="M0 199.3L45.3 216L0.8 188Z" fill="#9bff13" stroke="#000000"></path><path d="M0 225L-31.5 209.3L0 258.7Z" fill="#ff5c00" stroke="#000000"></path><path d="M323.8 900L384.3 862.3L318 845.7Z" fill="#e7009f" stroke="#000000"></path><path d="M699.5 150L675 194.3L675 201.7Z" fill="#ff0045" stroke="#000000"></path><path d="M675 201.7L675 194.3L620.3 184.3Z" fill="#c6dc00" stroke="#000000"></path><path d="M679.5 679L728.3 653.3L675 660.3Z" fill="#9bff13" stroke="#000000"></path><path d="M700.5 598L728.3 653.3L695.5 471Z" fill="#9bff13" stroke="#000000"></path><path d="M701.5 712.7L679.5 679L675 695.3Z" fill="#ff001d" stroke="#000000"></path><path d="M96 838.7L124.5 832.3L111.5 811.7Z" fill="#1f00ff" stroke="#000000"></path><path d="M124.5 832.3L126.8 837.7L150.8 817.7Z" fill="#f78d00" stroke="#000000"></path><path d="M675 744.3L664.3 736L664.5 764Z" fill="#ff0045" stroke="#000000"></path><path d="M664.3 736L675 738L675 695.3Z" fill="#ff0045" stroke="#000000"></path><path d="M580.8 824.3L520.5 812.3L584.3 876.7Z" fill="#1f00ff" stroke="#000000"></path><path d="M580.8 824.3L536.8 801L520.5 812.3Z" fill="#1f00ff" stroke="#000000"></path><path d="M458 900L432.3 834L420.8 881Z" fill="#e7009f" stroke="#000000"></path><path d="M167.8 32L192.5 0L186.3 2.3Z" fill="#b200d1" stroke="#000000"></path><path d="M145.8 77.3L115.5 95.7L120.8 106Z" fill="#c6dc00" stroke="#000000"></path><path d="M675 194.3L628.8 142.3L620.3 184.3Z" fill="#e7009f" stroke="#000000"></path><path d="M564.5 59L512.8 38.7L529.5 88.7Z" fill="#9bff13" stroke="#000000"></path><path d="M0.8 188L45.3 216L54 189Z" fill="#ff5c00" stroke="#000000"></path><path d="M0 210L-31.5 209.3L0 225Z" fill="#ff001d" stroke="#000000"></path><path d="M52.3 133L108.5 161L120.8 106Z" fill="#e7009f" stroke="#000000"></path><path d="M145.8 77.3L144.3 123L161 80.3Z" fill="#1f00ff" stroke="#000000"></path><path d="M0 720L38.3 775.7L80 750.7Z" fill="#e7009f" stroke="#000000"></path><path d="M664.5 764L664.3 736L616.3 762.7Z" fill="#1f00ff" stroke="#000000"></path><path d="M675 738L701.5 712.7L675 695.3Z" fill="#ff001d" stroke="#000000"></path><path d="M115.5 95.7L145.8 77.3L107.8 79.3Z" fill="#e7009f" stroke="#000000"></path><path d="M161.3 73.7L145.8 77.3L161 80.3Z" fill="#ff001d" stroke="#000000"></path><path d="M271.3 900L266.8 839.7L225.3 863.7Z" fill="#b200d1" stroke="#000000"></path><path d="M271.3 900L318 845.7L266.8 839.7Z" fill="#ff006f" stroke="#000000"></path><path d="M675 744.3L701.5 712.7L675 738Z" fill="#e7009f" stroke="#000000"></path><path d="M323.8 900L402 900.3L384.3 862.3Z" fill="#ff001d" stroke="#000000"></path><path d="M405.3 889.7L415.5 900L420.8 881Z" fill="#e3b700" stroke="#000000"></path><path d="M52.3 133L54 189L81.5 172Z" fill="#9bff13" stroke="#000000"></path><path d="M0 199.3L-31.5 209.3L0 210Z" fill="#ff006f" stroke="#000000"></path><path d="M652.3 782.7L664.5 764L616.3 762.7Z" fill="#ff006f" stroke="#000000"></path><path d="M675 744.3L675 787.7L701.5 712.7Z" fill="#e3b700" stroke="#000000"></path><path d="M610.3 815L616.3 762.7L601 809.3Z" fill="#e7009f" stroke="#000000"></path><path d="M232.8 900L271.3 900L225.3 863.7Z" fill="#ff001d" stroke="#000000"></path><path d="M323.8 900L324.5 910.3L402 900.3Z" fill="#b200d1" stroke="#000000"></path><path d="M584.3 876.7L610.3 815L580.8 824.3Z" fill="#ff5c00" stroke="#000000"></path><path d="M580.8 824.3L610.3 815L601 809.3Z" fill="#c6dc00" stroke="#000000"></path><path d="M100.3 85.3L120.8 106L115.5 95.7Z" fill="#e3b700" stroke="#000000"></path><path d="M100.3 85.3L52.3 133L120.8 106Z" fill="#e7009f" stroke="#000000"></path><path d="M402 900.3L415.5 900L405.3 889.7Z" fill="#ff006f" stroke="#000000"></path><path d="M420.3 3.7L411 52.7L435.5 61.3Z" fill="#ff006f" stroke="#000000"></path><path d="M397.8 48.3L392.5 23.7L351 55.3Z" fill="#e3b700" stroke="#000000"></path><path d="M52.3 133L22.5 158.7L54 189Z" fill="#f78d00" stroke="#000000"></path><path d="M610.3 815L652.3 782.7L616.3 762.7Z" fill="#ff006f" stroke="#000000"></path><path d="M664.5 764L675 787.7L675 744.3Z" fill="#e3b700" stroke="#000000"></path><path d="M107.8 79.3L107.5 88L115.5 95.7Z" fill="#ff0045" stroke="#000000"></path><path d="M441.8 900L434 900L479.8 957.7Z" fill="#e7009f" stroke="#000000"></path><path d="M415.5 900L434 900L420.8 881Z" fill="#ff001d" stroke="#000000"></path><path d="M392.5 23.7L330 21L351 55.3Z" fill="#1f00ff" stroke="#000000"></path><path d="M154.8 31.7L145.8 77.3L161.3 73.7Z" fill="#ff006f" stroke="#000000"></path><path d="M107.8 79.3L100.3 85.3L107.5 88Z" fill="#1f00ff" stroke="#000000"></path><path d="M380.3 0L392.5 23.7L398.8 0Z" fill="#f78d00" stroke="#000000"></path><path d="M397.5 27.3L392.5 23.7L397.8 48.3Z" fill="#e3b700" stroke="#000000"></path><path d="M305.8 915.3L324.5 910.3L323.8 900Z" fill="#f78d00" stroke="#000000"></path><path d="M479.8 957.7L434 900L415.5 900Z" fill="#1f00ff" stroke="#000000"></path><path d="M458 900L441.8 900L479.8 957.7Z" fill="#ff0045" stroke="#000000"></path><path d="M434 900L441.8 900L420.8 881Z" fill="#b200d1" stroke="#000000"></path><path d="M38.3 775.7L96 838.7L91.8 769.3Z" fill="#ff001d" stroke="#000000"></path><path d="M226 900L225.3 863.7L219.3 901.3Z" fill="#1f00ff" stroke="#000000"></path><path d="M225.3 863.7L197.3 900L219.3 901.3Z" fill="#ff5c00" stroke="#000000"></path><path d="M271.3 900L305.8 915.3L323.8 900Z" fill="#b200d1" stroke="#000000"></path><path d="M192 831.3L174.8 832L197.3 900Z" fill="#1f00ff" stroke="#000000"></path><path d="M192 932.7L305.8 915.3L271.3 900Z" fill="#c6dc00" stroke="#000000"></path><path d="M492.5 921.3L458 900L479.8 957.7Z" fill="#9bff13" stroke="#000000"></path><path d="M441.8 900L458 900L420.8 881Z" fill="#ff006f" stroke="#000000"></path><path d="M107.8 79.3L145.8 77.3L105.5 44Z" fill="#9bff13" stroke="#000000"></path><path d="M107.5 88L100.3 85.3L115.5 95.7Z" fill="#f78d00" stroke="#000000"></path><path d="M52.3 133L27.8 126.7L22.5 158.7Z" fill="#e7009f" stroke="#000000"></path><path d="M224 91.3L192.5 0L167.8 32Z" fill="#f78d00" stroke="#000000"></path><path d="M192 932.7L271.3 900L232.8 900Z" fill="#c6dc00" stroke="#000000"></path><path d="M479.8 957.7L415.5 900L402 900.3Z" fill="#9bff13" stroke="#000000"></path><path d="M-10.5 150.7L-31.5 209.3L0.8 188Z" fill="#c6dc00" stroke="#000000"></path><path d="M0.8 188L-31.5 209.3L0 199.3Z" fill="#f78d00" stroke="#000000"></path><path d="M-10.5 150.7L0.8 188L22.5 158.7Z" fill="#ff001d" stroke="#000000"></path><path d="M485.3 35.3L472 80.3L512.8 38.7Z" fill="#9bff13" stroke="#000000"></path><path d="M485.3 35.3L483 35L472 80.3Z" fill="#ff006f" stroke="#000000"></path><path d="M197.3 900L174.8 832L171 900Z" fill="#e7009f" stroke="#000000"></path><path d="M226 900L219.3 901.3L232.8 900Z" fill="#ff006f" stroke="#000000"></path><path d="M512.8 38.7L472 80.3L529.5 88.7Z" fill="#e7009f" stroke="#000000"></path><path d="M492.5 921.3L477.8 900L458 900Z" fill="#9bff13" stroke="#000000"></path><path d="M458 900L477.8 900L464.8 827.3Z" fill="#1f00ff" stroke="#000000"></path><path d="M171 900L174.8 832L169.3 900Z" fill="#e3b700" stroke="#000000"></path><path d="M219.3 901.3L192 932.7L232.8 900Z" fill="#e3b700" stroke="#000000"></path><path d="M564.5 59L530.8 94.7L585.3 128.7Z" fill="#9bff13" stroke="#000000"></path><path d="M420.3 3.7L435.5 61.3L448 0Z" fill="#e3b700" stroke="#000000"></path><path d="M380.3 0L330 21L392.5 23.7Z" fill="#b200d1" stroke="#000000"></path><path d="M38.3 775.7L86.8 849.7L96 838.7Z" fill="#9bff13" stroke="#000000"></path><path d="M96 838.7L89.5 853.7L126.8 837.7Z" fill="#ff0045" stroke="#000000"></path><path d="M11.8 810L86.8 849.7L38.3 775.7Z" fill="#b200d1" stroke="#000000"></path><path d="M492.5 921.3L496.5 900L477.8 900Z" fill="#e7009f" stroke="#000000"></path><path d="M477.8 900L496.5 900L464.8 827.3Z" fill="#ff001d" stroke="#000000"></path><path d="M15.8 112.3L52.3 133L100.3 85.3Z" fill="#ff001d" stroke="#000000"></path><path d="M15.8 112.3L27.8 126.7L52.3 133Z" fill="#ff5c00" stroke="#000000"></path><path d="M86.8 849.7L89.5 853.7L96 838.7Z" fill="#e3b700" stroke="#000000"></path><path d="M595.3 49L564.5 59L585.3 128.7Z" fill="#f78d00" stroke="#000000"></path><path d="M595.3 49L585.3 128.7L628.8 142.3Z" fill="#b200d1" stroke="#000000"></path><path d="M675 788L675 787.7L652.3 782.7Z" fill="#1f00ff" stroke="#000000"></path><path d="M652.3 782.7L675 787.7L664.5 764Z" fill="#ff5c00" stroke="#000000"></path><path d="M701.5 712.7L720.3 900L728.3 653.3Z" fill="#1f00ff" stroke="#000000"></path><path d="M675 788L652.3 782.7L650.8 831.7Z" fill="#ff5c00" stroke="#000000"></path><path d="M650.8 831.7L652.3 782.7L610.3 815Z" fill="#ff5c00" stroke="#000000"></path><path d="M675 787.7L675 788L701.5 712.7Z" fill="#c6dc00" stroke="#000000"></path><path d="M380.3 0L336.8 0L330 21Z" fill="#b200d1" stroke="#000000"></path><path d="M330 21L315.3 0L272.8 45Z" fill="#f78d00" stroke="#000000"></path><path d="M392.5 23.7L397.5 27.3L398.8 0Z" fill="#ff001d" stroke="#000000"></path><path d="M336.8 0L323 0L330 21Z" fill="#e7009f" stroke="#000000"></path><path d="M323 0L315.3 0L330 21Z" fill="#ff001d" stroke="#000000"></path><path d="M435.5 61.3L451.5 0L448 0Z" fill="#e7009f" stroke="#000000"></path><path d="M260.5 0L263.8 62.3L272.8 45Z" fill="#b200d1" stroke="#000000"></path><path d="M64.3 34.3L15.8 112.3L100.3 85.3Z" fill="#e3b700" stroke="#000000"></path><path d="M169.3 900L174.8 832L126.8 837.7Z" fill="#ff0045" stroke="#000000"></path><path d="M197.3 900L192 932.7L219.3 901.3Z" fill="#ff0045" stroke="#000000"></path><path d="M677.3 137.3L675 137.3L699.5 150Z" fill="#c6dc00" stroke="#000000"></path><path d="M675 194.3L675 137.3L628.8 142.3Z" fill="#1f00ff" stroke="#000000"></path><path d="M135.5 900L169.3 900L126.8 837.7Z" fill="#ff5c00" stroke="#000000"></path><path d="M171 900L192 932.7L197.3 900Z" fill="#ff001d" stroke="#000000"></path><path d="M435.5 61.3L483 35L451.5 0Z" fill="#c6dc00" stroke="#000000"></path><path d="M420.3 3.7L398.8 0L397.5 27.3Z" fill="#ff0045" stroke="#000000"></path><path d="M699.5 150L675 137.3L675 194.3Z" fill="#ff0045" stroke="#000000"></path><path d="M675 93.3L595.3 49L628.8 142.3Z" fill="#9bff13" stroke="#000000"></path><path d="M166.3 0L154.8 31.7L167.8 32Z" fill="#ff5c00" stroke="#000000"></path><path d="M167.8 32L154.8 31.7L161.3 73.7Z" fill="#ff006f" stroke="#000000"></path><path d="M272.3 -4.3L260.5 0L272.8 45Z" fill="#ff5c00" stroke="#000000"></path><path d="M0 123L-10.5 150.7L22.5 158.7Z" fill="#ff006f" stroke="#000000"></path><path d="M0 123L22.5 158.7L27.8 126.7Z" fill="#c6dc00" stroke="#000000"></path><path d="M86.8 849.7L88.5 900L89.5 853.7Z" fill="#e7009f" stroke="#000000"></path><path d="M0 720L-5.5 788.3L38.3 775.7Z" fill="#1f00ff" stroke="#000000"></path><path d="M-20.2 662L-5.5 788.3L0 720Z" fill="#ff0045" stroke="#000000"></path><path d="M264.8 -8.7L272.3 -4.3L333.3 -26.7Z" fill="#1f00ff" stroke="#000000"></path><path d="M315.3 0L272.3 -4.3L272.8 45Z" fill="#b200d1" stroke="#000000"></path><path d="M192.5 0L224 91.3L263.8 62.3Z" fill="#b200d1" stroke="#000000"></path><path d="M272.3 -4.3L315.3 0L333.3 -26.7Z" fill="#e7009f" stroke="#000000"></path><path d="M315.3 0L323 0L333.3 -26.7Z" fill="#e7009f" stroke="#000000"></path><path d="M323 0L336.8 0L333.3 -26.7Z" fill="#ff001d" stroke="#000000"></path><path d="M509 922.7L534.3 900L496.5 900Z" fill="#1f00ff" stroke="#000000"></path><path d="M496.5 900L534.3 900L520.5 812.3Z" fill="#e3b700" stroke="#000000"></path><path d="M707.3 260.7L699.5 150L675 201.7Z" fill="#e3b700" stroke="#000000"></path><path d="M675 100L628.8 142.3L675 137.3Z" fill="#c6dc00" stroke="#000000"></path><path d="M-5.5 788.3L11.8 810L38.3 775.7Z" fill="#b200d1" stroke="#000000"></path><path d="M89.5 853.7L135.5 900L126.8 837.7Z" fill="#9bff13" stroke="#000000"></path><path d="M451.5 0L483 35L464 0Z" fill="#ff0045" stroke="#000000"></path><path d="M420.3 3.7L448 0L398.8 0Z" fill="#e3b700" stroke="#000000"></path><path d="M367 -16.3L336.8 0L380.3 0Z" fill="#ff001d" stroke="#000000"></path><path d="M483 35L485.3 35.3L464 0Z" fill="#ff001d" stroke="#000000"></path><path d="M534.3 900L584.3 876.7L520.5 812.3Z" fill="#ff0045" stroke="#000000"></path><path d="M464 0L485.3 35.3L512.8 38.7Z" fill="#ff001d" stroke="#000000"></path><path d="M367 -16.3L380.3 0L398.8 0Z" fill="#1f00ff" stroke="#000000"></path><path d="M647.3 870.3L650.8 831.7L610.3 815Z" fill="#e7009f" stroke="#000000"></path><path d="M367 -16.3L398.8 0L448 0Z" fill="#ff006f" stroke="#000000"></path><path d="M272.3 -4.3L264.8 -8.7L260.5 0Z" fill="#f78d00" stroke="#000000"></path><path d="M479.8 957.7L402 900.3L324.5 910.3Z" fill="#e3b700" stroke="#000000"></path><path d="M534.3 900L567.8 902.3L584.3 876.7Z" fill="#1f00ff" stroke="#000000"></path><path d="M88.8 40.7L100.3 85.3L107.8 79.3Z" fill="#e7009f" stroke="#000000"></path><path d="M577.3 0L464 0L512.8 38.7Z" fill="#f78d00" stroke="#000000"></path><path d="M451.5 0L367 -16.3L448 0Z" fill="#ff5c00" stroke="#000000"></path><path d="M121.8 914.3L135.5 900L88.5 900Z" fill="#ff006f" stroke="#000000"></path><path d="M169.3 900L192 932.7L171 900Z" fill="#9bff13" stroke="#000000"></path><path d="M464 0L367 -16.3L451.5 0Z" fill="#1f00ff" stroke="#000000"></path><path d="M136.5 0L105.5 44L154.8 31.7Z" fill="#ff5c00" stroke="#000000"></path><path d="M154.8 31.7L105.5 44L145.8 77.3Z" fill="#1f00ff" stroke="#000000"></path><path d="M0 94.3L0 123L15.8 112.3Z" fill="#c6dc00" stroke="#000000"></path><path d="M15.8 112.3L0 123L27.8 126.7Z" fill="#c6dc00" stroke="#000000"></path><path d="M486 959.7L509 922.7L492.5 921.3Z" fill="#f78d00" stroke="#000000"></path><path d="M492.5 921.3L509 922.7L496.5 900Z" fill="#b200d1" stroke="#000000"></path><path d="M682.3 107.3L675 137.3L677.3 137.3Z" fill="#ff5c00" stroke="#000000"></path><path d="M564.5 59L577.3 0L512.8 38.7Z" fill="#ff006f" stroke="#000000"></path><path d="M192.5 0L263.8 62.3L260.5 0Z" fill="#e3b700" stroke="#000000"></path><path d="M222.5 -29.7L192.5 0L260.5 0Z" fill="#e7009f" stroke="#000000"></path><path d="M192.5 0L181.3 1.7L186.3 2.3Z" fill="#e7009f" stroke="#000000"></path><path d="M186.3 2.3L181.3 1.7L167.8 32Z" fill="#e3b700" stroke="#000000"></path><path d="M148.3 942.7L192 932.7L169.3 900Z" fill="#c6dc00" stroke="#000000"></path><path d="M305.8 915.3L479.8 957.7L324.5 910.3Z" fill="#ff006f" stroke="#000000"></path><path d="M570.5 932.7L567.8 902.3L534.3 900Z" fill="#b200d1" stroke="#000000"></path><path d="M584.3 876.7L647.3 870.3L610.3 815Z" fill="#ff0045" stroke="#000000"></path><path d="M464 0L333.3 -26.7L367 -16.3Z" fill="#ff5c00" stroke="#000000"></path><path d="M367 -16.3L333.3 -26.7L336.8 0Z" fill="#e3b700" stroke="#000000"></path><path d="M222.5 -29.7L181.3 1.7L192.5 0Z" fill="#b200d1" stroke="#000000"></path><path d="M222.5 -29.7L166.3 0L181.3 1.7Z" fill="#9bff13" stroke="#000000"></path><path d="M699.5 150L682.3 107.3L677.3 137.3Z" fill="#ff001d" stroke="#000000"></path><path d="M105.5 44L88.8 40.7L107.8 79.3Z" fill="#c6dc00" stroke="#000000"></path><path d="M105.8 0L88.8 40.7L105.5 44Z" fill="#f78d00" stroke="#000000"></path><path d="M682.3 107.3L675 100L675 137.3Z" fill="#ff0045" stroke="#000000"></path><path d="M675 93.3L601.3 44L595.3 49Z" fill="#1f00ff" stroke="#000000"></path><path d="M595.3 49L577.3 0L564.5 59Z" fill="#9bff13" stroke="#000000"></path><path d="M570.5 932.7L581.5 900L567.8 902.3Z" fill="#1f00ff" stroke="#000000"></path><path d="M567.8 902.3L581.5 900L584.3 876.7Z" fill="#f78d00" stroke="#000000"></path><path d="M222.5 -29.7L260.5 0L264.8 -8.7Z" fill="#e3b700" stroke="#000000"></path><path d="M181.3 1.7L166.3 0L167.8 32Z" fill="#b200d1" stroke="#000000"></path><path d="M682.3 107.3L675 93.3L675 100Z" fill="#e3b700" stroke="#000000"></path><path d="M675 100L675 93.3L628.8 142.3Z" fill="#b200d1" stroke="#000000"></path><path d="M88.5 900L135.5 900L89.5 853.7Z" fill="#ff0045" stroke="#000000"></path><path d="M135.5 900L148.3 942.7L169.3 900Z" fill="#9bff13" stroke="#000000"></path><path d="M40.3 917.3L88.5 900L86.8 849.7Z" fill="#b200d1" stroke="#000000"></path><path d="M64.3 34.3L0 94.3L15.8 112.3Z" fill="#e7009f" stroke="#000000"></path><path d="M0 123L-51.2 68L-10.5 150.7Z" fill="#c6dc00" stroke="#000000"></path><path d="M-10.5 150.7L-51.2 68L-31.5 209.3Z" fill="#ff001d" stroke="#000000"></path><path d="M581.5 900L647.3 870.3L584.3 876.7Z" fill="#ff0045" stroke="#000000"></path><path d="M650.8 831.7L720.3 900L675 788Z" fill="#1f00ff" stroke="#000000"></path><path d="M675 788L720.3 900L701.5 712.7Z" fill="#ff006f" stroke="#000000"></path><path d="M222.5 -29.7L136.5 0L166.3 0Z" fill="#c6dc00" stroke="#000000"></path><path d="M166.3 0L136.5 0L154.8 31.7Z" fill="#ff006f" stroke="#000000"></path><path d="M88.8 40.7L64.3 34.3L100.3 85.3Z" fill="#ff5c00" stroke="#000000"></path><path d="M333.3 -26.7L222.5 -29.7L264.8 -8.7Z" fill="#ff0045" stroke="#000000"></path><path d="M192 932.7L479.8 957.7L305.8 915.3Z" fill="#ff006f" stroke="#000000"></path><path d="M509 922.7L570.5 932.7L534.3 900Z" fill="#ff006f" stroke="#000000"></path><path d="M675 924.7L675 900L647.3 870.3Z" fill="#c6dc00" stroke="#000000"></path><path d="M73 16.7L64.3 34.3L88.8 40.7Z" fill="#f78d00" stroke="#000000"></path><path d="M148.3 942.7L486 959.7L479.8 957.7Z" fill="#ff5c00" stroke="#000000"></path><path d="M479.8 957.7L486 959.7L492.5 921.3Z" fill="#ff006f" stroke="#000000"></path><path d="M121.8 914.3L148.3 942.7L135.5 900Z" fill="#9bff13" stroke="#000000"></path><path d="M192 932.7L148.3 942.7L479.8 957.7Z" fill="#e3b700" stroke="#000000"></path><path d="M40.3 917.3L148.3 942.7L121.8 914.3Z" fill="#c6dc00" stroke="#000000"></path><path d="M699.5 150L725.3 120L682.3 107.3Z" fill="#f78d00" stroke="#000000"></path><path d="M682.3 107.3L694.5 86.3L675 93.3Z" fill="#ff001d" stroke="#000000"></path><path d="M675 29.7L644.8 11.3L601.3 44Z" fill="#9bff13" stroke="#000000"></path><path d="M707.3 260.7L725.3 120L699.5 150Z" fill="#c6dc00" stroke="#000000"></path><path d="M728.3 653.3L725.3 120L707.3 260.7Z" fill="#e3b700" stroke="#000000"></path><path d="M725.3 120L694.5 86.3L682.3 107.3Z" fill="#c6dc00" stroke="#000000"></path><path d="M11.8 810L0 854.7L86.8 849.7Z" fill="#e7009f" stroke="#000000"></path><path d="M88.5 900L40.3 917.3L121.8 914.3Z" fill="#ff006f" stroke="#000000"></path><path d="M-5.5 788.3L0 854.7L11.8 810Z" fill="#ff5c00" stroke="#000000"></path><path d="M0 860.3L0 854.7L-57.2 900Z" fill="#ff001d" stroke="#000000"></path><path d="M572.8 941.7L570.5 932.7L509 922.7Z" fill="#f78d00" stroke="#000000"></path><path d="M633.8 0L577.3 0L601.3 44Z" fill="#ff5c00" stroke="#000000"></path><path d="M601.3 44L577.3 0L595.3 49Z" fill="#9bff13" stroke="#000000"></path><path d="M464 0L577.3 0L333.3 -26.7Z" fill="#e3b700" stroke="#000000"></path><path d="M222.5 -29.7L105.8 0L136.5 0Z" fill="#ff5c00" stroke="#000000"></path><path d="M136.5 0L105.8 0L105.5 44Z" fill="#e3b700" stroke="#000000"></path><path d="M0 900L0 860.3L-57.2 900Z" fill="#e3b700" stroke="#000000"></path><path d="M0 854.7L0 860.3L86.8 849.7Z" fill="#e3b700" stroke="#000000"></path><path d="M105.8 0L73 16.7L88.8 40.7Z" fill="#9bff13" stroke="#000000"></path><path d="M64.3 34.3L0 28.7L0 94.3Z" fill="#1f00ff" stroke="#000000"></path><path d="M486 959.7L572.8 941.7L509 922.7Z" fill="#e7009f" stroke="#000000"></path><path d="M570.5 932.7L572.8 941.7L581.5 900Z" fill="#e7009f" stroke="#000000"></path><path d="M0 860.3L40.3 917.3L86.8 849.7Z" fill="#f78d00" stroke="#000000"></path><path d="M675 29.7L601.3 44L675 93.3Z" fill="#9bff13" stroke="#000000"></path><path d="M675 29.7L675 93.3L694.5 86.3Z" fill="#b200d1" stroke="#000000"></path><path d="M105.8 0L65.5 -5.7L73 16.7Z" fill="#ff001d" stroke="#000000"></path><path d="M73 16.7L52 0L64.3 34.3Z" fill="#1f00ff" stroke="#000000"></path><path d="M222.5 -29.7L65.5 -5.7L105.8 0Z" fill="#b200d1" stroke="#000000"></path><path d="M675 924.7L647.3 870.3L581.5 900Z" fill="#1f00ff" stroke="#000000"></path><path d="M647.3 870.3L675 900L650.8 831.7Z" fill="#e3b700" stroke="#000000"></path><path d="M65.5 -5.7L52 0L73 16.7Z" fill="#ff0045" stroke="#000000"></path><path d="M673.5 20.7L675 29.7L728.3 25.7Z" fill="#ff001d" stroke="#000000"></path><path d="M675 0L633.8 0L644.8 11.3Z" fill="#f78d00" stroke="#000000"></path><path d="M644.8 11.3L633.8 0L601.3 44Z" fill="#ff006f" stroke="#000000"></path><path d="M577.3 0L633.8 0L333.3 -26.7Z" fill="#b200d1" stroke="#000000"></path><path d="M0 931.7L0 900L-57.2 900Z" fill="#1f00ff" stroke="#000000"></path><path d="M0 860.3L0 900L40.3 917.3Z" fill="#e7009f" stroke="#000000"></path><path d="M18.8 0L0 28.7L64.3 34.3Z" fill="#c6dc00" stroke="#000000"></path><path d="M0 94.3L-51.2 68L0 123Z" fill="#f78d00" stroke="#000000"></path><path d="M-31.5 209.3L-51.2 68L-50.2 301.3Z" fill="#e7009f" stroke="#000000"></path><path d="M675 0L673.5 20.7L676.5 0Z" fill="#ff5c00" stroke="#000000"></path><path d="M675 29.7L673.5 20.7L644.8 11.3Z" fill="#ff0045" stroke="#000000"></path><path d="M0 28.7L-51.2 68L0 94.3Z" fill="#c6dc00" stroke="#000000"></path><path d="M52 0L18.8 0L64.3 34.3Z" fill="#1f00ff" stroke="#000000"></path><path d="M0 28.7L0 5.3L-51.2 68Z" fill="#9bff13" stroke="#000000"></path><path d="M65.5 -5.7L18.8 0L52 0Z" fill="#9bff13" stroke="#000000"></path><path d="M0 0L18.8 0L65.5 -5.7Z" fill="#9bff13" stroke="#000000"></path><path d="M486 959.7L675 924.7L572.8 941.7Z" fill="#ff0045" stroke="#000000"></path><path d="M572.8 941.7L675 924.7L581.5 900Z" fill="#c6dc00" stroke="#000000"></path><path d="M675 900L720.3 900L650.8 831.7Z" fill="#9bff13" stroke="#000000"></path><path d="M676.5 0L673.5 20.7L728.3 25.7Z" fill="#ff001d" stroke="#000000"></path><path d="M673.5 20.7L675 0L644.8 11.3Z" fill="#e7009f" stroke="#000000"></path><path d="M633.8 0L675 0L333.3 -26.7Z" fill="#b200d1" stroke="#000000"></path><path d="M18.8 0L0 5.3L0 28.7Z" fill="#e3b700" stroke="#000000"></path><path d="M728.3 25.7L675 29.7L694.5 86.3Z" fill="#f78d00" stroke="#000000"></path><path d="M675 0L676.5 0L333.3 -26.7Z" fill="#e3b700" stroke="#000000"></path><path d="M675 924.7L720.3 900L675 900Z" fill="#1f00ff" stroke="#000000"></path><path d="M222.5 -29.7L0 0L65.5 -5.7Z" fill="#f78d00" stroke="#000000"></path><path d="M18.8 0L0 0L0 5.3Z" fill="#e7009f" stroke="#000000"></path><path d="M0 5.3L0 0L-51.2 68Z" fill="#ff0045" stroke="#000000"></path><path d="M-57.2 900L0 854.7L-5.5 788.3Z" fill="#ff001d" stroke="#000000"></path><path d="M0 900L0 931.7L40.3 917.3Z" fill="#ff0045" stroke="#000000"></path><path d="M40.3 917.3L0 931.7L148.3 942.7Z" fill="#b200d1" stroke="#000000"></path><path d="M-57.2 900L-5.5 788.3L-20.2 662Z" fill="#e7009f" stroke="#000000"></path><path d="M728.3 653.3L728.3 25.7L725.3 120Z" fill="#ff001d" stroke="#000000"></path><path d="M725.3 120L728.3 25.7L694.5 86.3Z" fill="#ff006f" stroke="#000000"></path><path d="M-50.2 301.3L-57.2 900L-20.2 662Z" fill="#c6dc00" stroke="#000000"></path><path d="M-51.2 68L-57.2 900L-50.2 301.3Z" fill="#e3b700" stroke="#000000"></path><path d="M728.3 653.3L729.3 0L728.3 25.7Z" fill="#ff0045" stroke="#000000"></path><path d="M728.3 25.7L729.3 0L676.5 0Z" fill="#e7009f" stroke="#000000"></path><path d="M676.5 0L729.3 0L333.3 -26.7Z" fill="#c6dc00" stroke="#000000"></path></g></svg>