<svg xmlns="http://www.w3.org/2000/svg" viewBox="0 0 452.65 500"><defs><style>.cls-1{fill:#a5a7b1;}.cls-2{fill:#f4f6f9;}.cls-3{fill:#b8bac5;}.cls-4{fill:#d5d7e2;}.cls-5{fill:#e9eaf4;}.cls-6{fill:#4fa0ca;opacity:0.2;}.cls-7{opacity:0.8;}.cls-8{fill:#252935;}.cls-9{fill:#2b303f;}.cls-10{fill:#3a4151;}.cls-11{fill:none;}.cls-12{fill:#fff;}.cls-13{fill:#d6d8e5;opacity:0.4;}.cls-14{fill:#e4e6ef;}.cls-15{fill:#28221c;}.cls-16{fill:#99b524;}.cls-17{fill:#a6ce28;}.cls-18{fill:#c1c4d3;}.cls-19{isolation:isolate;}.cls-20{fill:#161921;}.cls-21{fill:#252936;}.cls-22{fill:#323846;}.cls-23{fill:#6f7077;}.cls-24{fill:#6b6c73;}.cls-25{fill:#9597a0;}.cls-26{fill:#8d8f97;}.cls-27{fill:#92939c;}.cls-28{fill:#9a9ca5;}.cls-29{fill:#73747b;}.cls-30{fill:#ffcea9;}.cls-31{fill:#ededed;}.cls-32{fill:#2b2a30;}.cls-33{fill:#bf4b4b;}.cls-34{fill:#e26d6d;}.cls-35{fill:#f4f4f4;}</style></defs><title>TV_SVG</title><g id="Слой_2" data-name="Слой 2"><g id="Слой_1-2" data-name="Слой 1"><polygon class="cls-1" points="182.72 233.44 235.89 202.55 235.68 274.51 182.52 305.41 182.72 233.44"/><polygon class="cls-2" points="182.73 233.44 182.71 239.2 182.7 241.44 182.62 269.43 182.52 305.41 182.26 305.26 72.5 241.89 72.71 169.93 182.26 233.18 182.7 233.43 182.73 233.44"/><polygon class="cls-2" points="292.63 332.95 292.52 368.92 292.28 368.78 183.13 305.77 182.7 305.51 182.52 305.41 182.62 269.43 182.7 269.48 183.13 269.72 213.62 287.33 213.63 287.33 292.63 332.95"/><polygon class="cls-1" points="292.63 332.94 345.79 302.05 345.69 338.03 292.52 368.92 292.63 332.94"/><polygon class="cls-3" points="182.62 269.43 235.78 238.53 345.79 302.05 292.63 332.94 182.62 269.43"/><polygon class="cls-1" points="292.73 296.95 345.89 266.06 345.88 271.81 292.71 302.71 292.73 296.95"/><polygon class="cls-2" points="292.73 296.95 292.71 302.71 182.71 239.2 182.72 233.44 292.73 296.95"/><polygon class="cls-4" points="399.48 358.88 452.65 330.49 452.65 397.76 399.48 428.65 399.48 358.88"/><polygon class="cls-5" points="345.89 266.06 235.89 202.55 125.87 139.03 72.71 169.93 182.72 233.44 292.73 296.95 399.48 358.88 452.65 330.49 345.89 266.06"/><polygon class="cls-2" points="399.48 358.88 399.48 428.65 293.15 369.27 292.71 369.02 292.52 368.92 292.63 332.95 292.71 306.61 292.72 302.71 292.73 298.22 292.73 296.96 297.7 299.82 323.74 314.87 345.72 327.55 399.48 358.88"/><polygon class="cls-6" points="182.7 239.27 182.7 269.54 292.62 332.94 292.71 302.7 182.7 239.27"/><g class="cls-7"><path class="cls-8" d="M330.63,332.37h0a.86.86,0,0,0-.14.13.58.58,0,0,0-.12.1h0a.53.53,0,0,0-.08.17v2.61a.43.43,0,0,1,.09-.26s.08-.07.11-.11a1.12,1.12,0,0,1,.16-.13l1.77-1v-2.53Z"/><path class="cls-9" d="M327.89,334.34a1.74,1.74,0,0,1-1.05-1.47v2.52a1.8,1.8,0,0,0,1.05,1.48l16.57,9.57v-2.53Z"/><path class="cls-8" d="M349.51,343.91a4.24,4.24,0,0,1-1,.38,4.56,4.56,0,0,1-.68.13c-.23,0-.46.07-.7.08h-.3a5.81,5.81,0,0,1-1.11-.13h-.1a4.24,4.24,0,0,1-1.16-.45v2.53a4.43,4.43,0,0,0,1.14.44h0l.1,0a5.87,5.87,0,0,0,.75.12h.92a3.43,3.43,0,0,0,.44-.09,5.09,5.09,0,0,0,.68-.12l.21,0a4.59,4.59,0,0,0,.78-.34l2.32-1.35v-2.53Z"/><path class="cls-10" d="M351.83,342.56l-2.32,1.35a5.55,5.55,0,0,1-5.05,0l-16.57-9.57c-1.4-.8-1.41-2.12,0-2.92l2.32-1.35,2.2,1.27-1.76,1a.54.54,0,0,0,0,1l15.47,8.93a1.93,1.93,0,0,0,1.75,0l1.77-1Z"/></g><g class="cls-7"><path class="cls-8" d="M223.33,303.47h0a.89.89,0,0,0-.14.13,1.31,1.31,0,0,0-.12.11h0a.48.48,0,0,0-.08.18s0,.05,0,.08v2.53a.56.56,0,0,1,.08-.27.58.58,0,0,1,.12-.1.73.73,0,0,1,.16-.14l1.76-1v-2.52Z"/><path class="cls-9" d="M220.59,305.44a1.8,1.8,0,0,1-1.05-1.48v2.53a1.74,1.74,0,0,0,1.05,1.47l16.57,9.57V315Z"/><path class="cls-8" d="M242.21,315a4.17,4.17,0,0,1-1,.39,5.09,5.09,0,0,1-.68.12,4.17,4.17,0,0,1-.71.08c-.1,0-.2,0-.3,0a6.73,6.73,0,0,1-1.1-.12l-.1,0a4.24,4.24,0,0,1-1.16-.45v2.53a4.5,4.5,0,0,0,1.13.44h.13a4.81,4.81,0,0,0,.76.12h.91c.16,0,.29-.06.44-.08a5.25,5.25,0,0,0,.69-.13l.21,0a3.91,3.91,0,0,0,.78-.34l2.32-1.35v-2.52Z"/><path class="cls-10" d="M244.53,313.66,242.21,315a5.53,5.53,0,0,1-5,0l-16.58-9.56c-1.39-.81-1.4-2.12,0-2.93l2.32-1.35,2.2,1.28-1.77,1c-.48.28-.48.73,0,1l15.47,8.93a1.93,1.93,0,0,0,1.75,0l1.77-1Z"/></g><g class="cls-7"><path class="cls-8" d="M113.82,208.51h0a1.79,1.79,0,0,0-.14.13.55.55,0,0,0-.11.1h0a.36.36,0,0,0-.07.17.28.28,0,0,0,0,.09v2.52a.43.43,0,0,1,.09-.26s.08-.07.11-.11a1.12,1.12,0,0,1,.16-.13l1.77-1v-2.52Z"/><path class="cls-9" d="M111.08,210.48a1.78,1.78,0,0,1-1-1.47v2.53a1.8,1.8,0,0,0,1,1.47l16.58,9.57v-2.53Z"/><path class="cls-8" d="M132.7,220.05a3.91,3.91,0,0,1-1,.38,5.1,5.1,0,0,1-.68.13c-.24,0-.47.07-.71.08H130a5.61,5.61,0,0,1-1.1-.13h-.1a4.31,4.31,0,0,1-1.17-.45v2.53a4.36,4.36,0,0,0,1.13.44h0l.1,0a6.17,6.17,0,0,0,.75.12h.92c.15,0,.29-.06.44-.08s.46-.07.68-.13l.21,0a4.27,4.27,0,0,0,.78-.34l2.32-1.35V218.7Z"/><path class="cls-10" d="M135,218.7l-2.32,1.35a5.55,5.55,0,0,1-5,0l-16.57-9.57c-1.4-.8-1.4-2.12,0-2.92l2.32-1.35,2.21,1.28-1.77,1a.54.54,0,0,0,0,1l15.47,8.93a1.93,1.93,0,0,0,1.75,0l1.77-1Z"/></g><polyline class="cls-11" points="293.14 298.22 293.14 302.7 293.14 306.61 293.14 332.9 293.14 368.82 293.14 369.02"/><polygon class="cls-12" points="293.58 297.43 293.58 369.27 293.14 369.02 292.95 368.92 292.71 368.78 292.71 296.95 293.58 297.43"/><polyline class="cls-11" points="182.27 231.31 182.27 233.63 182.27 239.4 182.27 241.64 182.27 269.58 182.27 269.67 182.27 305.5 182.27 305.71"/><polygon class="cls-12" points="182.7 233.43 182.7 305.96 182.27 305.71 182.08 305.6 181.83 305.45 181.83 232.92 182.7 233.43"/><ellipse class="cls-13" cx="403.51" cy="326.84" rx="14.52" ry="8.38"/><ellipse class="cls-4" cx="405.58" cy="325.28" rx="14.52" ry="8.38"/><polygon class="cls-4" points="386.15 296.62 391.23 325.86 420.06 325.86 425.02 296.83 386.15 296.62"/><ellipse class="cls-14" cx="405.58" cy="296.26" rx="19.46" ry="11.23"/><path class="cls-15" d="M405.58,305a25.43,25.43,0,0,1-12.51-3c-2.84-1.63-4.46-3.75-4.46-5.79s1.62-4.16,4.46-5.8a27.94,27.94,0,0,1,25,0c2.84,1.64,4.46,3.75,4.46,5.8s-1.62,4.16-4.46,5.79A25.44,25.44,0,0,1,405.58,305Z"/><path class="cls-16" d="M414,287.41a24.58,24.58,0,0,0-8.26-20.23v0h0l-.06-.05v.11a24.58,24.58,0,0,0-8.26,20.23l-11.11-1.06c4.69,17.7,19.44,16.17,19.44,16.17v0c1.11.09,14.87.8,19.37-16.17Z"/><path class="cls-17" d="M405.7,302.56s-1-13.77-19.49-23.05C386.21,279.51,381.83,302.4,405.7,302.56Z"/><path class="cls-17" d="M405.58,302.56s1-13.77,19.5-23.05C425.08,279.51,429.46,302.4,405.58,302.56Z"/><path class="cls-2" d="M323.79,262.18a.25.25,0,0,0,0-.08V262a.28.28,0,0,1,0-.09s0-.07,0-.1h0s0-.06,0-.09a.3.3,0,0,1,0-.1l0-.09a.3.3,0,0,0,0-.1.24.24,0,0,1,0-.08h0l0-.09,0-.1a.36.36,0,0,0,0-.09l0-.09,0-.07h0l0-.09-.05-.1-.05-.11-.08-.13h0c-.05-.08-.09-.16-.14-.23L323,260h0a.76.76,0,0,1-.08-.11.27.27,0,0,1-.07-.08l-.07-.09-.08-.08v0h0l-.05-.06-.08-.07-.08-.08-.09-.07,0,0h0l0,0-.08-.06-.08-.06-.08-.05-.08-.05h0l-102.88-59.4-.06,0-.07,0-.08,0-.07,0-.08,0h0l-.05,0-.08,0-.08,0h-.34l-.11,0h0l-.13,0-.15.07-13.17,7.66a.81.81,0,0,1,.27-.11h0a1.13,1.13,0,0,1,.32,0h0a1.55,1.55,0,0,1,.35.07h0a1.78,1.78,0,0,1,.38.17l102.88,59.4a2.12,2.12,0,0,1,.36.25h0a2.5,2.5,0,0,1,.34.31h0c.11.12.21.24.31.37h0a3.74,3.74,0,0,1,.27.42h0c.08.14.15.29.22.43h0a4.13,4.13,0,0,1,.17.45h0a3.69,3.69,0,0,1,.11.45h0a3.4,3.4,0,0,1,0,.45,1.61,1.61,0,0,1,0,.39h0a1.59,1.59,0,0,1-.1.33h0a.91.91,0,0,1-.11.16.86.86,0,0,1-.29.28l13.18-7.65a1.07,1.07,0,0,0,.28-.28s0,0,0,0l.07-.12h0a.69.69,0,0,0,0-.1.3.3,0,0,0,0-.1.29.29,0,0,1,0-.09v0h0v0s0-.06,0-.09a.28.28,0,0,0,0-.09s0-.06,0-.09v-.09h0Z"/><path class="cls-18" d="M308.77,266.74a4,4,0,0,1,1.84,3.19c0,1.17-.83,1.64-1.86,1.05L205.88,211.59a4.07,4.07,0,0,1-1.85-3.2c0-1.18.83-1.64,1.86-1Z"/><polygon class="cls-4" points="267.05 212.88 271.13 210.51 271.07 234.41 266.98 236.78 267.05 212.88"/><polygon class="cls-3" points="256.75 206.94 260.84 204.57 271.13 210.51 267.05 212.88 256.75 206.94"/><polygon class="cls-5" points="267.05 212.88 266.98 236.78 256.69 230.84 256.75 206.94 267.05 212.88"/><path class="cls-18" d="M374.71,134.43l-.39,137.68a4.91,4.91,0,0,1-.08.89v0a3,3,0,0,1-.23.73h0a1.8,1.8,0,0,1-.31.48l-.11.15a2.6,2.6,0,0,1-.45.37l3.27-1.9a2,2,0,0,0,.45-.38.76.76,0,0,0,.11-.14,1.3,1.3,0,0,0,.15-.18,2.69,2.69,0,0,0,.16-.29h0l.09-.21c0-.07.05-.14.07-.22l.06-.21s0-.06,0-.09v0a.29.29,0,0,1,0-.09,1.23,1.23,0,0,0,0-.2l0-.19a1.34,1.34,0,0,1,0-.2v-.2h0L378,132.53Z"/><path class="cls-4" d="M378,132.34c0-.06,0-.13,0-.2a714269097865.95,714269097865.95,0,0,1,0-.4l0-.21h0l0-.19c0-.08,0-.15-.05-.22a1.6,1.6,0,0,0-.05-.21c0-.08,0-.15,0-.22l-.06-.18h0v0a1.72,1.72,0,0,0-.07-.21,1.42,1.42,0,0,0-.07-.22c0-.06-.05-.13-.08-.2s-.05-.13-.08-.2l-.06-.15h0v0l-.09-.2c0-.08-.07-.15-.11-.22l-.12-.25-.15-.26,0,0,0-.05c-.1-.17-.2-.33-.31-.49s-.17-.25-.26-.37h0l-.18-.23-.16-.2c-.05-.06-.1-.13-.16-.19l-.16-.18,0,0h0l-.12-.13c-.06-.06-.11-.12-.17-.17l-.18-.17-.19-.16-.09-.08,0,0-.07,0-.18-.14-.18-.13-.18-.11-.17-.11,0,0L157.64.57h0l0,0h0l-.09-.05L157.34.4l-.17-.07L157,.26l-.17-.07h0l-.12,0-.17-.05-.17,0-.18,0L156,0h-.47l-.23,0h0L155,.12l-.34.16-3.27,1.9A2.14,2.14,0,0,1,152,2h0a2.25,2.25,0,0,1,.69,0h0a3.6,3.6,0,0,1,.76.17h0a5.92,5.92,0,0,1,.82.38L370.6,127.31a6.06,6.06,0,0,1,.82.57h0a8.31,8.31,0,0,1,.75.71h0a10.27,10.27,0,0,1,1.29,1.75l0,0a8.67,8.67,0,0,1,.49,1h0a7.72,7.72,0,0,1,.38,1h0a6.81,6.81,0,0,1,.24,1h0a6.85,6.85,0,0,1,.08,1l3.27-1.9Z"/><path class="cls-5" d="M370.6,127.31a9.06,9.06,0,0,1,4.11,7.12l-.39,137.68c0,2.62-1.87,3.67-4.14,2.36L154,149.63a9.06,9.06,0,0,1-4.11-7.12l.39-137.68c0-2.63,1.87-3.68,4.14-2.36Z"/><polygon class="cls-9" points="369.89 133.18 369.51 269.59 153.81 145.06 154.2 8.65 369.89 133.18"/><g class="cls-19"><path class="cls-20" d="M130.7,302.46v0a.56.56,0,0,1-.09.17l0,0a.8.8,0,0,1-.15.17l-.12.09-.12.08-26.37,15.33-.61.31-.19.08-.5.19-.19.06-.33.1-.26.07-.36.07-.24,0c-.24.05-.49.08-.74.11h-.23a3.11,3.11,0,0,1-.43,0H98.47l-.3,0-.32,0-.29,0-.34-.06L97,319.2l-.4-.1-.23-.06c-.23-.07-.47-.14-.69-.23l-.32-.14-.17-.07-.48-.25a4.45,4.45,0,0,1-1.43-1.25,2.37,2.37,0,0,1-.47-1.42v2.19a3.25,3.25,0,0,0,1.91,2.67c.15.08.31.17.47.24l.17.08.29.12,0,0,.7.23.05,0,.17,0,.4.1.11,0,.16,0,.34.06.14,0h.15l.33,0,.15,0h.15l.33,0h.93l.44,0h.23c.25,0,.49-.06.73-.1h0l.21,0,.36-.08.25-.07.33-.09.08,0,.11,0,.51-.2.18-.08a5.76,5.76,0,0,0,.61-.3l26.37-15.33h0l.09-.07.13-.1h0l.11-.13,0,0,0,0,0,0,.05-.1v0s0,0,0-.07a.41.41,0,0,0,0-.11h0v-2.19A1.25,1.25,0,0,1,130.7,302.46Z"/><path class="cls-21" d="M130.18,301.51a.8.8,0,0,1,0,1.51l-26.37,15.33a10.13,10.13,0,0,1-9.16,0c-2.53-1.46-2.54-3.84,0-5.3L121,297.72a2.9,2.9,0,0,1,2.63,0Z"/></g><path class="cls-22" d="M129.86,301.6a.61.61,0,0,1,0,1.16l-26.37,15.32a9.34,9.34,0,0,1-8.52,0c-2.36-1.36-2.37-3.57,0-4.93l26.37-15.33a2.18,2.18,0,0,1,2,0Z"/><path d="M120.62,299.46l1.19.68a.73.73,0,0,0,.39.1.71.71,0,0,0,.39-.1l.07,0a.3.3,0,0,0,.18-.26.31.31,0,0,0-.18-.26l-1.19-.69a.88.88,0,0,0-.79,0l-.07,0a.3.3,0,0,0-.17.26A.31.31,0,0,0,120.62,299.46Z"/><path d="M119,301.07a1.67,1.67,0,0,0,1.51,0,.57.57,0,0,0,.33-.46.56.56,0,0,0-.34-.47,1.62,1.62,0,0,0-1.5,0,.56.56,0,0,0-.33.47A.57.57,0,0,0,119,301.07Z"/><path d="M116.94,302.28a1.67,1.67,0,0,0,1.51,0,.57.57,0,0,0,.33-.47.58.58,0,0,0-.33-.47,1.67,1.67,0,0,0-1.51,0,.5.5,0,0,0,0,.94Z"/><path d="M114.86,303.49a1.67,1.67,0,0,0,1.51,0,.5.5,0,0,0,0-.94,1.67,1.67,0,0,0-1.51,0,.5.5,0,0,0,0,.94Z"/><path d="M112.78,304.7a1.55,1.55,0,0,0,.76.18,1.51,1.51,0,0,0,.75-.18.56.56,0,0,0,.33-.47.57.57,0,0,0-.33-.47,1.67,1.67,0,0,0-1.51,0,.57.57,0,0,0-.33.47A.58.58,0,0,0,112.78,304.7Z"/><path d="M123.88,301.47a1.08,1.08,0,0,0,.54.13,1,1,0,0,0,.54-.13.37.37,0,0,0,0-.69,1.21,1.21,0,0,0-1.08,0,.37.37,0,0,0,0,.69Z"/><path d="M121.8,301.74a.5.5,0,0,0,0,.94,1.67,1.67,0,0,0,1.51,0,.57.57,0,0,0,.33-.47.56.56,0,0,0-.34-.47A1.65,1.65,0,0,0,121.8,301.74Z"/><path d="M119.72,303.89a1.55,1.55,0,0,0,.76.18,1.51,1.51,0,0,0,.75-.18.5.5,0,0,0,0-.94,1.67,1.67,0,0,0-1.51,0,.57.57,0,0,0-.33.47A.58.58,0,0,0,119.72,303.89Z"/><path d="M117.64,305.1a1.69,1.69,0,0,0,1.52,0,.5.5,0,0,0,0-.94,1.67,1.67,0,0,0-1.51,0,.57.57,0,0,0-.33.47A.58.58,0,0,0,117.64,305.1Z"/><path d="M116.32,306.48a1.55,1.55,0,0,0,.76-.18.54.54,0,0,0,.32-.46.59.59,0,0,0-.33-.48,1.67,1.67,0,0,0-1.51,0,.58.58,0,0,0-.33.47.57.57,0,0,0,.33.47A1.58,1.58,0,0,0,116.32,306.48Z"/><path d="M128.23,302.79l-1.2-.68a.83.83,0,0,0-.78,0l-.07,0a.28.28,0,0,0,0,.52l1.19.69a.83.83,0,0,0,.39.09.84.84,0,0,0,.4-.09l.07,0a.3.3,0,0,0,.17-.27A.31.31,0,0,0,128.23,302.79Z"/><path d="M126.09,303.35a1.67,1.67,0,0,0-1.51,0,.57.57,0,0,0-.33.47.58.58,0,0,0,.33.47,1.55,1.55,0,0,0,.76.18,1.44,1.44,0,0,0,.75-.19.55.55,0,0,0,.33-.46A.57.57,0,0,0,126.09,303.35Z"/><path d="M124,304.56a1.61,1.61,0,0,0-1.51,0,.55.55,0,0,0-.33.46.57.57,0,0,0,.33.47,1.55,1.55,0,0,0,.76.18,1.51,1.51,0,0,0,.75-.18.57.57,0,0,0,.33-.46A.56.56,0,0,0,124,304.56Z"/><path d="M121.93,305.76a1.67,1.67,0,0,0-1.51,0,.57.57,0,0,0-.32.47.55.55,0,0,0,.33.47,1.51,1.51,0,0,0,.75.18,1.58,1.58,0,0,0,.76-.18.55.55,0,0,0,.32-.47A.58.58,0,0,0,121.93,305.76Z"/><path d="M119.85,307a1.65,1.65,0,0,0-1.5,0,.55.55,0,0,0-.33.47.57.57,0,0,0,.33.47,1.51,1.51,0,0,0,.75.18,1.58,1.58,0,0,0,.76-.18.55.55,0,0,0,.32-.47A.55.55,0,0,0,119.85,307Z"/><path d="M117.77,308.18a1.32,1.32,0,0,0-1.06-.2.2.2,0,0,0-.11.18c0,.15.17.34.45.5a1.78,1.78,0,0,0,.82.25.58.58,0,0,0,.25-.05.19.19,0,0,0,.1-.17C118.22,308.53,118.05,308.34,117.77,308.18Z"/><path d="M116.48,308.93a1.34,1.34,0,0,0-1.07-.2.2.2,0,0,0-.1.18c0,.15.17.34.45.51a1.81,1.81,0,0,0,.81.24.47.47,0,0,0,.25-.05.2.2,0,0,0,.11-.17C116.93,309.28,116.76,309.09,116.48,308.93Z"/><path d="M114.81,309.9a1.65,1.65,0,0,0-1.5,0,.55.55,0,0,0-.33.47.57.57,0,0,0,.33.47,1.67,1.67,0,0,0,1.51,0,.57.57,0,0,0,.32-.47A.55.55,0,0,0,114.81,309.9Z"/><path d="M112.67,305.48c0-.16-.17-.35-.45-.51a1.34,1.34,0,0,0-1.07-.2.19.19,0,0,0-.1.18c0,.15.16.34.44.5a1.79,1.79,0,0,0,.83.25.43.43,0,0,0,.24-.05A.2.2,0,0,0,112.67,305.48Z"/><path d="M110.2,306.21a1.78,1.78,0,0,0,.82.25.58.58,0,0,0,.25,0,.2.2,0,0,0,.1-.18c0-.15-.17-.34-.45-.51a1.31,1.31,0,0,0-1.06-.19.2.2,0,0,0-.11.17C109.75,305.86,109.92,306.05,110.2,306.21Z"/><path d="M107.75,307.63a1.51,1.51,0,0,0,.75.18,1.48,1.48,0,0,0,.76-.19.54.54,0,0,0,.32-.46.57.57,0,0,0-.33-.47,1.64,1.64,0,0,0-1.51,0,.55.55,0,0,0-.33.46A.57.57,0,0,0,107.75,307.63Z"/><path d="M115,306.58a1.31,1.31,0,0,0-1.07-.2.19.19,0,0,0-.1.17c0,.16.16.35.44.51a1.78,1.78,0,0,0,.82.25.58.58,0,0,0,.25-.05.21.21,0,0,0,.11-.18C115.45,306.93,115.28,306.74,115,306.58Z"/><path d="M114.05,308a.21.21,0,0,0,.1-.18c0-.15-.17-.34-.45-.5a1.28,1.28,0,0,0-1.06-.2.2.2,0,0,0-.11.18c0,.15.17.34.45.5a1.72,1.72,0,0,0,.82.25A.62.62,0,0,0,114.05,308Z"/><path d="M108.83,308.29h-.06v1.24h0a2.45,2.45,0,0,1,.72.26,1.29,1.29,0,0,1,.45.41l0,0h2.07l0-.08a2.27,2.27,0,0,0-1.12-1.24A5.34,5.34,0,0,0,108.83,308.29Z"/><path d="M106.29,310.21a1.86,1.86,0,0,1,1.18-.67h0v-1.24h-.06c-1.62.17-2.91.92-3.2,1.88l0,.07h2.06Z"/><path d="M109.22,310.58a.57.57,0,0,0-.33-.46,1.61,1.61,0,0,0-1.48,0,.49.49,0,0,0,0,.92,1.63,1.63,0,0,0,1.49,0A.56.56,0,0,0,109.22,310.58Z"/><path d="M110,311a1.75,1.75,0,0,1-1.16.67h0v1.24h.06c1.63-.16,2.91-.91,3.2-1.87l0-.07H110Z"/><path d="M107.48,311.63a2.63,2.63,0,0,1-.73-.27,1.39,1.39,0,0,1-.45-.41l0,0h-2l0,.07a2.33,2.33,0,0,0,1.11,1.24,5.39,5.39,0,0,0,2.11.63h.06v-1.24Z"/><path class="cls-3" d="M122.67,299.25a.22.22,0,0,1,0,.42l-.07,0a.79.79,0,0,1-.73,0l-1.19-.69c-.2-.11-.2-.3,0-.42l.07,0a.79.79,0,0,1,.73,0Z"/><path class="cls-3" d="M120.53,299.8c.4.23.41.61,0,.84a1.63,1.63,0,0,1-1.46,0,.44.44,0,0,1,0-.84A1.61,1.61,0,0,1,120.53,299.8Z"/><path class="cls-3" d="M118.45,301c.41.23.41.61,0,.84a1.63,1.63,0,0,1-1.46,0,.44.44,0,0,1,0-.84A1.58,1.58,0,0,1,118.45,301Z"/><path class="cls-3" d="M116.37,302.22c.41.23.41.6,0,.84a1.61,1.61,0,0,1-1.45,0,.45.45,0,0,1,0-.85A1.58,1.58,0,0,1,116.37,302.22Z"/><path class="cls-3" d="M114.3,303.42c.4.24.4.61,0,.84a1.58,1.58,0,0,1-1.45,0c-.41-.24-.41-.62,0-.85A1.63,1.63,0,0,1,114.3,303.42Z"/><path class="cls-3" d="M125,300.44a.32.32,0,0,1,0,.6,1.17,1.17,0,0,1-1,0,.32.32,0,0,1,0-.6A1.17,1.17,0,0,1,125,300.44Z"/><path class="cls-3" d="M123.31,301.41c.4.23.41.61,0,.84a1.63,1.63,0,0,1-1.46,0,.44.44,0,0,1,0-.84A1.55,1.55,0,0,1,123.31,301.41Z"/><path class="cls-3" d="M121.23,302.61c.41.24.41.61,0,.85a1.63,1.63,0,0,1-1.46,0,.45.45,0,0,1,0-.85A1.61,1.61,0,0,1,121.23,302.61Z"/><path class="cls-3" d="M119.15,303.82c.41.23.41.61,0,.84a1.55,1.55,0,0,1-1.45,0c-.41-.23-.41-.61,0-.84A1.61,1.61,0,0,1,119.15,303.82Z"/><path class="cls-3" d="M117.08,305a.44.44,0,0,1,0,.84,1.61,1.61,0,0,1-1.45,0c-.41-.23-.4-.61,0-.84A1.61,1.61,0,0,1,117.08,305Z"/><path class="cls-3" d="M128.23,302.46c.2.12.2.31,0,.42l-.07,0a.79.79,0,0,1-.73,0l-1.19-.68a.23.23,0,0,1,0-.43l.07,0a.82.82,0,0,1,.73,0Z"/><path class="cls-3" d="M126.09,303c.41.23.41.61,0,.84a1.58,1.58,0,0,1-1.45,0c-.41-.23-.41-.61,0-.84A1.61,1.61,0,0,1,126.09,303Z"/><path class="cls-3" d="M124,304.22a.44.44,0,0,1,0,.84,1.61,1.61,0,0,1-1.45,0,.44.44,0,0,1,0-.84A1.63,1.63,0,0,1,124,304.22Z"/><path class="cls-3" d="M121.94,305.43a.44.44,0,0,1,0,.84,1.61,1.61,0,0,1-1.45,0,.44.44,0,0,1,0-.84A1.61,1.61,0,0,1,121.94,305.43Z"/><path class="cls-3" d="M119.86,306.64c.4.23.4.6,0,.84a1.61,1.61,0,0,1-1.45,0,.44.44,0,0,1,0-.84A1.55,1.55,0,0,1,119.86,306.64Z"/><path class="cls-23" d="M118.18,308.37h0a.17.17,0,0,1-.06.06.4.4,0,0,1-.18,0h0a.67.67,0,0,1-.24,0h0a1.29,1.29,0,0,1-.26-.08h0a1.75,1.75,0,0,1-.28-.13c-.26-.15-.42-.33-.42-.46v.37c0,.12.16.3.42.46l.26.12h.06l.12,0,.12,0H118l0,0,.05,0h0l0,0v0h0v-.05h0v-.37A.08.08,0,0,1,118.18,308.37Z"/><path class="cls-3" d="M117.78,307.84c.37.22.53.48.34.59a1.29,1.29,0,0,1-1-.2c-.37-.21-.52-.48-.34-.58A1.28,1.28,0,0,1,117.78,307.84Z"/><path class="cls-23" d="M116.91,309.06a.14.14,0,0,1,0,.06h0l-.06.05a.34.34,0,0,1-.18,0h0l-.24,0h0a1.45,1.45,0,0,1-.26-.07h0a1.47,1.47,0,0,1-.28-.14.91.91,0,0,1-.39-.35.23.23,0,0,1,0-.11h0v.36c0,.13.15.3.42.46a1.23,1.23,0,0,0,.26.12h0l.12,0,.12,0h.41l0,0h0l0,0,0,0h0v-.07h0Z"/><path class="cls-3" d="M116.48,308.6c.38.21.53.47.35.58a1.24,1.24,0,0,1-1-.2c-.38-.21-.53-.47-.34-.58A1.23,1.23,0,0,1,116.48,308.6Z"/><path class="cls-23" d="M115.11,310.09h0a.31.31,0,0,1,0,.1v0l-.08.09-.07.05-.07,0a1.07,1.07,0,0,1-.31.13h-.05a2,2,0,0,1-.35,0h0a2.33,2.33,0,0,1-.37,0h0a1.18,1.18,0,0,1-.33-.12.52.52,0,0,1-.3-.43v.37a.52.52,0,0,0,.3.42l.15.07.12,0,.06,0h0l.1,0h.42l.13,0,.06,0h.05l.09,0,.22-.1h0l0,0,.07-.05h0l.06-.07v0l0,0,0-.06h0l0,0v-.06h0V310A.34.34,0,0,1,115.11,310.09Z"/><path class="cls-3" d="M114.82,309.56c.4.24.4.61,0,.84a1.58,1.58,0,0,1-1.45,0,.45.45,0,0,1,0-.85A1.61,1.61,0,0,1,114.82,309.56Z"/><path class="cls-3" d="M112.22,304.64c.38.21.53.47.35.58a1.25,1.25,0,0,1-1-.2c-.37-.21-.53-.48-.35-.58A1.24,1.24,0,0,1,112.22,304.64Z"/><path class="cls-23" d="M120.68,299.39l1.19.69.07,0,.06,0h.49l.11-.05.07,0h0l.06,0,0,0h0v0l0,0a0,0,0,0,1,0,0v0h0v-.37a.15.15,0,0,1,0,.11h0a.35.35,0,0,1-.11.09l-.07,0a.44.44,0,0,1-.16.06h0l-.18,0h0l-.19,0h0l-.17-.07-1.19-.69a.24.24,0,0,1-.15-.21h0v.37A.27.27,0,0,0,120.68,299.39Z"/><path class="cls-23" d="M119.08,301l.15.07.12,0H120l.13,0h.11l.09,0a.92.92,0,0,0,.23-.09h0l0,0,.07,0h0l.06-.07h0v0l0,0,0-.06h0a0,0,0,0,1,0,0v-.06h0v-.37a.41.41,0,0,1,0,.11h0l0,.1h0l-.08.09-.07.06-.06,0a1.52,1.52,0,0,1-.32.12h0a2,2,0,0,1-.35.05h0a1.57,1.57,0,0,1-.37-.05h0a1.26,1.26,0,0,1-.34-.13.59.59,0,0,1-.28-.31.43.43,0,0,1,0-.11h0v.36A.52.52,0,0,0,119.08,301Z"/><path class="cls-23" d="M117.58,302.38h.32l.14,0h0l0,0,.09,0a.94.94,0,0,0,.23-.1h0l0,0,.07-.06h0l.06-.07v0h0v0s0,0,0-.06h0s0,0,0,0a.13.13,0,0,1,0-.06h0v-.37a.43.43,0,0,1,0,.11h0l0,.09v0l-.09.09a.18.18,0,0,1-.07.05l-.06.05a1.33,1.33,0,0,1-.32.12h0a1.34,1.34,0,0,1-.35,0h0a1.58,1.58,0,0,1-.38,0h0a1.26,1.26,0,0,1-.34-.13.52.52,0,0,1-.3-.42v.36a.51.51,0,0,0,.3.42l.15.08.12,0h.11l.1,0Z"/><path class="cls-23" d="M115.3,303.56l.1,0h.42l.14,0,.05,0h0l.09,0,.23-.1h0l0,0,.07-.06h0a.19.19,0,0,0,.06-.07l0,0h0s0,0,0,0a.14.14,0,0,0,0-.06h0v0s0,0,0-.06h0v-.36a.36.36,0,0,1,0,.1v0a.41.41,0,0,1,0,.09v0l-.08.09-.08.05-.06.05a1.33,1.33,0,0,1-.32.12h0a1.34,1.34,0,0,1-.35,0h0a1.58,1.58,0,0,1-.38,0h0a1.08,1.08,0,0,1-.33-.13.66.66,0,0,1-.23-.2.4.4,0,0,1-.08-.23h0V303a.51.51,0,0,0,.3.42l.15.07.13.05h.1Z"/><path class="cls-23" d="M114.58,304a.31.31,0,0,1,0,.1v0l-.08.09-.08.05-.06,0a1.07,1.07,0,0,1-.31.13h0a2.2,2.2,0,0,1-.36,0h0a2.33,2.33,0,0,1-.38,0h0a1.18,1.18,0,0,1-.33-.12.65.65,0,0,1-.29-.31.5.5,0,0,1,0-.12h0v.37a.51.51,0,0,0,.31.42.61.61,0,0,0,.14.07l.13,0,.06,0h0l.11,0h.42l.13,0,.06,0h0l.08,0,.23-.1h0a.1.1,0,0,0,0,0l.08-.05h0l.07-.07v0l0,0a.14.14,0,0,0,0-.06h0s0,0,0,0a.13.13,0,0,0,0-.06h0v-.36a.36.36,0,0,1,0,.1Z"/><path class="cls-23" d="M123.94,301.4l.11.05a.11.11,0,0,0,.08,0h.08l.07,0h.47l.06,0a.46.46,0,0,0,.16-.07h0l0,0,.06,0h0l.05-.05h0l0,0s0,0,0,0h0v-.07h0v-.37a.22.22,0,0,1,0,.08h0a.21.21,0,0,1,0,.06v0l-.05.06,0,0,0,0a.73.73,0,0,1-.22.09h0a1,1,0,0,1-.25,0h0a1.09,1.09,0,0,1-.26,0h0a.85.85,0,0,1-.24-.09.56.56,0,0,1-.16-.14.3.3,0,0,1,0-.16v.37A.36.36,0,0,0,123.94,301.4Z"/><path class="cls-23" d="M122.44,302.78h.33l.13,0h0l0,0,.09,0,.23-.1h0l0,0,.07-.06h0l.06-.07v0h0s0,0,0,0,0,0,0-.06h0s0,0,0,0a.13.13,0,0,1,0-.06h0v-.37a.43.43,0,0,1,0,.11h0l0,.09v0l-.09.09-.07.05-.06.05a1.33,1.33,0,0,1-.32.12h0a1.34,1.34,0,0,1-.35,0h0a1.58,1.58,0,0,1-.38,0h0a1.71,1.71,0,0,1-.34-.13l-.13-.1a.45.45,0,0,1-.17-.32h0v.36a.51.51,0,0,0,.3.42l.15.07.12,0,.07,0h0l.1,0Z"/><path class="cls-23" d="M120.37,304h.32l.13,0,.06,0h0l.1,0,.22-.1h0a.1.1,0,0,0,0,0,.18.18,0,0,0,.07,0h0l.06-.07,0,0h0l0,0a.14.14,0,0,0,0-.06h0v0s0,0,0-.06h0V303a.36.36,0,0,1,0,.1v0a.41.41,0,0,1,0,.09v0l-.08.09-.08.05-.06,0a1.43,1.43,0,0,1-.31.12h-.05a2.2,2.2,0,0,1-.36,0h0a2.33,2.33,0,0,1-.38,0h0a1.7,1.7,0,0,1-.34-.12.62.62,0,0,1-.28-.31.5.5,0,0,1,0-.12h0v.37a.52.52,0,0,0,.3.42l.15.07.13,0,.06,0h0l.11,0Z"/><path class="cls-23" d="M118.08,305.17h.11l.1,0h.45l.06,0h0l.09,0,.22-.1h0l.06,0,.07-.05h0l.07-.06v0l0,0a.14.14,0,0,0,0-.06h0s0,0,0,0a.13.13,0,0,0,0-.06h0v-.36a.36.36,0,0,1,0,.1h0a.31.31,0,0,1,0,.1v0l-.08.09-.07.05-.07,0a.84.84,0,0,1-.31.12l0,0a2.2,2.2,0,0,1-.36,0h0a1.58,1.58,0,0,1-.38,0h0a1.08,1.08,0,0,1-.33-.13.5.5,0,0,1-.31-.42v.37a.52.52,0,0,0,.3.42l.15.07.13,0,.06,0h0Z"/><path class="cls-23" d="M117.36,305.57l0,.1h0l-.08.09-.07.06-.07,0a1.05,1.05,0,0,1-.31.12h0a1.47,1.47,0,0,1-.36,0h0a1.5,1.5,0,0,1-.37,0h0a1.2,1.2,0,0,1-.33-.13l-.14-.09a.42.42,0,0,1-.16-.33h0v.36a.51.51,0,0,0,.31.43l.14.07.13,0H116l.1,0h.42l.13,0h.11l.09,0a.85.85,0,0,0,.22-.09h0l.06,0,.07-.05h0l.07-.07h0v0l0,0,0-.05h0v0a0,0,0,0,0,0,0,.13.13,0,0,0,0-.06h0v-.37a.36.36,0,0,1,0,.11Z"/><path class="cls-23" d="M128.35,302.78h0a.25.25,0,0,1-.11.09l-.07,0a.59.59,0,0,1-.16.07h0l-.18,0h0l-.19,0h0l-.17-.07-1.19-.68a.36.36,0,0,1-.11-.1.19.19,0,0,1,0-.12v.37a.27.27,0,0,0,.15.21l1.19.69.08,0,.06,0h.48l.11,0,.07,0h0l.06,0,0,0h0v0s0,0,0,0v0h0v-.37A.2.2,0,0,1,128.35,302.78Z"/><path class="cls-23" d="M126.38,303.55l0,.1h0a.26.26,0,0,1-.09.09l-.07.06-.06,0a.82.82,0,0,1-.32.12l0,0a2,2,0,0,1-.35,0h0a2.33,2.33,0,0,1-.38,0h0a1.08,1.08,0,0,1-.33-.13.56.56,0,0,1-.29-.3.5.5,0,0,1,0-.12h0v.37a.52.52,0,0,0,.3.42l.15.07.13,0,.06,0h0l.1,0h.56l0,0h0l.09,0,.23-.1h0l0,0,.07-.05h0s.05,0,.06-.07h0v0l0,0,0-.05h0s0,0,0,0,0,0,0-.06h0v-.36a.36.36,0,0,1,0,.1Z"/><path class="cls-23" d="M124.3,304.76a.93.93,0,0,1,0,.1h0l-.08.09-.08.06-.06,0a1.43,1.43,0,0,1-.31.12h0a1.47,1.47,0,0,1-.36,0h0a1.58,1.58,0,0,1-.38,0h0a1.2,1.2,0,0,1-.33-.13.61.61,0,0,1-.29-.31.2.2,0,0,1,0-.11h0V305a.51.51,0,0,0,.31.43l.14.07.13,0h.63l.13,0h.1l.09,0a.94.94,0,0,0,.23-.1h0l0,0,.08-.05h0l.07-.07h0v0s0,0,0,0a.14.14,0,0,0,0-.06h0v0a.13.13,0,0,0,0-.06h0v-.37a.43.43,0,0,1,0,.11Z"/><path class="cls-23" d="M122.22,306a.41.41,0,0,1,0,.09v0l-.08.09-.07.05-.07,0a1.43,1.43,0,0,1-.31.12h0a1.47,1.47,0,0,1-.36,0h0a1.5,1.5,0,0,1-.37,0h0a1.2,1.2,0,0,1-.33-.13l-.13-.09a.43.43,0,0,1-.17-.33h0v.36a.49.49,0,0,0,.3.42l.14.08.13,0h.11l.1,0h.42l.13,0h.06l0,0,.08,0a.8.8,0,0,0,.23-.1h0l0,0,.08-.06h0l.07-.07v0h0l0,0,0-.06h0s0,0,0,0a.13.13,0,0,0,0-.06h0v-.37a.43.43,0,0,1,0,.11Z"/><path class="cls-23" d="M120.14,307.18a.41.41,0,0,1,0,.09v0l-.08.09-.07.05-.07.05a1.43,1.43,0,0,1-.31.12h0a1.37,1.37,0,0,1-.36,0h0a1.5,1.5,0,0,1-.37,0h0a1.62,1.62,0,0,1-.33-.13l-.13-.1a.4.4,0,0,1-.17-.32h0v.36a.51.51,0,0,0,.3.42.52.52,0,0,0,.15.07l.12,0,.06,0h.05l.1,0h.42l.13,0,.06,0h0l.09,0,.22-.1h0l.05,0,.07-.06h0l.06-.07v0h0l0,0,0-.06h0a.06.06,0,0,0,0,0,.13.13,0,0,0,0-.06h0v-.36a.18.18,0,0,1,0,.1Z"/><path class="cls-23" d="M112.63,305.17s0,0-.06.05l-.07,0h-.24l-.11,0h0l-.13,0-.17-.06h0a1.34,1.34,0,0,1-.24-.12,1,1,0,0,1-.31-.24.35.35,0,0,1-.11-.22v.37c0,.13.15.3.42.46l.24.11h0l.16.05h0l.12,0h.4l0,0h0l0,0,0,0h0v-.06h0v-.36a.19.19,0,0,1,0,.07Z"/><path class="cls-23" d="M111.33,305.92a.1.1,0,0,1-.06.05s0,0-.07,0h-.37l-.13,0-.16,0,0,0-.25-.11a1.39,1.39,0,0,1-.31-.24.38.38,0,0,1-.11-.22h0v.36c0,.13.15.31.42.46l.24.12h0l.16.06h0l.12,0h.4l0,0h0l0,0h0v0h0v-.06h0v-.36a.1.1,0,0,1,0,.07Z"/><path class="cls-3" d="M110.93,305.39c.37.21.53.48.34.58a1.28,1.28,0,0,1-1-.19c-.37-.22-.53-.48-.34-.59A1.25,1.25,0,0,1,110.93,305.39Z"/><path class="cls-23" d="M109.54,306.88h0a.47.47,0,0,1-.05.1h0a.24.24,0,0,1-.08.09l-.07.06-.07,0a.84.84,0,0,1-.31.12l0,0a2.2,2.2,0,0,1-.36,0h0a2.21,2.21,0,0,1-.37,0h0a1.2,1.2,0,0,1-.33-.13.57.57,0,0,1-.29-.31.36.36,0,0,1,0-.11h0v.36a.51.51,0,0,0,.31.43l.14.07.13,0,.06,0h0l.1,0h.55l.06,0h0l.08,0,.23-.1h0l0,0,.08-.05h0l.07-.06v0l0,0,0-.05h0a.08.08,0,0,0,0,0,.13.13,0,0,0,0-.06h0v-.36A.36.36,0,0,1,109.54,306.88Z"/><path class="cls-3" d="M109.26,306.35a.44.44,0,0,1,0,.84,1.55,1.55,0,0,1-1.45,0c-.4-.23-.41-.61,0-.84A1.63,1.63,0,0,1,109.26,306.35Z"/><path class="cls-23" d="M115.41,306.77h0a.12.12,0,0,1-.05.05.48.48,0,0,1-.18.05h0l-.24,0h0l-.26-.08h0l-.28-.13c-.27-.16-.42-.33-.42-.46v.36c0,.13.15.31.42.46l.26.13h0l0,0,.12,0,.12,0h.41l0,0h0l0,0h0v-.06h0v-.36A.15.15,0,0,1,115.41,306.77Z"/><path class="cls-3" d="M115,306.24c.38.22.53.48.35.58a1.27,1.27,0,0,1-1-.19c-.38-.22-.53-.48-.35-.59A1.28,1.28,0,0,1,115,306.24Z"/><path class="cls-23" d="M114.11,307.52h0a.17.17,0,0,1-.06.06.44.44,0,0,1-.18,0h0a1.1,1.1,0,0,1-.25,0h0a1.21,1.21,0,0,1-.25-.08h0a1.75,1.75,0,0,1-.28-.13.91.91,0,0,1-.39-.35.26.26,0,0,1,0-.11h0v.37c0,.12.15.3.42.46a2.06,2.06,0,0,0,.26.12h0l.13,0,.12,0h0l.06,0h.26l.06,0,0,0h0l0,0,0,0h0v-.06h0v-.37A.14.14,0,0,1,114.11,307.52Z"/><path class="cls-3" d="M113.71,307c.37.22.53.48.34.59a1.29,1.29,0,0,1-1-.2c-.37-.22-.53-.48-.34-.58A1.28,1.28,0,0,1,113.71,307Z"/><polygon class="cls-24" points="108.87 309.1 108.87 309.47 108.86 308.33 108.86 307.96 108.87 309.1"/><polygon class="cls-25" points="112.04 309.8 112.03 310.16 110.08 310.16 110.08 309.8 112.04 309.8"/><path class="cls-23" d="M109.61,309.37l-.29-.14h0l-.06,0-.14-.05-.21,0h0v.37a2,2,0,0,1,.35.1l.06,0a1.66,1.66,0,0,1,.33.15,1.85,1.85,0,0,1,.27.19,1.28,1.28,0,0,1,.19.23v-.36A1.41,1.41,0,0,0,109.61,309.37Z"/><path class="cls-3" d="M109.61,309.37a2.58,2.58,0,0,0-.74-.27V308a5.25,5.25,0,0,1,2.08.63,2.27,2.27,0,0,1,1.1,1.21h-2A1.41,1.41,0,0,0,109.61,309.37Z"/><path class="cls-26" d="M106.74,309.75l.06,0a1.92,1.92,0,0,1,.25-.12l.09,0a2,2,0,0,1,.35-.1v-.37l-.29.08-.06,0-.09,0-.25.11-.06,0,0,0a.91.91,0,0,0-.16.11l-.09.07h0a1.49,1.49,0,0,0-.12.14l-.06.08v.36a1,1,0,0,1,.19-.22l.09-.07Z"/><path class="cls-3" d="M107.49,309.1a1.87,1.87,0,0,0-1.21.7h-2c.28-.94,1.54-1.67,3.15-1.83Z"/><polygon class="cls-25" points="106.28 309.8 106.28 310.16 104.33 310.16 104.33 309.8 106.28 309.8"/><path class="cls-23" d="M109.18,310.31h0l-.05.09v0l-.08.09-.07.05-.07,0a1.05,1.05,0,0,1-.31.12h0a1.32,1.32,0,0,1-.34,0h0a1.42,1.42,0,0,1-.36,0h0a1.2,1.2,0,0,1-.33-.13.57.57,0,0,1-.28-.3.45.45,0,0,1,0-.11h0v.36a.52.52,0,0,0,.3.42l.15.07.12,0h.11l.1,0h.41l.13,0h.1l.09,0a.85.85,0,0,0,.22-.09h0l0,0,.07-.05h0l.06-.07v0l0,0v0s0,0,0-.06h0s0,0,0,0v-.06h0v-.37A.43.43,0,0,1,109.18,310.31Z"/><path class="cls-3" d="M108.9,309.79a.43.43,0,0,1,0,.82,1.57,1.57,0,0,1-1.43,0,.43.43,0,0,1,0-.82A1.57,1.57,0,0,1,108.9,309.79Z"/><path class="cls-27" d="M112,310.6a1.56,1.56,0,0,1-.14.33l0,.05a1.7,1.7,0,0,1-.17.23l-.1.11-.2.19-.07.06-.33.22-.21.11-.23.11-.23.09-.25.09a6.36,6.36,0,0,1-.66.17l-.52.07h0v.37l.48-.07h0a5.62,5.62,0,0,0,.65-.16h0l.22-.09.23-.08.23-.12.2-.1,0,0a1.61,1.61,0,0,0,.3-.21l.08-.06.11-.09.09-.09.1-.12.06-.06a1,1,0,0,0,.11-.17.09.09,0,0,0,0,0h0l.11-.22,0-.09h0Z"/><polygon class="cls-24" points="108.89 312.43 108.89 312.8 108.88 311.66 108.88 311.3 108.89 312.43"/><path class="cls-3" d="M112,310.6c-.28.93-1.54,1.67-3.15,1.83V311.3a1.82,1.82,0,0,0,1.2-.7Z"/><path class="cls-3" d="M106.76,311a2.59,2.59,0,0,0,.74.28v1.13a5,5,0,0,1-2.08-.63,2.19,2.19,0,0,1-1.09-1.2h2A1.3,1.3,0,0,0,106.76,311Z"/><path class="cls-23" d="M107,312.35h-.07a3.89,3.89,0,0,1-.49-.12l-.2-.07a2.15,2.15,0,0,1-.27-.1,2.78,2.78,0,0,1-.52-.25,2.19,2.19,0,0,1-1.09-1.2V311a2.23,2.23,0,0,0,1.09,1.2,4.85,4.85,0,0,0,.51.25l0,0,.23.08.2.06,0,0,.41.1H107l.29,0,.25,0v-.37A4.51,4.51,0,0,1,107,312.35Z"/><path d="M101.12,311.49a1.67,1.67,0,0,0,1.51,0A.57.57,0,0,0,103,311a.58.58,0,0,0-.34-.46,1.64,1.64,0,0,0-1.51,0,.5.5,0,0,0,0,.94Z"/><path d="M99.82,313c.34-.2.54-.45.54-.68a.38.38,0,0,0-.22-.33,1.85,1.85,0,0,0-1.63.19l-.08.05,1.36.78Z"/><path d="M97.74,313.45a1.09,1.09,0,0,0,.53.12,2.33,2.33,0,0,0,1.11-.31l.08-.05-1.36-.78h0c-.34.2-.54.45-.54.68A.37.37,0,0,0,97.74,313.45Z"/><path d="M100.36,313.51a.87.87,0,0,0,0,1.64,2.8,2.8,0,0,0,1.37.33,2.74,2.74,0,0,0,1.36-.33,1,1,0,0,0,.58-.81,1,1,0,0,0-.59-.83A3,3,0,0,0,100.36,313.51Z"/><path d="M108.19,313.77a1.67,1.67,0,0,0-1.51,0,.57.57,0,0,0-.33.47.58.58,0,0,0,.33.47,1.54,1.54,0,0,0,.75.18,1.56,1.56,0,0,0,.76-.19.55.55,0,0,0,.33-.46A.57.57,0,0,0,108.19,313.77Z"/><path d="M105.71,315.21a1.87,1.87,0,0,0-1.64.19l-.08.05,1.36.79,0,0c.34-.2.54-.45.54-.67A.39.39,0,0,0,105.71,315.21Z"/><path d="M103.63,315.66a.9.9,0,0,0-.54.67.39.39,0,0,0,.22.34,1,1,0,0,0,.52.11,2.3,2.3,0,0,0,1.11-.31l.08,0-1.36-.79Z"/><path d="M96.23,314.27a1.34,1.34,0,0,0-1.07-.2.22.22,0,0,0-.1.18c0,.15.17.34.45.51a1.81,1.81,0,0,0,.82.24.43.43,0,0,0,.24-.05.2.2,0,0,0,.11-.17C96.68,314.62,96.51,314.43,96.23,314.27Z"/><path d="M98,315.3a1.31,1.31,0,0,0-1.07-.2.19.19,0,0,0-.1.17c0,.16.16.35.45.51a1.71,1.71,0,0,0,.81.25.58.58,0,0,0,.25,0,.2.2,0,0,0,.11-.18C98.46,315.65,98.29,315.46,98,315.3Z"/><path d="M100,316.46a1.28,1.28,0,0,0-1.06-.2.2.2,0,0,0-.11.17c0,.16.17.35.45.51a1.78,1.78,0,0,0,.82.25.58.58,0,0,0,.25-.05.21.21,0,0,0,.1-.18C100.46,316.81,100.29,316.62,100,316.46Z"/><path d="M101.79,317.48a1.27,1.27,0,0,0-1.06-.19.2.2,0,0,0-.11.17c0,.15.17.34.45.51a1.78,1.78,0,0,0,.82.25.43.43,0,0,0,.24-.06.2.2,0,0,0,.11-.17C102.24,317.83,102.07,317.64,101.79,317.48Z"/><path class="cls-23" d="M102.93,310.73h0a.2.2,0,0,1,0,.09v0l-.08.09-.07.05-.06.05a1.52,1.52,0,0,1-.32.12h0a1.34,1.34,0,0,1-.35,0h0a1.55,1.55,0,0,1-.37,0h0a1.26,1.26,0,0,1-.34-.13.62.62,0,0,1-.28-.31.5.5,0,0,1,0-.12V311a.51.51,0,0,0,.3.42l.15.07.12,0h.11l.1,0h.42l.13,0h.06l0,0,.09,0,.23-.1h0l0,0,.07-.06h0l.06-.07v0h0l0,0,0-.06h0a.06.06,0,0,1,0,0V311h0v-.36A.41.41,0,0,1,102.93,310.73Z"/><path class="cls-28" d="M100.35,311.93a.4.4,0,0,1,0,.15h0a.6.6,0,0,1-.09.15l0,0a.65.65,0,0,1-.12.11,1.09,1.09,0,0,1-.17.13l-.08.05v.37l0,0,0,0,.17-.13,0,0,.09-.1,0,0h0a.21.21,0,0,0,.06-.1l0,0v0h0a.19.19,0,0,0,0-.07s0,0,0-.06h0Z"/><polygon class="cls-29" points="99.83 312.55 99.83 312.92 98.58 312.2 98.58 311.83 99.83 312.55"/><path class="cls-23" d="M99.39,313.17v-.36A2.44,2.44,0,0,1,99,313h0l-.23.06-.12,0h-.06l-.18,0h-.21l-.16,0h0l-.14-.06a.36.36,0,0,1-.14-.13.3.3,0,0,1-.05-.16h0v.37a.32.32,0,0,0,.19.28l.08,0,.06,0h0l.06,0h.66l.23-.06h0a2.08,2.08,0,0,0,.43-.19Z"/><path class="cls-23" d="M103.63,314.13v0a.7.7,0,0,1-.09.17l0,0a.8.8,0,0,1-.15.17l-.13.1-.12.08a2.06,2.06,0,0,1-.37.16l-.14.05-.19,0-.23,0h-.06l-.32,0h0l-.31,0h0c-.1,0-.2,0-.3-.06H101l-.26-.08h0a2.44,2.44,0,0,1-.28-.14,1,1,0,0,1-.52-.57.52.52,0,0,1,0-.21h0v.37a.92.92,0,0,0,.56.77,1.13,1.13,0,0,0,.27.13h0l0,0,.17,0,.09,0h.1l.19,0h.86l.16,0h.07l.19-.05.1,0,0,0a2.09,2.09,0,0,0,.37-.17h0l.1-.07.13-.1h0l.12-.12,0,0,0,0,0-.06a.47.47,0,0,0,0-.1v0s0-.05,0-.07a.36.36,0,0,0,0-.11h0v-.37A.69.69,0,0,1,103.63,314.13Z"/><path class="cls-23" d="M108.49,313.94h0a.41.41,0,0,1,0,.09v0l-.08.09-.08.05-.06.05a1.33,1.33,0,0,1-.32.12h0a1.34,1.34,0,0,1-.35,0h0a1.58,1.58,0,0,1-.38,0h0a1.08,1.08,0,0,1-.33-.13.51.51,0,0,1-.31-.42v.36a.52.52,0,0,0,.3.43l.15.07.13,0h.1l.1,0h.42l.14,0h0l0,0,.09,0a.94.94,0,0,0,.23-.1h0l0,0,.07-.06h0l.06-.07h0v0s0,0,0,0a.14.14,0,0,0,0-.06h0s0,0,0,0a.43.43,0,0,1,0-.05h0v-.37A.43.43,0,0,1,108.49,313.94Z"/><path class="cls-28" d="M105.88,315.29h0a.6.6,0,0,1-.09.15l0,0-.11.11a.83.83,0,0,1-.18.13l-.07.06h0v.36l0,0,0,0,.18-.13,0,0a.43.43,0,0,0,.09-.1l0,0h0l.07-.09s0,0,0-.05v0h0a.19.19,0,0,0,0-.07.13.13,0,0,0,0-.06h0v-.36A.4.4,0,0,1,105.88,315.29Z"/><polygon class="cls-29" points="105.39 315.76 105.39 316.13 104.14 315.41 104.14 315.04 105.39 315.76"/><path class="cls-23" d="M105,316a2.35,2.35,0,0,1-.43.19h0l-.23.06-.12,0h-.45l-.16,0h0a.59.59,0,0,1-.14-.06.32.32,0,0,1-.19-.29v.37a.34.34,0,0,0,.19.29l.08,0h.08l.07,0h.65a1,1,0,0,0,.23-.06h0a1.82,1.82,0,0,0,.43-.19Z"/><path class="cls-23" d="M96.67,314.37a.14.14,0,0,1,0,.07h0l-.06.06-.07,0h-.24l-.11,0h0l-.13,0-.16-.06h0a1.92,1.92,0,0,1-.25-.12l-.18-.12c-.15-.12-.24-.24-.24-.34h0v.36c0,.13.15.31.42.46l.24.12h0l.17.05h0l.12,0h.4l0,0h0l0,0,0,0h0v-.05h0Z"/><path class="cls-23" d="M98.45,315.4a.19.19,0,0,1,0,.07h0l-.06,0a.11.11,0,0,1-.08,0h-.36a.31.31,0,0,1-.13,0l-.17-.05,0,0-.24-.11c-.27-.16-.42-.34-.42-.46v.36c0,.13.15.31.42.46l.24.12h0l.17.06h0l.12,0h.4l.05,0h0l0,0,0,0v0h0v-.06h0Z"/><path class="cls-23" d="M100.43,316.63h0a.1.1,0,0,1-.06.05s0,0-.07,0h0l-.09,0h-.26l-.14,0-.16-.05,0,0-.24-.11c-.27-.16-.43-.34-.43-.46v.36c0,.13.16.31.42.46.08,0,.17.08.25.12h0l.16.06h0l.12,0h.4l.05,0h0l0,0h0v0h0v-.06h0v-.36A.1.1,0,0,1,100.43,316.63Z"/><path class="cls-23" d="M102.23,317.58a.14.14,0,0,1,0,.07h0s0,0-.06,0l-.07,0h-.23l-.12,0h0l-.13,0-.16-.06h0a1.42,1.42,0,0,1-.25-.12c-.26-.15-.42-.33-.42-.46v.37c0,.12.16.3.42.46l.25.11h0l.16.05h0l.12,0h.4l.05,0h0l0,0,0,0h0V318h0Z"/><path class="cls-3" d="M102.64,310.2c.4.23.41.61,0,.84a1.63,1.63,0,0,1-1.46,0,.44.44,0,0,1,0-.84A1.55,1.55,0,0,1,102.64,310.2Z"/><path class="cls-3" d="M100.16,311.64c.35.2.2.61-.33.91l-1.25-.72A1.85,1.85,0,0,1,100.16,311.64Z"/><path class="cls-3" d="M99.4,312.81a1.85,1.85,0,0,1-1.58.19c-.35-.2-.2-.61.33-.91Z"/><path class="cls-3" d="M103.1,313.15c.74.43.75,1.12,0,1.55a2.92,2.92,0,0,1-2.67,0,.82.82,0,0,1,0-1.55A2.92,2.92,0,0,1,103.1,313.15Z"/><path class="cls-3" d="M108.2,313.41c.41.23.41.61,0,.84a1.61,1.61,0,0,1-1.45,0c-.41-.23-.41-.61,0-.84A1.61,1.61,0,0,1,108.2,313.41Z"/><path class="cls-3" d="M105.72,314.85c.35.2.2.61-.32.92l-1.25-.73A1.82,1.82,0,0,1,105.72,314.85Z"/><path class="cls-3" d="M105,316a1.81,1.81,0,0,1-1.58.19c-.34-.2-.2-.61.33-.91Z"/><path class="cls-3" d="M96.25,313.91c.37.22.52.48.34.59a1.29,1.29,0,0,1-1-.2c-.37-.22-.53-.48-.34-.58A1.28,1.28,0,0,1,96.25,313.91Z"/><path class="cls-3" d="M98,314.94c.37.22.52.48.34.58a1.28,1.28,0,0,1-1-.19c-.37-.22-.53-.48-.35-.59A1.31,1.31,0,0,1,98,314.94Z"/><path class="cls-3" d="M100,316.1c.38.21.53.48.34.58a1.25,1.25,0,0,1-1-.19c-.38-.22-.53-.48-.35-.59A1.24,1.24,0,0,1,100,316.1Z"/><path class="cls-3" d="M101.81,317.12c.37.22.53.48.34.59a1.25,1.25,0,0,1-1-.2c-.37-.21-.52-.48-.34-.58A1.28,1.28,0,0,1,101.81,317.12Z"/><ellipse class="cls-13" cx="46.2" cy="473.32" rx="46.2" ry="26.68"/><g id="Men_2"><path class="cls-30" d="M17.78,296.66c-.46,4-5.28,21.48-4.25,27.45s17.5,16,17.5,16l2.29-10.23-9.12-8.93L26.66,304Z"/><path class="cls-31" d="M30.52,279.48a7.2,7.2,0,0,0-9.17,2.77c-2.42,4-4.94,17.78-5.17,20.13,0,0,3.4,4.7,8.5,3.92Z"/><path class="cls-32" d="M49.34,473.9A14.13,14.13,0,0,0,60,472.61c2.57.08,16.51-5.89,18.4-.88,1.67,4.39-4.37,8.45-7.6,9.24-7,1.7-12.25,5.21-15.08,5.81-2.11.44-4.83.73-6.51-.92C47.19,483.87,47.37,476.52,49.34,473.9Z"/><path class="cls-33" d="M55.72,485.56c2.83-.59,8-4.1,15.08-5.81,2.7-.65,7.36-3.61,7.83-7.14.63,4-4.82,7.63-7.83,8.36-7,1.7-12.25,5.21-15.08,5.81-2.11.44-4.83.73-6.51-.92a4.2,4.2,0,0,1-.93-1.68A8.43,8.43,0,0,0,55.72,485.56Z"/><path class="cls-32" d="M26.73,463.75a14.13,14.13,0,0,0,10.66-1.29c2.57.08,16.51-5.89,18.4-.88,1.67,4.39-4.37,8.45-7.6,9.23-7,1.71-12.25,5.22-15.08,5.82-2.11.44-4.83.73-6.51-.92C24.58,473.72,24.76,466.37,26.73,463.75Z"/><path class="cls-33" d="M33.11,475.41c2.83-.6,8-4.11,15.08-5.81,2.7-.66,7.36-3.62,7.83-7.14.63,4-4.82,7.62-7.83,8.35-7,1.71-12.25,5.22-15.08,5.82-2.11.44-4.83.73-6.51-.92a4.17,4.17,0,0,1-.93-1.69C28.12,476.06,31,475.85,33.11,475.41Z"/><path class="cls-34" d="M26.45,425.87a84.86,84.86,0,0,1,3.22-15.27s-1-13.17-1.44-25.67c-.55-14.17-5.46-26.65-1.58-38l43.74,9.72s-2.65,56.52-3.23,63.37a129.22,129.22,0,0,1-2,15.86C63.2,446.9,60,473,60,473c-4.62,2.68-10.69,1.2-10.69,1.2s.33-33,.63-40.92c.36-9.65.66-8.91.66-8.91L49.1,400.32l-1-12s-1.21,8.78-2,16.62c-.68,6.84-2.33,13-4.18,25.75-1.6,11-4.19,33.23-4.19,33.23-4.63,2.69-10.91.45-10.91.45S25.2,435.45,26.45,425.87Z"/><path class="cls-30" d="M32.84,279.72c3.33.16,5.81,1,6.23,0a46.2,46.2,0,0,0,.76-5.2c-.39-1-.72-2-.72-2-4.18-2.57-5.5-7.09-6-12.36-.94-9,3.92-16.87,12.92-17.82,8.46-.88,14.68,5.07,16.35,13.23.89,4,2.67,11.65.26,18.28-1.34,3.71-3.08,6.65-4.81,7.22a42,42,0,0,1-5-.44h0s-.45,2.5-.76,4.1-.19,2.45,3,4.42-4.83,6-10.07,5.61-11.14-3.56-12.76-7C30.4,284.06,30.55,279.61,32.84,279.72Z"/><path class="cls-35" d="M37.66,280.21c-.92,2.3,1.42,5.12,7.68,7.08s6.82-.56,6.82-.56,9.17,4.18,12.16,6.26c3.75,2.63,5.42,10.22,5.92,23.05.59,14.84.64,36.86.15,40.65,0,0-7,7-16,6.26s-24.09-8.68-27.76-14.82c.1-13,1.62-15.13-.48-22.63-4.82-17.16-7.36-24.18-5-35.59,1.93-9.4,4.64-10.56,8.35-10.47A77,77,0,0,1,37.66,280.21Z"/><path class="cls-30" d="M84.36,328.31c-7.37,1.86-9.1-2.79-10.07-6.64-2.34-9.31-3.61-17.73-5.35-23-2.06-6.23-4.22-7.23-7.25-8.44-3.56-1.43-6.62,1.58-5.43,9.52,1.4,9.38,3.24,16,6.75,27.09.92,2.9,3,8.06,6.05,10.55,5.23,4.22,14.35,2.2,20.12.41,8-2.48,16-9,21.85-14.74a9.53,9.53,0,0,0,1.63-1.67,12.32,12.32,0,0,1,.73-1.34c.29-.34.72-.62.77-1.07,0-.16,0-.33,0-.5.06-.37.45-.58.65-.9a1.8,1.8,0,0,0,.19-1,.88.88,0,0,1,0-.4,1.2,1.2,0,0,1,.26-.29,2.58,2.58,0,0,0,.78-1.33c0-.07.16-1.28-.2-1.08,0,0-1.15.65-1.51.8l-5,2.13-2.44,1c-.47.21-1.53.4-1.75.92.19-.85.38-1.71.58-2.56.16-.67.51-1.25.71-1.91.57-1.94,0-4.19-1.13-4.43s-.91-.17-1.81,1.74-2.29,3.3-3.35,6.08a12.44,12.44,0,0,1-3,5.22C95.38,324.41,91.37,326.54,84.36,328.31Z"/><path class="cls-31" d="M59,288.93c4.92-.72,8.4,1.49,10.57,8.95s3.7,13.58,3.7,13.58A13.39,13.39,0,0,1,65,316.93c-5.89,1.43-8-1.38-8-1.38s-1.64-7.82-2.65-13.14S52.87,289.83,59,288.93Z"/><path class="cls-32" d="M62,254.4s7.78-11.82-9.07-14.23c-12.15-1.73-20,6.07-20.86,14.54-.87,8.1,4.12,16.5,7.72,19.84,1.75.62,5.54,1,10.5-1.27a60.47,60.47,0,0,0,.23-6.63S44.64,254.19,62,254.4Z"/></g></g></g></svg>